          <svg xmlns="http://www.w3.org/2000/svg" version="1.1" id="forestSeven" class="w-full absolute bottom-0 mt-20 z-[45]" viewBox="49.431 -1.598 3651.22 1467.35">
            <g id="g8" transform="matrix(1.3333333,0,0,-1.3333333,0,2403.3067)">
              <g id="g10" transform="scale(0.1)">
                <path class="forest-7" style="fill: rgb(11, 35, 25); fill-opacity: 1; fill-rule: nonzero; stroke: none;" id="path60"
                d="M 24979 10072.6 C 24495.3 9938.53 24011 9804.58 23534.3 9666.21 C 23514.4 9663.75 23494.9 9661.37 23475.2 9658.99 C 23401 9634.02 23326.4 9608.68 23251.7 9583.13 C 22797 9448.38 22350.6 9308.64 21921.1 9158.94 C 21554 9031.12 21210.5 8893.84 20870.8 8754.82 C 20871 8754.9 20871.1 8754.9 20871.2 8754.96 C 20532.5 8616.24 20197.5 8475.71 19846.8 8340.95 C 19361.9 8165.56 18881.3 8021.21 18401 7903.34 C 18288.8 7882.77 18174.9 7864.29 18057.5 7851.31 C 18063.5 7850.8 18070.6 7850.44 18079.9 7851.23 C 18142.5 7855.49 18204 7862.49 18264.9 7870.58 C 17958.9 7798.69 17652.6 7738.2 17345.4 7687.54 C 16778.7 7594.07 16208.1 7534.44 15626.8 7505.79 C 15220.4 7485.72 14808.5 7480.74 14389.3 7488.47 C 14051.5 7494.67 13708.6 7509.4 13359.7 7531.78 C 13236.6 7553.43 13113.3 7574.87 12986.5 7591.25 C 12918.1 7600.12 12849 7607.49 12779.7 7614.35 C 12621.8 7650.86 12460.7 7682.19 12296.8 7709.11 C 12175.4 7729.03 12052.8 7747.01 11929 7762.89 C 11560.5 7810.09 11183.6 7842.28 10808.4 7872.52 C 10324.6 7911.5 9849.85 7954.88 9382.61 8018.11 C 9115.79 8061.34 8844.5 8106.52 8568.34 8153.59 C 8482.3 8170.77 8396.66 8188.45 8311.59 8206.85 C 8483.35 8222.29 8655.69 8235.79 8828.75 8247.2 C 8375.56 8318.51 7916.43 8386.21 7457.38 8439.12 C 7090.63 8481.2 6728.68 8523.42 6374.51 8579.79 C 6339.2 8585.42 6303.97 8591.2 6268.74 8597.11 C 6229.86 8603.68 6191.22 8610.54 6152.58 8617.47 C 6123.11 8622.74 6093.73 8628.01 6064.34 8633.56 C 6019.13 8642.15 5974.16 8651.24 5929.18 8660.49 C 5905.64 8665.32 5882.02 8669.94 5858.56 8674.92 C 5790.21 8689.58 5722.11 8704.94 5654.41 8721.48 C 5111.75 8853.78 4588.17 9006.14 4025.55 9116.87 C 3726.83 9175.62 3423.39 9227.15 3129.79 9292.69 C 2864.58 9351.66 2621.22 9434.16 2353.34 9490.75 C 2075.08 9549.5 1795.59 9598.15 1510.42 9634.45 C 1364.55 9653.08 1217.06 9668.38 1067.62 9680.14 C 922.883 9691.54 776.113 9699.7 626.914 9704.18 C 300.188 9714.07 -32.059 9709.16 -359.2 9706.78 L -359.2 9407.67 L -359.2 8891.68 L -359.2 8120.39 L -359.2 7127.36 L -359.2 6842.55 L -359.2 6402.63 L -359.2 5922.14 L -359.2 5102.93 L -359.2 5046.27 L 8642.87 5046.27 L 9082.02 5046.27 L 9527.75 5046.27 L 9701.88 5046.27 L 9866.17 5046.27 L 14974 5046.27 L 22451.9 5046.27 C 22508.1 5052.04 22561.5 5059.62 22612.7 5068.35 L 28098.6 5060.05 L 28098.6 5166.37 L 28098.6 6781.49 L 28098.6 6844.57 L 28098.6 6914.3 L 28098.6 7202.14 L 28098.6 7338.49 L 28098.6 8076.72 L 28098.6 8312.88 L 28098.6 8464.24 L 28098.6 8732.81 L 28098.6 8862.01 L 28098.6 9991.8 L 28098.6 10196.9 L 28098.6 10229.3 L 28098.6 10546.7 L 28098.6 10716.5 C 27020 10538.8 25949.9 10341.6 24979 10072.6" 
                />
              </g>
            </g>
          </svg>