          <svg xmlns="http://www.w3.org/2000/svg" version="1.1" viewBox="49.431 -1.598 3651.22 1467.35" id="forestFive" class="w-full absolute bottom-0 mt-20 z-[42]">
            <g id="g8" transform="matrix(1.3333333,0,0,-1.3333333,0,2403.3067)">
              <g id="g10" transform="scale(0.1)">
                <path class="forest-5" style="fill: rgb(17, 45, 34); fill-opacity: 1; fill-rule: nonzero; stroke: none;" id="path56"
                d="M 22129.8 9498.4 C 21815.4 9477.17 21507.8 9441.15 21191.3 9427.15 C 21127.5 9424.41 21063.5 9422.25 20999.6 9420.16 C 20840.5 9407.23 20682 9395.83 20526.8 9383.2 C 19889.4 9331.6 19249.3 9290.95 18610.1 9246.78 C 17960.9 9201.89 17314.5 9142.27 16663 9106.33 C 16402.9 9092.04 16141.2 9073.63 15879.4 9069.95 C 15653.4 9066.85 15419.3 9071.75 15209.8 9120.25 C 15195 9123.72 15198.7 9134.33 15209.8 9138.37 C 15325.4 9178.86 15442.4 9218.71 15560 9257.61 C 15430.8 9236.97 15300.9 9218.71 15170.6 9202.18 C 14911.8 9138.67 14625.7 9125.09 14332.2 9126.9 C 13986.5 9108.13 13637.2 9103.65 13285.5 9114.12 C 13182.3 9117.15 13079.1 9121.41 12976.1 9126.4 C 11848.1 9066.63 10719.2 8910.44 9584.66 9007.74 C 8984.45 9059.34 8466.8 9207.16 7917.89 9333.62 C 7738.98 9374.75 7556.66 9407.67 7371.75 9434.38 C 7367.69 9435.24 7363.79 9436.1 7359.65 9436.83 C 7350.64 9438.13 7341.39 9438.99 7332.37 9440.22 C 7245.84 9452.28 7158.82 9463.25 7071.15 9472.34 C 7069.78 9472.55 7068.39 9472.7 7067.01 9472.84 C 6978.05 9482.08 6888.43 9489.44 6798.33 9495.65 C 6772.68 9497.53 6746.78 9498.98 6720.97 9500.49 C 6654.73 9504.6 6588.08 9507.85 6521.27 9510.45 C 6493.75 9511.53 6466.24 9512.69 6438.64 9513.48 C 6348.61 9516.15 6258.27 9518.02 6167.27 9518.1 C 6151.52 9518.1 6145.52 9525.68 6148.93 9531.74 C 5624.05 9557.44 5100.22 9588.62 4576.24 9618.72 C 3926.35 9656.1 3279.31 9698.19 2624.23 9681.58 C 2497.92 9678.41 2371.53 9674.51 2245.14 9670.25 C 2186.45 9668.16 2127.92 9665.63 2069.32 9663.39 C 2021.09 9661.45 1972.96 9659.21 1924.74 9657.04 C 1786.34 9650.83 1648.26 9643.18 1510.42 9634.45 C 1795.59 9598.15 2075.08 9549.5 2353.34 9490.75 C 2621.22 9434.16 2864.58 9351.66 3129.79 9292.69 C 3423.39 9227.15 3726.83 9175.62 4025.55 9116.87 C 4588.17 9006.14 5111.75 8853.78 5654.41 8721.48 C 5722.11 8704.94 5790.21 8689.58 5858.56 8674.92 C 5882.02 8669.94 5905.64 8665.32 5929.18 8660.49 C 5974.16 8651.24 6019.13 8642.15 6064.34 8633.56 C 6093.73 8628.01 6123.11 8622.74 6152.58 8617.47 C 6191.22 8610.54 6229.86 8603.68 6268.74 8597.11 C 6303.97 8591.2 6339.2 8585.42 6374.51 8579.79 C 6728.68 8523.42 7090.63 8481.2 7457.38 8439.12 C 7395.04 8446.19 7332.94 8453.26 7270.84 8460.49 C 7611.7 8369.39 7957.34 8283.43 8311.59 8206.85 C 8396.66 8188.45 8482.3 8170.77 8568.34 8153.59 C 8844.5 8106.52 9115.79 8061.34 9382.61 8018.11 C 9849.85 7954.88 10324.6 7911.5 10808.4 7872.52 C 11183.6 7842.28 11560.5 7810.09 11929 7762.89 C 12052.8 7747.01 12175.4 7729.03 12296.8 7709.11 C 12460.7 7682.19 12621.8 7650.86 12779.7 7614.35 C 12849 7607.49 12918.1 7600.12 12986.5 7591.25 C 13113.3 7574.87 13236.6 7553.43 13359.7 7531.78 C 13708.6 7509.4 14051.5 7494.67 14389.3 7488.47 C 14808.5 7480.74 15220.4 7485.72 15626.8 7505.79 C 16208.1 7534.44 16778.7 7594.07 17345.4 7687.54 C 17652.6 7738.2 17958.9 7798.69 18264.9 7870.58 C 18204 7862.49 18142.5 7855.49 18079.9 7851.23 C 18070.6 7850.44 18063.5 7850.8 18057.5 7851.31 C 18174.9 7864.29 18288.8 7882.77 18401 7903.34 C 18881.3 8021.21 19361.9 8165.56 19846.8 8340.95 C 20197.5 8475.71 20532.5 8616.24 20871.2 8754.96 C 20871.1 8754.9 20871 8754.9 20870.8 8754.82 C 21210.5 8893.84 21554 9031.12 21921.1 9158.94 C 22350.6 9308.64 22797 9448.38 23251.7 9583.13 C 23326.4 9608.68 23401 9634.02 23475.2 9658.99 C 22722.7 9566.68 22191 9502.5 22129.8 9498.4" 
                />
              </g>
            </g>
          </svg>