<?xml version="1.0" encoding="utf-8"?>
<svg xmlns="http://www.w3.org/2000/svg" viewBox="-197.283 -629.921 543.796 290.451">
  <defs>
    <radialGradient gradientUnits="userSpaceOnUse" cx="216.955" cy="306.161" r="105.197" id="gradient-0" gradientTransform="matrix(0.81304, -0.432685, 0.290482, 0.545831, -207.170441, -451.876915)">
      <stop offset="0" style="stop-color: rgb(97.647% 89.02% 67.451%)"/>
      <stop offset="1" style="stop-color: rgb(186, 154, 63);"/>
    </radialGradient>
    <linearGradient gradientUnits="userSpaceOnUse" x1="243.556" y1="67.691" x2="243.556" y2="443.312" id="gradient-2" gradientTransform="matrix(0.999541, -0.030315, 0.017227, 0.568006, -210.622772, -467.490685)">
      <stop offset="0" style="stop-color: rgb(186, 240, 255); stop-opacity: 0.49;"/>
      <stop offset="1" style="stop-color: rgb(34.322% 54.777% 60.186%)"/>
    </linearGradient>
  </defs>
  <path style="fill: rgb(252, 253, 254); transform-origin: 82.094px -397.766px;" d="M -35.017 -411.997 C -621.53 -367.942 754.353 -362.73 194.848 -405.56"/>
  <ellipse style="fill: rgb(143, 103, 0); transform-origin: 296.721px 265.622px;" cx="296.744" cy="265.671" rx="30.777" ry="18.83" transform="matrix(0.751063, 0.66023, 0.224282, 1.528603, -164.339521, -687.523252)"/>
  <path d="M 133.609 -422.2 C 131.606 -426.74 130.747 -430.14 130.535 -431.62 C 131.105 -433.09 131.112 -434.88 130.439 -436.41 C 129.387 -438.79 127.065 -439.59 125.253 -438.21 C 120.627 -434.67 123.675 -424.83 127.053 -417.2 C 128.672 -413.54 130.49 -410.27 132.176 -407.98 C 134.165 -405.27 136.043 -403.92 137.787 -403.92 C 138.576 -403.92 139.339 -404.19 140.069 -404.75 C 141.88 -406.14 142.491 -409.19 141.439 -411.57 C 140.765 -413.09 139.569 -413.97 138.32 -414.04 C 137.439 -415.01 135.617 -417.68 133.609 -422.2 Z" style="fill: rgb(64, 49, 31); transform-origin: 132.406px -421.407px;" transform="matrix(0.992265, -0.124135, 0.124135, 0.992265, 0, 0)"/>
  <path d="M 130.67 -457.74 C 119.21 -467.03 111.878 -465.17 108.541 -463.22 C 108.424 -463.15 108.292 -463.04 108.17 -462.97 C 108.148 -462.95 108.122 -462.95 108.101 -462.94 L 107.71 -462.65 C 107.514 -462.51 107.328 -462.39 107.126 -462.23 L 35.077 -410.19 C 35.077 -410.19 20.329 -403.64 3.884 -396.335 C -16.795 -387.148 161.906 -385.782 162.797 -389.892 C 165.157 -400.792 159.769 -417.785 151.102 -432.7 C 145.084 -443.05 137.83 -451.94 130.67 -457.74 Z M 151.297 -389.8 L 151.128 -389.72 C 148.203 -388.4 135.172 -395.83 123.178 -416.46 C 117.792 -425.73 114.114 -435.16 112.815 -443.01 C 111.728 -449.6 112.744 -453.08 113.716 -453.92 L 113.934 -454.08 C 114.125 -454.17 114.385 -454.24 114.739 -454.24 C 116.353 -454.24 119.582 -453.09 124.001 -449.51 C 130.183 -444.5 136.553 -436.64 141.943 -427.37 C 154.015 -406.61 153.976 -391.53 151.297 -389.8 Z" style="fill: url(&quot;#gradient-0&quot;);"/>
  <path style="fill: rgb(212, 156, 75); transform-origin: 215.234px -566.063px;" d="M 199.288 -550.43 L 194.032 -609.64 C 208.325 -613.63 225.27 -614.21 239.369 -608.95 C 239.621 -594.52 239.719 -546.89 238.861 -543.55 C 236.446 -534.14 202.593 -541.58 199.288 -550.43 Z" transform="matrix(0.736015, 0.676965, -0.676965, 0.736015, 0, 0)"/>
  <path d="M 259.02 -570.19 L 217.849 -606.03 C 211.868 -611.21 202.772 -610.58 197.578 -604.59 L 187.225 -592.66 C 182.031 -586.68 182.672 -577.58 188.653 -572.39 L 188.76 -572.34 L 144.859 -521.78 C 110.081 -536.65 68.169 -528.29 42.062 -498.22 L -43.907 -399.187 C -44.334 -393.638 181.745 -381.511 182.188 -387.264 C 185.915 -391.558 184.154 -389.765 186.919 -394.507 C 203.518 -422.967 202.878 -458.28 186.06 -486.01 L 229.961 -536.58 L 229.829 -536.57 C 232.458 -534.29 235.758 -533.06 239.22 -533.06 C 239.561 -533.06 239.908 -533.07 240.26 -533.1 C 244.093 -533.37 247.591 -535.11 250.095 -538 L 260.453 -549.93 C 265.648 -555.91 265.006 -565 259.02 -570.19 Z" style="stroke: rgb(208, 245, 255); fill: url(&quot;#gradient-2&quot;);"/>
  <ellipse style="fill: rgb(236, 193, 125); transform-origin: 405.677px 74.74px;" cx="405.674" cy="74.795" rx="22.744" ry="3.446" transform="matrix(0.718882, 0.695132, -0.655265, 0.757432, -160.033214, -671.751849)"/>
  <path style="stroke-linecap: round; fill: rgb(246, 254, 255); stroke: rgb(232, 249, 255); stroke-linejoin: round;" d="M 192.923 -404.28 C 193.588 -404.285 193.173 -404.315 193.944 -404.291 C 221.52 -403.409 312.21 -390.273 169.744 -383.534 C 20.747 -376.486 -208.994 -401.985 -35.498 -410.588 C -37.463 -407.775 -35.716 -410.786 -34.89 -411.015 C -34.484 -411.127 -36.754 -409.055 -37.117 -408.541 C -42.935 -400.303 181.963 -374.965 191.666 -401.574 C 191.99 -402.463 192.639 -403.886 192.923 -404.28 Z"/>
</svg>