          <svg xmlns="http://www.w3.org/2000/svg" version="1.1" viewBox="161.433 320.634 3537.167 2043.308">
            <g id="g8" transform="matrix(1.3333333,0,0,-1.3333333,0,2403.3067)">
              <g id="g10" transform="scale(0.1)">
                <path style="fill:#a4e7b2;fill-opacity:1;fill-rule:nonzero;stroke:none" id="path20"
                d="m 10797,18101.6 c 0.2,-0.2 0.3,-0.5 0.6,-0.7 76.7,-82.7 190.5,-80.7 296.3,-58.1 -13.4,-14.4 -25.4,-29.8 -35.8,-45.9 -67.4,22.6 -134.8,28.6 -189.7,-31.4 -34.3,-37.4 -46.6,-84.3 -43.7,-133.8 -9.4,-3.9 -18.1,-8.9 -26.2,-14.5 -7.5,59.5 -14.9,119 -21.8,177.4 -3.9,32.9 -7.3,64.8 -11,97.2 10.4,3.1 21,6.3 31.3,9.8 z m -661,-217.9 c 7.9,-13.1 16.2,-25.2 24.8,-35.4 6.4,-7.6 12.8,-13.8 19.2,-20.2 -26.5,-4.4 -53.2,-6.3 -79.9,-4 -1.5,0.1 -3,0.6 -4.6,0.7 13.6,19.6 28.1,38.5 40.5,58.9 z m 921.4,-1428 c -2.3,-5.8 -4.6,-11.5 -7,-17.3 -3.2,-7.8 -6.2,-16.8 -8.9,-26.4 -2.7,11 -5.3,21.9 -7.9,32.9 7.9,3.7 16,6.9 23.8,10.8 z m -1923.1,1397.6 c 18.1,98 34.17,195.5 48.05,292.5 2.68,2.8 5.44,5.6 8.12,8.3 1.62,-20.4 6.09,-41.5 13.88,-62.7 14.78,-40.2 49.6,-65 89.94,-78.3 -16.96,-19.6 -34.5,-39.5 -53.49,-59.4 -33.2,-34.7 -69,-68.8 -106.5,-100.4 z m -2523.81,1712.5 c 17.04,-59.4 43.02,-109.1 79.95,-136.5 57.72,-42.9 133.13,13.9 180.45,62.9 -3.48,-36 -6.57,-72.2 -8.84,-108.4 -7.06,-111.7 25.89,-262.1 163,-271.4 116.64,-8 221.28,70.3 304.16,151.9 20.62,-21.1 45.54,-37.9 76.3,-46.3 17.7,-153.9 36.78,-310.2 58.21,-469.2 3,-22.2 6.49,-44.8 9.58,-67 -33.53,39.4 -79.64,70.7 -136.14,90.5 -0.32,-0.5 -1.05,-0.8 -1.21,-1.3 -17.7,-42 33.2,-98.9 58.04,-130.2 8.6,-10.8 20.94,-23.3 35.15,-35 14.04,-4 28.73,-6.3 43.02,-9.5 -10.71,-16.5 -21.27,-33.1 -31.58,-49.9 -4.14,-6.6 -8.28,-13.3 -12.34,-20 -19.64,-32.3 -38.64,-65 -57.31,-98.1 -5.11,-9 -10.23,-18.2 -15.26,-27.3 -16.88,-30.3 -33.6,-60.8 -50.16,-91.6 -46.03,-85.5 -91.65,-172.2 -140.6,-259 -2.76,-4.9 -5.6,-9.8 -8.44,-14.7 0,0.1 0,0.1 0,0.1 -7.95,-14.2 -15.99,-28.4 -24.35,-42.7 -0.57,-1 -119.17,194.9 -131.18,221.2 -44,95.8 -88.56,191.1 -133.7,286.4 -91.97,194.8 -182.56,391.8 -232.48,602.3 -28.74,121.2 -51.79,243.4 -72.73,366 18.1,31 34.49,63.1 48.46,96.8 z m -2409.68,-226 c -10.47,21.9 -28.33,43.6 -39.62,58.5 -7.22,9.5 -17.77,20.8 -30.6,31.6 -17.62,5.8 -36.28,10.3 -54.55,15.1 -1.87,71.6 -4.06,141.8 -6.57,210.1 29.14,-11.3 53.73,-32 59.66,-65.2 9.09,-51 -13.23,-99.9 -43.02,-142.6 91.24,38.9 205.29,7.5 281.02,-57.3 8.45,-7.4 0.74,-18.5 -8.03,-19.6 -53.01,-5.9 -106.67,-15.5 -158.29,-30.6 z m -123.07,32.5 c 16.4,-20 37.02,-38.2 62.1,-54 -20.94,-8.6 -40.99,-18.6 -60.55,-29.8 -0.49,28.2 -0.97,56.1 -1.55,83.8 z m -257.56,121.1 c 4.3,24.8 12.33,48.5 23.62,70.1 39.86,-8.5 84.5,-4.1 118.76,12.6 3.33,-99.3 5.84,-201.8 7.46,-307.4 -69.97,84.3 -141.81,167 -214.46,249 2.68,0.3 4.87,1.6 7.63,1.6 26.14,0.6 44.41,-9.9 56.99,-25.9 z m 139.7,159.6 c -4.79,0.9 -9.74,1.6 -14.77,1.9 4.54,1.7 9.74,2.3 14.61,3.6 0.08,-1.8 0.08,-3.7 0.16,-5.5 z m -478.37,-323.3 c 3.9,-24.4 7.31,-48.3 11.53,-73 7.63,-45.4 16.56,-91.8 25.33,-138 -75.17,-13.8 -171.28,23.9 -160.73,103.3 7.88,59.1 63.73,97.9 123.87,107.7 z m 246.21,-174 c -35.8,-1.1 -72,-11.7 -99.19,-30.6 -9.67,50.3 -19.16,100.4 -27.52,149.9 -7.23,42.9 -13.56,85.1 -20.05,127.3 39.69,-49.9 79.22,-100.4 119.16,-152.7 19.24,-25.1 39.05,-50 58.93,-74.7 -12.82,-4.3 -23.05,-11 -31.33,-19.2 z m 26.54,-0.8 c 2.11,6 3.9,12.2 6.34,18.1 5.92,-7.4 11.69,-15.1 17.77,-22.5 -7.71,2.2 -15.83,3.5 -24.11,4.4 z m 95.54,-173.2 c -16.8,-50.3 -29.7,-102.1 -40.5,-153.8 -8.68,-4.2 -17.13,-8.6 -24.43,-13.9 -55.85,77.1 -67.46,168.5 -52.44,257.8 28,11.2 55.6,25.2 77.03,41.3 13.15,-15.8 26.3,-31.7 39.62,-47.5 -19.73,-26.8 -32.39,-56.1 -37.26,-86.3 13.47,-0.4 26.05,0.6 37.98,2.4 z m -195.71,18.8 c -3.49,16.4 -7.3,32.8 -10.63,49.1 12.58,-0.1 25.65,1.5 39.04,5 -2.43,-7.5 -5.11,-14.9 -8.12,-22 -4.54,-10.6 -11.6,-22.1 -20.29,-32.1 z m 2522.27,559.2 c -0.73,0.8 -1.38,1.5 -2.11,2.2 1.14,1.3 2.44,2.4 3.57,3.5 -0.56,-1.8 -0.97,-3.8 -1.46,-5.7 z m 1415.29,1017.7 c -68.03,-9 -134.1,-20.4 -198.72,-38 -1.54,21.3 -3.16,42.6 -4.71,63.6 32.07,11.2 62.02,26 83.29,51.2 6.65,7.9 11.85,16.3 17.37,24.7 47,-15.1 87.1,-42 112.67,-84.3 4.95,-8.2 -1.7,-16.2 -9.9,-17.2 z M 7382.3,20683 c -0.24,3.6 -0.49,7 -0.73,10.7 1.38,0 2.76,0.1 4.06,0.1 -1.06,-3.6 -2.44,-7.1 -3.33,-10.8 z m 160.64,-288 c -47.81,10 -94.57,18.1 -140.51,20.1 -2.6,33.4 -5.19,66.4 -7.63,99.3 68.83,-11.2 132.64,-42.9 161.05,-102.6 4.38,-9.2 -2.68,-18.9 -12.91,-16.8 z m 249.37,-1427.1 c -36.28,-30.5 -69.89,-62.3 -101.71,-94.8 -2.27,-2.2 -4.63,-4.4 -6.74,-6.6 -30.19,-31.2 -58.36,-63.4 -85.23,-96.2 -3.25,-4 -6.66,-7.8 -9.82,-11.8 -4.55,-5.6 -8.93,-11.2 -13.39,-16.9 -1.06,7.3 -2.2,14.7 -3.17,21.9 -9.66,71.8 -18.67,142.7 -27.52,213.5 31.41,12.8 60.48,29 80.45,55.3 37.09,48.8 53.49,105.6 54.3,162.5 -83.93,-6.7 -130.86,-67.5 -144.66,-137.6 -10.22,84.3 -20.04,167.7 -29.3,250.4 2.19,-0.9 3.82,-2.1 6.01,-2.8 102.52,-34 203.91,33.4 286.22,88 46.68,31.1 93.11,63.1 136.86,98.3 -2.84,-34.3 6.9,-66.8 42.54,-94.4 58.69,-45.3 167.46,2.5 223.64,28.1 11.69,5.3 22.48,12 33.93,17.7 -115.43,-182.9 -263.17,-323.7 -442.41,-474.6 z m 1360.09,-46.5 c -0.16,-2.7 -0.32,-5.4 -0.49,-8.1 -5.68,0.5 -11.36,1.4 -16.88,1.5 6.01,1.8 11.77,4 17.37,6.6 z m 313.9,214.8 c 2.11,-0.1 4.14,-0.7 6.25,-0.6 -1.13,-3.2 -2.84,-6 -4.22,-9.1 -0.73,3.3 -1.29,6.5 -2.03,9.7 z m -191.41,0.2 c 7.55,-11.4 15.67,-22.4 23.22,-31.6 13.07,-15.8 44.57,-43.2 73.06,-49.4 3.73,-17.3 6.9,-34.4 10.71,-51.7 0.57,-2.4 1.22,-4.8 1.7,-7.1 -9.98,8.3 -20.37,16.1 -29.86,22.4 -16.73,11 -54.15,28 -83.29,26.2 1.78,30.7 2.92,60.7 4.46,91.2 z m 164.54,129.6 c 10.32,-8.6 19,-18.5 25.25,-30 -5.93,-3.4 -11.45,-7.3 -16.64,-11.5 -2.76,13.8 -5.93,27.7 -8.61,41.5 z m -157.48,17.2 c 13.32,3.8 27.28,6.2 41.32,7.6 3.98,-20.8 7.96,-41.6 12.1,-62.3 -14.61,16.5 -32.47,30.2 -54.07,40.1 0.17,4.8 0.49,9.8 0.65,14.6 z m -385.49,-346.3 c -7.15,-2.6 -11.69,6.1 -9.01,11.7 23.29,48.1 66.15,104.7 117.46,126.7 -41.32,15.3 -74.77,40.1 -52.69,79.6 13.97,24.9 44.73,27.4 73.71,18.5 0.16,4.6 0.89,9.3 2.76,14.3 10.55,29.2 44.81,48.7 72,59 24.44,9.4 48.95,12.1 70.3,9 -3.33,-78.8 -7.39,-158.6 -12.18,-239.3 -18.34,6.1 -38.23,7.7 -60.64,5.1 -42.53,-5 -92.94,-14.4 -127.85,-36.4 -8.92,-5.6 0.49,-19.2 4.55,-24.4 24.84,-32.5 66.16,-49.6 107.72,-51.7 -63.72,-14.5 -121.52,-54.5 -166.81,-107.7 -3.66,-4.3 -12.1,-2.2 -13.15,3.5 -11.37,58.9 17.29,115.6 55.52,160.7 -20.22,-10.4 -40.43,-20.7 -61.69,-28.6 z m 471.7,-182.9 c -0.08,-10.2 -15.34,-10.1 -15.91,0 -3.65,72.2 -39.04,130.2 -89.94,169 1.14,18.4 2.52,36.7 3.65,54.9 26.06,-34.6 57.64,-71.9 100.66,-92 6.01,-42.2 1.95,-88 1.54,-131.9 z M 6698.4,20489.4 c -6.25,6.6 -3.09,16 4.95,19 44.57,16.5 109.51,5.7 157.56,-23.8 -43.43,41.4 -104.71,65.9 -141.49,115.6 -4.38,6 0.16,15.1 6.82,16.8 79.39,19.4 188.41,-0.5 238.09,-71 16.64,57.4 57.14,102.4 116,122.3 7.55,2.6 13.8,-4 14.45,-10.9 2.1,-23.9 -1.14,-46.2 -6.17,-68.5 45.94,40.7 112.91,72.9 184.18,90.5 0.41,-5 0.74,-9.8 1.06,-14.7 6.09,-84.4 12.66,-171.5 19.48,-260 -21.59,-5.7 -43.11,-14.5 -64.53,-25.7 -17.95,11.8 -37.42,22.4 -58.78,31.1 -0.24,-0.4 -1.05,-0.6 -1.21,-1.1 -9.09,-18.4 -3.98,-40.7 6.09,-62.6 -83.62,-57.5 -154.07,-135.6 -183.38,-234.7 -2.27,-7.9 -13.07,-11.5 -18.99,-5 -61.45,66.6 -83.05,182.2 -20.86,250.5 -57.31,-10.5 -101.15,-50.3 -126.88,-105.4 -3.74,-8.1 -15.59,-6.7 -19.73,0 -68.02,112.9 -197.98,54.8 -304.16,63 -9.42,0.6 -13.4,9 -9.9,17.1 42.21,99 152.36,143 250.83,118.8 -15.1,12.1 -30.12,24.4 -43.43,38.7 z M 4910.11,18739.3 c -33.44,1.8 -65.83,0.4 -92.94,-11.2 -20.13,-8.8 -37.02,-19.7 -52.2,-31.8 -54.95,21.2 -108.77,45.1 -161.86,70.8 -25.41,134.1 -100.66,261.8 -184.02,364.9 -10.15,12.5 -20.87,25.4 -31.82,38.3 15.66,2.8 30.68,6.2 44.64,10.8 20.54,6.7 42.38,22.9 62.34,44.2 6.25,-6.7 12.83,-13.3 19.81,-20.1 64.46,-61.7 180.94,-30.6 249.21,5.2 59.34,31.1 120.95,76 175.33,129.8 0.9,-6.6 1.87,-13.3 3.09,-19.7 4.47,-24.7 11.77,-48.8 20.62,-72.1 -1.22,0 -2.27,0.3 -3.49,0.3 -42.62,1.4 -93.27,-0.1 -129.47,-13.2 -9.26,-3.5 -0.9,-15.4 2.67,-20 34.83,-46 113.97,-68 172.91,-54 -11.37,-62 -23.14,-124 -36.7,-185.9 -17.2,-79.2 -36.69,-158 -58.12,-236.3 z m -25.89,-85.7 c -3.41,1.1 -6.66,2.3 -9.99,3.4 5.93,5.2 11.13,11.1 16.16,17.1 -2.03,-6.8 -4.14,-13.7 -6.17,-20.5 z m 1535.83,-451.8 c -2.27,2.1 -4.87,3.9 -7.14,6 -31.9,28.5 -64.62,55.9 -98.55,82.1 -125.34,38.7 -249.61,84.8 -369.51,140 -330.79,58.8 -652.97,104.1 -954.29,191 31.41,104.8 57.88,210.2 81.09,315.7 19.4,-40.8 52.85,-79.8 99.36,-114.3 0.41,0.3 1.14,0.2 1.54,0.6 30.36,26.6 0.16,87.8 -13.63,119.8 -4.63,11.1 -12.26,24.7 -22.33,38.3 -15.99,9.9 -33.36,18.6 -50.25,27.6 6.09,29.3 11.78,58.4 17.38,87.7 44.72,-18.2 96.35,-28.5 129.39,-17.8 32.14,10.6 100.17,-1 136.94,5.8 37.34,6.8 71.19,24.9 106.59,37.6 79.06,28.2 152.44,73.9 214.38,130 28.81,26.2 53.09,60.9 74.76,97.4 50,-29.4 114.54,-9 173.23,23.3 66.64,-104.5 129.72,-211.5 186.54,-321.8 74.68,-144.4 142.95,-292.1 207.24,-441.3 64.05,-148.8 125.09,-295.4 164.78,-452.6 0.73,-2.7 0.33,-5.3 -0.65,-7.4 v -0.1 c -3,-6.6 -12.34,-10.1 -18.42,-3.6 -18.43,19 -38.16,36.7 -57.64,54.4 -0.32,0.6 -0.57,1.1 -0.81,1.6 z m 1026.78,-1170.6 c -22.73,-13.3 -43.51,-27.9 -63.07,-43.3 4.38,26.4 8.76,52.8 10.8,80 25.24,338.1 71.51,635.3 190.19,925.2 20.05,-105.7 41.24,-211.7 65.1,-318.2 9.82,-43.3 20.05,-86.8 30.69,-130.2 -37.59,36.9 -85.81,65.3 -144.82,80.4 -0.25,-0.5 -0.9,-0.7 -1.06,-1.3 -13.63,-44.1 42.86,-97.1 71.11,-126.1 9.58,-10 23.3,-21.5 38.89,-31.8 18.91,-3.3 38.39,-4.5 57.71,-6.2 19.81,-76.2 41.32,-152.2 65.18,-228.1 -115.43,-54.8 -223.88,-116.6 -320.72,-200.4 z m 1560.51,736.4 c -301.81,-108.8 -597.04,-244.9 -884.81,-377.7 -86.61,-40 -171.85,-75.7 -254.81,-112.3 -43.18,139.1 -79.06,280.4 -111.04,421.4 -11.21,49.9 -20.86,99.6 -31.09,149.4 29.95,15.1 57.47,33.5 75.24,60.8 33.29,51.1 45.71,108.5 42.71,164.7 -83.05,-12.2 -125.75,-75.6 -134.51,-146.1 -15.75,79.5 -30.36,158.7 -44.24,237.8 32.47,62.5 68.34,125 109.1,187.7 177.53,273 393.86,515.2 628.86,738.7 66.16,-79 162.92,-138.3 264.63,-141.8 9.82,-0.3 19.64,-0.1 29.3,0.3 -16.8,-26.2 -31.25,-53.6 -41.72,-81.6 -29.06,-78 -39.61,-145.9 22.24,-209 5.52,-5.7 11.94,-10.9 18.67,-15.8 -20.37,-8.3 -39.04,-16.3 -54.87,-22.7 -172.66,-71.7 -357.17,-220.3 -428.61,-397.8 -28.49,-70.9 -63.4,-183.4 -2.02,-248.8 66.72,-71.1 145.54,-52.8 227.2,-16.5 99.69,44.5 186.87,114.8 269.91,184.5 29.71,24.9 60.8,48.3 91.81,71.9 -12.75,-79 4.46,-157.6 72.41,-207.2 52.92,-38.7 118.68,-17.2 184.02,27.9 -14.21,-89.1 -30.11,-178.4 -48.38,-267.8 z m 2068.46,-1493.5 c 1.1,-0.4 2.8,-0.2 4,-0.6 -0.3,-3.1 -1,-6.3 -1.2,-9.5 -0.9,3.4 -2,6.8 -2.8,10.1 z m -7355.22,310.6 c -33.45,1.7 -65.84,0.3 -92.95,-11.3 -50.41,-21.8 -84.75,-55.4 -105.04,-94.2 77.52,-28.4 141.33,-4.1 178.26,40.3 -13.15,-44.8 -25.57,-89.9 -40.51,-134.1 -22.24,-64 -46.67,-127.4 -73.79,-189.3 -15.42,11.1 -33.68,19.3 -55.03,25.4 -40.75,11.5 -90.43,23.3 -128.01,21.4 -9.66,-0.5 -4.31,-13.3 -1.79,-18.5 16.32,-35 53.82,-66.3 95.87,-84.1 18.5,-7.8 37.83,-12.1 56.34,-13 -24.85,-50.4 -51.39,-99.8 -82.16,-146.2 -40.91,-60.8 -88.48,-116.9 -144.41,-160.5 -28.08,-21.3 -57.96,-40.1 -90.18,-52.2 -15.83,-7.3 -32.55,-10.7 -49.03,-15.5 -8.36,-1.7 -16.8,-2.5 -25.25,-3.9 l -12.58,-1.9 -12.82,-0.3 c -34.1,-2.5 -68.44,3.7 -101.23,12.1 -3.41,1.2 -6.9,2.3 -10.31,3.6 1.78,15.3 3.57,30.6 4.38,44.8 0.98,16.4 0.98,31.8 -0.32,46.6 -1.22,12.5 -2.6,23.6 -4.3,33.4 -1.55,10.4 -3.33,20.3 -5.69,28.7 -2.35,7.8 -5.03,16.3 -8.19,23.7 -3.17,7.8 -7.15,12.9 -11.45,20 -19.24,-21.3 -33.52,-43.1 -41.97,-64 -8.44,-20.8 -11.12,-41.5 -8.6,-61.6 2.6,-16.9 9.98,-32.7 20.21,-46.4 -8.85,4.9 -17.86,9.3 -26.54,14.7 -58.28,37.3 -106.34,90.8 -148.23,147.7 -18.18,25 -34.5,51.2 -50.33,77.7 17.86,6.1 34.91,16.3 52.44,30.1 33.36,26.6 71.76,59.7 92.54,90.3 5.28,7.6 -7.95,10.4 -13.31,11.6 -53.33,10.3 -130.04,-19.1 -168.2,-65.6 -6.81,13.3 -14.28,26.1 -20.78,39.4 -31.09,63.9 -57.71,129.6 -81.41,195.9 -19.73,54.5 -37.26,109.5 -53.66,164.4 29.38,16.2 56.17,34.4 73.06,58.7 31.33,44.9 42.77,92.2 38.96,136.6 -82.31,-18.1 -123.39,-74.3 -130.12,-132.9 -16.08,57.6 -31.01,115.1 -44.49,172.3 -13.15,55.9 -24.84,111.2 -36.12,166.4 19.08,-0.2 38.72,3.5 59.91,11.1 40.1,14.2 86.77,34 115.67,59.3 7.39,6.4 -4.63,14.5 -9.66,17.6 -49.19,30.2 -130.93,22 -180.78,-12.5 -9.25,48.2 -18.34,96.4 -26.46,143.9 17.62,0.8 36.29,5.2 54.96,14.2 81.33,39.1 142.3,123.3 191.49,195.8 7.95,11.8 20.62,29.7 34.09,50.7 26.95,-37.6 49.6,-79.9 71.68,-118 47.73,-82.2 117.38,-162.3 209.27,-80.9 108.77,96.2 95.78,299.6 85.15,429.6 -0.08,0.8 -0.16,1.6 -0.24,2.3 97.97,12.4 178.1,80.6 212.35,188.3 5.03,15.6 7.55,31.8 8.93,48 89.78,62.2 167.3,164.2 225.75,259.4 0.24,-46 9.66,-88.3 44.97,-98.1 58.2,-16.5 95.38,12.4 121.03,54.1 27.11,-51.4 75.98,-80.9 131.42,-91.3 20.46,-11.6 42.7,-22.8 67.05,-29.9 19.24,-5.9 40.43,-8.6 61.29,-6.9 -11.28,-144.7 -25.32,-291.3 -43.1,-439 -33.44,-3.2 -65.35,-9.6 -90.59,-25.6 -46.6,-29.8 -75.25,-69.9 -88.73,-113.5 82.64,-14.2 141.74,22.3 170.79,73.7 -6.97,-54.7 -13.96,-109.4 -21.99,-164.2 -8.85,-60.1 -18.84,-120.3 -29.14,-180.4 -17.62,7.1 -37.27,10.8 -59.67,11.4 -42.54,1.2 -93.27,0 -129.48,-13.3 -9.25,-3.4 -0.88,-15.3 2.69,-20 34.82,-46 113.97,-67.9 172.9,-53.9 -11.37,-62 -23.14,-124.1 -36.69,-186 -17.21,-79.1 -36.69,-158 -58.12,-236.2 z m 1055.51,1766.1 c -15.42,11.1 -33.68,19.3 -55.04,25.4 -40.83,11.5 -90.42,23.2 -128.09,21.4 -9.49,-0.4 -4.14,-13.4 -1.78,-18.5 16.39,-35 53.9,-66.3 95.94,-84.1 18.51,-7.9 37.83,-12.1 56.34,-13.1 -24.84,-50.3 -51.38,-99.7 -82.23,-146 -40.91,-60.9 -88.4,-117.1 -144.33,-160.7 -28.16,-21.2 -58.04,-40.1 -90.26,-52.1 -15.67,-7.3 -32.56,-10.7 -48.95,-15.5 -8.36,-1.8 -16.89,-2.6 -25.25,-3.9 l -12.66,-2 -12.75,-0.2 c -34.17,-2.5 -68.51,3.6 -101.22,12.1 -3.49,1.2 -6.9,2.3 -10.39,3.5 1.87,15.4 3.65,30.7 4.46,44.8 0.9,16.5 0.98,31.8 -0.4,46.7 -1.14,12.5 -2.52,23.5 -4.23,33.3 -1.62,10.6 -3.32,20.4 -5.67,28.8 -2.36,7.8 -4.96,16.2 -8.2,23.7 -3.17,7.7 -7.15,12.8 -11.45,19.9 -19.24,-21.3 -33.61,-43.1 -42.05,-64 -8.36,-20.8 -10.96,-41.4 -8.6,-61.5 2.51,-17 9.98,-32.8 20.21,-46.5 -8.77,4.9 -17.86,9.4 -26.46,14.8 -31.01,19.8 -58.94,44.4 -84.75,71.4 0.65,9.5 1.38,19.1 2.03,28.6 56.09,59.8 91.24,131.9 91.16,217.1 0,14.8 0.08,30.8 0,47.3 67.7,-36.8 147.41,-51.3 220.31,-29.9 80.52,23.6 142.7,80.3 185.4,150.3 66.57,-5.5 133.13,-14.2 199.61,-30.1 16.56,-4 32.96,-8.6 49.52,-12.8 -6.58,-16.1 -13.23,-32.3 -20.22,-48.2 z m 4006.15,-1321 c -14.69,12.1 -32.55,20.5 -53.9,26.4 -41.4,11.6 -90.75,21.5 -130.44,17.6 -10.07,-0.9 -6.02,-15.5 -4.15,-21.6 13.07,-40.2 47.65,-74.8 89.38,-94 18.51,-8.4 38.31,-12.5 57.71,-12.5 -36.36,-67.4 -77.44,-132.4 -128.34,-188.1 -58.76,-67.2 -133.77,-119.7 -217.63,-137 l -19.64,-2.8 c -5.52,14.4 -11.12,28.6 -17.21,41.9 -7.22,15.9 -14.77,30.5 -22.97,42.4 -13.39,21.8 -30.12,40.1 -30.2,53 -2.35,13.2 -4.46,22.2 -11.85,31.6 -33.77,-46.2 -47.65,-91.8 -31.09,-129.7 6.65,-17.5 22.08,-30.7 40.75,-39.6 -11.77,1.1 -23.22,2.8 -33.93,5.7 -39.05,10.8 -75.49,34.7 -106.99,64.8 -57.72,54.5 -101.71,125.4 -140.11,198.8 18.76,4.2 36.53,13.3 54.47,26.9 34.01,25.7 73.14,58.6 93.84,92.1 5.2,8.4 -8.85,14.5 -14.61,16.7 -39.62,14.7 -89.38,8.9 -129.48,-13 -17.53,-9.6 -32.47,-22.7 -44.24,-37.8 -11.61,25.7 -23.38,51.2 -33.85,77.4 92.54,46.8 188,88.3 281.27,129.7 175.58,78.1 353.44,151.3 531.95,222.7 -7.64,-11.6 -14.37,-23.6 -20.22,-36.1 54.55,-19.4 103.09,-9.5 141.57,18.2 17.13,12.4 31.82,28.7 44.08,46.9 -18.27,-65.1 -37.75,-129.9 -59.83,-194 -24.51,-70.2 -52.84,-139.2 -84.34,-206.6 z m 3142.96,-1539.6 c -29.7,16 -59.1,28.1 -88.4,32.5 -54,5.9 -94.8,5.1 -121.7,-0.2 12.3,-26.1 26.1,-47.3 42.9,-63.1 8.4,-7.7 17.6,-14.5 27.2,-19.1 9.6,-4.4 19.8,-7.4 30.3,-9 19.1,-3.5 38,0.6 56.8,7 -8.2,-7 -15.9,-14.6 -24.4,-21 -33.4,-24.8 -69.8,-44.8 -108.5,-57.4 -38.4,-13.1 -79.5,-16 -119.9,-12.3 -10.2,0.8 -20.4,1.5 -29.7,4.4 -9.3,2.7 -19,3.8 -28.1,7.6 l -27.3,11.7 c -2.1,0.9 -4.1,2.4 -6,3.5 12.4,14.2 21.4,32.1 29.5,52.9 15.3,40.1 34.2,87.7 46.6,118.3 3,8.4 -7.4,4.3 -12.1,2.3 -30.7,-14.5 -73.6,-38.1 -102.8,-73.4 -13.1,-15.6 -23.1,-33.6 -28.4,-52.2 l -1.5,1.2 -22.1,22.4 -11,11 -10.1,12.3 c -13.6,16.2 -27.2,32.5 -39,50.4 l -18.4,26.2 -17,27.4 c -89.1,147.8 -150,313.1 -202.7,477.8 -14.4,46.1 -26.6,92.4 -39.6,138.7 28.7,16.7 54.6,36 70.9,63.1 7.9,12.9 14.3,26.2 19.4,39.7 57.1,29.1 105.4,81.1 145.8,126.9 1.1,1.2 2.2,2.5 3.3,3.7 61.7,-19.9 125,-35 188.6,-45.7 109.5,-18.2 216,-14.3 319.4,6.6 -14.2,-36.9 -30.2,-97.5 22.5,-93.7 46.3,3.2 82.8,47.9 111.3,80 0.2,0.4 0.5,0.7 0.8,1.1 14.2,-30.5 37.5,-54.8 73.3,-68.2 35.3,-13.3 72.3,-2.2 107,19 58.9,-1 105.7,31.1 134.5,76.3 -13.9,-62 -27.6,-124.2 -43.8,-186.1 -18.4,-68.2 -38.9,-136.2 -61.1,-203.6 -16.2,10.3 -35,16.7 -57.1,20.2 -42.4,6.9 -92.7,11.5 -131.5,2.2 -9.9,-2.2 -4,-16.4 -1.5,-22 25.7,-55.2 99,-92.3 160.5,-84.9 -25.2,-68.6 -52.8,-136.4 -85.1,-202 -38.7,-77.6 -83.6,-152.2 -138.1,-217.9 -4.4,-5 -9.2,-9.7 -13.7,-14.6 z m 3796.9,2084.2 c 73.5,68.7 121.5,165.5 103,267.2 -23.7,131.6 -146.1,228.3 -286.2,273.9 72.3,47.9 130.6,116.5 113.3,210.1 -20.2,109.2 -274.8,88.6 -348.8,81.1 -57.9,-5.9 -116.2,-20.8 -172.3,-42.7 93.7,134.9 160.1,281.7 63.6,326.3 -93,42.9 -211.5,-49.9 -289.6,-124.2 7.2,38.9 11.4,86.9 -15.9,103.2 -52.8,31.3 -95.9,-79.5 -108.9,-110.1 -1.7,-3.9 -3.3,-8.1 -4.9,-12.1 -30.5,109.6 -89.7,215.3 -166.1,304.6 21.4,-2.8 42.6,-5.3 63.8,-7.5 105.5,-11.1 203.5,41.7 220.1,152.5 14.3,95.8 -177.2,188.3 -245.6,212.1 -59.2,20.9 -126.5,34.6 -194.7,38.6 -2.1,3.4 -4.3,6.8 -6.6,10.1 17.9,11.6 35.5,23.5 52.3,35.7 82.5,61.1 205.7,148.5 213.6,262 10.2,149.4 -232.8,89.2 -305.2,52.5 -13.8,-7 -31.6,-15.2 -51.6,-24.2 45.5,59.4 76.4,126.4 82,198.3 4,51.7 -13.4,95.9 -42.2,133.2 0.1,0 0.2,0 0.4,0 -0.9,1.1 -2.1,2 -3,3 -9.9,12.5 -21,24.2 -33.1,35 -3.8,3.4 -7.8,6.6 -11.9,9.9 -10.1,8.3 -20.5,16.2 -31.4,23.6 -4.8,3.2 -9.5,6.3 -14.5,9.4 -11.2,7 -22.5,13.3 -34.1,19.4 -4.5,2.3 -8.8,4.8 -13.3,6.9 -15.8,7.7 -31.5,14.9 -46.9,20.9 -39.1,15.3 -79.2,24.2 -119.7,29 39.7,34.4 69.1,75.2 81.2,124.7 37.6,151.5 -157.2,153.8 -257,130.4 -90.4,-21.3 -176.6,-59.7 -257.9,-107.7 -3,1.7 -6,3.3 -9,4.8 52.1,93.7 95.9,191.4 122.9,295.4 1.5,5.9 2.9,12 4.3,18.5 0.5,2.7 1,5.5 1.5,8.2 0.7,3.9 1.5,7.7 2.1,11.7 0.5,3.4 0.9,7 1.4,10.4 0.5,3.7 1,7.1 1.4,10.8 0.4,3.7 0.6,7.4 0.9,11.1 0.3,3.6 0.6,7.1 0.8,10.7 0.2,3.9 0.2,7.7 0.4,11.7 0,3.4 0.1,6.7 0.1,10 0,4.1 -0.2,8 -0.4,12.1 -0.1,3.1 -0.3,6.3 -0.5,9.3 -0.3,4.1 -0.8,8 -1.3,12 -0.4,2.9 -0.7,5.8 -1.2,8.7 -0.6,3.9 -1.4,7.5 -2.2,11.2 -0.6,2.8 -1.3,5.4 -2,8 -1.1,3.6 -2.2,7.1 -3.4,10.5 -0.9,2.4 -1.8,4.7 -2.8,7 -1.4,3.2 -3,6.3 -4.7,9.2 -1.1,2.1 -2.4,4.1 -3.7,5.9 -1.9,2.8 -3.8,5.4 -5.9,7.8 -1.6,1.6 -3.2,3.1 -4.8,4.6 -2.4,2.2 -4.8,4.2 -7.5,6 -1.8,1.1 -3.7,2.1 -5.7,3.1 -2.9,1.4 -5.8,2.8 -9.1,3.9 -2.1,0.6 -4.5,0.8 -6.8,1.3 -3.5,0.7 -7,1.4 -10.9,1.5 -2.4,0.1 -5.1,-0.2 -7.7,-0.4 -4.2,-0.3 -8.4,-0.4 -13,-1.3 -2.6,-0.5 -5.6,-1.5 -8.3,-2.2 -5.1,-1.3 -10.1,-2.5 -15.7,-4.6 -0.1,0 -0.2,-0.1 -0.5,-0.1 0,-0.1 0,-0.1 0,-0.1 -7.9,-3 -16.4,-6.6 -25.4,-11.4 -33.7,-17.6 -146.3,-119 -244.3,-233.8 17.7,58.9 28.9,119.6 33.9,180.8 0.1,-0.2 0.2,-0.3 0.2,-0.4 2.1,25.4 2.8,51 2.7,76.6 0,8.6 -0.5,17.1 -0.8,25.7 -0.6,19 -1.8,38 -3.6,56.9 -0.9,8.8 -1.7,17.6 -2.9,26.3 -3,24 -7,47.8 -12,71.5 -0.6,2.6 -0.8,5.3 -1.4,7.8 -5.9,26.2 -13.3,52.1 -21.6,77.8 -2.3,7.4 -5.1,14.6 -7.7,21.9 -6.8,19.2 -14.3,38.2 -22.5,57.1 -3.1,7.2 -6.2,14.5 -9.6,21.7 -11.7,24.8 -24.2,49.3 -38.5,73.1 -108,180.8 -265.8,306.8 -448.1,385.1 48.4,22.4 98.7,41.5 153.2,53.5 85.4,18.7 180.9,15.2 265.2,-5.9 39.8,-10 96.2,-28.3 130.7,3.8 152.9,141.9 -140.6,294.8 -346.2,366.7 89.7,15 180.2,14.9 279.4,9.6 74.3,-3.8 141.7,17.6 156.2,100.1 12.7,71.6 -118.6,133.5 -165.7,159.7 -85.3,47.1 -167.2,58.3 -254.3,55.9 123.8,95.4 282,235.9 205.3,298.1 -126.4,102.2 -279,14.7 -388.1,-85.1 12.2,161.6 -49.8,340.8 -189.3,429 -31.2,19.7 -66.8,-26.3 -71.1,-53.3 -5.7,-37.6 -6.6,-75.1 -10.8,-112.2 -35.1,44.9 -77.7,86.8 -130.2,124.9 -26.7,19.4 -54.4,38.2 -83.2,56.2 -18.9,11.8 -38.8,22.7 -58.4,33.8 -10,5.7 -19.6,11.8 -29.7,17.2 0,0 0.2,-0.1 0.3,-0.2 -188.2,100.5 -405.1,162.3 -609.5,134 -117.5,-16.3 -234.4,-52.6 -347.6,-100.7 -28.3,50.5 -62.4,96.6 -106.6,135.9 -4.2,3.6 -8.9,6.5 -13.3,9.8 46.2,-8.1 92.3,-18.6 139.2,-29.6 68.2,-15.9 119.2,8.6 147.1,72.1 29.3,66.6 -66.6,132.3 -125,171.9 -10.9,7.4 -20.6,13.9 -27.8,19.3 -68.9,51.2 -147.3,73.1 -228.5,85.2 88.6,14.2 179.6,16.2 271.3,41.3 99.3,27.3 113.3,147.2 23.8,186.5 -144.5,63.4 -317,100.7 -475.2,108.5 -106.5,5.1 -197.8,-26.4 -279.7,-81.7 20.4,65.9 53.1,127.1 80.4,192 21.6,51.5 46.7,133 -18.6,160 -69,28.5 -161.4,-72.9 -199.1,-115.8 -12.9,-14.5 -25.2,-31.7 -36.9,-50.7 -29.1,29.9 -65.3,54.8 -107.3,74.5 -86.7,40.6 -239.6,63.1 -322,0.2 -59.9,-45.8 -62,-104.8 -9.1,-155.6 10.5,-10.2 22.8,-18.9 35.5,-27.1 -173.11,-11.4 -342.11,-85.5 -496.02,-180.9 -4.79,-3 -10.39,-7.2 -16.39,-12.2 -42.14,-35.4 -103.02,-115.2 -52.2,-157.6 18.02,-15.1 36.85,-21.8 57.06,-25 -31.49,-20 -61.61,-42.1 -89.94,-66.2 -83.44,62.7 -200.42,78.4 -306.43,74.8 -194.91,-6.6 -410.18,-127 -556.21,-249.4 -40.02,-33.6 -79.96,-68 -118.28,-103.8 -0.57,3.1 -1.7,6 -2.35,9.1 0.08,0.4 0.16,0.7 0.24,1 -1.46,7.2 -4.14,13.7 -5.84,20.7 -3.73,14.7 -7.23,29.5 -12.34,43.4 -2.52,7.2 -6.01,13.8 -8.93,20.7 -5.93,13.9 -11.69,27.9 -18.83,41 -3.49,6.4 -7.96,12.3 -11.77,18.5 -7.8,12.7 -15.51,25.5 -24.52,37.4 -4.7,6 -10.14,11.3 -15.09,17.2 -9.42,11 -18.6,22.3 -29.07,32.5 -6.25,6.1 -13.47,11.4 -20.13,17.2 -10.23,9 -20.05,18.2 -31.09,26.3 -8.6,6.4 -18.18,11.8 -27.36,17.7 -10.14,6.5 -19.72,13.5 -30.43,19.4 -12.34,6.9 -25.65,12.6 -38.81,18.6 -8.36,3.9 -16.23,8.4 -24.84,12 -22.16,9 -45.13,16.9 -68.91,23.6 -230.05,64.9 -498.66,-7.5 -696.08,-128.9 -83.69,-51.5 -158.21,-118 -224.12,-191.3 -154.89,52.6 -315.37,25 -464.24,-35.4 -0.16,0.2 -0.16,0.5 -0.25,0.7 -21.02,73.7 -58.93,124 -106.82,160.3 17.45,-1.3 34.66,-0.3 51.55,5.2 41.23,13.6 74.27,61.5 71.91,104.6 -2.43,45.9 -53.25,76.4 -81.41,108.4 -10.88,12.4 -23.55,23.1 -36.86,33 -3.08,2.2 -6.09,4.6 -9.17,6.7 -13.23,9.1 -27.03,17.4 -41.56,24.5 -2.76,1.4 -5.6,2.5 -8.45,3.9 -6.97,3.3 -13.87,6.7 -21.02,9.6 0.73,-0.6 1.38,-1.1 2.11,-1.7 -26.3,10.9 -53.17,20.3 -79.14,27.3 -78.09,21.2 -160.89,24.5 -241.9,13.5 43.75,34.1 89.61,62.6 124.03,107.7 63.8,83.5 18.59,135.4 -70.21,153.3 -115.36,23.2 -238.82,-20.7 -329.01,-92.9 -15.1,-12.1 -29.22,-24.2 -42.7,-36.4 14.94,97.4 22.73,225.4 -42.29,288 -92.05,88.5 -184.75,-44.6 -216.74,-123.4 -15.66,-39 -24.67,-78.8 -29.87,-119.2 -10.47,9.8 -21.67,17.7 -32.71,26.6 0,0.5 0.08,1 0,1.6 -12.58,10.2 -25.17,19.9 -37.5,28.9 -72.17,53.1 -224.54,123.2 -315.85,111.7 -72.01,-9.1 -138.73,-69.1 -117.63,-146.8 9.1,-33.6 30.36,-58.6 54.95,-81 -104.55,21 -204.23,27.5 -310.65,15.2 -133.37,-15.5 -325.18,-87.3 -367.07,-230.1 -6.82,-23.1 -6.9,-45.1 17.29,-56 6.73,-3.1 13.47,-5.5 20.29,-7.9 -46.75,-21.8 -88.64,-51.5 -113.24,-98.1 -11.61,-22.2 -14.36,-41 -11.04,-57 -28.49,14.4 -57.79,27.2 -87.75,38.5 -11.69,4.4 -23.78,7.7 -35.63,11.7 -18.67,6.4 -37.18,13 -56.26,18.4 -13.64,3.8 -27.68,6.7 -41.48,10 -17.78,4.4 -35.47,9.1 -53.49,12.8 -14.53,3 -29.23,5.3 -43.92,7.8 -17.69,3.1 -35.39,6.5 -53.25,9.2 -14.85,2.2 -29.79,3.8 -44.81,5.8 -17.77,2.2 -35.55,4.7 -53.41,6.6 -15.1,1.6 -30.04,2.8 -45.05,4.3 -18.03,1.6 -36.04,3.4 -54.07,4.8 -15.18,1.3 -30.2,2.3 -45.29,3.4 -21.19,1.6 -42.13,3.1 -62.91,4.6 -30.44,2 -60.64,4 -90.27,6.2 -118.68,8.4 -239.22,15.3 -359.44,15.1 0.73,0.1 1.54,0.2 2.35,0.3 -2.59,0 -5.19,-0.2 -7.71,-0.2 -22.32,0 -44.48,-0.8 -66.73,-1.4 -19.15,-0.4 -38.31,-1 -57.38,-2 -20.62,-1 -41.16,-2.8 -61.7,-4.4 -12.26,-1 -24.67,-1.4 -36.94,-2.6 2.52,-0.2 4.96,0 7.48,-0.2 -148.07,-14.3 -293.61,-44.7 -432.18,-105.4 -198.64,-86.8 -378.27,-208.2 -547.77,-342.3 -53.98,48.2 -120.3,81.3 -191.49,113.2 -85.97,38.4 -189.14,61 -263.5,-8.9 -76.38,-71.7 -51.71,-171.8 -1.62,-262.7 -73.46,7.8 -149.52,-0.7 -223.15,-21.5 -159.59,-45 -336.14,-116.1 -448.25,-244.3 -86.937,-99.4 -35.23,-175.8 86.37,-199.9 67.79,-13.4 141.9,-5.2 210.65,-9.6 17.21,-1.1 34.09,-1.8 50.82,-2.5 -205.37,-115.9 -380.387,-281.4 -455.395,-513 -54.226,-167.3 104.395,-167.8 267.155,-130.5 -24.68,-27.2 -47.66,-55.9 -68.76,-85.3 -68.11,-95.1 -176.559,-268.9 -132.074,-393.2 31.172,-87.1 85.074,-122.5 154.804,-127.3 -7.64,-3.5 -15.43,-7.5 -23.22,-12 0,0.1 0,0.1 0,0.1 -6.82,-4 -13.64,-8.3 -20.37,-12.9 -2.28,-1.6 -4.47,-3.4 -6.82,-5.1 -4.47,-3.3 -8.94,-6.7 -13.32,-10.3 -2.51,-2.2 -4.86,-4.5 -7.38,-6.7 -3.82,-3.5 -7.55,-7 -11.13,-10.7 -2.35,-2.5 -4.62,-5.1 -6.89,-7.7 -3.33,-3.7 -6.42,-7.5 -9.34,-11.5 -2.11,-2.7 -4.06,-5.5 -5.85,-8.3 -2.75,-4.1 -5.19,-8.4 -7.46,-12.7 -1.54,-2.7 -3.09,-5.5 -4.38,-8.4 -2.12,-4.7 -3.738,-9.6 -5.195,-14.5 -0.817,-2.6 -1.871,-5.1 -2.438,-7.7 -1.789,-7.5 -2.925,-15.2 -2.925,-23 -0.325,-104.2 101.308,-124.8 179.878,-155.1 10.64,-4 22.08,-8.2 34.18,-12.5 -31.41,-4.6 -62.91,-11.2 -95.05,-22.7 -116.083,-42 -238.09,-103.3 -336.153,-179 -79.551,-61.3 -144.406,-147.5 -117.863,-252.3 13.23,-52.1 47.406,-77.8 89.695,-89.8 -114.941,-86.5 -210.484,-205.6 -231.672,-328.4 -28.168,-164.3 83.774,-150.4 205.942,-92 -18.586,-45.3 -31.09,-91.2 -35.637,-133.6 -3.246,-30.7 0.41,-58 8.93,-83.3 -54.465,29.9 -114.618,51.1 -165.676,67.2 -160.969,50.7 -342.965,48.2 -498.9026,-16.7 -35.07028,-14.7 -61.0468,-34.5 -79.3906,-57.6 -3.5703,-4.5 -7.8711,-8.7 -10.7969,-13.5 h -0.082 c -29.707,-48.3 -25,-108.8 18.4258,-169.5 17.5351,-24.5 36.61327,-52.2 57.0742,-80.4 -15.832025,7.9 -31.5859,16.1 -47.0039,24.8 -96.762,54.7 -183.777,56.1 -248.965,-43.5 -19.805,-30.3 -22.73,-64.3 -16.074,-98.5 -51.383,-1.3 -103.418,-9.4 -152.527,-22 -219.09,-56.9 -433.231,-129.5 -609.624,-276.4 -80.85,-67.5 -269.5,-225.7 -236.62,-350.6 20.29,-77.6 132.64,-70.2 251.88,-39.4 -19.4,-19.2 -38.39,-39 -57.15,-59.6 -94.81,-104.6 -238.98,-298.9 -219.33,-452.4 18.51,-144.1 181.91,-171.9 304.73,-156.1 40.184,5.1 81.5,17.1 122.899,33.1 l 0.73,-1 c -41.644,-47.2 -81.094,-96.2 -117.219,-148 -55.36,-79.6 -116.65,-191.3 -129.88,-289 -5.27,-38.7 7.96,-94.8 34.02,-138.9 -0.17,0.1 -0.49,0.2 -0.65,0.4 0.89,-1.5 1.94,-2.8 2.84,-4.3 2.51,-3.9 5.11,-7.7 7.79,-11.4 3.16,-4.5 6.58,-8.7 10.06,-12.7 2.85,-3.2 5.61,-6.3 8.53,-9.2 4.3,-4.2 8.85,-7.7 13.55,-11.2 2.6,-2 5.12,-4.1 7.88,-5.8 7.63,-4.6 15.66,-8.4 24.11,-10.7 169.25,-44.2 346.047,-17.8 515.461,30.5 -44.648,-40.4 -87.183,-89.6 -93.515,-145.7 -14.367,-128.3 101.629,-90.8 204.965,-34.9 -85.071,-164 -88.805,-364.3 38.64,-518.2 92.375,-111.8 181.59,-88.3 298.6448,-29 49.9219,25.4 98.3828,54.8 144.082,87.8 -29.6289,-71.1 -52.4375,-162.5 -1.2969,-196.6 103.1721,-68.8 243.4451,14.6 334.4411,68.1 78.09,46 157.153,106.6 227.047,174.6 -4.625,-44.5 0.242,-89 21.672,-131.9 45.867,-91.9 168.359,-50.8 233.457,-12.6 160.322,93.9 304.492,258.9 309.032,443 24.93,-36.6 52.77,-70.9 84.59,-101.5 63.8,-61.7 128.99,-3.8 172.66,47.9 42.62,50.4 69.89,122.2 90.26,194.9 v -0.8 c -5.68,-48.2 -18.26,-117.2 28.01,-149.2 57.47,-39.8 124.61,29.4 159.35,67.4 22.08,24.1 41.07,52.3 58.04,82.1 -5.36,-37.4 4.95,-68.3 52.03,-74.5 47.9,-6.3 111.45,36.2 150.5,59.9 21.99,13.2 42.62,28.5 62.26,44.6 h 0.08 c -27.43,-60.2 -61.13,-147.3 -16.56,-182.1 71.11,-55.2 194.66,81.9 235.17,122.2 5.43,5.4 10.3,11.1 15.5,16.6 3.17,-19.5 5.84,-38.6 9.17,-58.4 18.27,-108 40.27,-218.5 65.18,-330.4 -9.98,7.2 -20.29,13.8 -29.86,19.2 -23.63,13.1 -91.41,37.3 -114.14,5.4 -3.41,-4.9 -1.87,-10.9 1.63,-14.9 36.52,-42.7 82.55,-108.3 166.32,-115 30.12,-123.4 65.35,-248.6 110.57,-374.1 6.57,-18.3 14.12,-36.6 21.1,-54.9 -39.29,24.8 -88.4,41.3 -147.82,46.1 -0.25,-0.5 -0.81,-0.9 -0.98,-1.4 -10.39,-39.7 48.54,-76.8 78.66,-96.5 10.23,-6.9 24.19,-14.4 40.27,-20.4 18.75,0.6 37.82,3.3 56.74,5.3 12.01,-28.2 24.27,-56.5 37.83,-84.4 33.12,-68.2 70.94,-135.9 117.86,-200.5 1.3,-1.8 2.92,-3.6 4.3,-5.4 -12.09,3 -24.19,5.5 -35.39,7.2 -14.37,2.1 -39.37,3.4 -62.34,-0.5 -22.89,-3.9 -43.76,-13 -47.57,-34 -1.14,-6.5 3,-12.3 8.04,-15.4 30.19,-17.8 65.83,-41.6 107.07,-53.4 19.8,-6.1 41.64,-9 62.91,-6.9 14.85,1.3 29.38,6.1 43.75,12.7 28.49,-28.9 59.99,-55.8 96.19,-79.2 18.59,-11.7 37.42,-23.3 58.29,-32.4 19.88,-10.4 41.96,-17.1 63.56,-24.5 44.64,-11.7 90.02,-19.3 136.61,-16.3 l 17.38,0.5 17.29,2.5 c 11.44,1.7 23.13,3.1 34.5,5.5 19.96,5.4 40.09,10.5 59.09,18.1 -4.63,-6.2 -9.42,-11.3 -13.8,-17.9 -13.64,-17.9 -26.63,-38.7 -39.94,-60.4 -13.47,-20.9 -26.79,-44 -39.61,-68.7 0.65,-0.3 0.81,-1.1 1.54,-1.2 26.55,-8.1 60.72,1.3 88.48,20.8 28.98,17.6 49.6,45 64.37,61.6 9.75,11.8 18.92,29 25.9,46.8 -0.9,19.4 -4.3,38.7 -8.69,58 15.67,9.7 31.01,19.8 45.46,30.7 69.16,54 123.06,119 168.52,186.5 69.65,104.9 120.95,216.2 164.46,329.2 4.14,-11.3 8.93,-22.5 13.72,-32.2 12.74,-24.4 52.92,-84.4 90.83,-69.8 5.77,2.3 8.12,8.4 7.64,14 -5.37,58.6 -7.64,140.5 -74.44,191.4 47.81,141.8 85.55,285.3 117.3,429.2 19.4,-40.8 52.76,-79.9 99.27,-114.3 0.41,0.3 1.14,0.2 1.54,0.6 30.36,26.6 0.09,87.7 -13.63,119.7 -4.63,11.1 -12.18,24.7 -22.25,38.3 -15.99,10 -33.36,18.6 -50.32,27.6 21.67,104.3 40.26,208.4 56.57,312.3 6.66,-10.2 13.89,-20.1 20.87,-28.6 17.13,-20.8 71.43,-67.7 104.14,-46.5 5.12,3.4 5.77,9.4 3.98,14.3 -18.34,52.8 -37.34,129.7 -112.51,167 21.11,146.7 38.4,292.4 52.36,436.6 24.19,-37.9 62.35,-72.1 112.92,-99.7 0.4,0.4 1.13,0.4 1.46,0.8 26.13,29.5 -10.88,85.3 -28.58,115.1 -6.09,10.3 -15.26,22.8 -26.78,35.1 -16.89,7.9 -34.91,14.4 -52.61,21.4 3.33,36.4 6.74,73 9.67,109.3 11.44,-8.7 22.56,-17.7 34.98,-25.7 18.67,-11.8 37.34,-23.4 58.2,-32.5 19.89,-10.4 41.97,-17.1 63.65,-24.4 44.64,-11.7 90.02,-19.3 136.45,-16.3 l 17.45,0.5 17.29,2.4 c 11.61,1.8 23.22,3.1 34.58,5.5 20.05,5.4 40.11,10.6 59.1,18.2 -4.55,-6.2 -9.42,-11.3 -13.88,-17.9 -13.48,-17.9 -26.63,-38.8 -39.86,-60.4 -13.48,-21 -26.79,-44 -39.69,-68.8 0.65,-0.2 0.97,-1 1.62,-1.1 26.62,-8.2 60.72,1.4 88.56,20.8 28.9,17.6 49.52,44.9 64.29,61.5 9.74,11.8 18.83,29 25.9,46.8 -0.9,19.5 -4.39,38.8 -8.69,58 15.67,9.7 31.01,19.9 45.46,30.7 69.16,54 123.06,119.1 168.52,186.6 62.83,94.7 110.4,194.7 151.15,296.4 10.96,-3 21.75,-6.4 32.71,-9.5 16.56,-27.6 51.71,-72.6 85.07,-59.7 5.85,2.3 8.2,8.4 7.63,14 -0.57,6.2 -1.13,12.8 -1.71,19.4 301.82,-90.1 598.92,-200.9 901.54,-286.5 207,-58.5 406.52,-247.3 486.48,-692.8 -63.4,-4161.8 75.33,-8280.05 72.08,-12442.1 -0.16,-147.3 -0.89,-294.6 -1.46,-441.9 -33.52,-255.1 -18.91,-727.4 -79.15,-974.6 -60.07,-246.6 -111.78,-316 -251.31,-578 -72,-97.9 -172.26,-146.9 -262.85,-208.8 -13.15,-8.9 -27.68,-18.7 -43.1,-28.9 -3.9,-2.6 -8.12,-5.3 -12.18,-8 -12.09,-8 -24.6,-16.2 -37.66,-24.8 -4.79,-3.1 -9.58,-6.1 -14.45,-9.3 -13.15,-8.6 -26.71,-17.4 -40.51,-26.4 -4.95,-3.2 -9.9,-6.3 -14.93,-9.6 -14.61,-9.5 -29.55,-19 -44.65,-28.7 -42.7,-27.5 -86.21,-55.5 -128.26,-82.6 -1.87,-1.3 -3.73,-2.5 -5.6,-3.7 -17.61,-11.4 -34.74,-22.5 -51.47,-33.4 -2.02,-1.3 -4.05,-2.6 -6.08,-4 -17.29,-11.2 -33.77,-22.1 -49.6,-32.6 -0.65,-0.4 -1.38,-0.9 -2.11,-1.4 h 0.08 c -87.83,-58.2 -148.55,-101.7 -139.13,-106.5 9.74,-5 23.21,-8.4 38.15,-11.1 -0.41,-0.1 -0.81,-0.1 -1.13,-0.2 3.32,-0.7 7.38,-0.9 10.95,-1.4 5.52,-0.7 10.96,-1.5 16.97,-2.1 5.68,-0.5 11.85,-0.7 17.93,-1.1 6.91,-0.3 13.56,-0.7 20.95,-0.8 5.68,-0.1 11.77,0.1 17.78,0.2 8.52,0.1 16.96,0.1 25.97,0.5 3.49,0.1 7.23,0.4 10.8,0.6 40.51,2.1 84.99,6.3 130.94,12.1 0.72,0.1 1.46,0.3 2.27,0.3 14.61,1.9 29.22,3.9 43.91,6.1 2.68,0.4 5.44,0.7 8.2,1.1 14.13,2.1 28.25,4.3 42.3,6.6 3.24,0.4 6.49,0.9 9.74,1.5 13.88,2.3 27.59,4.5 41.23,6.9 3.17,0.6 6.33,1.1 9.5,1.7 13.72,2.4 27.11,4.8 40.26,7.2 2.92,0.5 5.76,1.1 8.61,1.6 13.07,2.5 25.81,4.8 38.15,7.3 2.84,0.6 5.6,1 8.36,1.6 12.26,2.4 24.03,4.8 35.31,7.1 2.44,0.5 4.71,0.9 7.15,1.4 11.36,2.4 22.32,4.7 32.54,6.8 1.3,0.3 2.44,0.5 3.66,0.8 34.25,7.3 62.1,13.4 78.58,17.3 81.09,18.8 159.42,53.2 241.33,63.9 -39.69,-54.2 -82.48,-121.9 -135.48,-154.2 -59.5,-36.1 -172.66,-230.2 -130.69,-233.9 171.28,-15.1 379.08,76.9 531.29,149.1 58.04,27.3 115.67,52.6 170.14,83.8 -8.77,-11.5 -17.21,-23.4 -25.41,-35.9 -19.48,-15.5 -139.78,-147.2 -75,-146.4 158.37,2 396.45,70.2 524.88,161.9 38.96,27.9 78.41,55.9 118.43,83.3 57.96,-64.4 114.05,-124.9 188.08,-174.8 38.64,-26.1 85.56,34.2 90.18,67.6 2.6,19.5 4.88,40.1 6.74,61 49.03,-8.3 101.72,-8.1 147.18,-9.8 101.95,-3.6 626.67,0.9 602.15,39.8 -17.61,27.8 -354.41,180.2 -472.12,291.7 -196.03,185.5 -305.45,453.6 -368.29,711.3 -71.59,293.7 -109.99,605.5 -119.48,907.3 -0.82,26.3 -0.98,52.7 -0.74,79 -30.84,293.3 -131.42,8827.2 -110.96,10523.3 6.98,583.3 -23.54,1551.5 445.81,1986.9 66.81,61.8 141.73,113.3 220.55,158.8 18.51,-45.5 38.48,-90.7 60.81,-135.6 22.08,-44.1 46.35,-87.8 74.51,-130.4 2.44,-3.8 5.44,-7.3 7.96,-11 -13.4,5.4 -26.87,10.1 -38.89,14 -29.87,8.7 -108.85,23.9 -115.43,-22.7 -0.81,-7.4 4.15,-14.8 9.83,-19.2 32.23,-25.4 73.22,-58.9 120.3,-79 39.37,-17.4 82.55,-22.2 120.14,-7.3 39.61,-36.8 88.96,-71 150.25,-88 15.18,-3.9 32.07,-7.6 46.03,-8.5 14.45,-1.3 28.57,-3.1 43.1,-3.3 l 43.59,1.2 43.35,6.4 c 57.31,11.4 110.72,35.4 156.99,65.6 23.7,14.7 44.24,32.2 65.11,49.3 13.8,13.2 27.59,26.5 40.67,40 -1.79,-7.5 -3.66,-15.1 -5.53,-22.7 -5.44,-23.9 -8.2,-49.7 -11.76,-75.7 -3.17,-26.2 -3.74,-54.2 -5.12,-82.3 0.73,0 1.3,-0.3 2.03,-0.2 15.59,3.1 28.65,11.8 41.16,23.2 12.41,11.4 23.78,25.5 31.82,40.8 8.36,15.2 15.91,31 21.02,45.9 4.87,15.1 8.77,29 12.01,40.2 4.87,15.2 7.07,35.1 7.07,55.2 -8.2,18 -17.78,35 -28.01,51.8 45.7,60.7 82.47,125.2 115.68,190.2 28,55.6 51.94,112.3 74.27,169.1 3.41,-13.6 7.55,-27 11.61,-38.5 10.06,-28.4 46.84,-97.9 86.94,-77.6 6.25,3.2 9.17,10.8 9.17,17.3 0.73,70.4 4.47,169.6 -61.21,226.1 32.23,96.4 59.83,193.1 83.94,289.9 117.13,45.5 234.35,90.8 351.4,136.3 10.72,-47.9 35.48,-90.5 81.99,-121.8 156.51,-105.4 372.92,33.6 480.56,143.5 15.1,15.4 28.61,33 42.81,49.6 9.2,-2.6 18.6,-4.7 27.7,-7.1 14.7,-4 28.3,-5.1 41.8,-6.2 4.7,-0.5 9.6,-0.4 14.4,-0.7 -13.2,-7 -26.4,-14.5 -38.2,-21.4 -14.8,-8.1 -42.8,-22 -64.2,-38.7 -20.99,-16.5 -35.6,-35.9 -12.06,-57.2 7.31,-6.5 20.46,-9.4 30.76,-9.1 7.3,0.2 14.8,0.5 22.6,0.8 7.4,0.4 13.5,2 20.6,3.2 13.6,2.4 27.5,5.3 41.2,8.5 13.9,3.2 28.1,8.8 41.5,13.9 13.4,5.5 26.3,10.9 38.2,18.8 23.9,15.3 43.9,32.2 56.5,53.7 8.8,14.8 13.4,30.4 15.4,46.8 35,11.7 66.9,28.3 97.2,47 74.7,26.7 144,103.3 201.4,174.3 18.9,23.3 35,58.4 46.8,98 1.8,3.1 3.6,6.1 5.3,9.1 16.8,-0.3 33.9,1.3 50.9,3.9 3.2,-28.2 6.1,-55.8 9.5,-84.2 9.2,-78.4 19,-157.9 29.3,-238.3 -42.3,-13.1 -78.6,-31.3 -103.5,-53.8 -128.5,-116.2 -14.7,-207.6 125.6,-267.2 -188.2,-66.9 -362.8,-201.7 -392.5,-380.3 -32.8,-197.9 217,-255.9 435.1,-260.4 -71,-76.4 -129.5,-165.8 -136.5,-247 -10.6,-124.6 81.5,-155 190.3,-149.6 31.3,1.6 63.2,7.6 94.9,15.5 7,-1.8 14.3,-3 21.9,-3.9 30.1,-125.9 62.7,-252.1 102.4,-378.3 13,-40.5 26.6,-81 40.8,-121.5 -6.2,4.8 -11.1,10.5 -18,14.7 -36.7,23.9 -81.7,40.5 -132.6,48.3 -0.3,-0.6 -1,-0.9 -1.1,-1.4 -9.5,-44.2 50.5,-90.1 81.7,-115 10.6,-8.6 25.1,-18.2 41.4,-26.3 19.2,-1.1 39,-0.9 58.7,-0.3 39,-101.8 84.1,-202.8 143,-300.7 l 18.6,-30.2 20.8,-29.7 c 13.4,-19.9 29.2,-39 45.1,-58 l 12,-14.4 13.4,-13.7 27,-27.1 c 9.8,-8.6 20.3,-16.9 30.6,-25.3 l 15.5,-12.5 17.5,-11.1 c 12,-7 23,-14.9 36,-20.9 13.1,-5.9 26.4,-11.6 39.7,-17.1 13.5,-5.2 28.4,-7.8 42.7,-11.5 14.8,-4.1 28.2,-5.2 41.7,-6.3 4.8,-0.4 9.7,-0.4 14.5,-0.7 -13.2,-7 -26.3,-14.5 -38.1,-21.4 -15,-8.1 -42.9,-22 -64.2,-38.6 -21.1,-16.6 -35.7,-35.9 -12.2,-57.3 7.4,-6.5 20.5,-9.4 30.8,-9.1 7.3,0.3 14.8,0.5 22.5,0.8 7.6,0.5 13.7,2.1 20.6,3.1 13.7,2.5 27.6,5.4 41.4,8.6 13.8,3.3 28.1,8.8 41.4,13.9 13.4,5.5 26.3,10.9 38.2,18.9 23.9,15.1 43.8,32 56.4,53.7 8.9,14.7 13.4,30.3 15.5,46.7 50.8,16.9 96.9,42.6 137.6,72.6 41.5,31.4 76.3,67.3 108.8,104.4 58.8,70.7 104.9,147 144.6,224.8 4.5,-51.9 20.9,-105.4 51.3,-159.7 0.5,0.2 1.2,0 1.7,0.3 21.8,12.5 30.4,39.4 34.8,67.7 3.6,28.6 0.7,58.5 -0.1,78.9 -0.8,14 -4.4,31.7 -9.8,49.4 -12.8,14.8 -27.5,27.8 -41.7,41.4 52.5,116.5 93.9,235.2 128.6,354.5 4.9,-12.5 10.3,-24.7 15.4,-35.1 13.4,-26 58.6,-87.3 95.3,-65.7 5.8,3.4 7.6,10.4 6.9,16.4 -7.8,64.7 -14.2,157.3 -84,207 11.4,44.8 21.4,89.6 31.5,134.3 36.1,-21.4 80,-23.9 129.1,6.1 70.4,43 112.3,104.2 133.8,174.2 2,-14.4 4.8,-28.7 9.3,-42.7 13.3,-41.4 49.8,-95.6 95.7,-47.7 24,25 39.5,61 47.5,100.9 292.8,-163 661.3,-172.9 1006.2,-131.2 -21.3,-45.8 -40.4,-102.3 -16.4,-142.5 44.7,-75.3 164.3,20.1 197.8,57.2 26.6,29.6 49.3,60.9 68.3,94.1 3.4,-36.8 10.2,-73.2 24,-109.4 20.6,-54.6 73.7,-108.9 134.4,-70 75,48.2 90.4,140.5 69.9,228.4 44.9,-53.4 111.5,-88.7 152.3,-32.5 13.8,19.1 22.3,39.4 27,60.3 -0.1,-34.2 2.8,-68.8 11.4,-105.7 12.7,-55 61.4,-88.4 109.3,-48.7 38.4,31.9 60.4,82.2 71.4,138.2 24.6,-21.5 55.8,-34.3 95.3,-33.9 92.4,1.1 166.5,104.4 198.2,179.3 22.9,54.2 38.6,109.9 46.2,166.1 164.7,-121.7 401.8,-120.5 525.1,82.1 26.2,42.9 38.7,82.2 40.9,118.2 20.9,-6.3 42.3,-8.7 63.3,-3.8 38.6,8.7 54.4,43.2 57,79.2 5.2,11.7 6,23.6 -0.9,33.1 h -0.2 c -1.4,11.1 -3.9,21.6 -7.2,30.8 -3.3,9.2 -7.3,18.7 -12.2,28.2 99.8,28.4 211,94.8 227.7,201.4 18.1,115.8 -83.5,178.1 -179.2,216.4" 
                />
              </g>
            </g>
          </svg>