          <svg xmlns="http://www.w3.org/2000/svg" version="1.1" viewBox="161.433 320.634 3537.167 2043.308">
            <g id="g8" transform="matrix(1.3333333,0,0,-1.3333333,0,2403.3067)">
              <g id="g10" transform="scale(0.1)">
                <path style="fill:#9bddaf;fill-opacity:1;fill-rule:nonzero;stroke:none" id="path14"
                  d="M 18496,3986.7 Z M 16699.1,4094 c -4.2,-9.4 -7.7,-19.3 -11.1,-29.2 -16.8,14.4 -37,29.2 -58.1,43.4 h 79.3 c -4.4,-5.6 -8.6,-10.8 -10.1,-14.2 z m -4944.7,-347 c 1.4,3.4 2.9,6.8 4.2,10.2 13.7,-3.9 27.4,-7.6 41.2,-11.3 -0.1,-2.3 0.3,-4.6 2.2,-6.6 11.6,-12.7 26.6,-14.7 44.2,-12.2 5.9,0.9 11.5,2.3 17.3,3.4 13,-2.7 26.1,-5.4 39.4,-7.5 3.6,-0.6 7.3,-1.2 11.1,-1.8 -7.7,-9.6 -16.6,-19.7 -19.3,-25.9 -5.3,-11.8 -9.7,-24.5 -14,-37.3 -35.2,30.2 -82.6,61.7 -126.3,89 z m 7063,1797.5 c 0.3,-1.1 0.7,-2.2 1,-3.3 -2.8,-1 -5.7,-2.1 -8.4,-3.1 2.5,2.1 4.9,4.3 7.4,6.4 z m -4153.5,187.3 c -11.3,0.8 -22.6,0.8 -33.9,0.1 3.6,9.5 7,19.5 10.2,29.6 12.2,-9.7 24.6,-18.6 36.2,-26.3 -4.3,-0.9 -8.6,-2.1 -12.5,-3.4 z m 8292.8,-942 c 42.5,13.1 72.6,34.9 35.3,72.2 -29.9,30.1 -115.3,32.3 -153.9,29.7 -8,-0.1 -15.8,-0.9 -23.5,-1.7 18.2,10.8 36,21.5 55,31.6 43.8,23.3 98,114 5.3,116.7 -7.2,0.2 -14.7,-1.1 -22.3,-2.8 17.4,51.3 18.9,112 -12.2,146.3 -31.4,34.5 -61.2,20.2 -85.7,-9.2 -1.7,14.9 -8.1,26.7 -22.8,32.2 -29.4,10.8 -54.7,6.6 -84.3,0 -5.5,-1.2 -13.6,-5.6 -18.5,-8.7 2.6,1.7 6.1,4 11.7,7.9 11.2,7.7 23.1,15.1 33.2,23.7 90.2,75 -30,75.8 -127.1,62.7 59.6,26.2 110.5,62.5 114.5,123.5 4.7,74.5 -127.3,29.6 -159.4,13.4 -16.1,-8 -50,-52.6 -31,-27.2 10.4,14.1 20.1,29.8 27.1,45.3 12,26.9 26.8,58.3 3.9,84.9 -38.5,45 -129.3,-7.9 -189.8,-53 15,35.8 27,78.3 14.4,105.6 77.5,82.7 -12,105.4 -99.3,93.9 92.2,53.6 218.3,137.8 155.1,158.8 -21.1,6.9 -46.4,7.5 -73.3,3.6 24.3,21.4 45,44.5 59.3,70 28.3,50.2 -28.2,89.8 -86.4,81.4 -45.1,-6.6 -87.1,-19.5 -125,-40.4 -8.9,-4.9 -17.6,-9.9 -26.3,-14.8 6.3,7.3 12.7,14.5 19,21.8 39.1,45.2 123.3,142.7 63.7,200.9 -1.8,1.7 -6.2,2 -8.6,1.4 -31.9,-7.5 -52.9,-23.3 -70.6,-42.7 17.8,69.7 36.2,179.8 -16.9,196.9 -31.8,10.4 -77.2,-19.7 -118.1,-54.5 -6.5,8.5 -20.2,15.6 -44.9,19.8 -76.1,13.3 -169.4,7.1 -248,-18.3 38,35.6 62.4,81.1 54.4,126.8 -10.9,63.3 -137.4,6.4 -195.5,-21.9 12.4,67.7 56.6,206.9 -72.9,156.9 -22.1,-8.6 -43.9,-24 -64.2,-42.9 -27.4,42.6 -77.8,68.6 -154.7,53.5 -50.9,-10 -85.8,-56.1 -109.4,-90.3 -4.2,-6 -7.7,-12.1 -10.9,-18.6 0,0 0.1,-0.3 0.2,-0.4 -6,-11.5 -11.4,-23.3 -16.1,-35.3 -9.5,113.6 -48.6,230 -148.6,315.6 -49.4,42.1 -61.2,-34.1 -63,-101 -14.9,31.4 -36.9,59.2 -70,57.2 -86.1,-4.9 -133.7,-77.3 -177.2,-129.6 -52.8,-63.5 -18.4,0 -13,28.4 2.1,10.2 13.4,53.3 -10.4,61 -66.4,21.8 -116.5,-40.5 -163.9,-76.2 5.4,63.7 54.6,192.8 -61.9,127.7 -44.8,-25 -79.6,-63.9 -108.4,-104.3 -7.7,40 -24.2,75.3 -52.6,97.6 -4.3,3.5 -12.4,4.8 -17.7,3.4 -81.1,-21.9 -127.7,-125.4 -136.5,-217.8 -11.7,10.8 -25.9,21.2 -45.1,30.6 -9.5,4.6 -19.7,-5.9 -22.5,-11.6 -14.8,-29.5 -4.2,-64.7 9.4,-98.7 -15.2,11.8 -31.2,18.3 -43.6,6.6 -28,-26.5 -16.4,-68.9 -4.1,-106.7 -58.7,44.4 -128.3,67.2 -208.5,82.4 -34,6.4 -137.4,36.6 -169.4,10.1 -52.3,-43.9 69.3,-149.6 152.4,-202.7 -29.2,2 -58.2,5.5 -87.7,1.5 -28.6,35.7 -62.3,68.3 -83.2,88 -10.1,9.5 -26.9,-4.5 -29.7,-11.6 -14.5,-37.4 -10.5,-80.2 1.2,-123.3 -41.4,39.8 -89.9,67.2 -134.5,47.3 -34.8,-15.3 -15,-68.3 13.7,-118 -29.7,21.2 -62.1,39 -105.2,45.4 -39.3,6 -116.7,15.8 -140.9,-20 -34.1,-50.1 23.9,-105.2 67.7,-140.6 18,-14.5 38.6,-29.3 59.9,-44.3 -10.2,-2.9 -18.7,-7 -24.3,-12.7 -12.6,-12.4 -10.7,-27.4 -0.8,-43.1 -10.9,4 -21.6,8.2 -32.8,11.7 -47.2,14.9 -111.5,41.6 -161.9,36.6 -4.7,-0.4 -8.6,-4.7 -8.9,-8.5 -1.7,-34.1 29.2,-69.2 56.1,-101.3 -49.1,-8.4 -108.2,-28.6 -111.4,-65.6 -1.8,-22 15.9,-41.9 42,-59.3 -14.7,-6.5 -24.7,-17.9 -27.3,-36.7 -1,-7.2 0.3,-15.4 2.4,-23.8 -12.6,10.6 -26.4,20.2 -40.7,29.6 0,0.4 -0.2,0.7 -0.2,0.9 -1.6,1.1 -3.5,2.1 -5.2,3.1 -2.3,1.6 -4.9,3 -7.4,4.6 -16.1,9.9 -33.2,19.4 -51.8,27.7 -17.8,7.8 -44,14.3 -69.5,15.7 -0.7,8.8 -3,17.6 -9.4,26 -1,1.4 -4.2,2.1 -6,1.9 -23.8,-2.1 -40.5,-11.3 -55.3,-23.4 20.2,48.3 44.9,125.8 8.5,143.6 -21.9,10.8 -57.7,-6.1 -90.8,-26.8 -3.9,6.7 -13,13.3 -30.3,19 -53.5,17.5 -121.4,22.8 -180.6,12.6 31,21.8 53.5,52 52.4,85.8 -1.2,46.7 -98.3,18.9 -143.1,4.6 16.1,47.5 62.5,143.2 -36.1,120.7 -16.8,-3.8 -34.1,-12.7 -50.7,-24.1 -15.3,33.5 -48.9,57.5 -105.8,54.7 -37.8,-1.9 -67.7,-31.5 -88.4,-53.6 -3.5,-3.9 -6.7,-8 -9.7,-12.2 0,-0.2 0,-0.3 0.1,-0.4 -5.5,-7.7 -10.7,-15.6 -15.3,-23.8 5,82.9 -10.9,170.8 -74,242.9 -31.2,35.6 -47.7,-18.1 -56,-66.1 -7.5,24.2 -20.4,46.5 -44.5,48.6 -62.4,5.4 -104.3,-41.7 -141.1,-74.8 -44.7,-40.2 -13.3,1.9 -6.4,21.8 2.5,7.1 15.3,37 -1.2,45 -45.6,22.7 -88.1,-16.9 -126.1,-37.7 10.6,45.4 59.6,133.2 -31.2,98.5 -34.9,-13.4 -64,-37.7 -89,-63.8 -1.3,29.7 -9.5,56.8 -27.7,75.8 -2.7,3 -8.3,4.8 -12.4,4.3 -60.6,-7.3 -105,-77 -121,-142.7 -7.4,9.1 -16.5,18.1 -29.3,26.9 -6.5,4.3 -14.9,-2.2 -17.5,-6 -13.7,-19.7 -9.8,-46.3 -3.5,-72.1 -9.7,10.1 -20.7,16.5 -30.8,9.3 -22.9,-16.2 -18.9,-47.9 -14.1,-76.4 -37.6,38.1 -85.5,61.8 -141.6,81.2 -23.8,8.2 -95.2,40.7 -121,25 -42.3,-26.2 34.3,-115.1 88.6,-162.1 -20.9,4.6 -41.3,10.2 -63.1,10.3 -16.8,28.7 -37.7,55.7 -50.6,72.1 -6.4,8 -19.9,-0.4 -22.7,-5.2 -14.4,-25.4 -16,-56.7 -12,-88.9 -25.7,32.9 -57.8,57.8 -91.9,48.1 -26.8,-7.4 -18.1,-47.6 -2.6,-86.4 -19.1,18.4 -40.6,34.5 -71,43.7 -27.6,8.5 -82.4,23.6 -103.6,0.4 -29.8,-32.6 6.2,-78.4 34.1,-108.4 11.4,-12.4 24.7,-25.2 38.5,-38.3 -7.7,-0.9 -14.2,-3 -18.9,-6.5 -3.3,-2.5 -5.2,-5.3 -6.6,-8.3 -14.5,1.8 -29.3,2 -44.2,1 -28.3,14.3 -60.9,30.2 -89.4,31.4 -3.5,0.2 -6.8,-2.4 -7.3,-5.1 -2.7,-13.7 2.2,-28.7 9.6,-43.8 -44.9,-13.8 -86.7,-34.1 -128.6,-55 -14.6,-5.8 -29.2,-11.3 -43.8,-16.8 0.7,14 -3.2,27.2 -14.7,38.4 -1.3,1.3 -4.5,1.5 -6.2,1.1 -23.3,-5.5 -38.5,-17.1 -51.4,-31.1 13,50.7 26.3,130.9 -12.4,143.3 -23.1,7.5 -56.1,-14.4 -85.9,-39.6 -4.5,5.7 -13.8,10.6 -29.9,13.8 44.2,19.4 88.7,37.5 132.5,58.6 95.3,45.9 284.9,145.5 192,277.5 -30.4,43.3 -94,49.4 -138.7,26.1 -62.8,-32.7 -107.5,-88.7 -151,-143.6 -29.6,-37.4 -65.4,-71.7 -100.5,-103.9 -27.3,-25 -53.8,-51.2 -82.4,-74.8 4.3,12.9 6.7,26.2 4.3,39.6 -7.9,46.1 -100,4.7 -142.3,-15.9 0.5,2.8 1.2,5.9 1.8,9.1 0.6,0.5 1.2,1.1 1.9,1.6 4.9,4.6 9.9,9 14.4,13.3 5.2,4.7 10,9.2 14.1,13.5 36.1,37.8 76.1,71.3 118.5,101.8 88.4,63.6 187.7,121.4 220.7,232.8 11.8,39.4 17.2,94.8 -16.4,125.8 -30.6,28.4 -77.2,18.5 -111.2,2.2 -83.8,-40.2 -124.7,-126.4 -163.4,-207.3 0.2,0.4 0.4,0.8 0.6,1.3 -6.9,-14.6 -13.9,-29.1 -20.9,-42.9 -21,-41.4 -43.6,-90.5 -74.2,-129.8 -9.6,1.3 -22.2,-0.7 -38.9,-7.2 -16.1,-6.2 -32,-17.4 -46.8,-31.2 -6.7,10.5 -15.5,19.4 -26.2,26.4 -0.3,5.1 0.1,10.3 1.8,15.7 4.6,13.9 10.2,26.3 16.4,38.4 0.8,1.4 1.3,2.9 2.1,4.3 6.6,12.2 13.7,24.2 21.6,36.6 17.6,28 48.3,52.4 71.1,76.4 26.6,28.1 56.4,53 82.2,81.8 36.8,41 76.8,91.4 91.2,145.7 3.2,12.4 5,25.8 5.3,39.3 4.5,37 -1.9,74 -28.6,98 -7.7,7 -16.3,11.4 -25.1,13.6 -32.2,10.7 -73.9,-13.4 -97.1,-31.8 -52.4,-41.7 -73.5,-111 -92.3,-172 -15.9,-51.9 -31.9,-105.2 -54.1,-155.4 -8.6,-19.5 -17.9,-38.6 -28.9,-56.9 -10.9,-18.2 -24.4,-58.8 -47.5,-63.8 -44.3,-9.6 -42.2,64.2 -40.4,88.8 0.9,11.6 3.1,22.8 5.8,33.9 0.8,3.3 1.7,6.6 2.7,9.9 2.4,8.3 5.3,16.6 8.4,24.7 1.1,2.6 2,5.4 3.1,8 9.7,22.7 21.9,44.6 34.9,65.7 53,86.7 133,182.3 130.9,289.7 -0.5,27.5 -11.4,56.5 -29.5,77.4 -19.1,22.2 -59.2,37.6 -86.4,23.2 -51.1,-27.3 -63.5,-99.6 -69.5,-165.7 0,0.1 -0.1,0.3 -0.1,0.5 -0.7,-7.3 -1.2,-14.6 -1.8,-21.7 -0.8,-10.3 -1.6,-20.1 -2.4,-29.5 -0.2,-2.8 -0.5,-5.5 -0.7,-8.3 -0.9,-9.8 -1.9,-19 -3.1,-27.3 -7.2,-47 -3.7,-122.9 -57.1,-147 -60.7,-27.5 -79.8,77.2 -87.5,114.5 -3,15.2 -5.6,30.4 -7.7,45.6 -15.3,103.2 -15.4,207.7 -54.2,306.7 -28.7,73.3 -89.9,156.3 -178,149.1 -14,-1.1 -25.5,-5 -35.9,-10 -0.1,0.3 -0.1,0.5 -0.2,0.8 -2.7,-1.3 -4.8,-3 -7.3,-4.5 -2.2,-1.4 -4.7,-2.7 -6.8,-4.3 -4.2,-3.2 -7.9,-6.8 -11.5,-10.6 -1.1,-1.2 -2.6,-2.3 -3.6,-3.7 -4.4,-5.2 -8,-11 -11.2,-17.2 -0.9,-2.1 -1.8,-4.3 -2.7,-6.4 -1.9,-4.5 -3.7,-9 -5.1,-13.8 -0.8,-2.7 -1.4,-5.4 -2.1,-8.2 -1,-4.5 -1.9,-9.2 -2.7,-13.9 -0.4,-2.8 -0.7,-5.7 -1,-8.6 -0.5,-5.1 -0.7,-10.3 -0.7,-15.5 -0.1,-2.5 -0.2,-4.9 -0.2,-7.5 0.2,-7.7 0.6,-15.4 1.6,-23 7.5,-61 24.2,-115.2 46.4,-172.2 30.2,-77.9 73.4,-148.5 122.1,-216 0.4,-0.5 0.8,-0.9 1.1,-1.4 0,0.1 -0.1,0.1 -0.1,0.1 7.6,-10.5 15.9,-20.8 24,-31.1 19.3,-24.3 38.8,-48.5 56.1,-74.3 11.6,-17.1 22.4,-34.5 33,-52.1 5.1,-8.4 33.3,-55.8 3.3,-58.2 -10.9,-0.9 -24,5.6 -33.9,9.5 -70.9,28.1 -116.1,90.9 -180.2,128 -7.1,7 -14.7,13.9 -22.6,20.7 -2.1,1.7 -4.1,3.5 -6.2,5.2 -6,4.9 -12.1,9.6 -18.2,14.2 -1,0.8 -2,1.7 -3.1,2.4 0.5,-0.4 1,-0.8 1.5,-1.2 -12.3,9 -24.8,17.4 -37,24.1 -22.6,12.7 -69,10.4 -92.8,2.9 -29.8,-9.3 -52.8,-33.1 -61.3,-63.2 -23.2,-83 60.5,-146.5 126.4,-176 45.8,-20.5 94.4,-32.2 142.7,-45 11.3,-2.9 23.1,-5.7 34.6,-8.5 -19.8,-18.2 -36,-40.2 -51.4,-58.8 -7.8,-9.3 -12.5,-14.1 -15.8,-16.9 -1.6,0.8 -3.2,1.7 -4.8,2.5 2.1,8.4 9.1,24.8 11.1,35 1.5,7.5 9.8,38.8 -7.7,44.5 -39.2,12.9 -70.5,-14.5 -99.4,-39.2 -5.5,2 -11.1,3.8 -16.7,5.7 8.5,48.1 24.7,111.7 -48.2,70.9 -23.7,-13.1 -43.4,-31.8 -60.6,-52.1 -8.1,-0.7 -15.9,-2.2 -23.3,-4.4 -6.7,21 -17.4,39.2 -33.4,51.8 -3,2.4 -8.9,3.5 -12.8,2.3 -59.1,-15.8 -92.9,-91.2 -99.3,-158.5 -8.6,7.9 -18.9,15.4 -32.8,22.3 -7,3.3 -14.4,-4.3 -16.4,-8.4 -10.8,-21.5 -3.1,-47.2 6.8,-71.9 -11.1,8.6 -22.8,13.3 -31.8,4.8 -20.3,-19.3 -11.9,-50.2 -3,-77.7 -42.7,32.4 -93.4,48.9 -151.8,60 -10.8,2 -31.7,7.4 -53.5,11.1 -3.1,3.7 -6.5,7.3 -11,9.5 -27.9,13.8 -73.7,-7.8 -116.1,-34.3 -4.9,8.6 -16.5,17 -38.7,24.3 -68.3,22.4 -155.1,29.1 -230.9,16.2 39.8,27.8 68.4,66.3 67.1,109.5 -1.5,59.7 -125.7,24.3 -182.9,6 20.5,60.7 79.8,183 -46.2,154.2 -21.4,-4.8 -43.7,-16.1 -64.8,-30.8 -19.5,42.9 -62.5,73.5 -135.3,70 -48.3,-2.5 -86.5,-40.3 -112.8,-68.6 -4.7,-4.9 -8.7,-10.2 -12.5,-15.7 0,0 0.1,-0.2 0.1,-0.3 -7.1,-9.8 -13.6,-20.1 -19.5,-30.4 6.3,105.9 -14.1,218.3 -94.7,310.4 -39.9,45.5 -60.9,-23.1 -71.6,-84.5 -9.5,31 -25.9,59.5 -56.8,62.1 -79.9,7 -133.4,-53.2 -180.4,-95.6 -57.2,-51.5 -17,2.4 -8.2,27.9 3.3,9.1 19.5,47.3 -1.5,57.6 -58.2,28.9 -112.6,-21.8 -161.1,-48.2 13.5,57.9 76.2,170.2 -39.9,125.8 -44.5,-17.1 -81.8,-48.1 -113.8,-81.5 -1.7,37.8 -12.2,72.6 -35.4,96.9 -3.5,3.7 -10.7,6.1 -15.8,5.5 -77.6,-9.3 -134.4,-98.4 -154.8,-182.4 -9.3,11.6 -21,23 -37.4,34.3 -8.2,5.5 -19,-2.8 -22.4,-7.6 -17.5,-25.3 -12.5,-59.1 -4.4,-92.2 -12.5,12.9 -26.4,21.1 -39.4,11.9 -29.3,-20.7 -24.3,-61.2 -18,-97.7 -48.1,48.8 -109.2,79 -181,103.8 -30.4,10.4 -121.6,52.1 -154.6,31.9 -54.1,-33.4 43.8,-147 113.2,-207 -26.7,5.7 -52.9,12.9 -80.6,13 -21.6,36.7 -48.3,71.3 -64.9,92.3 -8,10.1 -25.3,-0.6 -28.8,-6.8 -18.4,-32.4 -20.6,-72.4 -15.4,-113.6 -32.8,42.1 -73.8,73.8 -117.5,61.6 -34.2,-9.4 -23.1,-61 -3.2,-110.5 -24.6,23.5 -52,44.1 -90.8,55.8 -35.4,10.8 -105.4,30.3 -132.5,0.5 -38.1,-41.6 7.9,-100.1 43.5,-138.5 14.6,-15.8 31.6,-32.2 49.3,-48.9 -9.8,-1.3 -18.1,-3.9 -24.1,-8.4 -13.3,-9.8 -13.5,-23.7 -6.5,-39.6 -9.5,5.1 -18.8,10.4 -28.6,15.2 -41.5,20 -97.1,53.2 -144.2,55.4 -4.4,0.1 -8.6,-3.3 -9.4,-6.7 -6,-31.2 17.7,-67.7 38,-100.8 -46.2,-1.2 -103.4,-11.9 -111.3,-45.5 -4.6,-20.1 9.1,-40.6 30.8,-60.2 -14.4,-4 -25.2,-13.1 -30.1,-30.1 -1.9,-6.6 -1.7,-14.3 -1,-22.2 -10.2,11.3 -21.6,22.1 -33.3,32.7 -0.1,0.3 -0.2,0.5 -0.2,0.8 -1.4,1.2 -2.9,2.3 -4.3,3.6 -2,1.7 -4.2,3.4 -6.3,5.1 -13.6,11.3 -27.9,22.3 -43.9,32.4 l -0.1,0.1 c -12.4,7.6 -29.7,15.4 -48.3,20.6 5.3,23.7 2.2,46.4 -16.8,64.8 -1.6,1.6 -5.7,2 -7.9,1.5 -29.7,-7.1 -49.2,-21.9 -65.8,-39.8 16.7,64.8 33.7,167.3 -15.6,183.1 -29.7,9.7 -71.9,-18.3 -109.9,-50.6 -6.1,7.8 -18.8,14.5 -41.8,18.4 -70.9,12.4 -157.7,6.6 -230.8,-17.1 35.3,33.2 58,75.5 50.5,118 -10.1,58.9 -127.8,6 -181.8,-20.4 11.5,63 52.6,192.6 -67.8,146.1 -20.7,-8 -41,-22.4 -59.8,-39.9 -25.5,39.6 -72.4,63.8 -143.9,49.8 -47.5,-9.4 -79.9,-52.3 -101.9,-84.1 -3.9,-5.6 -7.1,-11.3 -10.1,-17.3 0,-0.1 0.1,-0.3 0.1,-0.3 -5.5,-10.8 -10.4,-21.8 -14.8,-32.9 -9,105.7 -45.3,214 -138.4,293.6 -46,39.2 -56.9,-31.7 -58.6,-93.9 -13.9,29.2 -34.4,55 -65.2,53.2 -80.1,-4.5 -124.4,-71.9 -164.8,-120.5 -49.2,-59.2 -17.2,-0.1 -12,26.4 1.8,9.5 12.4,49.5 -9.8,56.8 -61.8,20.1 -108.4,-37.8 -152.57,-71 5.03,59.3 50.77,179.4 -57.64,118.8 -41.56,-23.2 -74.03,-59.4 -100.82,-97 -7.14,37.2 -22.49,70 -49.03,90.8 -3.98,3.3 -11.44,4.5 -16.39,3.1 -75.5,-20.3 -118.85,-116.6 -126.96,-202.7 -10.96,10.1 -24.11,19.7 -41.97,28.6 -8.85,4.2 -18.43,-5.5 -20.94,-10.8 -13.8,-27.5 -3.98,-60.3 8.76,-91.8 -14.2,10.9 -29.14,16.9 -40.67,6.1 -25.97,-24.8 -15.17,-64.2 -3.81,-99.3 -54.55,41.3 -119.41,62.5 -194.01,76.6 -31.58,6 -127.85,34.1 -157.56,9.4 -48.79,-40.8 64.45,-139.2 141.73,-188.6 -27.19,1.9 -54.06,5.2 -81.58,1.4 -26.54,33.2 -58.04,63.5 -77.44,81.9 -9.42,8.9 -25,-4.2 -27.6,-10.8 -13.56,-34.9 -9.82,-74.7 1.14,-114.7 -38.56,37 -83.69,62.5 -125.17,44 -32.47,-14.2 -14.05,-63.6 12.74,-109.8 -27.68,19.7 -57.8,36.2 -97.9,42.2 -36.53,5.6 -108.69,14.7 -131.18,-18.6 -31.65,-46.6 22.24,-97.9 63.07,-130.8 16.73,-13.5 35.89,-27.4 55.78,-41.2 -9.58,-2.7 -17.46,-6.5 -22.73,-11.9 -11.69,-11.6 -9.91,-25.4 -0.74,-40.1 -10.06,3.8 -20.04,7.6 -30.44,11 -43.91,13.8 -103.74,38.6 -150.65,34 -4.39,-0.4 -8.04,-4.5 -8.29,-8 -1.54,-31.7 27.11,-64.4 52.12,-94.2 -45.62,-7.9 -100.74,-26.7 -103.58,-61 -1.7,-20.6 14.77,-39 39.04,-55.2 -13.64,-6.1 -22.97,-16.6 -25.4,-34.2 -0.9,-6.7 0.32,-14.3 2.27,-22.1 -11.85,9.8 -24.68,18.8 -37.83,27.6 -0.08,0.2 -0.24,0.5 -0.32,0.8 -1.47,1 -3.17,1.9 -4.71,2.8 -2.27,1.5 -4.71,2.9 -6.98,4.2 -14.94,9.3 -30.77,18.1 -48.06,25.8 l -0.16,0.1 c -18.18,8 -45.79,14.8 -71.76,15.1 -6.49,0 -12.91,-0.3 -19,-1.1 -18.34,-2.4 -34.25,-9.3 -43.1,-22.9 -10.47,-16.4 -14.77,-34.6 -14.53,-53.7 0.16,-9.6 1.38,-19.4 3.49,-29.4 10.88,-49.9 44.65,-104 74.6,-150.9 -32.06,21.3 -63.8,42.8 -98.95,57.2 -35.15,14.4 -73.63,21.7 -119.17,14.8 -8.36,-1.3 -14.36,-3.9 -18.34,-7.6 -1.95,-1.9 -3.49,-4 -4.55,-6.5 -0.97,-2.3 -1.54,-4.9 -1.78,-7.7 -2.11,-33.9 53.9,-97.5 84.34,-132.6 -46.92,17.2 -104.55,45 -141.25,17.7 -5.27,-4 -10.06,-9 -14.36,-15.3 -3.9,-5.7 -6.18,-11.5 -7.07,-17.5 -3.73,-24 14.05,-50.5 38.73,-75.8 18.58,-19 40.99,-37.4 61.2,-53.6 -0.08,-0.3 -0.16,-0.5 -0.41,-0.8 -21.1,7.5 -45.54,15.2 -71.43,22.2 -17.29,4.6 -35.15,8.9 -53.17,12.5 -8.93,1.9 -17.94,3.6 -26.87,5.1 -26.79,4.4 -53.09,7 -76.87,6.9 -31.74,-0.2 -59.09,-5.4 -77.36,-18 -13.8,-9.4 -22.4,-23 -24.03,-41.8 -1.62,-18.1 24.11,-34.5 38.4,-44.9 21.51,-15.5 42.37,-31.9 63.31,-48.3 -3.49,-0.4 -6.9,-1.2 -9.98,-2.5 -3.17,-1.3 -6.01,-3.1 -8.6,-5.6 -11.69,-11 -16.4,-25.4 -17.05,-40.7 -0.57,-15.2 3.08,-31.4 8.03,-46.5 -1.3,-2.3 -1.94,-4.9 0,-7.5 1.3,-2 3.09,-3.5 4.63,-5.3 2.03,-4.8 3.81,-9.3 5.85,-13.5 12.58,-28.2 30.52,-52.7 50.16,-75.9 -0.65,0.1 -1.46,0.1 -2.19,0.3 -27.6,30.8 -52.52,63 -75.66,89.9 -15.9,18.4 -66.72,84.4 -101.63,70.9 -18.18,-7.1 -20.94,-22.4 -17.77,-38.8 3.24,-16.4 12.33,-33.8 17.93,-45.1 4.79,-9.7 11.45,-19.8 19,-30 10.07,-13.5 22,-27.2 35.47,-40.6 -4.87,-0.2 -9.74,-0.3 -14.69,-0.5 -9.82,-0.5 -19.56,-1.1 -29.06,-2.1 -4.79,-0.5 -9.42,-1 -13.96,-1.6 -5.6,-0.7 -10.88,-1.7 -15.99,-2.7 -20.38,-4 -37.34,-9.9 -46.84,-18.8 -5.84,-5.5 -8.85,-12 -8.28,-19.7 0,-0.3 -0.08,-0.4 0,-0.6 0.4,-5.4 2.6,-11.3 6.82,-18 2.03,-3.2 4.62,-6.7 7.79,-10.3 3.41,-4 7.39,-7.9 11.69,-11.7 17.29,-14.9 40.75,-27.5 64.53,-37.9 17.94,-7.9 35.97,-14.6 51.87,-20.2 21.68,-7.5 45.22,-16.2 69.74,-24.8 24.59,-8.6 50.16,-17.1 75.89,-24.4 -9.01,-2.2 -17.69,-4.8 -25.81,-6.8 -16.72,-4.4 -42.7,-11.8 -70.05,-21.3 -11.86,-4.2 -23.71,-8.8 -35.4,-13.6 -33.28,-13.8 -63.39,-30.1 -75,-47.6 -2.93,-4.3 -4.87,-8.2 -6.17,-11.7 -0.49,-1.3 -0.49,-2.5 -0.81,-3.6 -0.49,-2.3 -0.98,-4.4 -0.81,-6.3 0,-1.2 0.32,-2.2 0.56,-3.3 0.49,-1.7 1.06,-3.4 2.03,-4.9 0.57,-0.8 1.22,-1.7 1.95,-2.4 1.3,-1.4 2.92,-2.7 4.87,-4 0.89,-0.5 1.63,-1.1 2.68,-1.7 2.43,-1.2 5.2,-2.2 8.28,-3.1 0.89,-0.3 1.62,-0.6 2.6,-0.8 4.22,-1.2 8.85,-2.1 13.96,-2.6 0.48,-0.1 1.05,-0.1 1.54,-0.1 4.47,-0.6 9.33,-0.9 14.45,-1.1 3.17,-0.1 6.57,-0.1 9.99,-0.1 2.35,0 4.7,0 7.22,0 1.46,0 2.84,0 4.38,0 l 0.09,0.2 c 39.69,1.3 89.37,8.7 134.66,17.1 -65.02,-40.8 -119.16,-89.3 -137.91,-147 -15.34,-48 77.11,-24.2 162.51,6.5 -6.25,-4.7 -12.66,-9.3 -18.43,-14.6 -48.22,-45 -86.29,-97.3 -114.29,-153.2 -59.59,-118.7 93.84,-67 160.64,-37.3 22.73,10 45.46,20.4 67.79,31.3 -11.86,-9.9 -22.57,-20.4 -33.53,-31.2 -32.87,-32.5 -61.85,-78.2 -71.43,-122.3 -0.17,0.9 -0.49,1.8 -0.57,2.7 -1.47,-6.2 -2.6,-12.5 -3.17,-18.6 -3.97,-38.9 2.35,-80.3 20.38,-111 -49.68,-44.8 -115.92,-105.2 -107.56,-161.8 0.81,-5.5 7.55,-10.7 14.37,-10.7 59.17,2.3 136.86,29.5 187.11,50.5 32.06,13.3 62.58,27.1 92.7,41.4 -49.03,-39.7 -93.76,-83 -94.57,-130.4 -0.16,-5.5 2.11,-8.6 7.55,-11.3 43.91,-21.6 131.5,34.7 185.97,72.4 -9.66,-29.8 -11.85,-60 -8.77,-91 92.95,31.3 186.14,61.7 280.06,89.7 4.63,1.4 9.25,2.7 13.88,4.1 v 0 c 8.36,2.4 16.8,4.8 25.16,7.3 v 0 c 106.42,31 213.9,59.5 322.35,83.6 3.89,0.9 7.79,1.8 11.77,2.7 52.6,11.5 105.36,22 158.45,31.2 3.57,0.6 7.15,1.2 10.72,1.7 53.65,9.2 107.55,17.1 161.62,23.4 2.35,0.3 4.7,0.7 7.06,1 36.45,4.1 72.98,7.6 109.5,10.2 35.72,2.5 71.68,4.1 107.72,5 -2.52,4.7 -5.03,9.4 -7.54,14.4 3.24,40.4 -17.7,87.6 -35.07,132 45.05,-61.9 112.75,-145.5 179.56,-119.7 25.65,9.9 31.49,31.7 34.25,52.6 2.28,17 2.35,34.3 1.22,51.7 23.14,-43.6 51.87,-68.9 81.5,-23.9 29.71,45.3 40.99,97.1 59.34,146.4 -14.45,-38.7 -3.01,-84.9 -9.58,-124.9 -4.22,-25.9 -3.73,-59.6 3.49,-85.8 0.73,-2.9 4.38,-4.7 7.87,-4 90.88,19.4 166.28,92.7 219.38,152.6 -7.8,-9.4 -15.8,-18.8 -23.2,-28.7 -15.2,-19.9 -26.8,-34.3 -25.2,-58.6 3.4,-51.3 138.5,34.6 142.1,37 46.5,30.2 81,75 104.6,123.2 0.3,-23.5 1.8,-47.4 7.5,-72 4.3,-18.6 33,-86.9 63,-86.9 20.1,0.2 42.4,1 47.6,21.6 8.9,35.2 26.8,68.7 43.4,102.4 3.3,-54.5 15.7,-120.8 58.1,-125.6 -17.6,-26.5 -34.5,-56.3 -36,-81 -0.4,-7 6.6,-13 15.3,-11 53,11.7 96.7,38.7 141.9,63 -59.6,-56.1 -128.9,-133.7 -80.7,-171.4 28.6,-22.6 68.4,-15.3 97.8,3.6 1.5,-7.6 3.8,-15.4 6.1,-23.3 9.9,-33.6 57.5,-150.3 105.4,-159.4 43.3,-8.1 53.7,36.1 53.3,85.9 13.7,-34.7 29.1,-68.9 47.5,-105.5 10,-19.7 39.6,-88.2 77.3,-81.6 46.8,8 42.2,82.4 46.9,110 3.4,20.2 4.5,40.5 3.8,60.5 17.2,-31.3 37.3,-61.4 65.8,-88.3 29.5,-27.6 107.7,-123.2 165.8,-100.6 54.3,21 50.8,111.7 54.9,151.6 0.9,7.3 0.6,14.1 0.9,21.1 9.3,-10.1 18.4,-20.2 27.8,-30.3 7.8,-8.3 17.6,-6.5 26.9,-1.6 28.6,14.8 24.8,31.8 20.5,59 -5.2,32.7 -14.2,65.2 -25.8,97.3 36.6,-35 75,-67.7 126.1,-92.1 33.7,-16.3 98.9,-33.7 133.1,-12.3 41.9,26.2 -15.3,92.6 -77.3,148.5 90.4,-45.7 194.5,-84.8 284.2,-65.8 -0.6,-11.6 -1.3,-23.3 -0.9,-34.8 1.1,-34.7 38,-64 73.1,-34 74.2,63.2 127.4,139.6 176.7,218.4 -10,-71.2 -8.6,-163 91.5,-140 53.3,12.1 70.6,76.5 86,113.9 15.7,38.6 16.6,75.2 13.5,113.6 31,-39.1 57.7,-72.5 119.9,-101 31.5,-14.5 66,9.9 71,33.6 13.8,65.2 -7.2,133.7 -30.2,199 -2.3,6.4 -4.8,13.3 -7.2,20.3 9,39.6 -4.9,89.3 -15.7,135.8 35.7,-67.8 90.7,-160.3 160.5,-144.4 26.7,6.1 35.8,26.9 41.4,47.2 4.7,16.5 7.3,33.5 8.6,50.9 16.7,-46.4 41.5,-75.5 77.2,-35.3 36,40.6 54.6,90.2 79.8,136.3 -19.9,-36.2 -15.1,-83.6 -27.3,-122.2 -7.9,-25 -12.3,-58.4 -9,-85.4 0.3,-3 3.6,-5.4 7.3,-5 92.7,6.1 177.8,67.7 239,119.4 -9.1,-8.2 -18.4,-16.3 -27.1,-25.1 -17.8,-17.5 -31.5,-30.1 -33.4,-54.4 -4,-51.3 142.1,14.3 146,16.2 50.3,23.3 90.9,62.5 121.2,106.9 -3.1,-23.3 -5,-47.2 -2.9,-72.4 1.6,-19 20.1,-90.7 49.8,-95 19.9,-2.8 42.1,-5.2 50.2,14.5 14,33.5 36.4,64.1 57.7,95.2 -4.5,-54.5 -1.8,-121.9 39.5,-132.8 -21.2,-23.6 -42.2,-50.7 -47.3,-74.9 -1.4,-6.9 4.6,-13.9 13.5,-13.1 54.2,3.9 101.3,24.4 149.6,41.9 -58.1,-40.7 -125.7,-96.3 -115.1,-139.3 103.8,-26.3 208.9,-46.9 314.5,-65.1 133.7,-23 267.8,-42.6 400.1,-73 22.2,-5 44.1,-11.1 66.2,-16.5 -1.2,7.6 -2.1,15.2 -3.7,22.9 7.3,-9.4 14.8,-18.5 22.4,-27.5 77.8,-19.4 155.4,-40.1 232.5,-62.2 -10.4,31.2 -38.2,70.5 -68.5,107.1 102.4,-72 227.2,-138.7 335.2,-92 72.9,31.3 -70.8,156.9 -165.9,235.2 57.1,-25.1 113.5,-51.8 174.2,-70.7 41.3,-12.8 97.1,-33.7 132.4,-8.2 41.8,30.3 -24.9,87.5 -78.3,128.8 43.8,-17.6 94,-31 108.3,-4.5 15.6,28.1 -7.7,61.1 -45.8,92.6 129.9,-15.2 263.1,0.8 315.7,85.3 44.4,72 7.7,124.6 -58.7,158.6 15,0.8 30.8,2.7 43.8,7.4 h 22.2 c 0.7,-3.9 0.6,-8.1 1.6,-11.6 0.5,-2.3 3.5,-3.7 6.2,-3.1 14.6,3.1 28.7,8.4 42.2,14.7 h 151.5 235 c 9.1,-14.2 23.6,-24.1 41.7,-27.2 v 0 c -0.4,-5.6 5.2,-10.3 12,-8.6 31.8,6.9 59.2,21 86.3,35.8 h 10.8 c -42.5,-42.3 -83.2,-94 -49.3,-120.7 22.5,-17.7 53.6,-12 76.6,2.8 1.1,-5.9 2.9,-12 4.6,-18.2 7.8,-26.3 45.1,-117.6 82.6,-124.7 33.8,-6.3 42,28.3 41.6,67.2 10.7,-27.2 22.8,-53.9 37.2,-82.5 7.9,-15.4 31,-69 60.6,-63.9 36.5,6.2 32.9,64.5 36.6,86 2.7,16 3.5,31.7 2.9,47.5 13.5,-24.6 29.2,-48.1 51.5,-69.2 23.1,-21.6 84.3,-96.3 129.8,-78.7 42.5,16.5 39.7,87.5 42.9,118.6 0.7,5.7 0.5,11.1 0.7,16.5 7.3,-7.9 14.4,-15.8 21.8,-23.7 6.1,-6.4 13.8,-5 21,-1.3 22.4,11.7 19.5,25 16,46.2 -4,25.6 -11,51.1 -20.1,76.2 28.6,-27.4 58.6,-53 98.6,-72.1 26.4,-12.7 77.4,-26.3 104.2,-9.6 32.7,20.5 -12,72.5 -60.5,116.1 70.7,-35.7 152.2,-66.3 222.3,-51.4 -0.5,-9.1 -1,-18.3 -0.7,-27.2 0.9,-27.2 29.7,-50.1 57.2,-26.7 58.1,49.5 99.6,109.3 138.3,170.9 -7.9,-55.7 -6.8,-127.4 71.6,-109.5 41.7,9.4 55.2,59.8 67.2,89.1 5.8,14.3 8.9,28.3 10.4,42.3 h 43.1 c 13.3,-11.6 29.1,-22.5 50.9,-32.5 24.5,-11.2 51.7,7.8 55.5,26.4 0.4,1.9 0.2,4 0.5,6.1 h 359.7 c 10.6,25.4 10.2,53.8 4.8,80.9 -3.1,15.3 -6.2,30.5 -9.2,45.8 v -0.3 c -4.5,21.5 -9.4,43.1 -14.6,64.3 25.6,15.9 49.1,34 69,50.8 -7.1,-6.4 -14.3,-12.8 -21.2,-19.6 -13.9,-13.7 -24.5,-23.5 -26.1,-42.5 -3.1,-40.1 111.2,11.2 114.3,12.6 39.3,18.2 71.1,49 94.8,83.6 -2.4,-18.2 -4,-36.8 -2.3,-56.5 1.3,-15 15.7,-71.1 39,-74.4 15.6,-2.2 32.9,-4.1 39.2,11.3 11,26.3 28.5,50.2 45.2,74.4 -3.5,-42.6 -1.4,-95.3 30.9,-103.8 -16.7,-18.5 -33.1,-39.6 -37,-58.6 -1.2,-5.4 3.5,-10.8 10.5,-10.2 42.5,3 79.2,19 117.1,32.8 -45.5,-31.9 -98.3,-75.4 -90.1,-109 81.2,-20.6 163.5,-36.7 246.1,-51 104.5,-18 209.5,-33.2 313,-57 15.4,-3.5 30.7,-7.7 46.1,-11.6 -0.1,-0.4 -0.2,-0.8 -0.2,-1.2 -4.3,-41.7 2.6,-86.3 21.9,-119.2 -53.3,-48.2 -124.5,-113.1 -115.6,-174 0.9,-5.8 8.2,-11.5 15.5,-11.3 63.5,2.4 147.1,31.5 201,54.1 34.5,14.4 67.3,29.2 99.7,44.5 -52.7,-42.7 -100.9,-89.1 -101.7,-140 -0.1,-6 2.3,-9.4 8.1,-12.2 47.3,-23.2 141.3,37.2 199.9,77.7 -10.4,-32 -12.7,-64.4 -9.4,-97.7 99.8,33.5 200,66.3 300.9,96.4 5,1.4 10,2.8 14.9,4.3 v 0 c 9.2,2.7 18.5,5.3 27.7,8 110.7,32.4 222.7,62.1 335.6,87.5 8.8,2 17.7,4 26.5,5.9 22.1,4.8 44.3,9.5 66.4,13.9 10.9,2.2 21.9,4.3 32.8,6.4 21.7,4.3 43.3,8.3 65,12 10.8,2 21.5,3.6 32.3,5.4 51.4,8.4 102.8,16 154.6,22 2.8,0.3 5.5,0.7 8.4,1.1 39.1,4.4 78.3,8.2 117.5,11 38.5,2.8 77.1,4.5 115.8,5.4 -2.6,5 -5.3,10 -8.1,15.4 3.5,43.5 -19,94.1 -37.7,141.9 48.5,-66.5 121.2,-156.4 193,-128.7 27.5,10.6 33.9,34.1 36.8,56.7 2.4,18.2 2.5,36.7 1.3,55.3 24.9,-46.7 55.8,-73.8 87.6,-25.5 31.9,48.7 44.1,104.3 63.7,157.3 -15.5,-41.6 -3.2,-91.3 -10.2,-134.3 -4.6,-27.7 -4,-64 3.7,-92.1 0.8,-3.2 4.6,-5.1 8.5,-4.3 97.6,20.8 178.6,99.6 235.7,164 -8.4,-10.1 -17,-20.3 -24.8,-30.9 -16.4,-21.4 -28.9,-36.8 -27.2,-63 3.6,-55.1 148.9,37.2 152.7,39.8 50,32.5 87.1,80.6 112.5,132.4 0.2,-25.3 1.9,-50.9 8,-77.4 4.6,-20 35.4,-93.3 67.6,-93.3 21.7,0.1 45.6,0.9 51.2,23.1 9.6,37.9 28.8,73.9 46.6,110.1 3.6,-58.6 17,-129.8 62.5,-135 -18.9,-28.4 -37.1,-60.5 -38.7,-87 -0.5,-7.6 7.1,-14 16.4,-11.8 57.1,12.5 104,41.5 152.6,67.7 -64,-60.3 -138.6,-143.8 -86.8,-184.3 30.8,-24.2 73.5,-16.4 105.2,3.9 1.5,-8.2 4,-16.6 6.4,-25.1 10.6,-36.1 61.8,-161.5 113.4,-171.2 46.4,-8.7 57.7,38.8 57.1,92.3 14.8,-37.3 31.4,-74 51.2,-113.4 10.7,-21.2 42.5,-94.8 83,-87.7 50.3,8.6 45.4,88.6 50.4,118.3 3.8,21.7 4.8,43.4 4,65 18.6,-33.8 40.2,-66 70.9,-95 31.6,-29.6 115.7,-132.2 178.2,-108 58.3,22.6 54.6,120 59,162.8 0.8,7.8 0.5,15.2 0.9,22.7 9.9,-10.8 19.7,-21.7 29.8,-32.5 8.5,-8.9 18.9,-7 29,-1.8 30.7,16 26.6,34.2 22,63.5 -5.6,35.1 -15.3,70.1 -27.8,104.6 39.4,-37.7 80.6,-72.8 135.5,-99 36.3,-17.5 106.4,-36.3 143.1,-13.3 45,28.3 -16.5,99.6 -83,159.6 120,-60.7 263.1,-112.3 370.7,-46 72.7,44.6 -99.5,155.9 -212.8,224.5 64.6,-17.9 128.6,-37.5 196.2,-48.3 45.9,-7.2 108.4,-20.8 142,11.7 39.8,38.7 -39.9,89.2 -103.1,125 49.1,-12 104.6,-18.6 115.9,11.9 12.2,32.3 -17.7,63.8 -63.2,91.4 140.5,4 279.8,41.6 322.6,139.5 36.1,83.4 -11,133.7 -86.8,159.5 32.3,6.5 68.1,18.5 70.3,46 2.4,26.1 -15.2,43.9 -43.7,55.7 33,25.4 33.1,51.7 -18.1,60.9 22.9,6.2 45.6,14.2 67.2,20.1 37.6,10.3 64.9,29.1 86,55.9 38.3,48.6 -27.8,64.8 -92.5,70" 
                />
                <path style="fill:#9bddaf;fill-opacity:1;fill-rule:nonzero;stroke:none" id="path16"
                  d="m 21560.5,7599.2 c -13.3,17 -27.7,32.8 -43,47.6 30.5,-6.7 64.4,-8.9 97.8,-8.7 -18.3,-13 -36.5,-25.9 -54.8,-38.9 z m -379.4,-241 c 1.4,1.5 3.2,3.2 4.7,4.9 7.8,7.2 15.6,14.5 23,22 2,1.9 2.8,4.1 3,5.9 30.6,33.9 60.1,68.6 90.6,106.1 22.4,27.6 47.4,56.4 71.9,86 36.2,-12.4 75,-22.7 115.8,-31.9 -105.8,-59.3 -207.9,-122.2 -309,-193 z m -78,-13.5 c -16.8,-19.6 -35.2,-38.4 -54.3,-56.8 -65.4,-46.4 -130.7,-93.1 -195.7,-139.2 -24.2,-17.2 -48.8,-35.2 -72.8,-53.9 -0.7,215.1 1.4,430.1 5.4,645.1 14.1,8.7 28.1,17.2 41.9,24.7 6.8,3.8 13.7,8 20.5,11.7 -1.6,-27.2 8,-53.9 30.1,-89.9 33.4,-55.2 114.8,-134.8 186.6,-128.7 34.2,3 63.8,28.2 68.9,63.3 3.6,28.7 5.2,61.4 4.7,95 8.7,-0.5 17.8,-0.7 27.1,-0.6 43.5,-51.4 98.5,-87.3 162.5,-114.5 -76.4,-84.8 -151.7,-170.2 -224.9,-256.2 z m -899.7,302 c -23.9,14.7 -48.8,28.1 -74.4,41.6 -3.7,4.8 -7.1,9.7 -10.8,14.4 30.9,9.2 60.3,19.9 83.5,26.6 50.1,14.8 100.2,34.5 149.8,55.8 -0.4,-21 -0.5,-42 -0.9,-62.9 -0.4,-19.3 -0.6,-38.4 -0.8,-57.5 -4.9,-24.6 -6.2,-48.7 -1.2,-71.3 -0.1,-7.9 -0.2,-15.8 -0.3,-23.7 -49,24.8 -98.7,49.1 -144.9,77 z m -316.1,181.3 c 11.4,7.1 22.7,14.5 33.8,22.2 13.6,-26.2 27.1,-52.4 41.7,-78.1 -8,4 -16.3,8.1 -24.6,12.3 -16.8,14.7 -34,29 -50.9,43.6 z m -752.2,2384 c -5.4,-8.7 -10.1,-18 -14.9,-27.1 -32.3,1.7 -64.5,3.6 -96.6,5.6 37.3,3.6 74.8,10.6 111.5,21.5 z m 188.4,1176.4 c -18.9,40.1 -39.4,79.4 -60.7,118.4 61.6,-12.8 131.9,-10 181.5,-4.8 46.7,5.1 93.5,15.9 139.3,30.3 -21.4,-10.1 -43,-20 -64.2,-30.4 -38.8,-19.3 -101.3,-35.9 -128.5,-72.6 -4.5,-6.2 -13.8,-22.7 -4,-29.2 78.5,-51.6 177.3,-37.6 271.7,-2.7 34.5,-32 95.7,-52 154.7,-66.3 -79.8,0.8 -159.7,6.3 -239.7,-6.2 -68.2,-10.7 -135.2,-29.2 -201,-51.5 -15.6,38.6 -31.2,77.3 -49.1,115 z m 201,1655.8 c 93,13.4 196.2,31.4 290.6,63.5 -7.2,-5.9 -14.5,-12 -22,-17.4 -39.4,-27.3 -78.2,-55.4 -105.8,-94.6 -4.2,-6.3 -16.5,-27 -4.4,-33.2 51,-26.4 116.2,5.1 174,41.7 4.3,-7.9 9.3,-15.8 15.8,-23.1 51.3,-59 122.2,-106.5 184.8,-155.6 -18.9,9.1 -40,16 -66,16.8 -109.3,3.4 -185.8,-54.2 -246.6,-130.8 1.1,63.7 -13.9,121.6 -70.8,129.1 -58.7,7.7 -97.1,-16.7 -126.2,-53.4 -2.2,1.7 -4.2,3.6 -6.4,5.3 -11.5,102.4 -42.1,219.8 -130.5,240.4 48.9,0.1 103.5,9.8 113.5,11.3 z m 1595.4,1273.3 c -8.6,5.6 -16.9,11.5 -25.7,16.8 16.2,0.9 33.4,1.6 50.8,2.2 -8.4,-6.4 -16.5,-12.9 -25.1,-19 z m 246.7,-2052.1 c -84.1,-37.1 -141.2,-101.8 -186.6,-175.9 0.6,47.4 -36.3,104.2 -78.3,155.1 -6.4,16.6 -13.7,34 -22.3,50.3 98,-19.6 194.1,-27.8 297.8,-23.5 2.7,0.1 5.5,0.1 8.2,0.2 -6.3,-2 -11.9,-3.1 -18.8,-6.2 z m 547.5,-1425.5 c 8,1.7 15.8,4.2 23.7,6.3 8.4,2.2 16.7,4.5 24.9,7.3 9.7,3.2 19.2,7 28.7,10.9 -15.5,-19.7 -30.6,-39.5 -45.8,-59.3 -9.4,13.4 -19.9,25.4 -31.5,34.8 z m -1896.8,-3000 c -9.2,12.5 -17,25.4 -25,38.2 67.3,19.1 134.3,39.7 199,66 -53.2,-42.3 -109.9,-89.6 -154.1,-131.4 -6.7,9.1 -13.2,18.1 -19.9,27.2 z m -1116.8,1748.06 c -0.8,-1.06 -1.5,-2.03 -2.5,-3 -16.9,-16.89 -66,-64.21 -49.7,-96.12 16,-32.63 69.9,-30.28 133.8,-13.71 -44.2,-29.79 -95.3,-50.17 -118.7,-100.26 -3.7,-7.79 -9.7,-25.89 4,-28.73 59.1,-12.91 128.2,2.52 192.2,18.67 -23.3,-14.53 -42.3,-34.34 -55,-55.28 -39.4,9.25 -78.6,18.83 -118.2,28.41 -103.3,25 -205.7,58.36 -309.8,81.01 14.5,5.68 28.2,11.28 40.6,16.4 95.1,39.21 193.5,91 283.3,152.61 z m 2028.8,4616.54 c -0.8,-0.4 -1.7,-0.8 -2.5,-1.3 -5,6.9 -10.6,13.2 -15.3,20.5 8.8,-5.2 18.3,-9.2 27.3,-14 -3.1,-1.7 -6.4,-3.5 -9.5,-5.2 z m 57.4,-69.6 c -16.3,15.4 -31.2,31.7 -45.3,48.9 8.8,4.9 16.4,9.2 22.8,12.8 23.4,-11.5 47.2,-22.4 71.6,-32.4 -17,-8.4 -33.4,-18.5 -49.1,-29.3 z m -1165.9,-3314.1 c 8.1,-6.4 16.7,-12.5 25.8,-18.1 -8.6,-12.2 -16.4,-24.5 -23.5,-36.7 -7.4,16 -15.6,31.4 -24.6,46.1 7.5,2.9 14.9,5.7 22.3,8.7 z m 328.1,1934.3 c -6.3,-1.6 -12.7,-3.3 -19,-5.2 -5.9,13.1 -13,25.2 -21.6,36.2 12.9,-9.7 26.5,-20.1 40.6,-31 z m 784.3,-737.2 c -3.2,0.6 -6.5,0.9 -9.7,1.4 -7.8,7.1 -16.6,13.5 -26.5,19.3 0.2,0.5 0.3,0.8 0.3,1.1 10.7,-1.3 21.5,-3.3 32.2,-4.7 1.3,-5.7 2.3,-11.5 3.7,-17.1 z m 283.6,-784.6 c -0.2,-0.1 -0.3,-0.1 -0.4,-0.2 18.7,27.4 36.9,55.6 53.1,84.8 3.3,-6.7 6.7,-13.1 10.3,-19.5 -21.6,-21 -42.6,-42.8 -63,-65.1 z m 577.3,-404.8 c -34.3,-29.5 -56.8,-72.9 -71,-123.2 -3.3,7 -6.8,14 -10.7,21 -3.4,6.2 -6.9,12.3 -10.7,18.4 -4,6.5 -8.3,12.8 -12.7,19 -4.6,6.6 -9.2,13.1 -14.1,19.5 -4.1,5.2 -8.3,10.1 -12.5,15.2 -6,7.1 -11.8,14.2 -18.1,21 -0.5,0.6 -1,1.2 -1.6,1.9 -0.1,0 -0.1,0 -0.1,0 -8.5,9.1 -17,18.3 -25.8,27 21.9,-4.6 44.3,-8.5 66.7,-11.7 -0.1,0 -0.2,-0.1 -0.3,-0.2 21.9,-3.1 44.1,-5.2 66.3,-6.5 5.2,-0.4 10.3,-0.3 15.6,-0.5 9.7,-0.4 19.3,-0.9 29,-0.9 z M 19568.2,8741.14 c 118.8,-33.03 256.6,-9.98 374.1,50.33 -5,-59.5 30.2,-117.78 73.6,-166.33 -83.8,27.12 -167.6,53.34 -253.6,75.9 -51.5,13.23 -111.9,16.88 -149.4,-24.43 -35.9,-39.37 12.1,-88.56 77.8,-130.94 -61.9,6.74 -123.8,12.58 -185.6,18.59 32.9,55.61 56.8,116.16 63.1,176.88 z m -576.7,-346.29 c -2.3,0.4 -4.4,0.65 -6.7,0.98 1.1,1.29 2.3,2.59 3.4,3.89 1.1,-1.54 2,-3.33 3.3,-4.87 z m 956.2,2355.75 c 23.1,-10.7 45.6,-21.6 64.5,-33.2 15.7,-9.7 30.6,-19.7 45.1,-30 1.6,-7.8 3.4,-15.7 5.1,-23.5 -15.6,4.8 -31.3,9.4 -46.7,12.4 -40.4,7.8 -88.6,2.3 -135.3,-12.8 -11,10.2 -22,20.3 -32.6,30.6 -1.1,4.3 -1.5,8.6 -2.7,12.9 33.4,7.1 68.3,23.4 102.6,43.6 z m 928.2,-1268.82 c -2.6,8.44 -3.2,18.51 -2.9,28.58 13.4,5.03 26.7,10.3 40.3,14.85 4.8,1.63 10,2.44 15,3.98 -14.1,-13.07 -32.6,-30.12 -52.4,-47.41 z m 645.3,1088.52 c -16.7,39.1 -42,72 -69.5,103.4 28.2,-16.4 54.9,-35.5 80.9,-56.1 -5.4,-14.9 -9.3,-30.7 -11.4,-47.3 z m -1146.3,-265.1 c -0.1,1.8 -0.5,3.8 -0.6,5.5 1,-1.3 1.8,-2.8 2.9,-4 -0.8,-0.5 -1.5,-1 -2.3,-1.5 z m 473.4,896.1 c -6.1,-19.7 -9.5,-43.2 -9.5,-66.6 -5.2,0.9 -10.6,1.5 -15.9,2.8 -29.3,7.1 -64.9,9.7 -100.8,13.3 5.1,122.9 9.9,241.4 10.4,273.5 1.7,-1 3.1,-1.9 4.9,-2.8 43.3,-21.5 94.6,-40.8 144.1,-37.9 31.3,2 65,11.6 98.3,19.6 -54.4,-60.2 -106.3,-119.8 -131.5,-201.9 z m 141.3,-1426.31 c -1.5,-0.9 -2.9,-1.63 -4.3,-2.52 -19.2,-11.85 -36.9,-25.17 -54.6,-38.56 1,12.91 1.3,25.98 0.7,39.45 22.1,0.81 41.7,1.46 58.2,1.63 z m 90.1,177.69 c -1.1,-2.19 -1.8,-4.55 -2.8,-6.74 -53.7,2.84 -107.4,5.44 -161.3,8.52 14.5,5.12 28.2,10.23 41.2,14.62 52.6,18.26 123,40.22 177.8,75.62 -21.1,-27.7 -39.5,-58.42 -54.9,-92.02 z m 439.5,574.62 c 0,-5.8 -0.1,-11.7 0.2,-17.6 -5.8,1.6 -11.5,2.6 -17.4,3.7 5.8,3.5 11.5,8.1 17.2,13.9 z m -565.3,-959.56 c -25,-5.67 -49.3,-13.55 -73.4,-22.24 11,22.49 17.7,44.25 24.4,67.54 20.1,18.1 40,36.21 60.5,53.98 4,-0.16 8.8,1.3 14.2,5.2 32.2,23.21 64,47 95.8,70.78 12.5,3.82 25.5,6.66 38.2,9.83 19.2,-10.39 39.9,-15.51 61.3,-17.29 -23,-18.35 -43.2,-35.48 -56.3,-45.14 -21.9,-16.31 -43.3,-33.44 -64.4,-50.81 1.5,1.05 3,2.03 4.5,3.08 -28,-22.97 -55.6,-46.35 -82.8,-70.38 -7.3,-1.62 -14.6,-2.84 -22,-4.55 z m 377.8,921.76 c -21.3,16.5 -45.6,27.1 -70.9,35.8 34.2,-4.6 68.8,-8.3 103.4,-9.3 21.4,-0.6 41.1,-5.1 59.8,-8.7 -26.4,-10 -50.4,-28.8 -68.9,-59.4 -41.5,-68.2 -25.1,-164 21.7,-241.5 -62.6,-15.3 -120.2,-44.7 -170.2,-86.2 4,8.7 6.6,17.5 -0.1,25.4 -54.6,64.1 -187,8.1 -253.9,-12.6 -44.4,-13.5 -86.2,-33.7 -125.9,-57.3 7.3,10.5 14.6,20.9 21.7,31.1 37.9,53 92.1,103 113,165.5 3,9 1.5,21.5 -10.7,20.7 -58.4,-4.7 -117.1,-54.2 -166.9,-94.5 6.7,41.9 14.1,84.4 22.8,126.5 9.8,12.2 20.8,23.9 32.2,35.3 4.3,0.8 8.2,1.5 12.5,2.2 v 0 c 15.8,3 31.3,5.9 46.4,8.6 17.4,3 34.2,5.8 49.9,7.9 106.8,14.1 277.6,10.1 370.3,71.9 8.8,6 27.5,28.2 13.8,38.6 z M 20247.8,8753.8 c -8.6,0.74 -17,1.39 -23.8,3.01 -53.1,12.09 -103.2,30.85 -153.2,51.71 -19.8,8.44 -35.8,20.62 -52.3,29.87 32.9,23.7 62.9,50.41 89,79.88 23.7,-17.46 63.7,-0.41 93.3,14.69 -2.8,-8.85 -5.8,-18.18 -8.8,-27.68 -0.4,-0.98 -0.7,-1.79 -0.9,-2.76 -3.2,-10.31 -5.9,-20.7 -7.7,-30.85 0,0 0,-0.16 -0.1,-0.24 0,0 0,0 0.1,0 -4.2,-24.52 -2.1,-47.25 18.3,-61.45 6.6,-4.47 13.7,-1.71 20.2,1.46 4.6,2.43 8.8,6.41 13.2,9.25 0.3,-0.16 0.4,-0.32 0.6,-0.56 4.4,2.76 8.3,6.57 12.5,9.66 5.3,4.14 10.7,7.71 15.8,12.33 10.8,9.66 21.3,20.3 31.4,31.99 0.5,-34.83 -4.2,-70.22 -4.2,-82.48 -0.2,-14.29 0.9,-28.08 2.6,-41.64 -16.1,1.46 -31.5,2.44 -45.8,3.74 0,0 -0.1,0 -0.2,0.07 z m -1580.7,-468.78 c -0.7,0 -1.3,-0.08 -1.9,-0.08 0.2,0.32 0.4,0.57 0.6,0.81 0.4,-0.24 0.8,-0.49 1.3,-0.73 z m 4473.4,1287.51 c -2.9,3.5 -6.8,5.53 -10.3,8.2 0.5,0.09 1.1,0.25 1.6,0.33 -1.7,1.38 -4,1.95 -5.9,3.09 -3.2,2.11 -6.5,3.97 -10.2,5.43 -3.9,1.63 -7.9,2.84 -12.2,3.82 -4.1,0.97 -8.2,1.86 -12.5,2.35 -4.6,0.57 -9.3,0.73 -14,0.81 -4.7,0.09 -9.3,0.16 -14.1,-0.08 -5,-0.24 -9.9,-0.81 -14.9,-1.46 -5.1,-0.57 -10.1,-1.05 -15.2,-1.87 -4.8,-0.81 -9.6,-1.78 -14.4,-2.75 -5.5,-1.14 -10.9,-2.12 -16.2,-3.33 -3.9,-0.81 -7.4,-1.79 -11.2,-2.68 -24.9,-6.09 -48.1,-12.67 -64.8,-15.91 -32,-6.25 -63.9,-13.96 -95.2,-22.16 53.4,25.73 83.5,69.24 2.5,103.09 -88.5,36.69 -206.2,26.22 -297.8,21.59 -77.9,-3.81 -152.8,-17.53 -226.9,-36.28 15.1,17.2 23.9,36.93 23.2,59.82 -0.9,36.61 -65.9,35.56 -143.6,21.11 1.1,1.7 2.5,3.49 3.6,5.19 13.8,20.7 32.9,49.28 52.1,81.42 130.4,-166.65 546.3,60.64 663.2,194.5 107.8,123.84 25.7,224.44 -93.6,273.44 8.2,6.9 16.8,14 24.8,21.4 65.4,61.3 122.5,141.1 67.9,228.3 -36.9,58.6 -135.4,33.6 -217.7,11.5 25.4,38.6 42.4,80.4 31.3,123.7 -21.8,85 -86.3,120.1 -171.9,113 -76.8,-6.4 -180,-66.3 -259.8,-144.9 -14.9,41.9 -48.7,64.8 -112.8,39.8 -77.3,-30.3 -112.5,-106.2 -153.9,-171.5 -5.6,-8.9 -11.4,-18.6 -17.2,-28.4 -0.8,-0.6 -1.6,-1 -2.5,-1.5 -5.9,85.8 12.7,185.4 -13.5,257.7 -6,16.6 -14.1,36.1 -24.3,55.4 23.9,37.7 48.3,75.1 72.9,112.5 6.6,3.9 12.9,8.5 19.3,12.9 5.8,4 11.9,7.3 17.5,11.7 17.1,13.2 33.5,27.8 48.7,44.8 6,6.7 14.6,27.9 0,31.4 -5.6,1.4 -11.3,1.6 -17,2.5 3.3,8 -6.7,10.7 -12.6,3.5 -0.4,-0.5 -0.7,-1 -1.1,-1.4 -48.5,5.5 -98.6,0.3 -147.3,-0.4 -23.8,-0.3 -47.6,-1.3 -71.4,-2 0,0.1 0,0.1 0.1,0.2 9.9,2.4 20.3,5.3 30,7.3 121.3,26.8 269.3,38.1 364.5,126.3 30.5,28.3 47.5,82.3 1.2,105.2 -10.8,5.2 -21.9,9.7 -33.2,13.4 -11,3.9 -22.2,6.8 -33.6,9.4 -0.3,0 -0.5,0.1 -0.7,0.1 v 0 c -27.9,6.3 -56.6,9.4 -85.9,9.9 85.2,28.8 168.5,62.1 242.8,102.2 38.4,20.7 59.5,47.7 54.7,69.9 0.4,-0.2 0.7,-0.4 1.1,-0.6 -0.2,1.3 -1.2,2.5 -1.7,3.8 -0.6,1.9 -1.3,3.6 -2.3,5.4 -1.5,2.5 -3.6,5 -6,7.3 -1.6,1.7 -3.1,3.3 -5.1,4.7 -3.2,2.4 -7.3,4.4 -11.6,6.5 -2.3,1.1 -4.3,2.4 -7,3.4 -7.7,2.9 -16.4,5.3 -26.8,7.1 -115,19.9 -237.8,16.2 -361.6,-3.1 27.4,45.8 49.1,95.3 58.8,144.8 84.6,26.7 164,68.6 235.5,121.4 53.1,39.3 135.9,112.7 122.7,187.7 30.4,24.4 59.5,50.2 87.4,74.6 48.6,42.2 131.1,122.1 106,195.2 -19.2,55.5 -84.1,52.4 -150.6,33.1 15.2,25.6 24.5,52.1 23,79.1 -5.9,93.8 -93,106.3 -171.2,111.4 -186.9,12.1 -343.3,-78.5 -433.6,-225.5 -23.5,26.3 -57.7,45.3 -99.5,54.7 -113.3,25.5 -192,-37.7 -270.4,-100.4 5.6,56.1 -6.1,110.7 -45.5,128.6 52.7,2.4 105.7,11.6 139,52.6 41.7,51.7 -55,71.7 -164.9,77.3 40.5,14.4 80.3,30.2 119.8,44.5 63.1,22.9 159.7,52.1 185.6,122.6 1.3,3.3 1.7,6.1 2,9 3.6,0 7.4,-0.4 11,-0.4 87.7,-1.3 174.7,-0.7 262.3,0.4 48.3,0.3 87,3.5 114.3,42.5 6.6,9.5 16.2,26.3 4.8,36.3 -52,47.5 -147.2,50.6 -224.2,54 27.5,8.2 54.3,16.4 78.5,23.4 99.1,27.9 268.2,43.5 339,126.9 5,5.9 15.1,25.6 4.3,31.4 -7.8,4.2 -16,7.3 -24.4,9.8 -2.5,0.8 -5,1.3 -7.6,2 -6.1,1.5 -12.4,2.8 -18.8,3.7 -3.1,0.5 -6.1,0.8 -9.1,1.2 -6.2,0.6 -12.2,1 -18.4,1.3 -3.4,0 -6.7,0.3 -10.2,0.3 -4.3,0.1 -8.6,-0.1 -12.9,-0.2 -4.4,-0.1 -8.8,0 -13.2,-0.1 0,0 -0.1,-0.1 -0.2,-0.1 -24.4,-1.1 -48.7,-3.3 -70.9,-3.8 -17.9,-0.1 -35.6,-2.2 -53.3,-3.9 -3,0 -5.8,0 -8.4,0 l -0.1,-0.1 c -59,0.1 -116.8,-0.2 -176.7,-18 -29.2,-8.8 -58.4,-18 -87.4,-28 -2.7,0.9 -5.7,1.3 -8.5,1.9 v 0 c -3.4,0.8 -6.5,1.9 -10.1,2.3 76.1,63.4 140.6,150.6 144.5,217.7 1.4,16.9 -12,20.1 -25.1,12.8 -95.5,-53.1 -187.9,-108 -281.9,-159.9 13.3,16.7 17.4,31.1 5.2,40.1 -61.1,45.9 -181.7,-0.3 -247,-18.2 -91.8,-25 -166.9,-78.8 -247.5,-121.4 -0.9,0 -1.7,0 -2.5,0.1 11.4,12 22.8,24.6 33.8,37.5 1.1,0.5 2,0.9 3.2,1.3 12.9,3.7 25.7,7.3 39,10.6 2.7,0.9 7.6,6 9.9,11.1 17.1,9.6 31.6,21.4 37.3,37.6 2.8,7.8 -6.3,5.4 -8.6,0.7 -5,-9.6 -32.6,-18.7 -52.8,-25.3 26.1,37.1 43.1,75.3 35.5,109.9 0,0.3 -0.2,0.3 -0.2,0.6 45.2,15.9 82.5,52.1 101.3,117.4 3.7,3.6 7.4,7.3 11.1,11 38.3,-9.6 75.2,-17.6 107.2,-24.8 166.3,-37.6 314.4,-6.7 467.1,69.1 72.8,36.1 168.2,96.5 180.2,184.3 3.1,22.6 -3.8,38.9 -16.3,50.7 30,18.1 58.9,37.5 85.4,57.3 49.5,36.9 116.4,63.7 106.9,140.3 -3.6,29.6 -27.7,40.5 -60.3,40.8 134.2,101.6 247.9,222.3 291.5,399.3 20.4,83.2 -78.4,50.4 -109.9,23.3 -68.6,-58.9 -139.9,-112.2 -212.3,-164 2.4,15.2 -0.4,29.4 -10.2,41.6 -48.4,60.3 -141,13.2 -216.1,-33 49.7,103 112.2,256.7 16.2,260 -79.4,2.7 -141.9,-69.8 -190.5,-124.6 -10.3,-11.8 -20.5,-23.6 -30.6,-35.7 3.1,110.8 -25.7,223.9 -119.1,257.5 -55.1,19.7 -112.3,-52.6 -130.3,-93.8 -2,-4.2 -3.3,-8.5 -5,-12.8 -26.7,50.6 -61.9,85.8 -108.2,69.1 -75.5,-27.1 -91,-115.8 -93.1,-207.3 -27.9,27.4 -64.3,41.7 -118.1,29.6 -18.5,-4 -37.1,-11.7 -55.3,-21.8 9.9,25.4 17.2,49.7 20.3,70.5 37.1,-10.2 76,-14.4 104.9,2.4 8.7,5.1 16.6,16.3 15.4,26.8 -7.1,61.2 -88.5,121.9 -132,154.5 -2.9,2.3 -6.1,3.9 -9.1,6.1 10.4,8.2 20.3,17.1 30.2,25.8 81,2.9 168.3,7.7 232.5,50.4 9,5.9 29.7,30.2 14.6,40.6 -26.5,18.6 -58.2,27.1 -91.4,32.3 92.7,15.6 184.4,45.6 262.3,79.8 60.8,26.7 221.1,87.5 224.7,172.5 0.1,6.9 -0.7,13.5 -8.2,15.9 -37.1,11.2 -74.7,-2.1 -111.4,-13.8 3.5,7.3 5.8,14.4 7.4,21.3 32.2,24.9 63.7,50.6 92.4,77.8 6.8,6.6 25,42.8 0.4,38.6 -47.1,-8 -90.4,-26.5 -133.5,-45.9 -6.2,1.9 -12.2,3.1 -18.8,3.7 20.6,16.7 39.4,35.1 57.3,54.5 3,3.2 5.9,6.7 8.8,10 16.6,19 31.9,39.4 45.6,61.7 0.6,0.9 1.3,1.7 1.9,2.6 -0.3,-0.4 -0.7,-0.8 -1,-1.1 13.8,22.5 26.5,46.3 37,73.1 5.7,14.4 -6.7,25.9 -20.1,16.2 -82.6,-59.5 -159.8,-106.5 -256.8,-140.1 -34.9,-12.2 -137.7,-44.4 -222.4,-48.6 0,12.6 -3.1,24.5 -10.8,34 -27.9,33.3 -69.9,31.6 -111.6,19.7 28.9,26.1 53.4,55 55.8,88.2 0.5,8.4 -3.1,20 -14.1,17.7 -48.7,-10.4 -94.5,-36.3 -138.5,-63.4 49.8,71.8 103,164.7 74.5,179.4 -37.5,19.8 -69.9,-6.8 -96.8,-33.4 -16.3,-16.2 -33.8,-31.3 -51.8,-45.9 -3,10.6 -5.5,21.4 -8.4,31.9 v 0.3 c -38.3,137.5 -71.3,277.1 -102.2,416.2 -21.4,96.9 -39.3,194.3 -52.8,292.6 -2.4,17 -7.4,37.8 -13.2,59.7 -3.1,45.3 -6.3,90.7 -9.6,135.8 43.9,-59.5 80.5,-147.3 100.5,-199.6 4.5,-11.6 18.5,-3 26.4,8.8 0.3,0.4 0.6,0.9 0.9,1.5 1.4,2.2 2.4,4.5 3.2,6.9 0.4,0.9 0.7,1.7 0.9,2.6 0.6,2.9 0.8,5.6 0,8.1 -23.3,69.5 -46.6,139.4 -71.6,208.5 -3.4,9.2 -6.5,18.4 -9.9,27.5 0.1,-0.2 0.2,-0.5 0.3,-0.8 -2.4,6.3 -4.4,12.6 -6.8,18.8 -5.2,13.4 -14.6,32 -24.4,51.9 20.4,-28.8 40.4,-57.9 60.1,-87.6 22.9,-34.5 50.7,-81.6 92.5,-92.9 8,-2.2 17.5,3.6 24.4,11.5 0.3,0.3 0.4,0.5 0.5,0.7 2.8,3.3 5.2,6.8 6.6,10.5 1.6,4.1 2.3,8.1 1.4,11.8 -26.4,97 -73.9,188.9 -106.4,284.4 -48.2,141.8 -85.9,283.7 -116.1,430.2 -12.8,63.3 -24.4,126.9 -35.6,190.6 -5.3,29.8 -10.6,59.6 -15.8,89.3 -7.5,43.6 -15.1,87.3 -22.8,130.8 -24,135.2 -27.7,273.4 -58,406.9 -1.3,5.3 -5.8,3.9 -9.4,0.5 -1,5.1 -1.4,10.6 -2.4,15.7 -7.4,-9.1 -14.1,-19.1 -20.4,-29.6 -0.2,-0.4 -0.5,-0.9 -0.7,-1.3 -40.4,-68.8 -57.8,-162.9 -72,-228.3 -22.6,-103.6 -38.1,-208.5 -63.4,-311.3 -10.7,-44 -22.2,-87.8 -34,-131.7 -12.9,-69.9 -25.6,-140 -37.4,-210.4 -11.3,-43.4 -22.3,-86.7 -31.9,-130 -31.9,-143.1 -58.2,-287.3 -81.7,-431.9 -24,-144.5 -82.9,-278.9 -112.7,-421.3 -10.5,-50.2 -54.9,-126.6 -58,-175.2 -1.8,-26.5 -5.8,-53.2 -12,-79.2 -28.2,-3 -82.9,6 -101.9,10.8 -41.1,10.5 -66.3,41.2 -98.6,64.4 -17.9,12.4 -36.8,-6.9 -45.8,-19.6 -40.6,-55.3 -3.8,-129.8 35.4,-191 -37.8,15.5 -75.7,30 -116.8,39.6 -16.7,3.9 -37.1,-19.7 -33.8,-35.6 6.7,-33 18.2,-56.1 34.2,-74.9 -30.1,10.9 -59.3,23.5 -84.1,36.5 -23.9,12.3 -29.9,14 -51.5,5.1 -13.2,-5.6 -23.8,-19 -23.1,-33.8 6.1,-151.9 95.3,-253.9 211.8,-301.1 -63.5,-19.2 -127,-33.4 -196.5,-29 -11.8,0.8 -29.4,-21.2 -22.5,-32.4 11.9,-18.5 25.3,-35.6 39.3,-52.2 2.8,-3.1 5.4,-6.2 8.2,-9.3 14.6,-16.3 30,-31.6 46.6,-45.3 0.2,-0.2 0.3,-0.3 0.5,-0.5 0.1,0 0.1,0 0.1,0 57.2,-47.1 124.7,-77.5 196.6,-79.6 -33.1,-26.1 -56.8,-57.7 -52.4,-90.4 0.6,-4.5 2.9,-7.6 7.2,-9.1 38.8,-13.5 85.8,-4.2 129.3,13.5 -7.6,-16 -12.9,-32.4 -15,-47.3 -3.9,-28.7 25.3,-37.3 65.6,-36.2 -28.7,-17.8 -54.1,-39 -71.5,-66.6 -3.2,-5.1 -7.7,-19 -0.2,-23.3 86.7,-49.6 226.5,-49.1 324.7,-45.9 36.4,1.4 73,3 109.6,6.3 0,-0.1 0.1,-0.2 0.1,-0.2 -24.1,-13.9 -100.4,-25.9 -101.5,-25.9 -67.5,-3.1 -138.9,-17.9 -205.6,-31.7 -12.1,-2.4 -30.8,-21.4 -19.2,-33.9 16.3,-17.7 151.5,-80 131.4,-93 -22.4,-14.4 -52.7,-25.5 -62.9,-53.5 -5.1,-14.6 -6.4,-29.2 -3.9,-43.2 -9.9,1.8 -19.6,4.4 -29.5,6.4 -63.3,12.9 -126.1,28.9 -186.9,45.5 -79.8,21.7 -153.5,55.8 -226.1,94.9 -35.7,19.1 -64.6,55 -105.6,60.7 -17.2,2.3 -35.5,-18.3 -33.4,-35.2 8.1,-60.9 40,-118.5 83.3,-167.9 -100.5,13.3 -201.5,24.2 -300.6,38.8 -224.2,32.7 -409.6,114.3 -616.6,197.6 -3.1,1.3 -6.2,0.7 -9.2,-0.5 -0.8,-0.4 -1.6,-0.6 -2.4,-1.1 -2,-1.1 -3.9,-2.7 -5.7,-4.5 -2.1,-2.1 -3.8,-4.2 -5.4,-6.7 -0.1,-0.2 -0.2,-0.3 -0.3,-0.5 h 0.1 c -3.4,-5.4 -5.7,-11.3 -5,-15.6 29.4,-170.2 206.4,-352.2 327.2,-468.3 68.3,-65.9 157.9,-118.6 237.5,-168.9 9.2,-5.7 18.4,-10.5 27.7,-14.7 -70,-4.1 -150.5,-7 -207.3,19.6 -11.2,5.1 -24.4,-12.8 -27.8,-21 -25.7,-70.4 117.5,-171.8 162.8,-196 53.4,-28.5 115.9,-39.5 181.3,-40.8 17.1,-4.1 35.8,-6.9 55.1,-8.1 -45.7,-18.9 -91.9,-42.2 -129.4,-71 -8.7,-6.6 -20.1,-29.1 -5,-34.9 59.2,-22.2 135.5,-10.2 211.2,13 -5.3,-3.4 -9.6,-6.6 -12.4,-8.8 -4,-3.4 -7.3,-6.8 -10.8,-10.2 -68.2,-35.8 -162.4,-87.3 -185.3,-152.7 -9.6,-27.3 12.2,-39.3 44.3,-43.6 -32.9,-5.8 -50.6,-33.8 -58.3,-70.3 -8,-0.2 -18,-13.3 -11.6,-19.3 2.5,-2.4 5.1,-4.6 7.6,-7 -0.2,-1.3 -0.3,-2.5 -0.5,-3.8 -66.7,56.3 -144.6,86.9 -183.2,-22.5 -15.3,-43.4 10.2,-84.4 41.5,-115.7 -36.5,-48.3 -12.4,-109.5 32,-165.1 -22.1,-3.2 -43.4,-8.7 -63,-17 -31.7,-13.5 -53,-43.3 -53.4,-77.5 -1.3,-100.3 186.2,-129.4 258.7,-134.2 74.8,-4.8 146.9,-0.3 217.3,13.5 -23.8,-49.8 -28.1,-105.7 3.8,-157.7 10.1,-16.5 21.9,-29 34.9,-38.9 -146.4,13.6 -288.8,59.4 -433.6,77.8 -1.7,0.2 -3.4,0.6 -5.1,0.8 0.1,-0.1 0.1,-0.1 0.2,-0.1 -4.8,0.6 -9.7,1.4 -14.5,2 -8.3,0.9 -21,-8.1 -26.4,-18.1 -0.1,0.1 -0.3,0.2 -0.4,0.4 -0.4,-0.8 -0.4,-1.5 -0.6,-2.2 -0.6,-1.3 -0.9,-2.4 -1.1,-3.7 -0.7,-3.4 -0.6,-6.7 1.5,-9.7 64,-89.9 143.1,-164.2 222.4,-240.4 60.5,-57.8 139,-110 203.4,-168.6 -40.8,6.1 -80.2,13.3 -111.6,17.6 -107,14.5 -187.3,82.4 -287.7,113.1 -14.9,4.7 -31.3,-16.4 -32.3,-29.2 -9.1,-87.5 36.5,-183.4 86.7,-251.7 21.8,-29.7 50.2,-48.7 81.9,-61.3 -30.6,-6.4 -58.8,-16.1 -82.9,-30 -41.1,71.4 -82.5,142.6 -119.8,215.7 -6,11.8 -26,-8.4 -21.8,-18.5 32.2,-77.2 67.1,-153.2 102.6,-229 -5.5,-8.1 -8.4,-19.2 -1.5,-26.7 6.7,-7.5 14.7,-13.7 23.2,-19.6 30.1,-63.9 60.2,-127.8 89,-192.3 14,-31.3 27.6,-62.4 41.3,-93.1 -6.5,-2.6 -13.1,-4.8 -19.6,-7.3 -6.1,-0.7 -12.3,-1.2 -18.5,-1.9 -22.5,25.6 -44.7,51.4 -66.3,77.8 -5.7,6.9 -18.7,-6.2 -14.6,-12.4 15.8,-23.4 32.4,-45.9 48.9,-68.7 -15,-1.6 -29.9,-3.5 -44.9,-4.7 -113.1,-9.1 -229.9,-9.8 -342.4,6.4 -64.3,9.3 -147.5,50.5 -211.5,44.2 -80.2,-8 -73.7,-80.4 -32.8,-133.8 44.7,-57.9 114.5,-92.4 189.6,-111.1 -106,-33.1 -208.6,-88.1 -295.5,-141.4 -13.9,-8.7 -185.5,-149 -79.7,-161.1 173.3,-19.8 364,52 528.4,105.5 12.3,-14.1 28.5,-23.6 46.1,-31.5 -62.7,-67.7 -101.1,-167.5 -76.1,-247.3 -112.1,-13.9 -219.9,-58.9 -243.9,-126.7 -48.8,-138.5 93,-208 197.8,-238.1 4.9,-1.3 10,-1.5 14.9,-2.7 -34,1.5 -68,2.6 -102.3,2.9 -54.3,0 -116.8,-2.5 -176.6,-11.1 -132.3,38 -255.8,85.8 -385.7,148.2 -5.9,3 -15.1,-4.7 -18.4,-8.9 -57.1,-75.3 50.1,-210 102.3,-261.2 63.4,-62.2 153.1,-95.44 245.9,-109.73 -16.8,-5.76 -33.7,-11.12 -49.2,-15.26 -56.1,-15.02 -155.4,-25.81 -193.1,-78.98 -3.6,-5.44 -11.3,-17.29 -6,-24.19 32.8,-42.94 116.1,-32.31 162.9,-31.33 60,1.38 120.9,10.87 180.3,26.06 -190.7,-111.79 -465.7,-292.32 -439.9,-392.81 0,-0.49 0,-0.9 0.1,-1.3 2.2,-7.79 5.7,-15.26 11.9,-22 7.7,-8.61 16.3,-15.51 25.3,-21.67 -18.1,-22.08 -27,-52.61 -21,-93.76 7.1,-48.46 56.6,-112.35 87.3,-148.23 3.2,-3.49 6.5,-6.73 9.7,-10.14 -16.9,3.65 -34,6.98 -51,9.66 -86,13.63 -184.4,18.99 -271.4,23.78 -32.5,1.87 -76.8,-52.28 -67.9,-83.94 18.8,-66.8 77.4,-108.28 125.3,-155.93 42.8,-42.45 83,-74.6 126.9,-102.44 -72.3,-29.31 -133.3,-76.06 -150.5,-158.78 -4,-19.49 0.3,-35.72 10.4,-49.28 -58.6,-14.69 -117.1,-30.03 -174.6,-46.83 -85.3,-24.85 -237.7,-109.51 -224.1,-219.26 15.7,-127.93 238.7,-137.59 331.9,-139.05 64.3,-0.89 129.8,16.32 191,44.48 -33.8,-109.34 -19.7,-218.93 90.4,-225.42 62,-3.74 126.6,15.67 186.6,47.08 43.7,-10.96 88.2,-17.77 118.1,-21.91 11.3,-1.55 20.7,-2.76 26.7,-3.58 93.7,-13.55 191.8,-15.91 288,-5.52 -52.1,-23.94 -105.5,-48.72 -145.9,-83.22 -6.3,-5.3 -21.2,-30.3 -4.6,-33.7 85.3,-16.9 176.6,18.9 257.2,44.1 28.8,9.2 57.2,17.3 84.6,25.8 -78.8,-59.4 -190.2,-149.4 -213.2,-208.6 v 0 c -0.2,-0.5 -0.2,-0.9 -0.4,-1.4 -2.5,-6.9 -3.7,-13.3 -3.6,-19.2 0.1,-0.7 -0.1,-1.6 0,-2.5 0.2,-2.6 0.9,-4.9 1.8,-7.3 0.5,-1.5 1.3,-3 2,-4.3 1.1,-2 2.2,-4 3.8,-5.7 2.5,-2.9 5.9,-5.4 9.8,-7.7 1.7,-0.9 4,-1.7 6,-2.6 3.5,-1.5 7.4,-2.9 11.9,-4 2.3,-0.6 4.7,-1.2 7.3,-1.7 7.3,-1.5 15.3,-2.6 24.9,-3.1 107.5,-5.8 222.5,12 327.2,53.5 -2.6,-4.5 -5,-8.9 -6.9,-13.5 -2.2,-6.1 -2,-12.3 2.4,-17.1 53.2,-56.7 226,45 275.3,67.6 34,15.7 71.7,31.9 109.4,49.7 0.3,-0.3 0.6,-0.6 1,-0.8 -11.4,-15.8 -22.6,-31.6 -34.2,-45.9 -39.1,-48.9 -51.1,-102.8 29.4,-99.8 50.7,1.9 103.5,15.8 155.7,37.9 9.7,-6.4 18.8,-13 28.7,-19.3 0.9,-0.6 1.9,-1.3 2.6,-1.7 67,-58.2 133.7,-116.5 202.5,-173.1 92.7,-75.8 195.5,-148.1 263.8,-246.4 23.7,-34.3 43.8,-71.8 62.4,-110 -12.4,-1433.4 20.9,-2867.9 -73.6,-4298.8 215.1,-95.8 451.3,-107.6 679.5,-42.7 0.7,710.3 -103.8,1421.1 -124.3,2132 -18.5,641.2 -39.5,1283.7 -44.7,1925.8 5.7,5.5 10.7,11.1 16.2,16.5 78,59.3 147.9,127.7 223.3,190 110.7,34.8 215.6,48.4 335.2,63.3 136.8,17.3 266.7,70.2 401,99.2 115.5,25 227.2,64.3 337.8,104.5 106.7,38.9 222.1,63.5 323.3,114.6 8.7,4.4 15.1,28.6 0.2,22 -99.5,-44.6 -212.6,-61.7 -317.4,-92.8 -143.7,-42.9 -287.2,-73 -434.6,-101.8 -121.2,-23.8 -238.1,-61.1 -360.7,-82.3 -49.3,-8.4 -96.7,-18.4 -142.8,-31.3 15.7,10.9 31.3,22.1 46.7,33.5 87.6,54.9 169.8,118.1 252.3,178.6 82.8,53.3 161.2,112 242.7,166.7 10.4,5.7 20.8,12 29,19.1 4.6,3 9.3,5.9 13.8,8.8 3.1,0.4 6.6,0.8 9.4,1.1 126.7,15.5 300.2,36.5 406.4,113.4 0.2,0.2 0.4,0.3 0.5,0.4 46.4,0.2 88.4,2.4 117.1,2.4 96,-0.4 345.3,-19.4 399,93.9 4.1,8.8 5.3,16.8 4.1,24 v 0.3 c -0.6,3.6 -1.7,7 -3.4,10.2 0,0 -0.1,0.2 -0.1,0.3 -1.7,3.2 -3.8,6.2 -6.4,9.1 0,0.1 -0.1,0.2 -0.2,0.3 -2.6,2.8 -5.5,5.6 -8.8,8.1 -0.1,0.2 -0.4,0.2 -0.5,0.3 -3.3,2.5 -6.9,5 -10.7,7.2 -0.2,0.1 -0.5,0.2 -0.6,0.3 -3.9,2.3 -8.1,4.5 -12.4,6.5 -0.2,0 -0.4,0.1 -0.4,0.1 -4.5,2.1 -9.1,3.9 -13.9,5.7 l -0.2,0.1 c -24.7,9.2 -52.4,15.4 -74.4,19.5 -0.1,0 -0.2,0 -0.3,0 -4,0.8 -7.8,1.5 -11.4,2.2 -8,1.4 -14.7,2.6 -19.5,3.6 -12,2.2 -24.4,4.3 -36.4,6.3 40.1,10.4 80.2,21 119,32.1 12.7,3.6 26.4,7.3 40.5,11.2 2.8,0.8 5.6,1.7 8.5,2.5 12.2,3.4 24.7,7 37.4,10.8 4.7,1.4 9.3,2.8 14.2,4.3 12.5,3.94 25.1,8.09 37.8,12.55 3.5,1.21 7,2.27 10.6,3.57 14.7,5.36 29.2,11.2 43.5,17.53 5.6,2.44 10.9,5.12 16.3,7.63 9.3,4.47 18.4,9.1 27.2,14.05 5.8,3.17 11.5,6.49 17.1,9.9 9.1,5.68 17.6,11.77 25.9,18.1 4.2,3.09 8.5,5.85 12.4,9.1 0.4,0.32 0.9,0.65 1.3,0.97 -0.2,-0.08 -0.4,-0.08 -0.5,-0.16 25,21.18 45.8,45.94 58.9,75.65 57.5,129.96 -262.2,63.97 -287.3,59.1 -142.9,-28.09 -285.4,-72.49 -424.6,-123.87 15.8,13.71 30.9,27.68 44.6,41.96 55.5,57.47 142.4,146.44 148.1,232.08 1.7,18.91 -17.1,18.18 -28.2,8.04 -121.2,-116.08 -325,-184.84 -497.2,-231.92 43.7,31.58 74.1,67.29 69.5,104.88 -8.5,67.78 -157.4,38.72 -291.4,-0.98 -1.1,1.71 -2.3,3.41 -3.7,5.12 26.8,15.99 53.7,32.23 80.8,48.05 66.4,39.05 154.3,74.85 202.1,137.19 5.1,6.49 11,17.45 6.5,25.73 -32.6,61.37 -177.9,5.36 -225.8,-6.74 -82.6,-20.62 -163.1,-47 -243.8,-75 -4.4,-1.14 -8.6,-3.33 -13.2,-4.87 -27.2,2.35 -56.7,2.76 -91.5,2.76 h -248.4 c -44.3,0 -101.7,-15.26 -146.6,-2.6 -8.1,2.36 -15.9,5.6 -23.2,9.9 v 0.09 c -7.3,4.38 -14,9.98 -20,17.12 47.3,29.06 103.7,47.9 159.5,65.51 88.4,-28.33 190.5,-28.9 275.7,-22.08 73.7,5.77 225.6,14.12 253.6,100.17 1.9,5.93 2.8,12.91 -2.3,17.62 -19.4,17.2 -40.4,22.64 -66.8,24.19 -10.3,0.56 -20.6,1.46 -30.9,2.35 2.7,0.08 5.4,0.08 8.1,0.08 195.7,2.92 380.6,58.77 567.9,108.13 30.1,7.95 167.4,66.88 117.3,123.63 -31.2,35.55 -73.3,58.6 -120.1,73.38 53.6,8.52 109.5,24.03 130.2,58.12 15.6,24.92 10.1,43.75 -5.9,60.64 31.7,-2.76 63.7,-4.71 95.9,-6.33 156.1,-8.12 343.6,-35.56 497.6,-9.34 13.7,2.35 41.1,26.54 29.3,42.53 19,-25.56 -20.2,-43.26 40.5,-21.5 11.9,4.21 25.1,13.31 33.3,23.21 11.5,14.45 12.9,33.69 20,50.33 1.9,4.14 3.6,12.99 0.1,17.21 -9.6,12.74 -20.7,24.03 -32.6,34.5 -3.4,2.84 -7.1,5.27 -10.6,8.04 -9.3,7.3 -18.9,14.28 -29.3,20.45 -3.7,2.19 -7.5,4.06 -11.3,6.17 -11.4,6.17 -23.3,11.93 -35.7,17.05 -2.7,1.13 -5.4,2.19 -8.1,3.25 -14.9,5.76 -30.3,10.95 -46.1,15.42 -0.3,0.08 -0.4,0.16 -0.6,0.16 h -0.1 c -52.2,14.61 -108.4,23.21 -163.2,28.82 85,24.67 168.6,57.55 248.2,87.51 12.9,4.78 26.5,9.98 40.3,15.5 1.1,0.49 2.2,0.97 3.3,1.38 42,16.88 86.3,37.42 125.7,63.23 0,0 0.2,0.09 0.2,0.16 v -0.07 c 42.5,27.84 79.1,61.61 98.8,104.63 3.1,6.74 1.8,13.55 -2.5,19.15" 
                />
                <path style="fill:#9bddaf;fill-opacity:1;fill-rule:nonzero;stroke:none" id="path18"
                  d="m 13553.3,7723.6 c -13.4,17.2 -27.8,33.1 -43.3,48.1 30.6,-6.9 64.8,-9 98.3,-8.9 -18.3,-13 -36.7,-26 -55,-39.2 z m -381.8,-242.4 c 1.5,1.6 3.2,3.3 4.7,4.9 7.8,7.4 15.7,14.7 23.2,22.2 2,1.8 2.8,4.1 3.1,6 30.7,34.1 60.4,69 91,106.6 22.6,27.8 47.8,56.8 72.3,86.6 36.4,-12.5 75.2,-22.8 116.2,-32 -106.3,-59.8 -208.9,-123.2 -310.5,-194.3 z m -78.5,-13.5 c -16.9,-19.7 -35.4,-38.7 -54.7,-57.3 -65.6,-46.6 -131.4,-93.6 -196.8,-140.1 -24.3,-17.1 -49,-35.2 -73.2,-54.1 -0.8,216.4 1.3,432.7 5.3,649.1 14.2,8.7 28.3,17.3 42.2,24.9 6.8,3.8 13.7,8 20.6,11.8 -1.5,-27.4 8.2,-54.4 30.4,-90.6 33.5,-55.5 115.4,-135.6 187.8,-129.4 34.3,3 64.2,28.3 69.2,63.6 3.7,29 5.3,61.9 4.7,95.6 8.9,-0.5 18,-0.7 27.3,-0.6 43.7,-51.7 99,-87.8 163.5,-115.3 -76.8,-85.1 -152.6,-171.1 -226.3,-257.6 z m -905.2,303.9 c -24,14.7 -49.1,28.2 -74.8,41.8 -3.7,4.8 -7.1,9.7 -10.9,14.5 31,9.3 60.6,19.9 84,26.8 50.3,14.8 100.9,33.8 150.6,55.1 -0.3,-20.8 -0.5,-41.5 -0.9,-62.4 -0.3,-19.2 -0.4,-38.5 -0.8,-57.8 -4.9,-24.8 -6.1,-49.2 -1,-71.9 -0.1,-7.9 -0.3,-15.8 -0.4,-23.7 -49.4,25.2 -99.4,49.4 -145.8,77.6 z m -317.7,182.6 c 11.3,7.1 22.5,14.5 33.6,22.1 13.7,-26.3 27.3,-52.8 42,-78.6 -8.1,4.1 -16.5,8.1 -24.7,12.4 -16.9,14.7 -33.9,29.4 -50.9,44.1 z m -757.2,2398.5 c -5.5,-8.8 -10.2,-18.2 -15.1,-27.3 -32.5,1.7 -65,3.5 -97.5,5.6 37.7,3.5 75.6,10.6 112.6,21.7 z m 189.6,1183.7 c -19,40.3 -39.6,79.8 -61.1,118.9 61.9,-12.9 132.7,-10 182.6,-4.7 47,5.1 94.1,15.9 140.1,30.5 -21.6,-10.2 -43.1,-20.2 -64.5,-30.6 -39,-19.5 -101.9,-36.2 -129.3,-73.2 -4.6,-6.1 -13.8,-22.6 -4,-29.2 79,-52 178.3,-37.9 273.3,-2.8 34.7,-32.2 96.3,-52.3 155.6,-66.7 -80.3,0.8 -160.6,6.4 -241.2,-6.2 -68.6,-10.8 -136,-29.4 -202.2,-51.9 -15.7,38.9 -31.4,77.8 -49.3,115.9 z m 202.1,1665.8 c 93.6,13.6 197.5,31.7 292.5,64 -7.2,-5.9 -14.6,-12.1 -22.1,-17.5 -39.7,-27.6 -78.8,-55.8 -106.5,-95.1 -4.2,-6.4 -16.6,-27.3 -4.5,-33.6 51.4,-26.5 116.9,5.2 175.3,42 4.2,-7.9 9.2,-15.9 15.7,-23.2 50.4,-57.9 119.5,-105 181.5,-153.2 -17.8,7.8 -38.2,12.8 -61.9,13.5 -110,3.4 -186.9,-54.5 -248.1,-131.6 1.1,64.1 -14.1,122.3 -71.2,129.8 -59.2,7.8 -98.1,-16.4 -127.3,-53.3 -2.1,1.6 -4.1,3.4 -6.2,5 -11.6,103 -42.4,221.2 -131.5,241.8 49.3,0.3 104.3,9.9 114.3,11.4 z m 1605.3,1281.3 c -8.5,5.6 -16.9,11.5 -25.8,16.8 16.4,0.9 33.5,1.6 51,2.2 -8.4,-6.4 -16.4,-12.9 -25.2,-19 z m 248.2,-2064.7 c -83.7,-37 -141.4,-100.7 -186.9,-174.4 -1,47.3 -38.3,103.8 -79.9,153.9 -6.4,16.7 -13.5,33.9 -22.1,50 98.5,-19.6 195.4,-28 299.6,-23.5 1.7,0.1 3.5,0.1 5.2,0.1 -5.2,-1.8 -10.4,-3.7 -15.9,-6.1 z m 551.1,-1434.5 c 19.9,4.2 39.3,9.8 58.3,16.6 1.8,0.6 3.8,1.3 5.6,1.9 4.3,1.7 8.6,3.4 12.8,5.2 -15.1,-19.5 -30.1,-39.1 -45.1,-58.6 -9.4,13.3 -19.9,25.4 -31.6,34.9 z M 12000.5,7965.9 c -9.3,12.6 -17.1,25.5 -25.2,38.4 67.7,19.3 135.1,40.04 200.2,66.42 -53.4,-42.62 -110.5,-90.12 -155,-132.32 -6.7,9.2 -13.2,18.3 -20,27.5 z M 10877,9724.66 c -0.9,-0.9 -1.7,-1.95 -2.6,-3 -17.2,-16.97 -66.4,-64.54 -50.1,-96.77 16.2,-32.71 70.3,-30.35 134.7,-13.63 -44.5,-30.04 -95.9,-50.42 -119.5,-100.99 -3.7,-7.87 -9.7,-25.97 4.1,-28.89 59.5,-12.99 129,2.67 193.2,18.83 -23.3,-14.69 -42.5,-34.66 -55.2,-55.61 -39.6,9.26 -79.1,19 -118.9,28.58 -103.8,25.08 -206.9,58.69 -311.7,81.5 14.7,5.68 28.4,11.36 40.8,16.48 95.7,39.45 194.7,91.56 285.2,153.5 z m 2041,4645.04 c -0.7,-0.4 -1.6,-0.8 -2.4,-1.2 -5,6.9 -10.6,13.3 -15.4,20.6 8.9,-5.2 18.4,-9.3 27.5,-14.2 -3.2,-1.7 -6.5,-3.5 -9.7,-5.2 z m 57.9,-70 c -16.4,15.5 -31.5,32 -45.6,49.3 8.8,4.9 16.5,9.2 23,12.8 23.5,-11.5 47.4,-22.6 72,-32.7 -17.1,-8.4 -33.6,-18.5 -49.4,-29.4 z m -1173.1,-3334.5 c 8.2,-6.5 16.8,-12.7 26,-18.3 -8.6,-12.2 -16.5,-24.5 -23.7,-36.9 -7.4,16.1 -15.7,31.6 -24.7,46.4 7.5,2.9 14.9,5.7 22.4,8.8 z m 330.2,1946.1 c -6.3,-1.6 -12.8,-3.3 -19.2,-5.2 -6,13.2 -13.1,25.5 -21.7,36.5 13,-9.8 26.7,-20.3 40.9,-31.3 z m 789.1,-741.7 c -3.2,0.7 -6.5,0.9 -9.8,1.5 -7.8,7.1 -16.8,13.6 -26.6,19.3 0.1,0.6 0.1,0.8 0.1,1.2 10.9,-1.3 21.7,-3 32.5,-4.6 1.3,-5.7 2.4,-11.7 3.8,-17.4 z m 285.4,-789.3 c 0,0 0,0 -0.1,-0.1 18.7,27.5 36.9,55.8 53.1,85.2 3.3,-6.8 6.7,-13.3 10.3,-19.7 -21.7,-21.1 -42.8,-42.9 -63.3,-65.4 z m 579.6,-407.7 c -33.9,-29.3 -56.3,-72.4 -70.5,-122.2 -24.2,52 -64,100.3 -106.6,142.4 22,-4.6 44.4,-8.5 66.9,-11.7 l -0.2,-0.2 c 3.4,-0.5 6.9,-0.6 10.4,-1 13.5,-1.8 27.2,-3.3 40.9,-4.4 4.5,-0.4 8.9,-0.8 13.5,-1.1 15.1,-1 30.4,-1.6 45.6,-1.8 z M 11548.7,8872.72 c 119.6,-33.19 258.2,-10.06 376.5,50.58 -5.1,-59.91 30.3,-118.44 73.9,-167.39 -84.2,27.28 -168.7,53.58 -255.2,76.39 -51.9,13.39 -112.6,17.05 -150.3,-24.51 -36.1,-39.62 12.2,-89.22 78.2,-131.83 -62.2,6.82 -124.4,12.74 -186.7,18.75 33.2,56.01 57.2,116.97 63.6,178.01 z m -580.4,-348.4 c -2.2,0.33 -4.4,0.57 -6.6,0.9 1.1,1.29 2.2,2.59 3.3,3.89 1.2,-1.54 2.1,-3.32 3.3,-4.79 z m 962.2,2370.08 c 23.3,-10.6 46,-21.5 65,-33.3 15.7,-9.7 30.8,-19.8 45.3,-30.2 1.6,-7.7 3.4,-15.4 5.1,-23.2 -15.7,4.9 -31.4,9 -46.9,12 -40.6,7.9 -89.2,2.4 -136.3,-12.7 -11.1,10.1 -22.1,20.3 -32.7,30.7 -1.1,4.3 -1.5,8.6 -2.7,12.9 33.5,7.2 68.7,23.7 103.2,43.8 z m 934,-1276.57 c -2.6,8.52 -3.5,18.59 -3.2,28.74 13.5,5.11 26.9,10.47 40.7,15.02 5.2,1.78 10.6,3.08 15.9,4.7 -14.2,-13.23 -33.1,-30.68 -53.4,-48.46 z m 649.2,1095.17 c -16.7,39.3 -42.2,72.5 -69.9,104.1 28.4,-16.5 55.2,-35.7 81.4,-56.4 -5.5,-15 -9.4,-30.9 -11.5,-47.7 z m -1153.3,-266.4 c -0.1,1.7 -0.5,3.5 -0.6,5.2 1,-1.2 1.8,-2.6 2.8,-3.9 -0.7,-0.5 -1.4,-0.9 -2.2,-1.3 z m 476.2,901.5 c -6.1,-19.9 -9.4,-43.5 -9.4,-67.1 -5.4,0.9 -10.7,1.6 -16.1,2.9 -29.4,7 -65.3,9.6 -101.4,13.3 5.1,123.6 10,242.9 10.5,275.1 1.7,-0.9 3,-1.9 4.8,-2.8 43.7,-21.6 95.3,-41 145.1,-38 31.5,2 65.4,11.6 98.8,19.6 -54.8,-60.4 -106.8,-120.5 -132.3,-203 z M 12979,9912.98 c -1.6,-0.89 -3,-1.7 -4.6,-2.59 -19.2,-11.94 -37,-25.33 -54.8,-38.81 1,12.99 1.3,26.14 0.7,39.78 22.3,0.81 42.1,1.46 58.7,1.62 z m 90.5,178.72 c -1.1,-2.4 -2,-4.9 -3,-7.3 -54,2.9 -108,6 -162,9 14.5,5.3 28.3,10.4 41.3,14.8 53,18.4 123.8,40.5 179,76.2 -21.1,-28 -39.7,-58.9 -55.3,-92.7 z m 442.2,578.2 c 0,-5.9 -0.1,-11.8 0.2,-17.8 -5.8,1.6 -11.7,2.7 -17.5,3.7 5.7,3.6 11.5,8.2 17.3,14.1 z m -568.8,-965.53 c -25.1,-5.69 -49.6,-13.64 -73.8,-22.33 11,22.65 17.7,44.57 24.6,68.11 20.1,18.18 40.2,36.36 60.8,54.06 4,-0.08 8.9,1.38 14.3,5.19 32.4,23.47 64.4,47.41 96.4,71.44 12.6,3.81 25.6,6.66 38.4,9.74 19.1,-10.39 40,-15.51 61.4,-17.37 -23.2,-18.51 -43.2,-35.72 -56.4,-45.46 -22.1,-16.4 -43.5,-33.6 -64.8,-51.14 1.5,1.06 3.1,2.03 4.5,3.08 -28.2,-23.05 -55.9,-46.59 -83.2,-70.7 -7.4,-1.62 -14.8,-2.92 -22.2,-4.62 z m 380.2,927.43 c -21.5,16.6 -45.9,27.3 -71.3,36 34.4,-4.6 69.2,-8.3 103.8,-9.3 21.6,-0.6 41.4,-5.1 60.3,-8.8 -26.6,-10 -50.7,-28.9 -69.4,-59.7 -41.6,-68.7 -25.1,-165.1 21.9,-243.1 -62.9,-15.4 -121,-44.9 -171.1,-86.6 3.9,8.6 6.5,17.6 -0.3,25.5 -54.9,64.4 -188.1,8.2 -255.3,-12.6 -44.9,-13.6 -86.8,-34 -126.8,-57.8 7.3,10.7 14.6,21.2 22,31.4 38,53.2 92.5,103.5 113.6,166.5 3,9.1 1.5,21.6 -10.7,20.8 -59,-4.8 -118,-54.4 -168.1,-95.2 6.9,42.3 14.3,85.1 23,127.4 9.9,12.3 21,24.1 32.4,35.5 8.8,1.7 17.1,3.1 25.6,4.7 10.9,2.1 21.6,4 32,5.9 18.1,3.2 35.5,6.1 51.9,8.3 107.4,14.2 279.2,10 372.6,72.4 8.8,5.9 27.6,28.2 13.9,38.7 z M 12232.5,8885.47 c -8.7,0.81 -17.2,1.38 -24,2.92 -53.4,12.26 -103.8,31.01 -154.1,52.12 -20,8.52 -36,20.78 -52.6,30.03 33.1,23.79 63.2,50.73 89.6,80.45 23.7,-17.62 64.1,-0.49 93.8,14.69 -13.3,-42.54 -36.7,-97.49 0.9,-123.71 6.7,-4.46 13.8,-1.79 20.3,1.46 15.3,7.96 29.8,19.16 43.9,31.98 1,0.98 2,1.95 3.1,2.93 9.2,8.76 18.2,18.1 26.9,28.16 0.5,-35.06 -4.2,-70.7 -4.2,-82.96 -0.3,-14.37 0.9,-28.33 2.6,-42.05 -16,1.55 -31.4,2.44 -45.6,3.74 -0.3,0.08 -0.4,0.16 -0.6,0.24 z M 10642,8413.84 c -0.6,0 -1.3,-0.08 -1.8,-0.08 0.1,0.24 0.3,0.49 0.5,0.82 0.4,-0.25 0.9,-0.58 1.3,-0.74 z m 4500.9,1295.32 c -2.8,3.56 -6.8,5.6 -10.3,8.27 0.5,0.17 1.1,0.33 1.6,0.41 -1.7,1.38 -4.1,1.95 -5.9,3.08 -3.3,2.03 -6.5,3.9 -10.2,5.36 -4,1.7 -8.2,2.92 -12.7,3.98 -3.8,0.89 -7.8,1.79 -12,2.27 -4.8,0.57 -9.9,0.81 -14.9,0.89 -4.4,0 -8.7,0.17 -13.2,-0.08 -5.5,-0.32 -11.1,-0.89 -16.7,-1.62 -4.4,-0.57 -8.8,-0.97 -13.4,-1.71 -5.9,-0.97 -11.8,-2.1 -17.8,-3.33 -4.2,-0.88 -8.4,-1.62 -12.6,-2.59 -6.7,-1.46 -13,-3.08 -19.5,-4.71 -3.5,-0.89 -7,-1.7 -10.4,-2.51 -8.7,-2.28 -17.2,-4.55 -25,-6.5 -8.3,-2.11 -16,-3.98 -22.6,-5.28 -32.3,-6.33 -64.2,-14.04 -95.7,-22.32 53.6,25.9 84.1,69.73 2.6,103.66 -89.2,37.02 -207.4,26.38 -299.8,21.84 -78.4,-3.73 -153.7,-17.7 -228.1,-36.53 15,17.37 24,37.18 23.1,60.23 -0.9,36.78 -66.3,35.72 -144.4,21.19 1.1,1.7 2.5,3.57 3.7,5.27 13.8,20.87 33,49.6 52.4,81.91 131.1,-167.71 549.6,61.06 667.1,195.76 108.7,124.6 26,225.8 -94.1,275.1 8.5,6.9 17,14.1 25,21.5 65.8,61.7 123.2,141.9 68.2,229.8 -36.9,58.9 -136,33.7 -218.9,11.5 25.7,38.7 42.7,80.9 31.5,124.4 -22,85.5 -86.8,120.9 -173,113.8 -77.1,-6.5 -181.1,-66.8 -261.5,-145.9 -14.8,42.2 -48.8,65.3 -113.2,40.1 -77.9,-30.5 -113.3,-106.8 -155,-172.6 -5.7,-8.9 -11.5,-18.6 -17.3,-28.6 -0.9,-0.5 -1.7,-1 -2.5,-1.5 -6,86.3 12.7,186.5 -13.5,259.3 -6.1,16.7 -14.3,36.4 -24.6,55.8 24,37.6 48.3,75 72.9,112.3 13.5,7.9 26.6,16.9 39.2,26.7 2,1.5 3.8,3.2 5.7,4.8 14.5,11.8 28.4,24.6 41.6,39.2 5.9,6.7 14.6,28.2 0.1,31.6 -5.6,1.4 -11.4,1.6 -17.2,2.6 3.3,8 -6.9,10.8 -12.6,3.4 -0.3,-0.5 -0.8,-1 -1.1,-1.4 -48.8,5.5 -99.3,0.3 -148.3,-0.3 -24,-0.4 -47.9,-1.4 -71.8,-2.1 v 0.2 c 10,2.4 20.5,5.4 30.3,7.4 122,27 271,38.2 366.7,127 30.7,28.4 47.8,82.9 1.2,105.9 -10.8,5.3 -22,9.6 -33.3,13.5 -11,3.8 -22.2,6.7 -33.6,9.3 -0.3,0.1 -0.6,0.2 -0.9,0.2 v 0 c -28,6.3 -57,9.5 -86.5,9.9 85.8,29 169.3,62.6 244.2,103 6.6,3.5 12.3,7.3 17.8,11.2 27.1,18.8 41.3,40.5 37.4,59.1 0.3,-0.3 0.6,-0.4 1,-0.7 -0.2,1.3 -1.2,2.5 -1.6,3.7 -0.6,1.9 -1.4,3.8 -2.5,5.7 -1.5,2.6 -3.6,4.9 -5.9,7.3 -1.7,1.6 -3.1,3.2 -5.1,4.7 -3.3,2.4 -7.6,4.5 -12,6.6 -2.3,1.1 -4.1,2.3 -6.7,3.3 -7.7,2.8 -16.6,5.3 -27,7.1 -115.7,20.1 -239.3,16.8 -363.7,-2.7 27.4,46 49.2,95.7 59,145.3 85,26.8 164.9,69 236.9,122.2 53.5,39.6 136.9,113.3 123.4,188.8 30.6,24.6 59.9,50.6 87.9,75.1 49,42.5 132,122.9 106.7,196.5 -19.1,55.8 -84.6,52.6 -151.5,33.2 15.4,25.7 24.7,52.5 23.1,79.6 -5.8,94.4 -93.4,107 -172.2,112 -188.1,12.2 -345.5,-79 -436.3,-226.8 -23.7,26.5 -58,45.5 -100.1,55 -114,25.7 -193.1,-37.9 -272,-100.9 5.6,55.9 -5.5,110.8 -44.6,129.4 52.7,2.6 105.4,11.9 138.6,52.9 42,52 -55.3,72.1 -165.8,77.7 40.6,14.5 80.7,30.4 120.5,44.8 63.5,23 160.8,52.4 186.8,123.4 1.1,3.2 1.7,6 2,9 3.6,0 7.4,-0.5 11,-0.5 88.2,-1.2 175.7,-0.7 263.9,0.5 48.6,0.4 87.6,3.5 115,42.7 6.7,9.6 16.2,26.4 5,36.7 -52.3,47.7 -148.2,50.8 -225.6,54 27.6,8.4 54.4,16.7 78.9,23.8 99.6,28.2 269.9,43.7 341.1,127.7 4.8,5.9 15.1,25.6 4.3,31.6 -7.8,4.2 -16.2,7.3 -24.8,9.9 -2.2,0.6 -4.5,1.1 -6.8,1.7 -6.6,1.7 -13.2,3.1 -20,4 -2.7,0.4 -5.3,0.7 -8.1,1 -6.7,0.7 -13.5,1.1 -20.4,1.4 -2.6,0.1 -5.3,0.2 -7.9,0.3 -7.5,0.1 -15,-0.1 -22.5,-0.3 -1.6,-0.1 -3.3,0 -4.8,-0.1 -0.1,0 -0.1,0 -0.1,0 -24.7,-1 -49.1,-3.2 -71.5,-3.7 -17.9,-0.1 -35.9,-2.3 -53.6,-4.1 -3,0 -5.8,0 -8.6,0 v 0 c -59.4,0.2 -117.6,-0.1 -177.8,-18.2 -29.3,-8.7 -58.6,-18.1 -87.9,-28.1 -2.7,0.9 -5.7,1.3 -8.6,2 v 0 c -3.3,0.8 -6.6,1.8 -10,2.3 76.4,63.6 141.3,151.4 145.4,219 1.3,16.9 -12.2,20.3 -25.4,13 -96.2,-53.6 -188.9,-108.6 -283.7,-161.1 13.4,16.9 17.6,31.3 5.3,40.4 -61.5,46.1 -182.9,-0.3 -248.6,-18.2 -92.3,-25.2 -167.8,-79.4 -248.9,-122.3 -0.9,0 -1.7,0 -2.5,0.2 11.4,12.1 22.9,24.7 33.9,37.7 1.1,0.4 2.1,0.8 3.2,1.3 13.1,3.7 26,7.4 39.3,10.7 2.9,0.9 7.7,5.9 10,11.2 17.3,9.5 31.8,21.5 37.6,37.7 2.7,7.9 -6.5,5.5 -8.8,0.7 -4.9,-9.5 -32.8,-18.8 -53.1,-25.4 26.3,37.3 43.5,75.7 35.8,110.6 -0.1,0.2 -0.2,0.3 -0.3,0.6 45.6,16 83.1,52.5 102,118.1 3.7,3.7 7.4,7.4 11.1,11 38.5,-9.6 75.7,-17.7 107.9,-24.9 167.4,-37.8 316.4,-6.7 469.9,69.6 73.2,36.2 169.3,97 181.3,185.3 3.2,22.7 -3.8,39.3 -16.4,51 30.3,18.4 59.4,37.9 86,57.7 49.8,37.2 117.1,64.1 107.6,141.2 -3.7,29.8 -27.8,40.8 -60.7,41.1 135,102.3 249.5,223.6 293.3,401.7 20.6,83.7 -78.9,50.8 -110.6,23.6 -68.9,-59.4 -140.7,-112.9 -213.6,-165.2 2.4,15.4 -0.2,29.7 -10.2,41.9 -48.7,60.6 -141.9,13.3 -217.3,-33.1 49.9,103.5 112.8,258.3 16,261.5 -79.8,2.7 -142.7,-70.2 -191.5,-125.5 -10.3,-11.7 -20.7,-23.6 -30.8,-35.7 3.1,111.4 -25.9,225.2 -119.8,258.9 -55.5,19.9 -113,-52.8 -131.3,-94.3 -1.9,-4.2 -3.2,-8.5 -5,-12.9 -26.7,51 -62.1,86.4 -108.7,69.6 -76,-27.1 -91.6,-116.6 -93.8,-208.5 -28,27.4 -64.6,41.9 -118.8,29.6 -18.6,-4.1 -37.3,-11.7 -55.7,-21.8 10,25.6 17.5,49.9 20.5,70.8 37.4,-10.2 76.5,-14.4 105.6,2.5 8.7,5.1 16.7,16.4 15.5,27 -7.2,61.5 -89.1,122.7 -132.8,155.6 -2.9,2.2 -6.2,3.9 -9.2,6 10.5,8.2 20.4,17.2 30.4,26 81.5,2.9 169.3,7.7 233.8,50.5 9.1,6.1 30,30.6 14.9,41.1 -26.8,18.6 -58.7,27.1 -92.1,32.5 93.3,15.5 185.5,45.8 263.9,80.2 61.2,26.8 222.5,88 226.2,173.6 0.1,6.9 -0.8,13.6 -8.3,15.9 -37.4,11.3 -75.2,-2.1 -112.2,-14 3.7,7.4 5.9,14.6 7.6,21.7 32.4,24.8 63.9,50.8 92.8,78.1 7,6.7 25.3,43.2 0.5,38.9 -47.3,-8.1 -91.1,-26.7 -134.3,-46.3 -6.3,2.1 -12.4,3.1 -18.9,3.8 13.4,11 26.2,22.7 38.5,34.8 5.5,5.3 10.7,10.8 15.8,16.2 6.2,6.8 12.3,13.7 18.2,20.9 11.6,13.7 22.3,28.5 32.4,43.8 3.1,4.7 6.4,9.1 9.4,13.9 -0.3,-0.3 -0.5,-0.5 -0.8,-0.8 13.8,22.5 26.5,46.4 37,73.2 5.7,14.5 -6.8,26.1 -20.2,16.3 -83.1,-59.8 -160.9,-107.1 -258.4,-140.9 -35.1,-12.3 -138.5,-44.7 -223.7,-48.9 0,12.7 -3.2,24.7 -11,34.2 -28,33.5 -70.4,31.7 -112.3,19.7 29.2,26.4 53.8,55.6 56.2,89 0.7,8.4 -3.2,20 -14.3,17.7 -48.9,-10.4 -94.9,-36.5 -139.3,-63.8 50.2,72.2 103.6,165.6 75,180.5 -37.7,19.8 -70.2,-6.9 -97.4,-33.6 -16.4,-16.4 -34.1,-31.5 -52.1,-46.1 -3,10.6 -5.4,21.3 -8.4,31.9 0,0.2 0,0.3 0,0.4 -38.5,138.3 -71.8,278.8 -102.8,418.7 -21.6,97.6 -39.5,195.6 -53.2,294.5 -2.4,17.1 -7.4,38 -13.3,60 -3,45.7 -6.2,91.3 -9.6,136.7 6.5,-8.8 12.9,-18.7 19.2,-28.6 35.5,-57 64.9,-127.5 82,-172.1 2,-5.6 6.3,-6.2 11,-4.6 v 0 l 0.1,0.1 c 5.4,1.9 11.2,7.1 15.4,13.4 0.3,0.2 0.3,0.6 0.6,0.8 1.5,2.5 2.7,5 3.6,7.6 0.3,0.8 0.5,1.6 0.7,2.4 0.7,2.9 1,5.8 0.1,8.2 -23.2,69.1 -46.4,138.6 -71.2,207.4 -3.7,10.1 -7,20.2 -10.7,30.2 0,-0.3 0,-0.5 0.1,-0.7 -2.3,6.2 -4.4,12.5 -6.7,18.7 -5.3,13.5 -14.7,32.2 -24.6,52.3 20.5,-29.1 40.6,-58.5 60.5,-88.2 23.1,-34.8 51,-82.2 93,-93.6 8,-2.1 17.7,3.7 24.6,11.6 0.6,0.6 0.8,1.3 1.3,1.9 2.3,3.1 4.6,6.1 5.8,9.3 1.7,4.2 2.4,8.3 1.3,12 -26.4,97.6 -74.2,190.2 -107,286.2 -48.3,142.6 -86.3,285.3 -116.7,432.8 -12.9,63.5 -24.5,127.3 -35.8,191.2 -5.6,31.6 -11.3,63.2 -16.8,94.9 -7.3,42.4 -14.6,84.8 -22.1,127.2 -24.1,135.9 -27.9,275.1 -58.4,409.3 -1.1,5.4 -5.8,3.9 -9.4,0.5 -1,5.3 -1.4,10.7 -2.5,15.9 -7.4,-9.1 -14.1,-19.2 -20.4,-29.7 -0.4,-0.8 -0.7,-1.5 -1.2,-2.3 -40.2,-69 -57.8,-163.3 -72,-228.8 -22.8,-104.3 -38.4,-209.7 -63.8,-313.2 -10.8,-44.3 -22.3,-88.4 -34.3,-132.7 -13,-70.3 -25.6,-140.8 -37.4,-211.7 -11.5,-43.6 -22.6,-87.1 -32.2,-130.7 -32,-144 -58.7,-289.1 -82.2,-434.5 -24.2,-145.4 -83.4,-280.6 -113.4,-423.9 -10.6,-50.6 -55.4,-127.3 -58.4,-176.3 -1.7,-26.8 -5.9,-53.5 -12,-79.6 -28.4,-3.2 -83.6,5.9 -102.6,10.8 -41.4,10.6 -66.7,41.5 -99.2,64.7 -18,12.6 -37,-6.8 -46.2,-19.6 -40.7,-55.8 -3.6,-130.7 35.8,-192.3 -38,15.7 -76.2,30.3 -117.8,39.9 -16.5,3.9 -37.1,-19.8 -33.8,-35.8 6.7,-33.2 18.3,-56.5 34.5,-75.4 -30.4,11 -59.8,23.7 -84.8,36.8 -23.9,12.4 -29.9,14 -51.7,5 -13.3,-5.5 -23.9,-19 -23.3,-33.9 6.1,-152.9 95.9,-255.5 213.1,-302.9 -63.7,-19.5 -127.8,-33.7 -197.7,-29.3 -11.9,0.8 -29.6,-21.2 -22.7,-32.5 12,-18.5 25.4,-35.8 39.7,-52.5 2.6,-3.1 5.3,-6.3 8.2,-9.4 14.6,-16.5 30.2,-31.9 47,-45.7 0,-0.1 0.2,-0.2 0.4,-0.4 0,0 0,0 0.1,0 57.5,-47.4 125.5,-77.9 197.8,-80.1 -33.2,-26.4 -57.2,-58 -52.6,-91 0.4,-4.5 2.9,-7.6 7.2,-9.1 39,-13.5 86.3,-4.2 129.9,13.6 -7.5,-16.2 -12.9,-32.6 -14.9,-47.6 -4,-29 25.4,-37.7 65.9,-36.4 -28.8,-17.8 -54.4,-39.2 -71.9,-66.9 -3.4,-5.2 -7.6,-19.2 -0.2,-23.6 87.2,-49.9 228,-49.4 326.6,-46.2 36.6,1.4 73.6,3 110.3,6.4 0,0 0.1,-0.2 0.2,-0.3 -24.4,-13.9 -101.2,-26.1 -102,-26.1 -68.1,-3 -140,-17.9 -207,-31.8 -12.1,-2.4 -31,-21.5 -19.4,-34 16.5,-17.8 152.6,-80.6 132.3,-93.7 -22.5,-14.5 -53.1,-25.6 -63.3,-53.8 -5.2,-14.7 -6.4,-29.4 -4,-43.6 -11.2,2.2 -22.3,5.1 -33.5,7.4 -62.4,12.9 -124.4,28.6 -184.2,44.9 -80.3,21.9 -154.4,56.3 -227.4,95.5 -36,19.3 -65,55.4 -106.3,61.2 -17.3,2.2 -35.7,-18.5 -33.7,-35.4 8.2,-61.5 40.4,-119.4 84,-169 -101.2,13.4 -203,24.3 -302.5,39 -225.8,32.8 -412.1,115 -620.6,198.9 -3,1.2 -6,0.6 -9,-0.6 -0.9,-0.4 -1.8,-0.6 -2.7,-1.2 -1.8,-1 -3.5,-2.5 -5.1,-4 -2.2,-2.1 -4,-4.3 -5.7,-6.9 -0.2,-0.3 -0.3,-0.5 -0.5,-0.8 0,0 0,0 0.1,0 -3.4,-5.5 -5.7,-11.2 -5,-15.6 29.5,-171.3 207.7,-354.4 329.2,-471.2 68.7,-66.4 158.8,-119.4 239,-170 9.2,-5.8 18.4,-10.5 27.8,-14.8 -70.5,-4.1 -151.5,-7.1 -208.6,19.7 -11.3,5.1 -24.6,-12.8 -27.8,-20.9 -26,-71 118.1,-173.1 163.8,-197.4 53.5,-28.7 116.6,-39.7 182.2,-41.1 17.3,-4.1 36.2,-6.9 55.5,-8.2 -45.9,-18.9 -92.4,-42.3 -130.2,-71.3 -8.7,-6.7 -20.3,-29.3 -4.9,-35.1 59.5,-22.4 136.3,-10.3 212.4,13 -5.4,-3.5 -9.7,-6.6 -12.4,-8.8 -4.1,-3.4 -7.5,-6.8 -10.9,-10.3 -68.7,-36 -163.4,-87.8 -186.5,-153.6 -9.7,-27.5 12.3,-39.6 44.7,-43.9 -33.1,-5.9 -51.1,-33.9 -58.8,-70.7 -7.9,-0.3 -18,-13.4 -11.7,-19.4 2.5,-2.5 5.2,-4.7 7.7,-7.1 0,-1.3 -0.3,-2.6 -0.5,-3.9 -67.2,56.8 -145.6,87.6 -184.3,-22.5 -15.4,-43.7 10.2,-85 41.6,-116.5 -36.6,-48.5 -12.4,-110.1 32.2,-166 -22.1,-3.4 -43.5,-8.9 -63.4,-17.2 -31.7,-13.5 -53.2,-43.5 -53.6,-78 -1.3,-101 187.2,-130.3 260.3,-135 75.2,-5 147.7,-0.3 218.8,13.5 -24.1,-50.2 -28.4,-106.2 3.5,-158.5 10.2,-16.6 22.2,-29.2 35.2,-39.2 -9.6,0.9 -19.2,1.5 -28.8,2.6 -0.2,0 -0.3,0.1 -0.6,0.1 -138.5,16.8 -273.9,59.3 -411.5,76.3 -0.2,0 -0.3,0 -0.3,0 h -0.1 c -4.8,0.6 -9.6,1.4 -14.4,2 -8.3,0.8 -21.6,-7.9 -27,-17.9 v 0 c -0.1,-0.1 -0.1,-0.3 -0.2,-0.5 -1.2,-2.2 -1.8,-4.5 -2,-6.9 0,-0.3 -0.1,-0.7 -0.1,-1 0,-2.5 0.4,-5 2,-7.2 64.5,-90.5 144.1,-165.2 223.9,-241.9 60.7,-58.1 139.8,-110.8 204.6,-169.6 -41.1,6.1 -80.8,13.4 -112.3,17.7 -107.5,14.5 -188.5,82.9 -289.4,113.8 -15,4.7 -31.5,-16.5 -32.6,-29.5 -9.3,-87.9 36.8,-184.4 87.4,-253.2 21.9,-29.9 50.3,-49 82.4,-61.7 -30.8,-6.5 -59.2,-16.1 -83.4,-30.2 -41.4,71.9 -83.2,143.6 -120.7,217.2 -6.1,11.8 -26.1,-8.6 -21.9,-18.7 32.3,-77.8 67.6,-154.2 103.3,-230.4 -5.6,-8.2 -8.5,-19.4 -1.6,-26.9 6.8,-7.6 14.9,-13.9 23.5,-19.7 30.2,-64.3 60.6,-128.6 89.5,-193.5 14.1,-31.5 27.7,-62.7 41.5,-93.7 -6.6,-2.5 -13.1,-4.7 -19.6,-7.3 -6.2,-0.7 -12.5,-1.2 -18.8,-1.9 -22.6,25.7 -45,51.6 -66.6,78.2 -5.7,6.9 -18.9,-6.1 -14.6,-12.4 15.9,-23.5 32.5,-46.2 49.2,-69.1 -15.2,-1.6 -30.2,-3.4 -45.3,-4.7 -113.9,-9.2 -231.3,-9.8 -344.5,6.4 -64.8,9.3 -148.4,50.9 -212.8,44.4 -80.8,-8.1 -74.3,-80.9 -33,-134.5 44.9,-58.4 115.2,-93.1 190.7,-112 -106.5,-33.1 -209.9,-88.5 -297.3,-142.2 -13.9,-8.7 -186.7,-150 -80.2,-162 11.5,-1.3 23.2,-1.2 34.6,-1.8 h -0.1 c 165,-7.9 342.6,57.6 497.2,108 12.4,-14.2 28.6,-23.9 46.4,-31.7 -63.1,-68.3 -101.7,-168.6 -76.6,-249 -112.7,-13.9 -221.3,-59.1 -245.3,-127.3 -49.2,-139.5 93.4,-209.5 199,-239.7 4.9,-1.3 10.2,-1.6 15.2,-2.7 -34.3,1.5 -68.7,2.7 -103.2,2.9 -54.7,0 -117.6,-2.4 -177.8,-11.2 -133,38.3 -257.2,86.4 -387.9,149.2 -6,2.9 -15.3,-4.7 -18.6,-9 -57.5,-75.7 50.3,-211.2 103,-262.8 63.7,-62.5 154,-96 247.4,-110.4 -16.9,-5.7 -34,-11.1 -49.5,-15.4 -56.5,-15 -156.5,-26 -194.3,-79.5 -3.6,-5.41 -11.4,-17.34 -5.9,-24.16 32.8,-43.34 116.7,-32.55 163.8,-31.58 60.3,1.3 121.7,10.96 181.4,26.23 -184.8,-108.37 -448.3,-280.95 -444.3,-383.88 0.1,-4.46 0.8,-8.77 1.8,-12.99 0.7,-2.11 1.6,-4.22 2.4,-6.25 2.2,-5.44 5.1,-10.71 9.4,-15.59 7.8,-8.6 16.5,-15.58 25.6,-21.83 -18.3,-22.16 -27.2,-52.85 -21.2,-94.33 7.2,-48.78 57,-112.99 87.9,-149.04 3.1,-3.65 6.5,-6.9 9.8,-10.22 -17.2,3.57 -34.3,6.98 -51.4,9.66 -86.5,13.72 -185.5,19.07 -273.05,23.94 -32.8,1.87 -77.36,-52.6 -68.44,-84.5 18.92,-67.21 77.93,-108.93 126.19,-156.91 43,-42.62 83.5,-75.01 127.8,-103.01 -72.8,-29.47 -134.2,-76.63 -151.5,-159.75 -4.1,-19.65 0.3,-36.05 10.3,-49.52 -58.89,-14.86 -117.66,-30.28 -175.53,-47.24 -85.81,-24.93 -239.23,-110.08 -225.59,-220.47 15.99,-128.91 240.28,-138.57 333.95,-139.95 64.77,-0.98 130.57,16.4 192.27,44.64 -34.1,-109.99 -19.9,-220.22 91,-226.8 62.3,-3.73 127.3,15.75 187.7,47.41 44.4,-11.2 89.8,-18.11 119.7,-22.24 11.1,-1.54 20,-2.68 26,-3.49 94.3,-13.56 193,-15.92 289.7,-5.44 -52.2,-24.11 -106.1,-49.03 -146.8,-83.78 -6.3,-5.35 -21.2,-30.52 -4.6,-33.93 85.8,-16.88 177.7,19.08 258.7,44.41 29,9.17 57.7,17.37 85.3,26.05 C 10973,8077.62 10861,7987 10837.9,7927.4 h -0.1 c 0,0 0,0 0,-0.1 -3,-7.7 -4.3,-15 -4,-21.5 0.1,-0.4 0,-0.8 0,-1.3 0.2,-2.7 1,-5.3 1.8,-7.7 0.5,-1.5 1.3,-2.8 2,-4.1 1.1,-2 2.2,-4.1 3.9,-5.9 2.5,-2.9 5.8,-5.5 9.9,-7.7 1.7,-0.9 3.9,-1.7 5.9,-2.6 3.6,-1.5 7.6,-2.9 12,-4.1 2.4,-0.6 4.7,-1.2 7.3,-1.7 7.4,-1.5 15.5,-2.6 25.1,-3.2 108.1,-5.8 223.9,12.2 329.1,53.9 -2.5,-4.4 -4.9,-9 -6.8,-13.6 -2.3,-6 -2,-12.3 2.4,-17.1 53.6,-57.2 227.3,45.3 276.9,68 34.3,15.7 72.3,32.1 110.2,49.9 0.3,-0.2 0.6,-0.5 0.9,-0.7 -11.4,-16 -22.7,-31.8 -34.3,-46.3 -39.4,-49.2 -51.5,-103.5 29.5,-100.4 51,2 104,16 156.7,38.2 9.8,-6.5 18.9,-13.1 28.9,-19.5 0.9,-0.5 1.7,-1.2 2.6,-1.6 67.4,-58.5 134.6,-117.3 203.8,-174.2 93.2,-76.4 196.6,-148.9 265.3,-248 24,-34.4 44.1,-72.1 62.9,-110.7 -11,-1274.6 13.7,-2550.3 -46,-3823.5 v -0.1 c -7.9,-167.3 -17,-334.4 -28,-501.5 216.4,-96.5 454,-108.3 683.6,-43.1 0.6,714.8 -104.4,1429.9 -125,2145.2 -18.7,645.2 -39.9,1291.6 -45.1,1937.7 5.7,5.4 10.8,11.1 16.2,16.6 78.6,59.6 148.9,128.4 224.8,191 111.5,35.1 217,48.8 337.3,63.9 137.7,17.3 268.3,70.6 403.5,99.7 116.3,25.2 228.6,64.7 339.8,105.1 107.5,39.2 223.5,63.8 325.3,115.4 8.8,4.4 15.2,28.9 0.3,22.1 -100.2,-44.9 -214,-62 -319.3,-93.4 -144.8,-43.1 -289.2,-73.4 -437.3,-102.4 -122,-23.9 -239.6,-61.6 -362.9,-82.7 -49.7,-8.5 -97.5,-18.6 -143.8,-31.6 15.9,11 31.5,22.3 46.9,33.8 88.2,55.3 170.9,118.8 253.8,179.6 83.4,53.6 162.5,112.7 244.5,167.8 10.4,5.6 20.7,12 29,19.2 4.6,2.9 9.3,5.8 13.9,8.8 3.2,0.4 6.7,0.9 9.5,1.2 127.4,15.5 302,36.7 408.8,114 0.3,0.2 0.6,0.3 0.6,0.5 46.6,0.1 88.9,2.3 117.9,2.3 96.4,-0.3 347.3,-19.5 401.3,94.5 2.2,4.4 3.5,8.7 4.1,12.7 0,0.1 0,0.3 0,0.3 0.7,4 0.7,7.7 0.2,11.2 -0.1,0.3 -0.3,0.5 -0.3,0.8 -0.6,3.4 -1.6,6.6 -3.1,9.6 -0.2,0.5 -0.5,0.8 -0.8,1.1 -1.5,2.9 -3.4,5.76 -5.7,8.36 -0.4,0.49 -0.9,0.81 -1.3,1.3 -2.4,2.52 -4.9,4.87 -7.8,7.14 -0.6,0.49 -1.3,0.9 -2,1.38 -2.9,2.2 -5.9,4.22 -9.2,6.25 -0.8,0.41 -1.7,0.82 -2.5,1.22 -3.4,1.95 -6.9,3.74 -10.5,5.44 -1,0.49 -2,0.81 -2.9,1.3 -3.8,1.63 -7.5,3.16 -11.4,4.63 -1,0.4 -2,0.73 -3.1,1.13 -4,1.38 -7.9,2.84 -12,4.06 -1.1,0.33 -2.1,0.65 -3.1,0.97 -4.1,1.23 -8.3,2.44 -12.4,3.58 -1.1,0.32 -2.2,0.57 -3.3,0.81 -4.1,1.05 -8.1,2.11 -12.1,3.09 -1.1,0.24 -2.1,0.4 -3.2,0.65 -4.1,0.97 -8,1.86 -12,2.67 -0.7,0.17 -1.2,0.24 -1.9,0.41 -16.9,3.49 -31.6,5.92 -40.9,7.63 -0.9,0.24 -2,0.4 -2.8,0.56 -12.1,2.52 -24.6,4.39 -36.6,6.42 40.3,10.47 80.5,21.19 119.7,32.31 26.9,7.63 57.6,15.83 89.2,25.41 3.7,1.05 7.2,2.1 10.9,3.24 13.8,4.3 27.7,8.85 41.6,13.8 2.6,0.89 5.2,1.71 7.8,2.68 14.9,5.44 29.7,11.36 44.2,17.7 5.7,2.51 11.1,5.27 16.6,7.95 9.2,4.3 18,8.85 26.7,13.72 6.2,3.33 12,6.82 17.9,10.39 8.6,5.36 16.7,11.2 24.7,17.13 4.6,3.41 9.5,6.66 13.8,10.31 0.3,0.24 0.7,0.48 1,0.73 -0.2,-0.08 -0.2,-0.08 -0.4,-0.08 25.2,21.26 46,46.11 59.3,75.9 57.8,130.85 -263.9,64.37 -289.3,59.58 -143.7,-28.41 -287.1,-72.98 -427,-124.61 15.7,13.72 31.1,27.77 44.8,42.14 55.9,57.79 143.3,147.41 149,233.45 1.6,19.08 -17.1,18.43 -28.3,8.12 -122,-116.73 -327.1,-185.97 -500.4,-233.38 44,31.74 74.6,67.7 70,105.69 -8.5,68.11 -158.3,38.97 -293.1,-1.05 -1.1,1.79 -2.5,3.49 -3.8,5.11 27,16.16 54,32.55 81.3,48.38 66.8,39.29 155.2,75.25 203.3,138.08 5.2,6.41 11.1,17.45 6.6,25.82 -32.9,61.85 -179.1,5.44 -227.2,-6.74 -83.2,-20.78 -164.1,-47.33 -245.3,-75.5 -4.4,-1.13 -8.8,-3.33 -13.2,-4.95 -27.5,2.44 -57.2,2.76 -92.2,2.76 h -250 c -44.5,0 -102.1,-15.34 -147.4,-2.51 -8.1,2.35 -15.8,5.52 -23.1,9.82 0,0 -0.1,0.08 -0.2,0.16 -7.3,4.47 -14.1,10.07 -20.1,17.21 47.5,29.3 104.4,48.22 160.5,66 88.8,-28.5 191.7,-29.07 277.4,-22.25 74,5.85 226.9,14.13 255.1,100.82 2,5.93 2.9,13.07 -2.3,17.7 -19.5,17.29 -40.7,22.89 -67.3,24.35 -10.3,0.49 -20.7,1.46 -30.9,2.35 2.6,0.09 5.4,0.09 8.1,0.09 196.8,2.92 382.9,59.09 571.4,108.77 30.3,7.96 168.4,67.37 117.9,124.44 -31.2,35.64 -73.6,58.85 -120.8,73.71 53.9,8.6 110.2,24.19 131.1,58.6 15.6,25.01 10,44 -6.1,60.97 32,-2.76 64.2,-4.79 96.6,-6.33 157,-8.2 345.8,-35.8 500.6,-9.34 13.7,2.27 41.4,26.63 29.4,42.62 19.3,-25.57 -20.2,-43.43 40.9,-21.51 12,4.22 25.3,13.39 33.5,23.38 11.6,14.53 13,33.76 20.2,50.57 1.9,4.14 3.5,12.98 0,17.29 -9.7,12.91 -20.9,24.27 -33,34.82 -3,2.76 -6.7,5.03 -9.9,7.63 -9.7,7.55 -19.6,14.78 -30.3,21.11 -3.4,2.03 -7,3.81 -10.5,5.76 -11.8,6.41 -24.1,12.34 -36.8,17.61 -2.6,1.06 -5.1,2.04 -7.7,3.01 -14.7,5.76 -29.8,10.88 -45.5,15.34 -0.6,0.17 -1.1,0.41 -1.6,0.49 -0.1,0 -0.2,0 -0.2,0 -52.5,14.69 -109,23.3 -164.3,28.98 85.6,24.84 169.7,57.88 249.9,87.91 13,4.95 26.8,10.23 40.9,15.83 0.7,0.32 1.4,0.65 2.1,0.9 42.4,17.04 87.2,37.82 127.1,63.88 0.2,0.08 0.3,0.16 0.3,0.16 v 0.08 c 42.7,28.01 79.6,62.02 99.4,105.29 3.3,6.73 2,13.63 -2.5,19.16" 
                />
              </g>
            </g>
          </svg>