          <svg xmlns="http://www.w3.org/2000/svg" version="1.1" viewBox="161.433 320.634 3537.167 2043.308">
            <g id="g8" transform="matrix(1.3333333,0,0,-1.3333333,0,2403.3067)">
              <g id="g10" transform="scale(0.1)">
                <path style="fill:#193e34;fill-opacity:1;fill-rule:nonzero;stroke:none" id="path46"
                d="m 14213.2,17384.9 c 0.2,-0.2 0.4,-0.5 0.6,-0.7 82,-88.3 203.5,-86.2 316.6,-62 -14.4,-15.4 -27.3,-31.8 -38.3,-49 -72.1,24.1 -143.9,30.5 -202.6,-33.5 -36.6,-40 -49.7,-90 -46.7,-142.9 -10.1,-4.2 -19.3,-9.5 -28,-15.5 -8,63.6 -15.9,127 -23.2,189.4 -4.2,35.1 -7.8,69.1 -11.8,103.8 11.2,3.3 22.4,6.7 33.4,10.4 z m -705.8,-232.6 c 8.4,-14 17.2,-26.9 26.3,-37.8 6.9,-8.1 13.8,-14.8 20.7,-21.6 -28.3,-4.7 -56.9,-6.8 -85.4,-4.3 -1.7,0.2 -3.2,0.7 -4.8,0.7 14.5,21 29.8,41.3 43.2,63 z m 984,-1525 c -2.6,-6.1 -5,-12.2 -7.6,-18.4 -3.4,-8.3 -6.6,-18 -9.5,-28.2 -2.8,11.7 -5.7,23.4 -8.3,35.1 8.4,4 17,7.4 25.4,11.5 z m -2053.8,1492.5 c 19.4,104.8 36.6,208.8 51.3,312.4 3,2.9 5.9,6 8.8,8.9 1.7,-21.9 6.4,-44.3 14.8,-67.1 15.8,-42.9 53,-69.3 96,-83.5 -18.1,-21 -36.8,-42.2 -57.1,-63.4 -35.4,-37.1 -73.7,-73.5 -113.8,-107.3 z m -2695.06,1828.7 c 18.19,-63.4 45.95,-116.4 85.32,-145.6 61.69,-46 142.22,14.7 192.74,67 -3.8,-38.5 -7,-77 -9.4,-115.6 -7.6,-119.3 27.6,-280 174.1,-289.9 124.5,-8.6 236.3,75 324.8,162.2 22,-22.5 48.6,-40.4 81.5,-49.5 18.8,-164.3 39.2,-331.2 62.1,-501 3.2,-23.7 6.9,-47.8 10.2,-71.6 -35.7,42.1 -85,75.5 -145.4,96.6 -0.3,-0.5 -1.1,-0.8 -1.3,-1.3 -18.8,-44.8 35.5,-105.6 62,-139 9.2,-11.5 22.3,-25 37.6,-37.5 14.9,-4.2 30.6,-6.6 45.9,-10 -11.5,-17.6 -22.7,-35.4 -33.7,-53.3 -4.5,-7.1 -8.9,-14.3 -13.3,-21.4 -20.8,-34.5 -41.2,-69.4 -61.1,-104.7 -5.5,-9.7 -10.9,-19.4 -16.4,-29.2 -17.9,-32.4 -35.8,-65 -53.5,-97.8 -49.2,-91.3 -97.9,-183.9 -150.1,-276.6 -3,-5.2 -6,-10.5 -9,-15.7 v 0.1 c -8.6,-15.1 -17.2,-30.4 -26,-45.6 -0.6,-1 -127.3,208.1 -140.1,236.2 -47,102.3 -94.6,204.1 -142.7,305.8 -98.27,208 -195.11,418.5 -248.36,643.2 -30.69,129.5 -55.29,260 -77.61,390.9 19.24,33.1 36.78,67.4 51.71,103.3 z M 7169.3,18707.2 c -11.29,23.3 -30.28,46.6 -42.38,62.5 -7.71,10.1 -18.91,22.2 -32.71,33.7 -18.75,6.3 -38.72,11 -58.2,16.2 -1.95,76.4 -4.31,151.4 -6.99,224.4 31.01,-12.1 57.31,-34.2 63.65,-69.6 9.74,-54.6 -14.05,-106.8 -45.87,-152.4 97.41,41.6 219.18,8 300.1,-61.2 8.93,-7.9 0.74,-19.8 -8.6,-20.8 -56.58,-6.4 -113.89,-16.6 -169,-32.8 z m -131.43,34.8 c 17.46,-21.4 39.45,-40.9 66.24,-57.7 -22.32,-9.2 -43.75,-20 -64.61,-31.9 -0.49,30.2 -1.06,60 -1.63,89.6 z m -275.1,129.2 c 4.54,26.5 13.15,51.8 25.25,74.9 42.53,-9.1 90.26,-4.3 126.79,13.4 3.57,-106 6.25,-215.4 7.96,-328.2 -74.68,90 -151.39,178.3 -229,265.9 2.84,0.3 5.19,1.7 8.2,1.8 27.92,0.5 47.33,-10.7 60.8,-27.8 z m 149.2,170.5 c -5.11,1 -10.39,1.7 -15.83,2 4.95,1.8 10.47,2.4 15.67,3.8 0.08,-1.8 0.08,-3.9 0.16,-5.8 z m -510.83,-345.3 c 4.13,-26 7.87,-51.6 12.25,-78 8.2,-48.4 17.7,-97.9 27.03,-147.3 -80.2,-14.7 -182.8,25.5 -171.6,110.3 8.45,63.1 68.11,104.6 132.32,115 z m 262.92,-185.8 c -38.23,-1.2 -76.95,-12.5 -105.93,-32.7 -10.31,53.7 -20.46,107.3 -29.38,160.1 -7.72,45.9 -14.54,90.8 -21.44,136 42.38,-53.3 84.58,-107.3 127.28,-163.1 20.46,-26.9 41.73,-53.3 62.91,-79.7 -13.71,-4.7 -24.59,-11.7 -33.44,-20.6 z m 28.25,-0.8 c 2.27,6.4 4.3,13 6.82,19.3 6.41,-7.9 12.5,-16.1 19,-24 -8.29,2.2 -16.97,3.7 -25.82,4.7 z m 102.12,-185 c -17.94,-53.7 -31.66,-109 -43.27,-164.1 -9.33,-4.6 -18.26,-9.3 -26.14,-14.9 -59.58,82.3 -72,179.9 -55.92,275.2 29.86,12 59.33,26.9 82.31,44.2 13.96,-17 28,-34 42.21,-50.8 -21.11,-28.7 -34.58,-59.9 -39.78,-92.2 14.37,-0.4 27.84,0.7 40.59,2.6 z m -209.02,20.2 c -3.74,17.4 -7.88,34.9 -11.37,52.4 13.47,-0.2 27.36,1.5 41.8,5.3 -2.68,-8.1 -5.52,-15.9 -8.76,-23.6 -4.87,-11.3 -12.34,-23.5 -21.67,-34.1 z m 2693.46,597.1 c -0.73,0.8 -1.46,1.6 -2.19,2.3 1.22,1.3 2.6,2.5 3.81,3.8 -0.56,-2.1 -1.05,-4.1 -1.62,-6.1 z m 1511.43,1086.8 c -72.7,-9.6 -143.3,-21.9 -212.2,-40.6 -1.7,22.7 -3.4,45.4 -5.1,67.9 34.3,11.9 66.3,27.7 89,54.7 7.1,8.4 12.7,17.4 18.5,26.3 50.3,-16.1 93,-44.9 120.4,-90 5.3,-8.8 -1.9,-17.3 -10.6,-18.3 z m -223.5,112.7 c -0.3,3.9 -0.6,7.6 -0.8,11.4 1.4,0 2.8,0.1 4.3,0.1 -1.2,-3.9 -2.6,-7.6 -3.5,-11.5 z m 171.5,-307.5 c -51.1,10.6 -101,19.3 -150.2,21.4 -2.7,35.7 -5.4,70.9 -8,106.1 73.5,-11.9 141.7,-45.9 172,-109.6 4.6,-9.9 -2.9,-20.2 -13.8,-17.9 z m 266.3,-1524 c -38.8,-32.6 -74.6,-66.5 -108.7,-101.3 -2.3,-2.3 -4.8,-4.6 -7.2,-7 -32.2,-33.3 -62.3,-67.7 -91,-102.7 -3.5,-4.2 -7,-8.4 -10.4,-12.6 -4.8,-6 -9.6,-12 -14.3,-18.1 -1.2,7.8 -2.4,15.7 -3.4,23.4 -10.3,76.6 -19.9,152.4 -29.4,228 33.5,13.7 64.5,31 85.9,59 39.6,52 57.1,112.8 57.9,173.6 -89.6,-7.2 -139.7,-72.1 -154.4,-147 -10.9,90 -21.4,179.2 -31.2,267.4 2.2,-0.9 4,-2.2 6.3,-3 109.5,-36.3 217.7,35.7 305.6,94.1 49.9,33 99.6,67.3 146.2,104.9 -3,-36.6 7.4,-71.4 45.4,-100.8 62.8,-48.3 178.9,2.6 238.8,30 12.6,5.7 24.1,12.9 36.4,18.9 -123.4,-195.4 -281.1,-345.7 -472.5,-506.8 z m 1452.4,-49.7 c -0.2,-2.9 -0.4,-5.7 -0.5,-8.6 -6,0.5 -12.1,1.5 -18.1,1.5 6.5,2 12.6,4.3 18.6,7.1 z m 335.2,229.4 c 2.3,-0.1 4.5,-0.7 6.7,-0.7 -1.3,-3.4 -3,-6.4 -4.5,-9.6 -0.8,3.5 -1.5,6.9 -2.2,10.3 z m -204.4,0.2 c 8.1,-12.2 16.7,-23.9 24.8,-33.7 13.9,-16.9 47.6,-46.2 78.1,-52.8 3.9,-18.4 7.3,-36.7 11.3,-55.2 0.6,-2.5 1.3,-5 1.9,-7.6 -10.7,8.9 -21.8,17.2 -31.9,23.9 -17.9,11.8 -57.9,29.9 -88.9,28 1.9,32.9 3.1,64.9 4.7,97.4 z m 175.7,138.3 c 11,-9.1 20.3,-19.6 26.9,-31.9 -6.3,-3.6 -12.2,-7.8 -17.8,-12.3 -2.9,14.8 -6.2,29.5 -9.1,44.2 z m -168.1,18.5 c 14.2,4 29,6.5 44,8.1 4.3,-22.2 8.6,-44.3 12.9,-66.6 -15.5,17.7 -34.5,32.4 -57.7,42.9 0.3,5.1 0.6,10.4 0.8,15.6 z m -411.7,-369.8 c -7.6,-2.8 -12.6,6.5 -9.6,12.4 24.8,51.4 70.7,111.8 125.4,135.4 -44.1,16.3 -79.8,42.8 -56.3,84.9 14.9,26.7 47.8,29.3 78.7,19.8 0.1,4.8 1,9.9 3,15.3 11.3,31.1 47.8,52 76.9,63 26,10 52.3,12.9 75.1,9.7 -3.6,-84.2 -7.9,-169.5 -13,-255.7 -19.6,6.6 -41,8.2 -64.8,5.5 -45.4,-5.3 -99.3,-15.4 -136.6,-38.8 -9.5,-6 0.6,-20.5 4.9,-26.1 26.5,-34.7 70.7,-52.9 115,-55.3 -68,-15.4 -129.7,-58.1 -178.1,-114.9 -3.9,-4.6 -13,-2.4 -14.1,3.7 -12,62.9 18.5,123.5 59.4,171.6 -21.6,-11.2 -43.2,-22.1 -65.9,-30.5 z m 503.7,-195.4 c -0.1,-10.8 -16.4,-10.8 -17,0 -3.9,77.2 -41.7,139.1 -96.1,180.6 1.3,19.5 2.7,39.1 4,58.6 27.8,-37 61.5,-76.8 107.4,-98.3 6.5,-45.1 2.2,-94 1.7,-140.9 z m -2851.02,1853.3 c -6.65,7.1 -3.25,17.1 5.36,20.3 47.57,17.6 116.89,6.1 168.16,-25.4 -46.32,44.1 -111.75,70.2 -151.03,123.4 -4.71,6.3 0.16,16.2 7.22,17.9 84.74,20.7 201.21,-0.5 254.31,-75.9 17.8,61.5 61,109.5 123.9,130.8 8,2.7 14.8,-4.4 15.4,-11.8 2.3,-25.4 -1.2,-49.3 -6.6,-73.1 49.1,43.5 120.6,77.9 196.7,96.6 0.4,-5.3 0.8,-10.3 1.1,-15.7 6.5,-90.1 13.5,-183.1 20.8,-277.6 -23.1,-6.1 -46,-15.4 -68.9,-27.4 -19.1,12.6 -39.9,23.8 -62.7,33.2 -0.4,-0.4 -1.2,-0.7 -1.4,-1.2 -9.7,-19.7 -4.2,-43.5 6.6,-66.8 -89.4,-61.5 -164.6,-144.9 -195.8,-250.6 -2.5,-8.5 -14.1,-12.3 -20.4,-5.4 -65.6,71.1 -88.6,194.5 -22.2,267.5 -61.3,-11.3 -108.09,-53.7 -135.53,-112.5 -4.06,-8.7 -16.64,-7.2 -21.1,0 -72.65,120.4 -211.46,58.4 -324.78,67.1 -10.07,0.8 -14.29,9.7 -10.64,18.4 45.14,105.7 162.76,152.6 267.88,126.9 -16.15,12.9 -32.06,26 -46.35,41.3 z M 7926.66,18066 c -35.72,1.8 -70.3,0.4 -99.28,-12.1 -21.43,-9.2 -39.45,-21 -55.6,-33.9 -58.69,22.7 -116.16,48.2 -172.91,75.6 -27.11,143.3 -107.47,279.6 -196.44,389.6 -10.96,13.5 -22.32,27.2 -34.1,41 16.73,3 32.8,6.7 47.73,11.5 21.92,7.2 45.3,24.5 66.57,47.3 6.66,-7.2 13.64,-14.3 21.19,-21.5 68.83,-65.9 193.11,-32.7 266.01,5.5 63.48,33.3 129.23,81.3 187.27,138.7 0.97,-7.1 2.03,-14.3 3.32,-21.1 4.79,-26.4 12.59,-52 22.01,-76.9 -1.3,0 -2.36,0.2 -3.74,0.2 -45.46,1.5 -99.6,-0.1 -138.24,-14 -9.9,-3.7 -0.97,-16.4 2.92,-21.5 37.18,-49.1 121.68,-72.5 184.59,-57.5 -12.17,-66.3 -24.67,-132.6 -39.21,-198.6 -18.34,-84.6 -39.2,-168.7 -62.09,-252.3 z m -27.6,-91.6 c -3.57,1.2 -7.15,2.5 -10.72,3.6 6.42,5.6 11.93,11.9 17.29,18.4 -2.1,-7.4 -4.38,-14.6 -6.57,-22 z M 9539.12,17492 c -2.44,2.2 -5.12,4.1 -7.55,6.3 -34.09,30.4 -69.08,59.8 -105.29,87.8 -133.77,41.2 -266.57,90.5 -394.59,149.4 -353.19,62.8 -697.29,111.2 -1019.07,204.1 33.53,111.7 61.77,224.4 86.62,337.1 20.77,-43.6 56.41,-85.2 106.09,-122.1 0.49,0.3 1.22,0.2 1.62,0.7 32.47,28.4 0.17,93.6 -14.53,127.9 -5.03,11.8 -13.15,26.3 -23.86,40.8 -17.05,10.6 -35.56,19.9 -53.66,29.6 6.58,31.1 12.59,62.4 18.51,93.6 47.81,-19.4 102.93,-30.5 138.24,-19 34.26,11.3 106.91,-1.1 146.28,6.2 39.85,7.2 75.98,26.6 113.81,40.1 84.33,30.1 162.67,79 228.91,138.9 30.68,27.9 56.66,65 79.79,104 53.42,-31.4 122.33,-9.6 185,24.9 71.19,-111.7 138.49,-225.9 199.29,-343.7 79.63,-154.3 152.6,-311.9 221.2,-471.3 68.43,-158.8 133.61,-315.4 175.98,-483.3 0.74,-2.8 0.41,-5.7 -0.72,-8 h 0.07 c -3.24,-7.1 -13.14,-10.7 -19.72,-3.9 -19.65,20.4 -40.67,39.3 -61.53,58.2 -0.32,0.6 -0.65,1.1 -0.89,1.7 z m 1096.48,-1250.1 c -24.2,-14.1 -46.4,-29.7 -67.3,-46.3 4.7,28.3 9.4,56.5 11.5,85.6 26.9,361 76.4,678.3 203.2,987.9 21.3,-112.9 44,-226.1 69.4,-339.7 10.5,-46.4 21.5,-92.8 32.8,-139.2 -40.1,39.4 -91.7,69.7 -154.6,86 -0.3,-0.6 -1,-0.8 -1.1,-1.5 -14.6,-47.1 45.7,-103.6 75.9,-134.6 10.2,-10.7 24.8,-22.9 41.5,-34 20.2,-3.6 41,-4.7 61.6,-6.7 21.1,-81.3 44.1,-162.5 69.6,-243.5 -123.2,-58.6 -239.1,-124.6 -342.5,-214 z m 1666.5,786.5 c -322.3,-116.3 -637.6,-261.6 -944.8,-403.5 -92.6,-42.7 -183.6,-80.8 -272.2,-119.9 -46.1,148.6 -84.3,299.4 -118.6,450.1 -11.9,53.2 -22.2,106.3 -33.2,159.5 32,16.1 61.4,35.8 80.4,64.8 35.4,54.6 48.8,115.9 45.5,176 -88.6,-13 -134.2,-80.8 -143.6,-156.1 -16.8,84.9 -32.4,169.5 -47.2,254 34.7,66.8 72.9,133.4 116.5,200.5 189.6,291.5 420.6,550.2 671.6,788.8 70.6,-84.3 173.9,-147.6 282.5,-151.4 10.5,-0.4 21,-0.1 31.3,0.3 -17.8,-28 -33.3,-57.2 -44.5,-87.1 -31.1,-83.4 -42.3,-155.8 23.7,-223.2 6,-6.1 12.8,-11.6 20,-16.9 -21.8,-8.9 -41.7,-17.3 -58.6,-24.3 -184.4,-76.6 -381.5,-235.2 -457.8,-424.7 -30.4,-75.9 -67.6,-195.9 -2.1,-265.7 71.2,-76 155.5,-56.5 242.7,-17.6 106.4,47.5 199.5,122.5 288.1,196.9 31.9,26.6 65,51.7 98.1,76.9 -13.6,-84.4 4.8,-168.4 77.3,-221.3 56.6,-41.3 126.7,-18.4 196.6,29.7 -15.2,-95.1 -32.2,-190.4 -51.7,-285.8 z m 2208.8,-1594.9 c 1.2,-0.5 3.1,-0.4 4.4,-0.7 -0.4,-3.4 -1,-6.7 -1.4,-10.1 -0.9,3.5 -2.1,7.1 -3,10.8 z m -7854.47,331.6 c -35.72,1.8 -70.3,0.3 -99.19,-12.1 -53.91,-23.2 -90.59,-59.1 -112.19,-100.6 82.8,-30.3 150.82,-4.4 190.36,43.1 -14.05,-47.9 -27.36,-96 -43.27,-143.3 -23.79,-68.3 -49.84,-136 -78.9,-202.1 -16.4,11.9 -35.96,20.6 -58.69,27.1 -43.51,12.3 -96.52,24.9 -136.7,22.9 -10.31,-0.5 -4.54,-14.2 -1.95,-19.7 17.45,-37.4 57.47,-70.9 102.36,-89.9 19.81,-8.4 40.43,-12.9 60.24,-14 -26.55,-53.8 -54.88,-106.5 -87.75,-155.9 -43.76,-65 -94.49,-124.9 -154.16,-171.5 -30.03,-22.7 -62.01,-42.8 -96.43,-55.7 -16.81,-7.8 -34.74,-11.5 -52.28,-16.6 -8.92,-1.8 -17.94,-2.6 -27.03,-4.2 l -13.39,-1.9 -13.72,-0.4 c -36.37,-2.7 -73.06,3.9 -108.05,12.9 -3.73,1.3 -7.38,2.6 -11.04,3.8 1.95,16.4 3.82,32.7 4.71,47.8 0.98,17.6 0.98,34 -0.4,49.8 -1.3,13.4 -2.76,25.3 -4.55,35.7 -1.62,11.2 -3.65,21.7 -6.09,30.7 -2.51,8.4 -5.36,17.3 -8.68,25.4 -3.41,8.2 -7.72,13.6 -12.26,21.2 -20.54,-22.7 -35.88,-46 -44.89,-68.3 -9.01,-22.2 -11.85,-44.3 -9.09,-65.7 2.67,-18.2 10.63,-35 21.51,-49.7 -9.42,5.3 -19.08,10 -28.25,15.8 -62.34,39.8 -113.64,97 -158.37,157.7 -19.4,26.6 -36.85,54.6 -53.74,83 19.08,6.5 37.34,17.3 56.01,32.1 35.64,28.4 76.55,63.8 98.87,96.5 5.6,8.1 -8.6,11.1 -14.28,12.4 -56.91,11 -138.9,-20.4 -179.56,-70.1 -7.31,14.1 -15.35,27.9 -22.25,42.1 -33.19,68.2 -61.69,138.4 -86.93,209.1 -21.03,58.3 -39.78,116.9 -57.31,175.6 31.33,17.2 59.99,36.8 78,62.7 33.53,48 45.71,98.4 41.57,145.9 -87.84,-19.3 -131.75,-79.4 -138.89,-141.8 -17.21,61.3 -33.12,122.8 -47.49,183.8 -14.04,59.7 -26.54,118.8 -38.56,177.8 20.38,-0.3 41.32,3.7 63.89,11.8 42.86,15.2 92.7,36.3 123.63,63.3 7.79,6.9 -4.96,15.6 -10.31,18.8 -52.61,32.3 -139.87,23.5 -193.12,-13.3 -9.9,51.5 -19.64,102.9 -28.25,153.7 18.83,0.8 38.8,5.6 58.69,15.1 86.86,41.7 151.96,131.7 204.48,209.1 8.52,12.6 22,31.8 36.37,54.1 28.81,-40.1 53,-85.3 76.63,-126 50.97,-87.7 125.33,-173.3 223.47,-86.3 116.08,102.6 102.2,320 90.92,458.8 -0.08,0.8 -0.25,1.6 -0.25,2.4 104.56,13.2 190.2,86.1 226.81,201 5.27,16.7 7.95,34 9.41,51.4 95.95,66.4 178.67,175.2 241.09,276.9 0.33,-49 10.31,-94.2 47.98,-104.8 62.26,-17.5 101.87,13.3 129.31,57.8 28.98,-54.8 81.17,-86.4 140.35,-97.5 21.84,-12.4 45.54,-24.4 71.6,-31.9 20.53,-6.3 43.18,-9.2 65.43,-7.3 -12.02,-154.7 -27.04,-311.2 -46.03,-468.9 -35.64,-3.4 -69.81,-10.2 -96.68,-27.3 -49.76,-31.8 -80.37,-74.7 -94.73,-121.3 88.24,-15.1 151.31,23.9 182.32,78.7 -7.47,-58.4 -14.86,-116.7 -23.46,-175.3 -9.5,-64.1 -20.14,-128.4 -31.18,-192.6 -18.83,7.6 -39.77,11.5 -63.63,12.2 -45.46,1.3 -99.69,-0.1 -138.33,-14.2 -9.82,-3.6 -0.97,-16.4 2.93,-21.4 37.17,-49.1 121.68,-72.5 184.59,-57.6 -12.1,-66.2 -24.68,-132.6 -39.21,-198.6 -18.35,-84.5 -39.13,-168.6 -62.02,-252.2 z m 1127.11,1886 c -16.47,11.9 -35.95,20.7 -58.76,27.2 -43.52,12.1 -96.44,24.7 -136.7,22.7 -10.23,-0.4 -4.47,-14.2 -2.04,-19.7 17.54,-37.3 57.64,-70.8 102.53,-89.9 19.73,-8.4 40.42,-12.9 60.23,-13.9 -26.54,-53.8 -54.95,-106.4 -87.91,-155.9 -43.59,-65.1 -94.32,-125 -154.07,-171.5 -30.12,-22.8 -61.94,-43 -96.43,-55.8 -16.73,-7.8 -34.67,-11.4 -52.2,-16.5 -8.93,-1.9 -18.1,-2.7 -27.03,-4.2 l -13.56,-2 -13.56,-0.3 c -36.44,-2.7 -73.13,3.9 -108.12,12.9 -3.65,1.2 -7.38,2.6 -11.04,3.8 1.95,16.4 3.9,32.7 4.71,47.8 0.97,17.6 1.05,33.9 -0.33,49.8 -1.3,13.3 -2.76,25.1 -4.54,35.7 -1.79,11.2 -3.57,21.7 -6.09,30.6 -2.52,8.4 -5.36,17.3 -8.77,25.5 -3.4,8.1 -7.63,13.5 -12.25,21.2 -20.54,-22.8 -35.88,-46.1 -44.81,-68.4 -9.01,-22.2 -11.85,-44.3 -9.26,-65.6 2.76,-18.2 10.72,-35.1 21.6,-49.7 -9.42,5.2 -19.08,10 -28.26,15.8 -33.11,21.1 -62.91,47.4 -90.5,76.3 0.73,10.1 1.46,20.3 2.11,30.5 59.99,63.9 97.49,140.8 97.41,231.8 0,15.9 0.08,32.9 0,50.5 72.32,-39.3 157.4,-54.8 235.16,-31.9 86.05,25.2 152.53,85.7 198.07,160.4 71.11,-5.8 142.13,-15.2 213.16,-32.1 17.7,-4.2 35.23,-9.1 52.85,-13.6 -7.06,-17.3 -14.12,-34.5 -21.6,-51.5 z m 4278.16,-1410.7 c -15.7,12.9 -34.7,21.9 -57.6,28.2 -44.2,12.3 -96.9,23 -139.2,18.8 -10.8,-1 -6.5,-16.6 -4.4,-23 13.9,-43 50.8,-79.9 95.4,-100.4 19.8,-9.1 40.9,-13.4 61.7,-13.5 -39,-71.9 -82.8,-141.3 -137.2,-200.8 -62.7,-71.6 -142.8,-127.8 -232.4,-146.2 l -20.9,-3.1 c -5.9,15.5 -11.9,30.6 -18.4,44.8 -7.7,16.9 -15.8,32.5 -24.5,45.4 -14.4,23.1 -32.3,42.7 -32.3,56.5 -2.6,14.1 -4.8,23.7 -12.6,33.7 -36.1,-49.3 -51,-98 -33.3,-138.5 7.1,-18.7 23.6,-32.8 43.6,-42.3 -12.6,1.2 -24.9,3 -36.2,6.1 -41.7,11.6 -80.7,37 -114.3,69.1 -61.6,58.3 -108.6,134.1 -149.6,212.3 20,4.6 39,14.4 58.1,28.8 36.4,27.4 78.1,62.7 100.2,98.4 5.6,9 -9.4,15.5 -15.6,17.8 -42.3,15.7 -95.4,9.5 -138.2,-13.8 -18.8,-10.3 -34.7,-24.3 -47.3,-40.5 -12.3,27.5 -24.9,54.7 -36.1,82.8 98.8,50 200.8,94.2 300.3,138.4 187.5,83.4 377.5,161.6 568.1,237.8 -8.1,-12.3 -15.4,-25.2 -21.5,-38.5 58.2,-20.8 110,-10.1 151.1,19.4 18.3,13.3 33.9,30.7 47.1,50 -19.6,-69.4 -40.3,-138.6 -63.9,-207 -26.2,-75.1 -56.5,-148.7 -90.1,-220.7 z m 3356.4,-1644.2 c -31.9,17.1 -63.1,30.1 -94.5,34.8 -57.7,6.3 -101.1,5.4 -130,-0.2 13.2,-27.9 27.9,-50.6 45.9,-67.3 8.9,-8.4 18.7,-15.6 29.1,-20.5 10.2,-4.7 21,-7.9 32.3,-9.6 20.3,-3.7 40.5,0.7 60.6,7.5 -8.7,-7.5 -16.9,-15.6 -26,-22.5 -35.7,-26.4 -74.5,-47.8 -115.8,-61.2 -41.2,-14 -85,-17.1 -128.1,-13.2 -10.9,0.8 -21.9,1.6 -31.7,4.7 -10,2.9 -20.4,4.1 -30.1,8.1 l -29.1,12.5 c -2.2,0.9 -4.3,2.6 -6.5,3.8 13.4,15.2 22.9,34.2 31.6,56.5 16.3,42.8 36.5,93.6 49.7,126.3 3.2,8.9 -7.9,4.5 -12.8,2.4 -32.8,-15.5 -78.7,-40.6 -109.9,-78.4 -13.9,-16.6 -24.6,-35.9 -30.3,-55.7 l -1.6,1.2 -23.5,24 -11.9,11.7 -10.7,13.2 c -14.5,17.4 -29,34.7 -41.7,53.8 l -19.7,27.9 -18,29.4 c -95.3,157.7 -160.3,334.4 -216.5,510.2 -15.5,49.1 -28.4,98.6 -42.3,148.1 30.7,17.8 58.3,38.5 75.8,67.3 8.4,13.9 15.2,28.1 20.7,42.4 60.9,31.2 112.4,86.7 155.7,135.6 1,1.3 2.3,2.7 3.5,4 65.9,-21.3 133.4,-37.5 201.4,-48.8 116.9,-19.6 230.6,-15.3 341.1,7 -15.2,-39.5 -32.3,-104.2 24,-100 49.4,3.4 88.3,51 118.8,85.3 0.3,0.5 0.6,0.9 0.9,1.3 15.2,-32.7 40,-58.6 78.3,-72.9 37.7,-14.2 77.2,-2.4 114.2,20.3 62.8,-1.1 112.9,33.2 143.6,81.5 -14.8,-66.4 -29.4,-132.7 -46.8,-198.8 -19.6,-72.8 -41.4,-145.4 -65.2,-217.3 -17.2,10.9 -37.4,17.7 -61,21.6 -45.2,7.2 -98.9,12.2 -140.4,2.3 -10.6,-2.4 -4.2,-17.5 -1.5,-23.5 27.3,-59 105.6,-98.6 171.4,-90.7 -27.1,-73.3 -56.4,-145.7 -91,-215.7 -41.3,-82.9 -89.2,-162.6 -147.4,-232.7 -4.7,-5.5 -9.9,-10.3 -14.6,-15.7 z m 4054.5,2225.8 c 78.6,73.3 129.8,176.8 110.1,285.3 -25.3,140.6 -156.1,243.8 -305.6,292.5 77.2,51.2 139.4,124.5 120.9,224.4 -21.5,116.6 -293.4,94.6 -372.4,86.6 -61.9,-6.3 -124.1,-22.2 -184,-45.6 100,144 171,300.8 68,348.4 -99.4,45.9 -226,-53.3 -309.3,-132.6 7.7,41.5 12.1,92.8 -17.1,110.1 -56.3,33.5 -102.3,-84.8 -116.3,-117.5 -1.7,-4.2 -3.4,-8.6 -5.2,-12.9 -32.5,117 -95.8,229.9 -177.4,325.3 22.9,-3 45.6,-5.7 68.1,-8.1 112.8,-11.8 217.4,44.6 235.1,162.9 15.3,102.3 -189.3,201.1 -262.2,226.6 -63.4,22.2 -135.2,36.9 -207.9,41.1 -2.3,3.7 -4.7,7.3 -7.2,10.8 19.2,12.4 38,25.1 55.9,38.2 88.1,65.2 219.7,158.6 228.1,279.7 10.9,159.7 -248.5,95.3 -325.9,56.2 -14.7,-7.6 -33.7,-16.3 -55.1,-25.9 48.6,63.4 81.5,135 87.5,211.8 4.3,55.2 -14.3,102.3 -44.9,142.3 0,0 0.2,-0.1 0.3,-0.2 -0.9,1.2 -2.2,2.1 -3.2,3.3 -10.5,13.4 -22.4,25.8 -35.3,37.4 -4.1,3.6 -8.4,7 -12.7,10.5 -10.8,9 -21.9,17.3 -33.6,25.2 -5.1,3.4 -10.1,6.8 -15.4,10.1 -12,7.4 -24.1,14.2 -36.5,20.7 -4.7,2.4 -9.4,5.1 -14.1,7.4 -16.8,8.2 -33.7,15.8 -50.1,22.2 -41.8,16.4 -84.6,26 -127.9,31.1 42.4,36.6 73.8,80.2 86.8,133.1 40.1,161.8 -168,164.3 -274.5,139.2 -96.6,-22.7 -188.5,-63.7 -275.4,-114.9 -3.2,1.7 -6.3,3.5 -9.6,5.1 55.6,100.1 102.3,204.4 131.2,315.4 1.6,6.3 3.2,12.9 4.6,19.8 0.6,2.8 1.1,5.9 1.6,8.8 0.8,4.2 1.5,8.2 2.3,12.5 0.5,3.6 0.9,7.3 1.4,11.1 0.5,3.9 1.1,7.6 1.5,11.5 0.4,4 0.7,7.9 1,11.8 0.3,3.8 0.6,7.6 0.8,11.4 0.3,4.1 0.3,8.4 0.5,12.5 0,3.6 0.1,7.1 0.1,10.7 -0.1,4.4 -0.2,8.6 -0.4,12.9 -0.2,3.4 -0.3,6.7 -0.6,10 -0.3,4.3 -0.8,8.5 -1.3,12.7 -0.4,3.1 -0.8,6.2 -1.3,9.3 -0.7,4.1 -1.5,8.1 -2.4,12.1 -0.6,2.9 -1.4,5.8 -2.1,8.5 -1.1,3.8 -2.4,7.6 -3.7,11.1 -0.8,2.6 -1.9,5.2 -3,7.6 -1.5,3.4 -3.1,6.7 -4.9,9.8 -1.2,2.3 -2.6,4.3 -4,6.3 -2,3 -4,5.8 -6.4,8.3 -1.5,1.8 -3.3,3.4 -5,4.9 -2.5,2.4 -5.1,4.5 -8,6.4 -1.9,1.3 -4,2.2 -6.2,3.3 -3,1.6 -6.2,3.1 -9.6,4.2 -2.3,0.6 -4.8,1 -7.2,1.4 -3.9,0.8 -7.6,1.5 -11.7,1.7 -2.6,0 -5.5,-0.4 -8.2,-0.5 -4.6,-0.3 -9,-0.5 -14,-1.4 -2.7,-0.5 -5.9,-1.6 -8.8,-2.4 -5.5,-1.3 -10.8,-2.6 -16.8,-4.8 -0.1,-0.1 -0.3,-0.1 -0.5,-0.2 0,-0.1 0,-0.1 0,-0.1 -8.5,-3.2 -17.5,-7 -27.1,-12.1 -36,-18.8 -156.2,-127.2 -260.9,-249.7 18.9,63 30.8,127.7 36.2,193.1 0,-0.2 0.1,-0.4 0.1,-0.5 2.3,27.2 3,54.5 3,81.8 0,9.2 -0.5,18.4 -0.9,27.5 -0.6,20.3 -1.9,40.5 -3.9,60.7 -0.9,9.5 -1.7,18.8 -3,28.1 -3.3,25.6 -7.4,51.1 -12.8,76.4 -0.6,2.8 -0.9,5.6 -1.5,8.4 -6.3,28 -14.2,55.6 -23.1,83 -2.5,7.9 -5.4,15.6 -8.2,23.4 -7.3,20.5 -15.2,40.8 -24,60.9 -3.4,7.8 -6.7,15.6 -10.3,23.2 -12.5,26.5 -25.9,52.7 -41.1,78.1 -115.3,193 -283.9,327.6 -478.5,411.2 51.6,24 105.3,44.3 163.5,57.1 91.3,20 193.3,16.3 283.3,-6.3 42.4,-10.7 102.7,-30.2 139.5,4.1 163.3,151.5 -150.2,314.9 -369.7,391.6 95.8,16 192.5,15.9 298.4,10.3 79.4,-4.1 151.3,18.7 166.9,106.8 13.5,76.5 -126.8,142.6 -177.1,170.5 -91.1,50.4 -178.5,62.3 -271.5,59.7 132.1,102 301.2,252 219.3,318.4 -135,109.2 -298,15.7 -414.5,-90.8 13,172.5 -53.1,363.9 -202.1,458 -33.4,21.1 -71.3,-28.1 -75.9,-56.9 -6.2,-40.2 -7.1,-80.2 -11.6,-119.8 -37.5,48 -83,92.7 -139.1,133.4 -28.4,20.8 -58.2,40.8 -88.8,60 -20.3,12.6 -41.4,24.3 -62.5,36.2 -10.6,6 -20.7,12.6 -31.6,18.3 0.1,-0.1 0.1,-0.1 0.3,-0.2 -200.9,107.3 -432.5,173.4 -650.9,143.1 -125.5,-17.4 -250.2,-56.2 -371.2,-107.6 -30.2,53.9 -66.5,103.1 -113.9,145.2 -4.3,3.8 -9.4,7 -14.2,10.4 49.5,-8.6 98.7,-19.8 148.7,-31.5 72.9,-17 127.4,9.1 157.1,76.9 31.3,71.1 -71.1,141.4 -133.3,183.6 -11.8,7.9 -22.1,14.8 -29.8,20.6 -73.6,54.7 -157.3,78.1 -244.1,91 94.7,15.2 191.9,17.3 289.8,44.1 106.1,29.2 121,157.2 25.4,199.2 -154.3,67.7 -338.5,107.5 -507.5,115.8 -113.7,5.5 -211.2,-28.2 -298.7,-87.3 21.9,70.4 56.8,135.8 85.8,205.2 23.1,54.9 50,141.9 -19.7,170.7 -73.8,30.4 -172.4,-77.8 -212.7,-123.6 -13.7,-15.6 -26.9,-33.9 -39.4,-54.2 -31,32.1 -69.6,58.5 -114.6,79.6 -92.5,43.4 -255.8,67.5 -343.8,0.2 -64,-49 -66.3,-111.8 -9.8,-166.1 11.3,-10.9 24.5,-20.2 38,-29 -184.9,-12.1 -365.3,-91.3 -529.7,-193.2 -5.1,-3.2 -11.1,-7.7 -17.6,-13 -44.9,-37.8 -110,-123 -55.6,-168.3 19.2,-16.1 39.2,-23.3 60.8,-26.7 -33.6,-21.4 -65.7,-45 -96,-70.7 -89,67 -214,83.8 -327.2,79.9 -208.2,-7 -438,-135.6 -594,-266.4 -42.7,-35.9 -85.4,-72.6 -126.3,-110.9 -0.5,3.4 -1.8,6.5 -2.5,9.9 0.1,0.3 0.2,0.7 0.3,1.1 -1.6,7.6 -4.4,14.5 -6.3,22 -4,15.7 -7.7,31.5 -13.2,46.3 -2.7,7.7 -6.4,14.7 -9.5,22.1 -6.3,15 -12.4,29.9 -20.1,43.9 -3.8,6.9 -8.5,13 -12.6,19.7 -8.3,13.6 -16.5,27.3 -26.2,39.9 -4.9,6.4 -10.8,12.2 -16.1,18.4 -10,11.8 -19.8,23.8 -31,34.7 -6.7,6.6 -14.4,12.3 -21.5,18.4 -10.9,9.5 -21.4,19.4 -33.3,28 -9.1,6.9 -19.4,12.6 -29.1,19 -10.8,6.9 -21.1,14.4 -32.5,20.7 -13.2,7.3 -27.5,13.5 -41.4,19.9 -9,4.2 -17.3,9 -26.6,12.7 -23.6,9.6 -48.2,18.2 -73.6,25.3 -245.7,69.3 -532.5,-8 -743.3,-137.7 -89.4,-55 -169,-126 -239.3,-204.2 -165.4,56.2 -336.8,26.6 -495.86,-37.9 -0.08,0.2 -0.08,0.5 -0.16,0.7 -22.49,78.8 -62.99,132.5 -114.13,171.2 18.59,-1.3 37.01,-0.3 55.03,5.6 44,14.5 79.31,65.8 76.79,111.7 -2.59,49.1 -56.82,81.7 -86.85,115.8 -11.69,13.2 -25.25,24.6 -39.45,35.2 -3.25,2.4 -6.42,4.9 -9.82,7.2 -14.05,9.7 -28.82,18.5 -44.25,26.2 -3,1.4 -6,2.6 -9.09,4.1 -7.46,3.5 -14.85,7.2 -22.48,10.2 0.81,-0.5 1.46,-1.2 2.27,-1.7 -28.08,11.6 -56.74,21.5 -84.51,29.1 -83.44,22.6 -171.84,26.1 -258.29,14.4 46.67,36.5 95.7,66.9 132.4,115 68.18,89.2 19.88,144.6 -74.93,163.7 -123.14,24.8 -255.05,-22.1 -351.32,-99.2 -16.16,-12.8 -31.26,-25.8 -45.62,-38.9 15.99,104 24.19,240.8 -45.22,307.5 -98.22,94.5 -197.25,-47.5 -231.43,-131.6 -16.72,-41.7 -26.38,-84.2 -31.9,-127.4 -11.2,10.5 -23.14,18.8 -34.91,28.4 0,0.6 0.08,1.1 0.08,1.7 -13.47,10.9 -26.95,21.3 -40.1,30.9 -77.11,56.7 -239.79,131.6 -337.36,119.3 -76.87,-9.7 -148.14,-73.8 -125.66,-156.7 9.82,-36 32.55,-62.7 58.77,-86.7 -111.61,22.5 -218.11,29.4 -331.76,16.3 -142.38,-16.4 -347.18,-93.1 -391.91,-245.7 -7.31,-24.7 -7.39,-48.2 18.42,-59.8 7.15,-3.2 14.37,-5.9 21.68,-8.4 -50.01,-23.3 -94.73,-55.1 -120.95,-104.8 -12.42,-23.7 -15.35,-43.7 -11.86,-60.8 -30.36,15.4 -61.69,28.9 -93.67,41.1 -12.42,4.7 -25.41,8.2 -38.07,12.5 -19.89,6.8 -39.7,13.8 -60.07,19.6 -14.53,4 -29.47,7.1 -44.32,10.8 -19,4.6 -37.83,9.6 -57.07,13.6 -15.5,3.2 -31.25,5.5 -46.83,8.3 -19,3.3 -37.84,7 -56.91,9.8 -15.91,2.4 -31.82,4.2 -47.81,6.2 -19.08,2.4 -38.07,5 -57.15,7 -16.07,1.8 -31.98,3.1 -48.06,4.6 -19.23,1.8 -38.47,3.7 -57.71,5.2 -16.24,1.4 -32.31,2.4 -48.46,3.6 -22.57,1.7 -44.89,3.4 -67.13,4.9 -32.56,2.2 -64.7,4.3 -96.36,6.6 -126.71,9.1 -255.46,16.4 -383.88,16.2 0.82,0.1 1.71,0.2 2.52,0.3 -2.76,0 -5.52,-0.2 -8.28,-0.2 -23.78,-0.1 -47.48,-0.8 -71.19,-1.5 -20.45,-0.5 -40.91,-1.1 -61.28,-2.1 -22.01,-1.2 -43.92,-3 -65.92,-4.8 -13.07,-1 -26.3,-1.4 -39.37,-2.8 2.6,-0.2 5.28,0 7.87,-0.2 -158.04,-15.2 -313.49,-47.8 -461.48,-112.5 -212.1,-92.7 -403.92,-222.3 -584.94,-365.6 -57.64,51.6 -128.42,86.9 -204.48,121 -91.81,41 -202.04,65.1 -281.43,-9.6 -81.5,-76.6 -55.13,-183.5 -1.63,-280.5 -78.5,8.4 -159.75,-0.7 -238.33,-22.9 -170.47,-48.1 -359.04,-124.1 -478.77,-260.9 -92.78,-106.2 -37.58,-187.7 92.29,-213.4 72.42,-14.4 151.56,-5.6 224.94,-10.4 18.43,-1.2 36.37,-1.9 54.22,-2.6 -219.25,-123.7 -406.11,-300.5 -486.23,-547.9 -57.96,-178.6 111.45,-179.1 285.25,-139.4 -26.3,-29 -50.9,-59.5 -73.39,-91 -72.72,-101.5 -188.64,-287.1 -141.07,-419.9 33.28,-93 90.83,-130.9 165.26,-136 -8.11,-3.7 -16.39,-7.9 -24.67,-12.7 v 0 c -7.39,-4.1 -14.61,-8.8 -21.76,-13.7 -2.51,-1.7 -4.87,-3.7 -7.3,-5.4 -4.87,-3.6 -9.58,-7.2 -14.21,-11.1 -2.76,-2.3 -5.27,-4.7 -7.95,-7.1 -4.06,-3.8 -8.04,-7.5 -11.85,-11.5 -2.52,-2.7 -4.96,-5.3 -7.39,-8.2 -3.49,-3.9 -6.82,-8.1 -9.99,-12.2 -2.19,-2.9 -4.3,-5.9 -6.25,-8.9 -2.92,-4.4 -5.52,-8.9 -7.95,-13.5 -1.62,-3 -3.25,-6 -4.63,-9 -2.35,-5.1 -3.98,-10.3 -5.6,-15.5 -0.89,-2.8 -1.95,-5.5 -2.6,-8.2 -1.86,-8.1 -3.08,-16.3 -3.08,-24.6 -0.33,-111.3 108.12,-133.3 192.06,-165.6 11.28,-4.3 23.54,-8.8 36.53,-13.4 -33.61,-4.9 -67.22,-11.9 -101.47,-24.2 -124.04,-44.9 -254.32,-110.4 -359.04,-191.2 -84.99,-65.5 -154.15,-157.6 -125.82,-269.4 14.12,-55.6 50.57,-83.1 95.79,-96 -122.74,-92.3 -224.86,-219.5 -247.43,-350.6 -30.11,-175.4 89.54,-160.6 219.91,-98.3 -19.89,-48.3 -33.2,-97.4 -38.07,-142.6 -3.5,-32.8 0.48,-62 9.49,-89 -58.12,32 -122.41,54.6 -176.88,71.7 -171.93,54.3 -366.18,51.5 -532.75,-17.8 -37.42,-15.5 -65.18,-36.9 -84.75,-61.4 -3.89,-4.8 -8.43,-9.3 -11.6,-14.5 0,0 0,0 0,0 -31.82,-51.5 -26.71,-116.2 19.64,-180.9 18.76,-26.2 39.05,-55.8 60.97,-86 -16.89,8.6 -33.77,17.3 -50.25,26.6 -103.34,58.4 -196.2,59.9 -265.85,-46.5 -21.19,-32.4 -24.27,-68.6 -17.13,-105.1 -54.96,-1.4 -110.48,-10.1 -162.92,-23.7 -233.94,-60.7 -462.7,-138.1 -651.02,-295 -86.37,-72.1 -287.76,-241 -252.7,-374.4 21.76,-82.9 141.65,-74.9 268.93,-42.1 -20.62,-20.6 -40.91,-41.7 -60.96,-63.7 -101.22,-111.7 -255.21,-319.2 -234.19,-483.1 19.73,-153.9 194.26,-183.6 325.35,-166.6 43.02,5.4 87.1,18.2 131.26,35.3 l 0.81,-1.1 c -44.48,-50.4 -86.61,-102.7 -125.17,-158 -59.18,-85.1 -124.52,-204.4 -138.73,-308.7 -5.6,-41.3 8.45,-101.2 36.37,-148.2 -0.24,0 -0.49,0.1 -0.73,0.3 0.89,-1.6 2.11,-2.9 3,-4.5 2.68,-4.3 5.52,-8.3 8.37,-12.2 3.4,-4.8 7.06,-9.3 10.79,-13.6 2.92,-3.4 5.93,-6.7 9.09,-9.8 4.55,-4.5 9.42,-8.3 14.45,-11.9 2.76,-2.2 5.44,-4.5 8.36,-6.2 8.2,-5 16.72,-9.1 25.82,-11.5 180.69,-47.2 369.5,-19 550.36,32.6 -47.65,-43.2 -93.02,-95.7 -99.76,-155.6 -15.43,-137 108.45,-97 218.84,-37.3 -90.83,-175.2 -94.81,-389 41.32,-553.4 98.63,-119.3 193.93,-94.3 318.86,-30.9 53.33,27.1 105.04,58.5 153.82,93.7 -31.49,-75.8 -56,-173.5 -1.3,-209.9 110.16,-73.5 259.93,15.6 357.09,72.7 83.37,49.1 167.8,113.9 242.48,186.4 -4.96,-47.4 0.24,-95 23.13,-140.8 48.95,-98.2 179.8,-54.3 249.29,-13.4 171.28,100.2 325.19,276.4 330.06,473 26.54,-39 56.33,-75.7 90.26,-108.4 68.19,-65.9 137.84,-4.1 184.43,51.1 45.46,53.9 74.69,130.6 96.36,208.2 v -0.8 c -6.09,-51.4 -19.48,-125.2 29.95,-159.4 61.37,-42.4 133.13,31.4 170.14,72 23.63,25.7 43.84,55.8 62.02,87.7 -5.76,-40 5.28,-72.9 55.53,-79.7 51.13,-6.6 119.08,38.8 160.72,64 23.54,14.2 45.46,30.5 66.48,47.7 h 0.08 c -29.22,-64.2 -65.26,-157.3 -17.61,-194.4 75.9,-59 207.89,87.4 251.07,130.5 5.85,5.7 10.96,11.9 16.56,17.8 3.41,-20.9 6.25,-41.4 9.83,-62.5 19.48,-115.2 42.94,-233.3 69.56,-352.8 -10.63,7.7 -21.67,14.7 -31.9,20.4 -25.24,14.1 -97.57,40 -121.84,5.9 -3.66,-5.3 -1.95,-11.6 1.7,-15.9 38.97,-45.7 88.16,-115.7 177.61,-122.9 32.15,-131.8 69.81,-265.5 118.11,-399.5 6.99,-19.6 15.02,-39.1 22.57,-58.6 -42.05,26.4 -94.49,44.1 -157.88,49.2 -0.25,-0.5 -0.9,-1 -1.06,-1.5 -11.04,-42.4 51.79,-82 83.93,-103 11.04,-7.4 25.98,-15.4 43.02,-21.8 20.06,0.6 40.43,3.5 60.64,5.7 12.83,-30.2 25.9,-60.3 40.43,-90.2 35.39,-72.8 75.74,-145.1 125.82,-214 1.46,-2 3.08,-3.9 4.54,-5.9 -12.9,3.2 -25.81,5.9 -37.74,7.8 -15.34,2.1 -42.05,3.5 -66.56,-0.6 -24.44,-4.2 -46.76,-14 -50.74,-36.3 -1.3,-6.9 3.17,-13.1 8.53,-16.5 32.3,-18.9 70.29,-44.3 114.29,-57 21.18,-6.5 44.49,-9.5 67.21,-7.3 15.83,1.4 31.34,6.5 46.76,13.6 30.36,-30.9 64.05,-59.8 102.68,-84.6 19.9,-12.6 39.94,-24.9 62.27,-34.7 21.26,-11.1 44.8,-18.2 67.86,-26.1 47.65,-12.6 96.11,-20.7 145.79,-17.4 l 18.59,0.6 18.51,2.5 c 12.25,1.9 24.76,3.3 36.85,5.9 21.27,5.7 42.78,11.3 63.07,19.4 -4.87,-6.6 -9.98,-12.1 -14.77,-19.2 -14.45,-19 -28.41,-41.2 -42.62,-64.4 -14.29,-22.4 -28.57,-47 -42.21,-73.4 0.65,-0.4 0.81,-1.1 1.62,-1.2 28.33,-8.8 64.86,1.4 94.49,22.1 30.93,18.8 53.01,48.1 68.76,65.8 10.39,12.6 20.13,31 27.6,50 -0.98,20.7 -4.63,41.4 -9.26,61.9 16.72,10.4 33.12,21.2 48.55,32.8 73.86,57.7 131.42,127 180.04,199.2 74.19,112 129.07,230.9 175.5,351.6 4.47,-12.1 9.58,-24.1 14.7,-34.4 13.63,-26.1 56.49,-90.2 96.92,-74.6 6.25,2.5 8.69,9 8.2,15 -5.69,62.5 -8.12,150.1 -79.48,204.4 51.06,151.4 91.41,304.6 125.26,458.3 20.7,-43.6 56.41,-85.2 106.01,-122.1 0.49,0.3 1.3,0.2 1.63,0.6 32.47,28.5 0.16,93.7 -14.53,127.9 -4.95,11.9 -13.07,26.4 -23.79,40.9 -17.12,10.6 -35.55,19.9 -53.65,29.6 23.13,111.3 42.94,222.5 60.39,333.4 7.06,-10.9 14.77,-21.5 22.16,-30.5 18.35,-22.3 76.31,-72.4 111.29,-49.7 5.44,3.6 6.17,10 4.22,15.3 -19.56,56.2 -39.85,138.5 -120.05,178.3 22.48,156.6 40.91,312.2 55.85,466.2 25.89,-40.4 66.56,-76.9 120.62,-106.4 0.41,0.3 1.14,0.3 1.46,0.8 28.01,31.5 -11.53,91.1 -30.52,122.9 -6.41,11 -16.24,24.4 -28.58,37.4 -17.94,8.5 -37.17,15.5 -56.09,22.9 3.5,39 7.23,78.1 10.31,116.8 12.18,-9.4 24.03,-19 37.35,-27.5 19.88,-12.5 39.85,-24.9 62.09,-34.7 21.35,-11.1 44.89,-18.2 68.03,-26 47.64,-12.6 96.03,-20.7 145.71,-17.5 l 18.58,0.6 18.51,2.6 c 12.34,1.8 24.76,3.2 36.94,5.8 21.35,5.7 42.78,11.3 63.15,19.5 -4.95,-6.6 -10.06,-12.1 -14.85,-19.2 -14.45,-19.1 -28.5,-41.3 -42.62,-64.5 -14.37,-22.3 -28.65,-46.9 -42.29,-73.4 0.65,-0.3 0.97,-1.1 1.62,-1.2 28.41,-8.8 64.86,1.4 94.57,22.2 30.93,18.8 52.92,48 68.68,65.7 10.38,12.6 20.13,31 27.68,50 -0.98,20.8 -4.63,41.4 -9.34,61.9 16.72,10.4 33.2,21.2 48.54,32.8 73.87,57.6 131.5,127.1 180.05,199.3 67.05,101.1 117.87,207.9 161.37,316.4 11.69,-3.2 23.3,-6.7 34.91,-10 17.69,-29.4 55.2,-77.6 90.83,-63.9 6.25,2.6 8.77,9.1 8.2,15 -0.65,6.6 -1.21,13.7 -1.78,20.8 322.26,-96.3 639.49,-214.7 962.65,-306 221.12,-62.5 434.21,-264.1 519.6,-739.8 -67.78,-4444.4 80.37,-8842.3 76.95,-13286.8 -0.16,-157.3 -0.97,-314.6 -1.62,-471.9 -35.79,-272.4 -20.21,-776.8 -84.42,-1040.7 -64.21,-263.4 -119.41,-337.5 -268.44,-617.2 -76.96,-104.6 -183.95,-157 -280.71,-222.998 -14.04,-9.601 -29.55,-20 -46.02,-30.902 -4.14,-2.797 -8.69,-5.699 -12.99,-8.598 -12.91,-8.601 -26.22,-17.199 -40.26,-26.402 -5.04,-3.297 -10.23,-6.699 -15.35,-10 -14.12,-9.199 -28.57,-18.598 -43.35,-28.098 -5.27,-3.5 -10.55,-6.8 -15.9,-10.3 -15.67,-10.102 -31.58,-20.399 -47.65,-30.801 -45.71,-29.301 -92.14,-59.098 -137.03,-88.098 -1.94,-1.301 -3.98,-2.601 -6.01,-3.902 -18.75,-12.199 -37.01,-24 -54.87,-35.699 -2.19,-1.399 -4.38,-2.899 -6.57,-4.301 -18.43,-12 -36.05,-23.598 -52.85,-34.801 -0.73,-0.5 -1.62,-0.996 -2.35,-1.398 h 0.08 c -93.84,-62.301 -158.62,-108.7 -148.55,-113.801 10.39,-5.301 24.76,-8.899 40.75,-11.801 -0.41,-0.098 -0.81,-0.297 -1.22,-0.297 3.57,-0.703 7.87,-0.902 11.69,-1.402 5.92,-0.899 11.69,-1.699 18.1,-2.297 6.09,-0.602 12.66,-0.801 19.16,-1.102 7.39,-0.402 14.53,-0.8 22.4,-0.902 6.01,-0.098 12.58,0.102 18.92,0.102 9.17,0.199 18.18,0.199 27.84,0.601 3.73,0.098 7.71,0.399 11.45,0.699 43.34,2.098 90.75,6.7 139.86,12.899 0.81,0.101 1.62,0.203 2.43,0.301 15.59,2 31.17,4.199 46.93,6.5 2.83,0.398 5.76,0.8 8.68,1.199 15.18,2.203 30.12,4.5 45.21,7 3.49,0.601 6.9,1 10.39,1.601 14.86,2.399 29.47,4.899 44,7.399 3.41,0.601 6.82,1.203 10.23,1.801 14.61,2.601 28.9,5.101 43.02,7.699 3.09,0.601 6.09,1.101 9.09,1.703 14.05,2.598 27.6,5.195 40.84,7.797 3,0.601 5.92,1.101 8.92,1.801 12.99,2.5 25.57,5 37.67,7.398 2.6,0.602 4.95,1.102 7.55,1.602 12.17,2.5 23.86,4.898 34.82,7.199 1.38,0.301 2.6,0.601 3.98,0.902 36.53,7.699 66.24,14.399 83.85,18.496 86.62,20.102 170.23,56.801 257.73,68.301 -42.37,-58 -88.07,-130.199 -144.73,-164.699 -63.48,-38.699 -184.35,-245.899 -139.54,-249.899 182.89,-16.101 404.82,82.2 567.33,159.2 61.94,29.3 123.47,56.199 181.75,89.597 -9.41,-12.297 -18.34,-25.097 -27.11,-38.297 -20.86,-16.601 -149.28,-157.3 -80.12,-156.402 169.09,2.301 423.32,75 560.42,172.902 41.7,29.801 83.8,59.7 126.5,89 61.9,-68.8 121.8,-133.3 200.9,-186.699 41.3,-27.902 91.4,36.399 96.3,72.199 2.7,20.899 5.2,42.801 7.2,65.2 52.3,-9 108.6,-8.801 157.1,-10.598 108.9,-3.801 669.3,0.996 643.1,42.598 -18.8,29.699 -378.5,192.402 -504.2,311.398 -209.3,198.2 -326.1,484.4 -393.3,759.7 -76.4,313.5 -117.4,646.5 -127.6,968.8 -0.9,28.1 -1,56.2 -0.8,84.4 -32.9,313.3 -140.2,9426.5 -118.4,11237.7 7.5,622.8 -25.2,1656.8 476.1,2121.7 71.3,66.1 151.2,121 235.5,169.7 19.7,-48.6 41,-97 64.8,-144.8 23.7,-47.1 49.5,-93.8 79.7,-139.4 2.6,-3.9 5.8,-7.7 8.5,-11.7 -14.4,5.8 -28.8,10.8 -41.6,15 -31.9,9.3 -116.3,25.5 -123.2,-24.3 -0.9,-7.9 4.3,-15.7 10.4,-20.5 34.5,-27 78.2,-62.9 128.5,-84.4 42,-18.5 88.1,-23.6 128.3,-7.7 42.3,-39.4 95.1,-75.8 160.5,-94 16.2,-4.1 34.2,-8.1 49,-9 15.5,-1.4 30.6,-3.4 46.1,-3.6 l 46.6,1.3 46.2,6.9 c 61.3,12.1 118.3,37.7 167.7,69.9 25.4,15.9 47.3,34.4 69.6,52.8 14.8,14 29.4,28.2 43.4,42.7 -2,-8.1 -3.9,-16.1 -5.9,-24.3 -5.8,-25.5 -8.7,-53 -12.6,-80.8 -3.3,-28 -4,-57.9 -5.5,-87.9 0.8,0 1.5,-0.4 2.3,-0.2 16.6,3.2 30.5,12.6 43.8,24.7 13.3,12.2 25.4,27.2 34,43.6 9,16.3 17.1,33.2 22.5,49.1 5.2,16 9.3,30.8 12.8,42.8 5.2,16.3 7.6,37.5 7.6,59 -8.8,19.3 -19,37.5 -30,55.3 48.8,64.9 88.1,133.8 123.6,203.1 29.9,59.4 55.4,119.9 79.3,180.6 3.7,-14.6 8.1,-28.8 12.4,-41.2 10.8,-30.1 50.1,-104.5 92.9,-82.7 6.6,3.4 9.8,11.5 9.8,18.5 0.7,75.1 4.7,181 -65.4,241.4 34.4,102.9 63.9,206.2 89.7,309.5 125.1,48.6 250.1,97 375.2,145.6 11.5,-51.2 37.9,-96.6 87.5,-130.1 167.2,-112.6 398.3,35.9 513.1,153.3 16.2,16.5 30.7,35.1 45.9,52.8 9.8,-2.6 19.7,-4.9 29.6,-7.4 15.7,-4.3 30.1,-5.5 44.4,-6.7 5.2,-0.5 10.4,-0.4 15.6,-0.7 -14.3,-7.5 -28.2,-15.5 -40.8,-22.8 -15.9,-8.7 -45.8,-23.6 -68.6,-41.4 -22.5,-17.6 -38.1,-38.3 -12.9,-61.1 7.8,-7 21.8,-10 32.8,-9.7 7.9,0.3 15.8,0.6 24.1,0.9 8,0.4 14.5,2.2 22.1,3.3 14.5,2.7 29.4,5.7 44.1,9.1 14.7,3.5 29.9,9.4 44.2,14.9 14.3,5.9 28.1,11.6 40.8,20.1 25.5,16.2 46.8,34.3 60.3,57.4 9.5,15.7 14.3,32.4 16.4,49.9 37.5,12.4 71.5,30.3 103.9,50.2 79.8,28.5 153.7,110.3 215,186.1 20.2,24.9 37.4,62.3 50,104.7 2,3.2 3.8,6.4 5.7,9.7 18,-0.3 36.2,1.4 54.3,4.1 3.4,-30.1 6.6,-59.5 10.1,-89.9 9.9,-83.6 20.4,-168.6 31.5,-254.4 -45.3,-14 -84.1,-33.5 -110.6,-57.5 -137.3,-124.1 -15.8,-221.7 134.1,-285.3 -201.1,-71.5 -387.5,-215.5 -419.1,-406.2 -35.1,-211.3 231.7,-273.3 464.6,-278.1 -75.9,-81.5 -138.4,-176.9 -145.8,-263.7 -11.3,-133 87.1,-165.5 203.1,-159.7 33.6,1.6 67.6,8 101.5,16.6 7.5,-2.1 15.4,-3.3 23.3,-4.3 32.2,-134.4 67.1,-269.2 109.4,-404 13.9,-43.2 28.4,-86.5 43.5,-129.7 -6.5,5.1 -11.9,11.2 -19,15.8 -39.2,25.5 -87.4,43.1 -141.8,51.5 -0.3,-0.6 -0.9,-0.9 -1.1,-1.6 -10.1,-47.1 53.9,-96.2 87.2,-122.6 11.3,-9.3 26.8,-19.5 44.1,-28.2 20.7,-1.2 41.7,-1 62.8,-0.3 41.7,-108.7 89.8,-216.6 152.7,-321.2 l 19.9,-32.3 22.2,-31.6 c 14.2,-21.4 31.2,-41.7 48.1,-62 l 12.9,-15.2 14.2,-14.7 28.9,-29 c 10.5,-9.2 21.7,-18 32.7,-27 l 16.5,-13.3 18.7,-11.8 c 12.8,-7.6 24.6,-16.1 38.4,-22.5 14.1,-6.2 28.2,-12.3 42.5,-18.2 14.3,-5.6 30.3,-8.4 45.6,-12.2 15.8,-4.5 30.1,-5.6 44.5,-6.9 5.1,-0.4 10.3,-0.4 15.5,-0.6 -14.1,-7.5 -28.2,-15.5 -40.7,-22.9 -16,-8.7 -45.9,-23.5 -68.7,-41.2 -22.5,-17.8 -38,-38.4 -12.9,-61.2 7.9,-6.9 21.9,-10 32.8,-9.7 7.8,0.2 15.9,0.6 24.1,0.8 8.1,0.6 14.6,2.2 22.1,3.4 14.5,2.6 29.4,5.6 44.1,9.1 14.8,3.6 29.9,9.4 44.2,14.9 14.4,5.8 28.1,11.6 40.8,20.2 25.5,16.1 46.9,34.2 60.3,57.3 9.6,15.7 14.3,32.4 16.6,49.8 54.2,18.1 103.5,45.6 146.8,77.6 44.3,33.4 81.7,71.9 116.2,111.5 62.8,75.5 112,157 154.4,240 4.9,-55.3 22.4,-112.6 54.8,-170.4 0.6,0.1 1.3,-0.1 1.9,0.3 23.2,13.2 32.5,42 37.1,72.3 3.8,30.5 0.8,62.4 -0.1,84.1 -0.9,15 -4.6,33.9 -10.5,52.9 -13.6,15.7 -29.3,29.7 -44.4,44.1 56,124.4 100.1,251.2 137.3,378.5 5.1,-13.3 10.9,-26.3 16.4,-37.4 14.2,-27.8 62.5,-93.3 101.8,-70.1 6.2,3.5 8,11.1 7.3,17.5 -8.3,69.1 -15.2,168 -89.7,221 12.3,47.9 22.8,95.7 33.8,143.4 38.4,-22.8 85.2,-25.6 137.7,6.5 75.2,45.9 119.9,111.4 142.9,186 2.1,-15.3 5.2,-30.6 10,-45.6 14.2,-44.1 53.1,-102 102.2,-50.8 25.6,26.7 42.1,65.1 50.6,107.7 312.7,-174.2 706.3,-184.7 1074.5,-140.2 -22.7,-48.8 -43.1,-109.1 -17.5,-152.1 47.7,-80.3 175.5,21.5 211.3,61.1 28.4,31.6 52.6,65.1 72.9,100.5 3.6,-39.3 10.9,-78.2 25.6,-116.9 22.1,-58.3 78.8,-116.3 143.7,-74.6 79.9,51.4 96.5,150 74.6,243.8 47.8,-57 119,-94.8 162.5,-34.7 14.7,20.4 23.9,42.1 28.9,64.4 -0.1,-36.5 3,-73.5 12.1,-112.9 13.6,-58.7 65.6,-94.5 116.8,-51.9 41,34 64.5,87.7 76.3,147.5 26.2,-23 59.6,-36.7 101.7,-36.2 98.6,1.2 177.9,111.5 211.7,191.5 24.4,57.8 41.1,117.3 49.3,177.2 175.9,-129.9 429.1,-128.6 560.8,87.9 27.9,45.7 41.3,87.7 43.7,126.1 22.2,-6.7 45.1,-9.2 67.4,-4.1 41.3,9.5 58.2,46.2 61,84.7 5.6,12.5 6.4,25.2 -1.1,35.3 v 0 c -1.6,12 -4.3,23.2 -7.8,32.9 -3.4,9.8 -7.8,20 -13,30.2 106.6,30.3 225.4,101.1 243.2,215 19.3,123.6 -89.2,190.1 -191.5,231.1" 
                />
                <path style="fill:#193e34;fill-opacity:1;fill-rule:nonzero;stroke:none" id="path54"
                  d="m 25412.6,1377.5 v 0 -0.1 z m -2995.2,178.8 c -6.9,-15.5 -12.7,-32 -18.2,-48.7 -28.1,24.1 -61.9,48.7 -97,72.3 h 132.2 c -7.5,-9.1 -14.4,-17.8 -17,-23.6 z M 14175.7,978 c 2.3,5.602 4.8,11.301 7,16.902 22.8,-6.402 45.7,-12.601 68.6,-18.8 -0.2,-3.7 0.5,-7.602 3.7,-11 19.5,-21.098 44.2,-24.5 73.6,-20.301 9.9,1.5 19.2,3.801 28.8,5.699 21.8,-4.598 43.6,-9.098 65.9,-12.5 5.8,-1 12.1,-2.098 18.3,-3.098 -12.9,-15.898 -27.5,-32.8 -32.1,-43.101 -8.8,-19.801 -16.3,-40.899 -23.4,-62 C 14327.3,880 14248.5,932.5 14175.7,978 Z m 11772.7,2996 c 0.4,-1.8 1.1,-3.6 1.5,-5.4 -4.7,-1.8 -9.4,-3.6 -14,-5.3 4.1,3.5 8.3,7.1 12.5,10.7 z m -6923.3,312.3 c -18.7,1.3 -37.5,1.3 -56.4,0.1 6,15.9 11.7,32.5 17,49.3 20.4,-16.1 41,-31 60.4,-43.9 -7.3,-1.5 -14.3,-3.3 -21,-5.5 z M 32847.7,2716.2 c 70.8,21.6 121,58.1 58.9,120.3 -49.9,50.2 -192.3,53.7 -256.6,49.3 -13.3,-0.1 -26.3,-1.4 -39.2,-2.6 30.4,17.8 60.2,35.8 91.8,52.6 73,38.8 163.3,190 8.8,194.4 -11.9,0.4 -24.5,-1.7 -37.1,-4.5 28.9,85.4 31.4,186.8 -20.4,243.8 -52.3,57.4 -102,33.7 -142.7,-15.4 -2.9,24.9 -13.7,44.6 -38.1,53.8 -49,17.8 -91.2,11 -140.6,0 -9,-2 -22.5,-9.4 -30.8,-14.4 4.3,2.6 10.2,6.6 19.5,13.1 18.8,12.7 38.5,25.1 55.5,39.5 150.2,124.8 -50.1,126.1 -211.9,104.4 99.3,43.7 184,104.1 190.7,205.8 7.8,124.2 -212.1,49.4 -265.7,22.4 -26.8,-13.3 -83.2,-87.6 -51.7,-45.3 17.5,23.5 33.6,49.6 45.3,75.6 19.9,44.7 44.6,97.1 6.6,141.4 -64.3,75 -215.7,-13.3 -316.6,-88.4 25,59.8 45.2,130.6 24.1,176 129.2,137.9 -20.1,175.9 -165.6,156.6 153.7,89.2 364,229.7 258.6,264.6 -35.2,11.6 -77.3,12.5 -122.1,6.1 40.5,35.5 74.8,74.2 98.8,116.6 47.2,83.7 -47.1,149.8 -144.2,135.7 -75.1,-11.1 -145,-32.4 -208.2,-67.4 -14.8,-8.2 -29.4,-16.4 -43.9,-24.5 10.5,12 21.3,24 31.7,36.2 65.1,75.4 205.7,237.9 106.1,334.8 -2.9,2.9 -10.3,3.5 -14.3,2.5 -53,-12.5 -87.9,-38.9 -117.6,-71.2 29.7,116.2 60.3,299.6 -28.1,328.1 -53.1,17.3 -128.6,-32.9 -196.9,-90.7 -11,14 -33.6,26 -74.8,33 -127,22.2 -282.5,11.7 -413.5,-30.7 63.4,59.5 104.1,135.3 90.6,211.4 -18.1,105.5 -228.9,10.7 -325.6,-36.5 20.7,112.8 94.2,345 -121.6,261.6 -36.9,-14.3 -73.3,-39.9 -107,-71.4 -45.6,70.9 -129.7,114.3 -257.8,89.1 -85,-16.7 -143.1,-93.6 -182.4,-150.6 -7,-9.9 -12.8,-20.3 -18.1,-31 0,-0.1 0.1,-0.4 0.2,-0.5 -9.9,-19.3 -18.8,-39 -26.7,-59 -16,189.4 -81.1,383.3 -247.8,526 -82.3,70.2 -102,-56.8 -105,-168.3 -24.9,52.3 -61.5,98.6 -116.7,95.4 -143.5,-8.2 -222.8,-128.8 -295.3,-215.9 -88,-106 -30.7,-0.2 -21.6,47.2 3.4,17 22.4,88.9 -17.5,101.8 -110.7,36.2 -194.1,-67.6 -273.2,-127.1 9.1,106.1 91.1,321.4 -103.2,212.8 -74.5,-41.7 -132.6,-106.4 -180.7,-173.8 -12.7,66.7 -40.2,125.5 -87.7,162.8 -7.1,5.7 -20.4,7.9 -29.4,5.5 -135.2,-36.4 -212.8,-209 -227.5,-363.1 -19.5,18 -43.2,35.3 -75.1,51.1 -16,7.7 -32.9,-9.7 -37.6,-19.3 -24.6,-49.2 -7,-108 15.8,-164.5 -25.4,19.7 -52.2,30.5 -72.7,10.9 -46.7,-44.2 -27.3,-114.8 -6.9,-177.8 -97.9,74.1 -213.9,112 -347.5,137.3 -56.7,10.7 -229,61.1 -282.3,16.8 -87.3,-73.1 115.4,-249.3 253.9,-337.8 -48.7,3.4 -97,9.2 -146.2,2.4 -47.5,59.6 -103.9,114 -138.6,146.8 -16.9,15.9 -44.8,-7.6 -49.5,-19.4 -24.3,-62.3 -17.7,-133.7 2,-205.5 -69,66.3 -149.9,111.9 -224.1,78.9 -58.2,-25.5 -25.2,-113.9 22.7,-196.7 -49.5,35.3 -103.5,65 -175.3,75.6 -65.4,10.1 -194.6,26.5 -235,-33.2 -56.7,-83.6 39.8,-175.5 113,-234.4 29.9,-24.1 64.2,-49 99.9,-73.8 -17.1,-4.9 -31.2,-11.7 -40.7,-21.3 -20.9,-20.7 -17.7,-45.5 -1.3,-71.8 -18.1,6.8 -35.9,13.7 -54.5,19.6 -78.8,24.8 -185.8,69.3 -269.9,60.9 -7.9,-0.7 -14.4,-7.9 -14.8,-14.1 -2.8,-56.9 48.6,-115.4 93.3,-168.9 -81.6,-14.1 -180.3,-47.7 -185.6,-109.2 -3,-36.9 26.5,-69.8 70,-98.9 -24.5,-10.8 -41.2,-29.8 -45.5,-61.2 -1.6,-12.1 0.6,-25.7 4,-39.6 -21.1,17.5 -44.1,33.7 -67.7,49.4 -0.2,0.5 -0.3,0.9 -0.5,1.4 -2.7,1.8 -5.8,3.4 -8.5,5.2 -4.1,2.6 -8.3,4.9 -12.4,7.4 -27,16.7 -55.3,32.4 -86.5,46.3 -29.6,13 -73.1,23.9 -115.8,26.2 -1.2,14.8 -4.9,29.4 -15.5,43.2 -1.8,2.5 -7.1,3.6 -10,3.4 -39.6,-3.5 -67.6,-19 -92.2,-39 33.5,80.5 74.8,209.5 14,239.3 -36.4,18 -96.1,-10.2 -151.3,-44.7 -6.4,11.2 -21.5,22.2 -50.5,31.5 -89.1,29.3 -202.3,38.1 -301,21.3 51.9,36.1 89.1,86.5 87.3,142.8 -2,77.9 -163.8,31.7 -238.4,7.8 26.7,79.1 104,238.6 -60.2,201.1 -28,-6.4 -56.9,-21.1 -84.6,-40.2 -25.3,55.9 -81.4,95.9 -176.3,91.2 -63,-3.1 -112.9,-52.4 -147.2,-89.4 -6,-6.4 -11.3,-13.2 -16.3,-20.4 0,-0.1 0.1,-0.3 0.1,-0.4 -9.2,-12.8 -17.7,-26.2 -25.4,-39.6 8.3,138 -18.3,284.6 -123.4,404.8 -52,59.2 -79.5,-30.2 -93.3,-110.2 -12.5,40.2 -34,77.4 -74.2,80.9 -104.1,9.2 -173.9,-69.5 -235.3,-124.6 -74.5,-67.1 -22.1,3.1 -10.5,36.3 4.2,11.9 25.3,61.6 -2,75.1 -76,37.6 -146.9,-28.4 -210.1,-62.9 17.6,75.5 99.2,222 -52.2,164.1 -58,-22.2 -106.6,-62.8 -148.3,-106.3 -2.2,49.4 -15.8,94.6 -46.1,126.4 -4.6,4.9 -13.9,8 -20.7,7.1 -101.2,-12 -175.2,-128.3 -201.9,-237.8 -12.1,15.1 -27.4,30 -48.7,44.7 -10.7,7.3 -24.8,-3.5 -29.1,-9.9 -22.9,-32.9 -16.4,-77.1 -5.9,-120.2 -16.3,16.8 -34.4,27.5 -51.2,15.5 -38.3,-27 -31.7,-79.9 -23.6,-127.3 -62.7,63.5 -142.5,103 -236,135.2 -39.7,13.7 -158.6,68 -201.6,41.7 -70.5,-43.5 57.1,-191.7 147.6,-270 -34.8,7.5 -68.9,16.8 -105.1,17.1 -28.1,47.9 -63,92.9 -84.6,120.2 -10.4,13.2 -33.1,-0.7 -37.7,-8.8 -23.9,-42.3 -26.6,-94.5 -20,-148.2 -42.7,55 -96.2,96.4 -153.2,80.3 -44.6,-12.3 -30.1,-79.4 -4.2,-144 -31.9,30.6 -67.7,57.5 -118.4,72.7 -46,14.1 -137.4,39.5 -172.7,0.7 -49.7,-54.3 10.3,-130.6 56.8,-180.7 19.1,-20.5 41.1,-42 64.2,-63.7 -12.8,-1.7 -23.7,-5.1 -31.5,-11 -5.4,-4 -8.7,-8.7 -11,-13.7 -24.2,3.1 -48.8,3.3 -73.6,1.5 -47.2,24 -101.5,50.4 -149.2,52.6 -5.8,0.3 -11.2,-4.2 -12.1,-8.7 -4.4,-22.8 3.7,-47.7 16.1,-72.9 -74.9,-23.1 -144.5,-56.9 -214.5,-91.7 -24.2,-9.7 -48.5,-18.8 -72.9,-28 1,23.3 -5.4,45.4 -24.6,64 -2.1,2.1 -7.4,2.5 -10.4,1.8 -38.6,-9.1 -64,-28.4 -85.6,-51.8 21.7,84.5 43.9,218.2 -20.5,238.9 -38.6,12.5 -93.6,-24.1 -143.3,-66.1 -7.5,9.6 -23,17.8 -49.8,23 73.5,32.3 147.9,62.5 220.8,97.7 158.8,76.5 474.9,242.5 320.1,462.6 -50.7,72.1 -156.7,82.4 -231.2,43.6 -104.6,-54.6 -179.2,-148 -251.6,-239.5 -49.5,-62.3 -109,-119.5 -167.6,-173.2 -45.6,-41.8 -89.7,-85.3 -137.4,-124.6 7.3,21.5 11.1,43.6 7.2,66 -13.2,76.8 -166.6,7.8 -237.1,-26.6 0.8,4.8 1.9,9.9 3,15.1 1,0.9 2,1.9 3,2.9 8.3,7.5 16.5,14.9 24.2,22 8.4,7.9 16.5,15.4 23.4,22.6 60.1,62.9 126.9,118.7 197.6,169.6 147.2,106 312.8,202.5 367.8,388 19.6,65.7 28.5,158.1 -27.3,209.8 -51.1,47.2 -128.7,30.8 -185.3,3.7 -139.8,-67 -207.8,-210.7 -272.4,-345.6 0.3,0.7 0.6,1.4 0.9,2.2 -11.6,-24.4 -23,-48.4 -34.9,-71.6 -34.9,-68.9 -72.6,-150.8 -123.5,-216.2 -16.1,1.9 -37.1,-1.3 -65.1,-12.1 -26.7,-10.3 -53.2,-29.1 -77.8,-51.9 -11.2,17.4 -25.9,32.3 -43.7,43.9 -0.5,8.5 0.3,17.2 3.1,26.1 7.5,23.2 16.9,43.9 27.2,64.1 1.2,2.3 2.3,4.7 3.5,7.1 10.9,20.5 22.9,40.3 36,61.1 29.3,46.6 80.6,87.2 118.5,127.2 44.3,46.9 94.1,88.4 137.1,136.5 61.3,68.3 128,152.3 151.9,242.9 5.4,20.7 8.5,42.9 9,65.5 7.4,61.7 -3.3,123.2 -47.6,163.2 -13,11.7 -27.3,18.9 -42,22.7 -53.7,17.7 -123.1,-22.3 -161.8,-53 -87.4,-69.5 -122.6,-184.9 -153.9,-286.8 -26.5,-86.3 -53.1,-175.3 -90.1,-258.8 -14.3,-32.6 -29.9,-64.4 -48.2,-94.8 -18.3,-30.4 -40.7,-98.2 -79.2,-106.5 -73.9,-15.9 -70.5,107.1 -67.3,148 1.5,19.3 5.1,38.1 9.7,56.5 1.3,5.5 2.8,11.1 4.3,16.5 4.1,14 8.8,27.7 14.2,41.2 1.8,4.4 3.2,8.9 5.1,13.3 16.1,37.9 36.5,74.2 58.1,109.6 88.4,144.4 221.9,303.8 218.3,482.8 -1,45.8 -19.1,94.1 -49.2,129.1 -31.8,36.9 -98.6,62.6 -143.9,38.5 -85.4,-45.5 -106,-165.8 -116,-276.2 -0.1,0.4 -0.1,0.6 -0.2,0.9 -1.1,-12.2 -2.1,-24.2 -3,-36.2 -1.4,-17.1 -2.6,-33.3 -3.9,-49.2 -0.4,-4.7 -0.8,-9.1 -1.2,-13.7 -1.5,-16.3 -3.1,-31.8 -5.2,-45.5 -11.9,-78.4 -6.2,-204.9 -95.1,-245.1 -101.2,-45.7 -133.2,128.7 -145.8,190.9 -5.1,25.3 -9.4,50.6 -13,75.9 -25.3,172 -25.6,346.3 -90.3,511.4 -47.9,122.1 -149.8,260.4 -296.8,248.5 -23.2,-1.9 -42.3,-8.3 -59.7,-16.7 -0.2,0.4 -0.3,0.8 -0.4,1.2 -4.4,-2.1 -8,-5 -11.9,-7.5 -3.9,-2.2 -7.9,-4.4 -11.5,-7 -7.1,-5.3 -13.3,-11.4 -19.2,-17.8 -2,-2.1 -4.3,-3.8 -6,-6 -7.3,-8.8 -13.4,-18.5 -18.5,-28.8 -1.8,-3.4 -3.1,-7.2 -4.6,-10.7 -3.2,-7.4 -6.2,-15 -8.6,-22.9 -1.3,-4.5 -2.4,-9.1 -3.5,-13.7 -1.8,-7.6 -3.2,-15.3 -4.4,-23.2 -0.7,-4.8 -1.3,-9.5 -1.8,-14.3 -0.8,-8.6 -1.1,-17.2 -1.3,-25.9 0,-4.1 -0.2,-8.2 -0.1,-12.4 0.2,-12.9 1,-25.7 2.6,-38.5 12.6,-101.6 40.3,-191.9 77.3,-286.9 50.4,-129.8 122.3,-247.6 203.6,-360 0.6,-0.8 1.2,-1.6 1.8,-2.3 -0.1,0.1 -0.2,0.2 -0.3,0.2 12.9,-17.6 26.7,-34.7 40.2,-51.9 32,-40.7 64.5,-80.9 93.5,-123.9 19.2,-28.5 37.2,-57.5 55,-86.9 8.5,-14 55.5,-93 5.5,-97 -18.2,-1.5 -40.1,9.2 -56.5,15.8 -118.2,46.9 -193.6,151.7 -300.5,213.4 -11.7,11.8 -24.5,23.3 -37.6,34.5 -3.4,3 -6.9,5.7 -10.4,8.6 -10,8.2 -20,16.2 -30.2,23.8 -1.7,1.3 -3.4,2.8 -5.1,4 0.8,-0.7 1.6,-1.4 2.4,-2.1 -20.6,15.1 -41.4,29 -61.6,40.3 -37.8,21 -115.1,17.3 -154.8,4.8 -49.7,-15.6 -88,-55.2 -102.1,-105.4 -38.8,-138.2 100.9,-244.3 210.7,-293.3 76.3,-34.1 157.3,-53.8 237.8,-74.9 19,-5 38.4,-9.6 57.7,-14.3 -33,-30.3 -60,-66.9 -85.8,-97.9 -12.9,-15.6 -20.7,-23.7 -26.2,-28.3 -2.7,1.3 -5.3,2.8 -8,4.2 3.4,14 15.2,41.4 18.5,58.4 2.4,12.4 16.2,64.7 -12.8,74.1 -65.3,21.4 -117.6,-24.2 -165.8,-65.3 -9.2,3.2 -18.5,6.4 -27.8,9.4 14.2,80.3 41.1,186.3 -80.4,118.3 -39.4,-22 -72.3,-53 -100.9,-87.1 -13.5,-1 -26.6,-3.4 -39,-7 -11,35 -28.8,65.2 -55.5,86.1 -5.2,4.1 -14.9,5.8 -21.4,4 -98.4,-26.5 -154.9,-152.1 -165.6,-264.3 -14.2,13.1 -31.4,25.7 -54.7,37.2 -11.5,5.6 -24,-7.1 -27.3,-14.1 -18,-35.8 -5.2,-78.6 11.4,-119.6 -18.4,14.2 -38,22.1 -52.9,7.8 -34,-32.2 -19.9,-83.5 -5.1,-129.4 -71.1,53.9 -155.7,81.5 -252.9,100 -18.2,3.4 -52.9,12.3 -89.2,18.6 -5.3,6 -10.8,11.9 -18.5,15.7 -46.5,23 -122.8,-13.1 -193.4,-57.2 -8.2,14.4 -27.5,28.4 -64.5,40.4 -113.9,37.4 -258.6,48.6 -384.8,27.1 66.3,46.3 113.9,110.6 111.7,182.6 -2.6,99.6 -209.4,40.5 -304.8,10 34.2,101 133,304.9 -77,257.1 -35.8,-8.2 -72.7,-27 -108,-51.4 -32.5,71.4 -104.2,122.5 -225.5,116.5 -80.5,-4 -144.3,-67 -188.2,-114.2 -7.7,-8.2 -14.4,-17 -20.8,-26.1 0.1,-0.2 0.2,-0.4 0.2,-0.6 -11.8,-16.4 -22.7,-33.4 -32.6,-50.6 10.7,176.4 -23.3,363.8 -157.7,517.4 -66.5,75.7 -101.5,-38.6 -119.2,-140.9 -15.9,51.5 -43.5,99.1 -94.8,103.4 -133.1,11.7 -222.3,-88.7 -300.7,-159.1 -95.3,-85.9 -28.3,3.8 -13.6,46.2 5.4,15.3 32.4,78.8 -2.6,96.1 -97,48.2 -187.6,-36.2 -268.5,-80.4 22.6,96.5 127,283.7 -66.6,209.8 -74.1,-28.4 -136.3,-80.3 -189.6,-135.9 -2.8,63.1 -20.2,121 -58.9,161.7 -5.9,6.1 -17.9,10 -26.5,8.9 -129.3,-15.3 -223.9,-163.9 -257.9,-303.8 -15.7,19.1 -35.1,38.3 -62.5,57.1 -13.5,9.2 -31.5,-4.6 -37.1,-12.8 -29.3,-42 -21,-98.5 -7.6,-153.5 -20.7,21.4 -43.9,35 -65.5,19.8 -48.8,-34.5 -40.4,-102.1 -30.1,-162.9 -80.1,81.3 -182,131.8 -301.6,172.9 -50.7,17.5 -202.8,87 -257.7,53.3 -90.2,-55.6 72.9,-245 188.6,-345.1 -44.5,9.7 -88.1,21.5 -134.2,21.9 -35.9,61.1 -80.6,118.8 -108.2,153.6 -13.3,17 -42.3,-0.9 -48.2,-11.2 -30.7,-54 -34.1,-120.8 -25.5,-189.4 -54.8,70.3 -123.1,123.1 -195.9,102.6 -57,-15.7 -38.4,-101.6 -5.5,-184.1 -40.8,39.1 -86.5,73.5 -151.2,93 -58.9,18 -175.6,50.4 -220.8,0.9 -63.5,-69.4 13.2,-167 72.6,-231 24.3,-26.3 52.6,-53.7 82.1,-81.4 -16.4,-2.2 -30.2,-6.6 -40.2,-14.1 -22.1,-16.2 -22.5,-39.5 -10.9,-65.9 -15.8,8.6 -31.3,17.4 -47.7,25.3 -69.1,33.4 -161.8,88.6 -240.3,92.2 -7.3,0.4 -14.3,-5.3 -15.4,-11 -10.3,-52.1 29.2,-112.8 63.3,-168 -77.1,-2 -172.5,-19.8 -185.6,-75.8 -7.7,-33.5 15,-67.8 51.2,-100.4 -23.9,-6.7 -41.9,-21.9 -50.1,-50.2 -3.1,-10.9 -2.9,-23.8 -1.6,-37.1 -17.1,18.9 -36.1,36.9 -55.7,54.6 -0.1,0.5 -0.3,0.9 -0.3,1.4 -2.3,2 -4.9,3.9 -7.1,5.8 -3.4,3 -7.1,5.8 -10.6,8.7 -22.5,18.8 -46.4,37.1 -73.1,54 -0.1,0 -0.1,0.1 -0.1,0.1 -20.7,12.8 -49.7,25.7 -80.4,34.4 8.6,39.3 3.4,77.3 -28.1,108 -2.7,2.7 -9.6,3.2 -13.3,2.4 -49.5,-11.7 -81.9,-36.4 -109.5,-66.3 27.6,108 56.1,278.8 -26.2,305.3 -49.3,16.1 -119.6,-30.6 -183.2,-84.5 -10.1,13.2 -31.2,24.2 -69.6,30.8 -118.2,20.6 -262.9,10.9 -384.7,-28.5 58.9,55.3 96.8,125.7 84.2,196.6 -16.9,98.2 -213,10 -303,-33.9 19.2,104.9 87.7,320.9 -113.2,243.4 -34.3,-13.3 -68.1,-37.2 -99.5,-66.5 -42.4,66 -120.7,106.4 -239.9,82.9 -79.1,-15.5 -133.1,-87 -169.8,-140 -6.5,-9.3 -11.8,-18.9 -16.8,-28.9 0.1,-0.2 0.2,-0.3 0.2,-0.5 -9.3,-17.9 -17.5,-36.3 -24.9,-54.9 -14.8,176.3 -75.4,356.7 -230.5,489.4 -76.7,65.4 -95,-52.7 -97.7,-156.6 -23.2,48.8 -57.3,91.8 -108.7,88.8 -133.4,-7.6 -207.3,-119.8 -274.7,-200.9 -81.9,-98.6 -28.6,-0.2 -20.1,44 3.1,15.8 20.7,82.6 -16.3,94.6 -103,33.7 -180.6,-62.8 -254.2,-118.2 8.4,98.8 84.7,299.1 -96,198.1 -69.5,-38.8 -123.4,-99.1 -168.2,-161.8 -11.8,62.1 -37.5,116.8 -81.5,151.5 -6.8,5.3 -19.1,7.4 -27.6,5.1 -125.7,-33.9 -197.9,-194.4 -211.5,-337.9 -18.3,16.8 -40.3,32.9 -70,47.6 -14.7,7.2 -30.6,-9.1 -34.9,-18 -23,-45.8 -6.6,-100.5 14.6,-153 -23.6,18.2 -48.5,28.3 -67.7,10.1 -43.3,-41.1 -25.3,-106.8 -6.4,-165.4 -91,68.9 -199,104.1 -323.3,127.8 -52.8,9.9 -213.17,56.8 -262.68,15.5 -81.26,-68 107.39,-232 236.28,-314.3 -45.4,3.1 -90.2,8.6 -136.03,2.2 -44.24,55.5 -96.68,106 -129.07,136.6 -15.67,14.8 -41.73,-7 -46.11,-18.1 -22.56,-57.9 -16.31,-124.3 1.95,-191.1 -64.21,61.7 -139.46,104.1 -208.62,73.4 -54.06,-23.7 -23.38,-106.1 21.19,-183 -46.03,32.9 -96.28,60.4 -163.09,70.3 -60.87,9.3 -181.09,24.6 -218.6,-30.9 -52.92,-77.8 36.93,-163.3 105.04,-218.1 27.93,-22.5 59.75,-45.6 92.95,-68.7 -15.91,-4.6 -28.98,-10.9 -37.83,-19.8 -19.48,-19.3 -16.48,-42.4 -1.22,-66.8 -16.8,6.3 -33.44,12.7 -50.81,18.2 -73.22,23.1 -172.9,64.4 -251.16,56.7 -7.31,-0.7 -13.31,-7.4 -13.63,-13.2 -2.68,-52.9 45.13,-107.4 86.77,-157.1 -75.98,-13.1 -167.87,-44.4 -172.66,-101.7 -2.84,-34.3 24.6,-65 65.11,-92 -22.73,-10.1 -38.32,-27.7 -42.38,-56.9 -1.54,-11.3 0.57,-24 3.73,-36.9 -19.64,16.3 -41.07,31.3 -62.99,46 -0.16,0.4 -0.32,0.9 -0.48,1.3 -2.52,1.7 -5.36,3.1 -7.96,4.8 -3.73,2.4 -7.71,4.7 -11.53,7 -25,15.4 -51.3,30 -80.2,42.9 -0.08,0.1 -0.16,0.1 -0.16,0.1 -30.44,13.4 -76.38,24.7 -119.65,25.2 -10.88,0.2 -21.51,-0.4 -31.66,-1.8 -30.6,-4.1 -57.14,-15.6 -71.84,-38.2 -17.45,-27.4 -24.6,-57.6 -24.19,-89.5 0.16,-16 2.19,-32.3 5.84,-49 18.1,-83.3 74.28,-173.4 124.29,-251.5 -53.42,35.6 -106.43,71.4 -164.96,95.3 -58.52,24.1 -122.65,36.2 -198.63,24.6 -13.96,-2.1 -23.94,-6.5 -30.6,-12.6 -3.25,-3.1 -5.77,-6.7 -7.47,-10.7 -1.7,-3.9 -2.68,-8.3 -3,-13 -3.58,-56.4 89.86,-162.3 140.59,-221 -78.17,28.7 -174.36,74.9 -235.49,29.5 -8.76,-6.5 -16.8,-14.9 -23.95,-25.4 -6.41,-9.5 -10.22,-19.3 -11.76,-29.3 -6.25,-40.1 23.38,-84.1 64.61,-126.4 30.85,-31.6 68.19,-62.1 101.88,-89.2 -0.09,-0.5 -0.25,-0.8 -0.57,-1.3 -35.15,12.4 -75.9,25.2 -119.09,36.8 -28.82,7.8 -58.61,14.9 -88.56,21.1 -15.02,3 -29.95,5.9 -44.89,8.3 -44.64,7.4 -88.4,11.8 -128.1,11.6 -52.92,-0.3 -98.46,-8.9 -128.98,-30 -22.89,-15.6 -37.34,-38.3 -40.02,-69.7 -2.76,-30.1 40.18,-57.4 64.05,-74.7 35.79,-25.9 70.54,-53.3 105.53,-80.6 -5.85,-0.6 -11.53,-2 -16.73,-4.2 -5.19,-2.2 -9.98,-5.2 -14.28,-9.2 -19.49,-18.6 -27.44,-42.4 -28.41,-67.8 -0.98,-25.5 5.03,-52.6 13.39,-77.6 -2.19,-4 -3.25,-8.3 -0.08,-12.6 2.19,-3.2 5.19,-5.9 7.79,-8.8 3.33,-8 6.33,-15.6 9.74,-22.6 21.03,-46.9 50.82,-87.6 83.61,-126.4 -1.13,0.1 -2.51,0.2 -3.65,0.5 -46.03,51.4 -87.59,104.9 -126.07,149.9 -26.54,30.7 -111.21,140.7 -169.49,118 -30.36,-11.7 -34.91,-37.3 -29.54,-64.6 5.35,-27.3 20.53,-56.3 29.86,-75.1 7.96,-16.2 19,-33.1 31.66,-50 16.73,-22.5 36.69,-45.4 59.1,-67.8 -8.12,-0.1 -16.23,-0.4 -24.43,-0.8 -16.32,-0.7 -32.63,-1.8 -48.47,-3.4 -7.95,-0.8 -15.74,-1.7 -23.29,-2.7 -9.25,-1.3 -18.11,-2.8 -26.71,-4.5 -33.85,-6.6 -62.1,-16.6 -78.01,-31.3 -9.74,-9.1 -14.69,-20 -13.8,-33.1 0,-0.2 -0.08,-0.5 -0.08,-0.8 0.81,-8.9 4.46,-18.8 11.45,-29.9 3.49,-5.5 7.79,-11.2 12.91,-17.3 5.84,-6.8 12.41,-13.2 19.64,-19.4 28.81,-24.9 67.86,-45.9 107.55,-63.3 29.8,-13.2 59.91,-24.2 86.38,-33.6 36.12,-12.5 75.32,-27.1 116.32,-41.4 40.91,-14.3 83.53,-28.5 126.39,-40.6 -14.94,-3.7 -29.47,-7.9 -43.02,-11.3 -27.85,-7.4 -71.19,-19.7 -116.74,-35.6 -19.72,-6.9 -39.53,-14.6 -59.01,-22.6 -55.36,-23 -105.61,-50.2 -125.01,-79.3 -4.87,-7.2 -8.11,-13.6 -10.31,-19.7 -0.73,-2.1 -0.81,-3.9 -1.3,-5.9 -0.89,-3.7 -1.54,-7.3 -1.38,-10.6 0.09,-1.9 0.57,-3.6 0.98,-5.3 0.73,-2.9 1.78,-5.7 3.41,-8.2 0.89,-1.4 1.95,-2.8 3.16,-4.1 2.19,-2.4 4.96,-4.6 8.12,-6.5 1.46,-1 2.84,-2 4.46,-2.8 4.06,-2 8.77,-3.8 13.8,-5.3 1.55,-0.5 2.77,-1 4.39,-1.4 6.98,-1.8 14.69,-3.4 23.29,-4.3 0.74,-0.1 1.71,-0.1 2.52,-0.3 7.55,-0.8 15.51,-1.4 24.03,-1.7 5.36,-0.2 11.04,-0.1 16.72,-0.2 3.98,0 7.88,0 12.02,0.1 2.51,0.1 4.79,-0.1 7.3,0 0.08,0.1 0.08,0.2 0.08,0.2 66.24,2.3 149.04,14.6 224.61,28.6 -108.44,-68.1 -198.71,-148.8 -229.88,-244.9 -25.57,-80.1 128.5,-40.4 270.88,10.8 -10.39,-7.9 -21.11,-15.6 -30.77,-24.4 -80.44,-75.1 -143.84,-162.3 -190.6,-255.3 -99.19,-197.9 156.51,-111.8 267.88,-62.3 37.91,16.7 75.74,34.1 113,52.2 -19.81,-16.5 -37.75,-34 -55.85,-52.1 -54.88,-54 -103.09,-130.3 -119.17,-203.7 -0.16,1.5 -0.81,3 -0.89,4.5 -2.44,-10.3 -4.38,-20.797 -5.36,-31 -6.57,-64.797 4.06,-133.898 34.02,-185.098 -82.72,-74.601 -193.2,-175.3 -179.24,-269.601 1.38,-9.199 12.58,-18 23.95,-17.699 98.54,3.699 228.1,48.898 311.79,83.898 53.41,22.301 104.31,45.402 154.56,69.102 -81.75,-66.2 -156.35,-138.301 -157.65,-217.301 -0.16,-9.199 3.58,-14.399 12.67,-18.797 73.13,-36.102 219.09,57.797 309.93,120.598 -16.08,-49.7 -19.81,-99.899 -14.62,-151.602 154.97,52 310.17,102.801 466.84,149.5 7.63,2.203 15.34,4.402 23.06,6.699 v 0 c 13.96,4.102 28,8.004 41.96,12.203 v 0 c 177.29,51.801 356.52,99.2 537.22,139.399 6.57,1.402 13.07,3 19.64,4.402 87.67,19.297 175.75,36.699 264.14,52.098 5.93,1 11.86,1.898 17.87,2.902 89.46,15.199 179.26,28.598 269.36,38.899 4,0.5 7.9,1.199 11.9,1.601 60.6,6.899 121.5,12.699 182.4,17.098 59.7,4.199 119.6,6.902 179.6,8.402 -4.2,7.699 -8.3,15.598 -12.5,23.899 5.3,67.398 -29.7,146.101 -58.6,220.098 75.1,-103.2 188,-242.598 299.4,-199.598 42.7,16.5 52.5,52.898 57.1,87.8 3.7,28.2 3.9,56.998 1.9,85.998 38.7,-72.701 86.6,-114.599 135.9,-39.7 49.5,75.5 68.4,161.8 98.9,243.9 -24.1,-64.4 -5,-141.6 -15.8,-208.1 -7.1,-43.098 -6.3,-99.398 5.6,-143.098 1.3,-4.8 7.3,-7.8 13.3,-6.5 151.3,32.399 276.9,154.398 365.5,254.398 -13.1,-15.8 -26.3,-31.4 -38.6,-47.9 -25.3,-33.2 -44.8,-57.3 -42.1,-97.798 5.7,-85.5 231,57.698 237,61.698 77.4,50.4 135,125.1 174.3,205.4 0.4,-39.2 3,-79 12.5,-120 7.2,-31.1 54.9,-144.9 105,-144.9 33.5,0.3 70.7,1.6 79.2,36 15,58.7 44.7,114.5 72.5,170.8 5.5,-91 26.2,-201.4 96.8,-209.498 -29.3,-44.102 -57.4,-93.801 -59.9,-134.903 -0.9,-11.699 10.8,-21.699 25.4,-18.398 88.4,19.402 161.2,64.5 236.7,105.101 C 12314.4,857.301 12198.7,728 12279,665 c 47.8,-37.5 114.1,-25.398 163.2,6.102 2.4,-12.7 6.2,-25.801 10,-38.801 16.5,-56.098 95.9,-250.602 175.8,-265.699 72.1,-13.5 89.6,60.199 88.7,143.199 22.9,-57.899 48.6,-114.801 79.3,-175.899 16.7,-32.902 65.9,-147 128.9,-136.101 77.9,13.402 70.2,137.402 78.1,183.5 5.8,33.601 7.5,67.402 6.2,100.801 28.8,-52.301 62.2,-102.399 109.9,-147.2 49.1,-46 179.5,-205.199 276.4,-167.601 90.5,35 84.7,186.101 91.5,252.5 1.4,12.199 1,23.601 1.4,35.199 15.5,-16.699 30.6,-33.598 46.4,-50.398 13.1,-13.801 29.3,-10.801 44.8,-2.801 47.7,24.703 41.4,53.199 34.2,98.5 -8.7,54.5 -23.7,108.703 -43,162.199 61,-58.398 124.9,-112.898 210.1,-153.598 56.2,-27.101 164.9,-56.199 221.9,-20.5 69.8,43.801 -25.5,154.5 -128.8,247.5 150.6,-76.101 324.2,-141.402 473.7,-109.699 -1.1,-19.402 -2.3,-38.801 -1.6,-57.902 1.8,-57.899 63.4,-106.797 122,-56.699 123.5,105.199 212.2,232.8 294.5,363.898 -16.8,-118.598 -14.4,-271.398 152.4,-233.297 89,20.199 117.8,127.598 143.3,190 26.2,64.199 27.8,125.199 22.6,189.197 51.7,-64.998 96.1,-120.798 199.8,-168.4 52.4,-23.898 110.1,16.602 118.4,56.102 22.8,108.598 -12.1,222.898 -50.5,331.798 -3.8,10.5 -7.9,22.1 -11.8,33.8 15,66 -8.3,148.8 -26.3,226.3 59.5,-113 151.1,-267.2 267.6,-240.7 44.6,10.2 59.5,44.8 69.1,78.7 7.7,27.4 12,55.9 14.3,84.8 27.8,-77.4 69.1,-125.9 128.7,-58.9 59.9,67.7 91,150.4 133,227.2 -33.1,-60.3 -25.3,-139.3 -45.6,-203.6 -13.2,-41.7 -20.5,-97.4 -14.9,-142.4 0.4,-5 6,-8.8 12,-8.4 154.5,10.3 296.4,113 398.4,199.2 -15.1,-13.7 -30.6,-27.3 -45,-41.9 -29.9,-29.3 -52.6,-50.2 -55.8,-90.7 -6.7,-85.4 236.8,23.9 243.4,27 83.8,38.7 151.5,104.3 202,178.2 -5.2,-38.9 -8.3,-78.6 -4.9,-120.6 2.7,-31.8 33.5,-151.2 83,-158.4 33.2,-4.6 70.2,-8.7 83.6,24.1 23.3,56 60.8,106.9 96.3,158.6 -7.6,-90.8 -3,-203.1 65.8,-221.2 -35.4,-39.4 -70.4,-84.5 -78.8,-124.9 -2.5,-11.4 7.7,-23.1 22.5,-21.8 90.4,6.5 168.8,40.6 249.3,69.9 -96.9,-67.9 -209.4,-160.598 -191.7,-232.2 172.9,-43.801 348.1,-78.199 524.1,-108.5 222.8,-38.398 446.4,-71 666.9,-121.598 37,-8.5 73.6,-18.601 110.4,-27.601 -2.1,12.601 -3.6,25.402 -6.2,38.101 12.2,-15.601 24.5,-30.8 37.3,-45.902 129.7,-32.297 258.9,-66.797 387.5,-103.496 -17.4,51.797 -63.6,117.5 -114.2,178.297 170.7,-119.801 378.8,-231 558.9,-153.199 121.4,52.199 -118,261.601 -276.6,392 95.1,-41.801 189.1,-86.301 290.4,-117.801 68.8,-21.399 161.8,-56.199 220.6,-13.699 69.6,50.398 -41.4,145.8 -130.4,214.798 72.8,-29.4 156.4,-51.798 180.5,-7.6 25.9,46.9 -12.9,101.9 -76.5,154.4 216.6,-25.3 438.7,1.4 526.3,142 74.1,120.1 12.9,207.8 -97.8,264.4 25,1.3 51.3,4.7 72.9,12.3 h 37 c 1.2,-6.4 1.1,-13.4 2.7,-19.3 1,-3.8 5.8,-6.1 10.4,-5.1 24.4,5.2 47.7,14 70.4,24.4 h 252.4 391.8 c 15,-23.6 39.2,-40 69.5,-45.1 0,0 -0.1,-0.1 -0.1,-0.2 -0.6,-9.2 8.6,-17 20,-14.3 53,11.6 98.8,35.1 143.9,59.6 h 18 c -70.9,-70.2 -138.9,-156.7 -82.2,-201.2 37.4,-29.3 89.3,-19.8 127.7,4.9 1.8,-10 4.8,-20.2 7.8,-30.4 12.9,-43.9 75.1,-196.1 137.5,-207.9 56.4,-10.5 70.1,47.1 69.4,112 17.9,-45.2 38,-89.8 62,-137.5 13.1,-25.8 51.6,-115 100.9,-106.5 60.9,10.5 55,107.5 61.1,143.5 4.5,26.4 5.8,52.8 4.8,78.9 22.5,-40.9 48.7,-80.1 86,-115.2 38.5,-35.9 140.4,-160.598 216.2,-131.098 70.8,27.398 66.3,145.598 71.5,197.598 1.3,9.5 0.9,18.4 1.3,27.5 12.1,-13 23.9,-26.4 36.2,-39.4 10.2,-10.8 22.9,-8.6 35.1,-2.2 37.3,19.4 32.4,41.5 26.6,77 -6.7,42.6 -18.5,85.1 -33.6,127 47.8,-45.7 97.8,-88.4 164.5,-120.3 43.9,-21.1 129,-43.9 173.6,-16 54.6,34.3 -20,120.9 -100.8,193.7 117.8,-59.6 253.7,-110.7 370.6,-85.8 -0.8,-15.2 -1.7,-30.5 -1.3,-45.3 1.5,-45.3 49.6,-83.6 95.4,-44.4 96.7,82.3 166.1,182.1 230.4,284.7 -13.1,-92.9 -11.2,-212.4 119.3,-182.5 69.6,15.8 92.2,99.7 112.1,148.6 9.7,23.9 14.9,47.1 17.4,70.3 h 71.8 c 22.4,-19.3 48.5,-37.4 84.8,-54 41.1,-18.7 86.1,12.9 92.6,43.8 0.7,3.4 0.3,6.9 0.8,10.2 h 599.5 c 17.8,42.6 17.1,89.8 8.1,134.9 -5.1,25.5 -10.4,51 -15.3,76.3 0,0 -0.2,-0.2 -0.2,-0.4 -7.4,36 -15.6,71.7 -24.2,107.1 42.7,26.5 81.8,56.7 115.1,84.8 -11.9,-10.6 -23.9,-21.4 -35.3,-32.7 -23.3,-22.9 -41.1,-39.3 -43.6,-71 -5.2,-66.8 185.4,18.7 190.5,21.1 65.6,30.4 118.5,81.6 158,139.4 -4,-30.3 -6.6,-61.4 -3.9,-94.3 2.1,-24.9 26.3,-118.3 65,-124 26,-3.5 54.9,-6.7 65.5,19 18.2,43.8 47.5,83.6 75.2,124 -5.9,-71 -2.3,-158.8 51.5,-173 -27.7,-30.8 -55.1,-66.2 -61.6,-97.7 -2,-9 6,-18.1 17.6,-17.1 70.7,5.1 132.1,31.8 195,54.7 -75.8,-53.1 -163.8,-125.6 -150,-181.6 135.3,-34.4 272.4,-61.2 410.1,-84.9 174.2,-30.2 349.2,-55.6 521.7,-95.2 25.7,-5.9 51.2,-12.8 76.8,-19.2 0,-0.7 -0.2,-1.4 -0.3,-2 -7.1,-69.6 4.3,-143.9 36.5,-198.8 -88.8,-80.3 -207.6,-188.499 -192.6,-289.898 1.5,-9.8 13.5,-19.3 25.7,-19 106,4 245.2,52.7 335.1,90.2 57.4,24 112.1,48.8 166,74.198 -87.7,-71.198 -167.8,-148.597 -169.3,-233.499 -0.2,-9.797 3.8,-15.399 13.6,-20.199 78.6,-38.7 235.5,62.101 333.1,129.601 -17.3,-53.402 -21.3,-107.402 -15.7,-162.902 166.4,55.902 333.3,110.5 501.6,160.699 8.2,2.402 16.5,4.703 24.8,7.203 v 0 c 15.3,4.399 30.7,8.797 46.2,13.301 184.6,53.898 371.2,103.396 559.3,145.796 14.7,3.3 29.4,6.6 44.2,9.9 36.9,8 73.7,15.7 110.7,23.1 18.2,3.7 36.5,7.2 54.7,10.7 36.1,7 72.1,13.8 108.3,20.1 17.9,3.1 35.9,5.9 53.8,8.8 85.7,14.2 171.5,26.7 257.7,36.7 4.6,0.6 9.2,1.3 13.9,1.8 65.2,7.4 130.6,13.6 196.1,18.4 64,4.6 128.4,7.4 192.9,9 -4.4,8.3 -9,16.8 -13.5,25.7 5.8,72.4 -31.8,157 -62.8,236.5 80.7,-110.9 201.9,-260.7 321.7,-214.5 45.8,17.8 56.4,56.9 61.3,94.4 4,30.3 4.2,61.3 2.1,92.4 41.5,-78 93,-123.2 146.1,-42.7 53.1,81.2 73.4,173.9 106.2,262.2 -25.9,-69.3 -5.3,-152.2 -17.1,-223.7 -7.6,-46.3 -6.7,-106.8 6.2,-153.7 1.3,-5.3 7.8,-8.4 14.2,-7.1 162.6,34.9 297.6,166 392.9,273.4 -14.1,-16.9 -28.4,-33.7 -41.5,-51.4 -27.2,-35.8 -48.2,-61.6 -45.3,-105.2 6.1,-91.9 248.2,62.1 254.7,66.4 83.1,54.2 145,134.3 187.3,220.7 0.5,-42.2 3.2,-84.8 13.4,-129 7.7,-33.4 59,-155.6 112.8,-155.6 36.1,0.2 76,1.6 85.2,38.6 16,63.1 48,123.1 77.8,183.6 6,-97.8 28.2,-216.5 104.2,-225.1 -31.6,-47.5 -61.8,-100.8 -64.6,-145 -0.8,-12.7 11.8,-23.4 27.4,-19.8 95,20.9 173.2,69.3 254.3,112.9 -106.7,-100.6 -231,-239.6 -144.8,-307.2 51.4,-40.299 122.6,-27.299 175.4,6.6 2.6,-13.7 6.7,-27.696 10.7,-41.798 17.8,-60.199 103.1,-269.3 188.9,-285.5 77.5,-14.5 96.3,64.797 95.4,153.899 24.6,-62.199 52.2,-123.301 85.1,-189 18.1,-35.399 70.9,-157.899 138.6,-146.199 83.7,14.3 75.5,147.601 83.9,197 6.2,36.3 8,72.5 6.7,108.5 30.9,-56.301 66.9,-110 118.1,-158.2 52.8,-49.5 192.9,-220.601 297,-180.101 97.2,37.601 91,200 98.2,271.398 1.6,13.004 1.1,25.203 1.7,37.801 16.6,-17.996 32.9,-36.297 49.8,-54.297 14,-14.703 31.5,-11.601 48.2,-2.902 51.1,26.5 44.4,57.101 36.6,105.801 -9.2,58.597 -25.4,116.898 -46.1,174.298 65.6,-62.697 134.2,-121.298 225.8,-165.099 60.4,-29 177.2,-60.399 238.5,-22 74.9,47.101 -27.5,166 -138.5,265.999 200,-101.097 438.6,-187.198 618,-76.7 121.1,74.3 -165.9,260 -354.8,374.2 107.7,-29.7 214.4,-62.5 327,-80.4 76.6,-12.1 180.9,-34.7 236.8,19.6 66.3,64.3 -66.5,148.6 -171.8,208.2 81.9,-19.9 174.3,-30.9 193.1,19.9 20.3,53.8 -29.6,106.3 -105.2,152.3 234.2,6.6 466.2,69.3 537.6,232.4 60.2,139.1 -18.4,222.9 -144.7,266.1 53.9,10.7 113.4,30.5 117.3,76.6 3.8,43.5 -25.4,73 -73,92.7 55,42.3 55.3,86.2 -30.1,101.5 38.2,10.4 76,23.7 112,33.6 62.7,17.2 108.2,48.6 143.3,93.1 63.8,80.9 -46.4,108.1 -154.2,116.8" 
                />
              </g>
            </g>
          </svg>