          <svg xmlns="http://www.w3.org/2000/svg" version="1.1" viewBox="49.431 -1.598 3651.22 1467.35">
            <g id="g8" transform="matrix(1.3333333,0,0,-1.3333333,0,2403.3067)">
              <g id="g10" transform="scale(0.1)">
                <path class="forest-1" style="fill: rgb(164, 231, 178); fill-opacity: 1; fill-rule: nonzero; stroke: none;" id="path20"
                  d="M 10797 19780 C 10797.2 19779.9 10797.3 19779.7 10797.6 19779.5 C 10874.3 19719.8 10988.1 19721.2 11093.9 19737.6 C 11080.5 19727.2 11068.5 19716.1 11058.1 19704.4 C 10990.7 19720.8 10923.3 19725.1 10868.4 19681.8 C 10834.1 19654.8 10821.8 19620.9 10824.7 19585.2 C 10815.3 19582.4 10806.6 19578.8 10798.5 19574.8 C 10791 19617.7 10783.6 19660.6 10776.7 19702.8 C 10772.8 19726.5 10769.4 19749.5 10765.7 19773 C 10776.1 19775.1 10786.7 19777.5 10797 19780 Z M 10136 19622.7 C 10143.9 19613.3 10152.2 19604.6 10160.8 19597.2 C 10167.2 19591.7 10173.6 19587.2 10180 19582.6 C 10153.5 19579.4 10126.8 19578.1 10100.1 19579.7 C 10098.6 19579.8 10097.1 19580.2 10095.5 19580.2 C 10109.1 19594.3 10123.6 19608 10136 19622.7 Z M 11057.4 18592.1 C 11055.1 18587.9 11052.8 18583.7 11050.4 18579.5 C 11047.2 18573.9 11044.2 18567.5 11041.5 18560.5 C 11038.8 18568.4 11036.2 18576.3 11033.6 18584.3 C 11041.5 18586.9 11049.6 18589.2 11057.4 18592.1 Z M 9134.3 19600.8 C 9152.4 19671.5 9168.47 19741.9 9182.35 19811.9 C 9185.03 19814 9187.79 19816 9190.47 19818 C 9192.09 19803.1 9196.56 19788 9204.35 19772.7 C 9219.13 19743.6 9253.95 19725.7 9294.29 19716.1 C 9277.33 19702 9259.79 19687.6 9240.8 19673.3 C 9207.6 19648.2 9171.8 19623.6 9134.3 19600.8 Z M 6610.49 20836.8 C 6627.53 20793.9 6653.51 20758.1 6690.44 20738.3 C 6748.16 20707.4 6823.57 20748.4 6870.89 20783.7 C 6867.41 20757.8 6864.32 20731.6 6862.05 20705.5 C 6854.99 20624.9 6887.94 20516.3 7025.05 20509.6 C 7141.69 20503.8 7246.33 20560.4 7329.21 20619.2 C 7349.83 20604 7374.75 20591.9 7405.51 20585.8 C 7423.21 20474.7 7442.29 20361.9 7463.72 20247.1 C 7466.72 20231.1 7470.21 20214.8 7473.3 20198.7 C 7439.77 20227.2 7393.66 20249.8 7337.16 20264.1 C 7336.84 20263.8 7336.11 20263.6 7335.95 20263.2 C 7318.25 20232.8 7369.15 20191.8 7393.99 20169.2 C 7402.59 20161.4 7414.93 20152.4 7429.14 20144 C 7443.18 20141 7457.87 20139.4 7472.16 20137 C 7461.45 20125.2 7450.89 20113.2 7440.58 20101.1 C 7436.44 20096.3 7432.3 20091.5 7428.24 20086.6 C 7408.6 20063.3 7389.6 20039.7 7370.93 20015.8 C 7365.82 20009.3 7360.7 20002.7 7355.67 19996.1 C 7338.79 19974.3 7322.07 19952.3 7305.51 19930 C 7259.48 19868.3 7213.86 19805.7 7164.91 19743.1 C 7162.15 19739.6 7159.31 19735.9 7156.47 19732.4 C 7156.47 19732.5 7156.47 19732.5 7156.47 19732.5 C 7148.52 19722.3 7140.48 19712 7132.12 19701.7 C 7131.55 19701 7012.95 19842.3 7000.94 19861.3 C 6956.94 19930.5 6912.38 19999.3 6867.24 20068 C 6775.27 20208.7 6684.68 20350.9 6634.76 20502.8 C 6606.02 20590.3 6582.97 20678.5 6562.03 20767 C 6580.13 20789.4 6596.52 20812.5 6610.49 20836.8 Z M 4200.81 20673.7 C 4190.34 20689.5 4172.48 20705.2 4161.19 20715.9 C 4153.97 20722.8 4143.42 20730.9 4130.59 20738.8 C 4112.97 20743 4094.31 20746.2 4076.04 20749.6 C 4074.17 20801.3 4071.98 20852 4069.47 20901.3 C 4098.61 20893.1 4123.2 20878.2 4129.13 20854.2 C 4138.22 20817.4 4115.9 20782.2 4086.11 20751.3 C 4177.35 20779.4 4291.4 20756.7 4367.13 20709.9 C 4375.58 20704.6 4367.87 20696.6 4359.1 20695.8 C 4306.09 20691.5 4252.43 20684.6 4200.81 20673.7 Z M 4077.74 20697.2 C 4094.14 20682.7 4114.76 20669.6 4139.84 20658.2 C 4118.9 20651.9 4098.85 20644.7 4079.29 20636.7 C 4078.8 20657.1 4078.32 20677.2 4077.74 20697.2 Z M 3820.18 20784.5 C 3824.48 20802.5 3832.51 20819.6 3843.8 20835.1 C 3883.66 20829.1 3928.3 20832.2 3962.56 20844.2 C 3965.89 20772.6 3968.4 20698.6 3970.02 20622.4 C 3900.05 20683.3 3828.21 20743 3755.56 20802.1 C 3758.24 20802.3 3760.43 20803.2 3763.19 20803.2 C 3789.33 20803.7 3807.6 20796.1 3820.18 20784.5 Z M 3959.88 20899.8 C 3955.09 20900.4 3950.14 20900.9 3945.11 20901.2 C 3949.65 20902.3 3954.85 20902.8 3959.72 20903.8 C 3959.8 20902.4 3959.8 20901.1 3959.88 20899.8 Z M 3481.51 20666.5 C 3485.41 20648.8 3488.82 20631.5 3493.04 20613.7 C 3500.67 20581 3509.6 20547.5 3518.37 20514.1 C 3443.2 20504.2 3347.09 20531.4 3357.64 20588.7 C 3365.52 20631.4 3421.37 20659.4 3481.51 20666.5 Z M 3727.72 20540.8 C 3691.92 20540 3655.72 20532.4 3628.53 20518.8 C 3618.86 20555 3609.37 20591.2 3601.01 20627 C 3593.78 20657.9 3587.45 20688.4 3580.96 20718.9 C 3620.65 20682.8 3660.18 20646.3 3700.12 20608.6 C 3719.36 20590.5 3739.17 20572.5 3759.05 20554.7 C 3746.23 20551.6 3736 20546.8 3727.72 20540.8 Z M 3754.26 20540.2 C 3756.37 20544.6 3758.16 20549.1 3760.6 20553.3 C 3766.52 20548 3772.29 20542.4 3778.37 20537.1 C 3770.66 20538.7 3762.54 20539.6 3754.26 20540.2 Z M 3849.8 20415.2 C 3833 20379 3820.1 20341.6 3809.3 20304.3 C 3800.62 20301.2 3792.17 20298 3784.87 20294.2 C 3729.02 20349.8 3717.41 20415.8 3732.43 20480.3 C 3760.43 20488.3 3788.03 20498.5 3809.46 20510.1 C 3822.61 20498.7 3835.76 20487.2 3849.08 20475.8 C 3829.35 20456.4 3816.69 20435.4 3811.82 20413.5 C 3825.29 20413.2 3837.87 20413.9 3849.8 20415.2 Z M 3654.09 20428.8 C 3650.6 20440.7 3646.79 20452.5 3643.46 20464.2 C 3656.04 20464.2 3669.11 20465.4 3682.5 20467.9 C 3680.07 20462.4 3677.39 20457.1 3674.38 20452 C 3669.84 20444.4 3662.78 20436 3654.09 20428.8 Z M 6176.36 20832.5 C 6175.63 20833 6174.98 20833.5 6174.25 20834 C 6175.39 20834.9 6176.69 20835.8 6177.82 20836.6 C 6177.26 20835.2 6176.85 20833.8 6176.36 20832.5 Z M 7591.65 21567 C 7523.62 21560.5 7457.55 21552.3 7392.93 21539.6 C 7391.39 21554.9 7389.77 21570.3 7388.22 21585.5 C 7420.29 21593.6 7450.24 21604.2 7471.51 21622.4 C 7478.16 21628.1 7483.36 21634.2 7488.88 21640.3 C 7535.88 21629.4 7575.98 21609.9 7601.55 21579.4 C 7606.5 21573.5 7599.85 21567.7 7591.65 21567 Z M 7382.3 21643.2 C 7382.06 21645.8 7381.81 21648.2 7381.57 21650.9 C 7382.95 21650.9 7384.33 21651 7385.63 21651 C 7384.57 21648.4 7383.19 21645.9 7382.3 21643.2 Z M 7542.94 21435.4 C 7495.13 21442.6 7448.37 21448.4 7402.43 21449.9 C 7399.83 21474 7397.24 21497.8 7394.8 21521.5 C 7463.63 21513.5 7527.44 21490.5 7555.85 21447.5 C 7560.23 21440.9 7553.17 21433.8 7542.94 21435.4 Z M 7792.31 20405.3 C 7756.03 20383.3 7722.42 20360.3 7690.6 20336.8 C 7688.33 20335.3 7685.97 20333.7 7683.86 20332.1 C 7653.67 20309.6 7625.5 20286.3 7598.63 20262.7 C 7595.38 20259.8 7591.97 20257 7588.81 20254.2 C 7584.26 20250.1 7579.88 20246.1 7575.42 20241.9 C 7574.36 20247.2 7573.22 20252.6 7572.25 20257.8 C 7562.59 20309.6 7553.58 20360.8 7544.73 20411.8 C 7576.14 20421.1 7605.21 20432.8 7625.18 20451.8 C 7662.27 20487 7678.67 20528 7679.48 20569.1 C 7595.55 20564.3 7548.62 20520.3 7534.82 20469.7 C 7524.6 20530.6 7514.78 20590.8 7505.52 20650.4 C 7507.71 20649.9 7509.34 20649 7511.53 20648.4 C 7614.05 20624 7715.44 20672.5 7797.75 20711.9 C 7844.43 20734.4 7890.86 20757.5 7934.61 20782.9 C 7931.77 20758.2 7941.51 20734.7 7977.15 20714.8 C 8035.84 20682.1 8144.61 20716.6 8200.79 20735.1 C 8212.48 20738.9 8223.27 20743.7 8234.72 20747.8 C 8119.29 20615.8 7971.55 20514.2 7792.31 20405.3 Z M 9152.4 20371.8 C 9152.24 20369.8 9152.08 20367.9 9151.91 20365.9 C 9146.23 20366.3 9140.55 20366.9 9135.03 20366.9 C 9141.04 20368.3 9146.8 20369.9 9152.4 20371.8 Z M 9466.3 20526.8 C 9468.41 20526.7 9470.44 20526.3 9472.55 20526.3 C 9471.42 20524 9469.71 20522 9468.33 20519.7 C 9467.6 20522.1 9467.04 20524.5 9466.3 20526.8 Z M 9274.89 20526.9 C 9282.44 20518.7 9290.56 20510.7 9298.11 20504.1 C 9311.18 20492.7 9342.68 20472.9 9371.17 20468.5 C 9374.9 20456 9378.07 20443.6 9381.88 20431.1 C 9382.45 20429.4 9383.1 20427.7 9383.58 20426 C 9373.6 20432 9363.21 20437.6 9353.72 20442.2 C 9336.99 20450.1 9299.57 20462.4 9270.43 20461.1 C 9272.21 20483.2 9273.35 20504.9 9274.89 20526.9 Z M 9439.43 20620.4 C 9449.75 20614.3 9458.43 20607.1 9464.68 20598.8 C 9458.75 20596.3 9453.23 20593.5 9448.04 20590.5 C 9445.28 20600.4 9442.11 20610.5 9439.43 20620.4 Z M 9281.95 20632.9 C 9295.27 20635.6 9309.23 20637.3 9323.27 20638.4 C 9327.25 20623.4 9331.23 20608.3 9335.37 20593.4 C 9320.76 20605.3 9302.9 20615.2 9281.3 20622.3 C 9281.47 20625.8 9281.79 20629.4 9281.95 20632.9 Z M 8896.46 20382.9 C 8889.31 20381.1 8884.77 20387.3 8887.45 20391.3 C 8910.74 20426.1 8953.6 20467 9004.91 20482.8 C 8963.59 20493.8 8930.14 20511.8 8952.22 20540.2 C 8966.19 20558.3 8996.95 20560.1 9025.93 20553.6 C 9026.09 20556.9 9026.82 20560.4 9028.69 20564 C 9039.24 20585 9073.5 20599.1 9100.69 20606.5 C 9125.13 20613.3 9149.64 20615.2 9170.99 20613 C 9167.66 20556.2 9163.6 20498.6 9158.81 20440.3 C 9140.47 20444.7 9120.58 20445.9 9098.17 20444 C 9055.64 20440.4 9005.23 20433.6 8970.32 20417.7 C 8961.4 20413.6 8970.81 20403.8 8974.87 20400.1 C 8999.71 20376.6 9041.03 20364.3 9082.59 20362.8 C 9018.87 20352.3 8961.07 20323.5 8915.78 20285 C 8912.12 20282 8903.68 20283.5 8902.63 20287.6 C 8891.26 20330.1 8919.92 20371 8958.15 20403.6 C 8937.93 20396.1 8917.72 20388.7 8896.46 20382.9 Z M 9368.16 20250.9 C 9368.08 20243.5 9352.82 20243.6 9352.25 20250.9 C 9348.6 20303 9313.21 20344.9 9262.31 20372.9 C 9263.45 20386.2 9264.83 20399.4 9265.96 20412.5 C 9292.02 20387.5 9323.6 20360.6 9366.62 20346.1 C 9372.63 20315.7 9368.57 20282.5 9368.16 20250.9 Z M 6698.4 21503.5 C 6692.15 21508.3 6695.31 21515 6703.35 21517.2 C 6747.92 21529.1 6812.86 21521.3 6860.91 21500 C 6817.48 21529.9 6756.2 21547.5 6719.42 21583.4 C 6715.04 21587.8 6719.58 21594.3 6726.24 21595.6 C 6805.63 21609.6 6914.65 21595.2 6964.33 21544.3 C 6980.97 21585.8 7021.47 21618.3 7080.33 21632.6 C 7087.88 21634.5 7094.13 21629.7 7094.78 21624.7 C 7096.88 21607.4 7093.64 21591.4 7088.61 21575.3 C 7134.55 21604.7 7201.52 21627.9 7272.79 21640.7 C 7273.2 21637 7273.53 21633.5 7273.85 21630 C 7279.94 21569.1 7286.51 21506.3 7293.33 21442.4 C 7271.74 21438.2 7250.22 21431.8 7228.8 21423.8 C 7210.85 21432.3 7191.38 21439.9 7170.02 21446.3 C 7169.78 21446 7168.97 21445.8 7168.81 21445.4 C 7159.72 21432.1 7164.83 21416.1 7174.9 21400.2 C 7091.28 21358.8 7020.83 21302.4 6991.52 21230.8 C 6989.25 21225.1 6978.45 21222.6 6972.53 21227.2 C 6911.08 21275.3 6889.48 21358.8 6951.67 21408 C 6894.36 21400.4 6850.52 21371.8 6824.79 21332 C 6821.05 21326.1 6809.2 21327.2 6805.06 21332 C 6737.04 21413.4 6607.08 21371.6 6500.9 21377.5 C 6491.48 21377.8 6487.5 21383.9 6491 21389.8 C 6533.21 21461.3 6643.36 21493 6741.83 21475.5 C 6726.73 21484.2 6711.71 21493.2 6698.4 21503.5 Z M 4910.11 20240.3 C 4876.67 20241.5 4844.28 20240.6 4817.17 20232.2 C 4797.04 20225.9 4780.15 20218 4764.97 20209.3 C 4710.02 20224.6 4656.2 20241.8 4603.11 20260.3 C 4577.7 20357.2 4502.45 20449.3 4419.09 20523.7 C 4408.94 20532.7 4398.22 20542 4387.27 20551.3 C 4402.93 20553.4 4417.95 20555.9 4431.91 20559.1 C 4452.45 20564 4474.29 20575.7 4494.25 20591.1 C 4500.5 20586.3 4507.08 20581.4 4514.06 20576.6 C 4578.52 20532.1 4695 20554.5 4763.27 20580.3 C 4822.61 20602.8 4884.22 20635.2 4938.6 20674 C 4939.5 20669.2 4940.47 20664.4 4941.69 20659.8 C 4946.16 20642 4953.46 20624.5 4962.31 20607.7 C 4961.09 20607.7 4960.04 20608 4958.82 20608 C 4916.2 20609 4865.55 20607.9 4829.35 20598.4 C 4820.09 20596 4828.45 20587.3 4832.02 20584 C 4866.85 20550.8 4945.99 20534.9 5004.93 20545 C 4993.56 20500.3 4981.79 20455.5 4968.23 20410.9 C 4951.03 20353.6 4931.54 20296.8 4910.11 20240.3 Z M 4884.22 20178.4 C 4880.81 20179.2 4877.56 20180.1 4874.23 20180.9 C 4880.16 20184.6 4885.36 20188.9 4890.39 20193.2 C 4888.36 20188.3 4886.25 20183.4 4884.22 20178.4 Z M 6420.05 19852.3 C 6417.78 19853.8 6415.18 19855.2 6412.91 19856.7 C 6381.01 19877.3 6348.29 19897 6314.36 19915.9 C 6189.02 19943.9 6064.75 19977.1 5944.85 20017 C 5614.06 20059.4 5291.88 20092.2 4990.56 20154.8 C 5021.97 20230.4 5048.44 20306.6 5071.65 20382.7 C 5091.05 20353.3 5124.5 20325.1 5171.01 20300.2 C 5171.42 20300.4 5172.15 20300.3 5172.55 20300.7 C 5202.91 20319.8 5172.71 20364 5158.92 20387.1 C 5154.29 20395.1 5146.66 20404.9 5136.59 20414.8 C 5120.6 20421.9 5103.23 20428.1 5086.34 20434.7 C 5092.43 20455.9 5098.12 20476.8 5103.72 20498 C 5148.44 20484.8 5200.07 20477.4 5233.11 20485.1 C 5265.25 20492.8 5333.28 20484.4 5370.05 20489.3 C 5407.39 20494.2 5441.24 20507.3 5476.64 20516.4 C 5555.7 20536.8 5629.08 20569.8 5691.02 20610.3 C 5719.83 20629.2 5744.11 20654.2 5765.78 20680.6 C 5815.78 20659.4 5880.32 20674.1 5939.01 20697.4 C 6005.65 20622 6068.73 20544.7 6125.55 20465.2 C 6200.23 20360.9 6268.5 20254.3 6332.79 20146.6 C 6396.84 20039.2 6457.88 19933.4 6497.57 19819.9 C 6498.3 19818 6497.9 19816.1 6496.92 19814.6 L 6496.92 19814.5 C 6493.92 19809.8 6484.58 19807.2 6478.5 19811.9 C 6460.07 19825.6 6440.34 19838.5 6420.86 19851.2 C 6420.54 19851.6 6420.29 19851.9 6420.05 19852.3 Z M 7446.83 19007.4 C 7424.1 18997.8 7403.32 18987.3 7383.76 18976.2 C 7388.14 18995.2 7392.52 19014.3 7394.56 19033.9 C 7419.8 19278 7466.07 19492.5 7584.75 19701.7 C 7604.8 19625.4 7625.99 19548.9 7649.85 19472 C 7659.67 19440.8 7669.9 19409.4 7680.54 19378 C 7642.95 19404.7 7594.73 19425.2 7535.72 19436.1 C 7535.47 19435.7 7534.82 19435.5 7534.66 19435.2 C 7521.03 19403.3 7577.52 19365 7605.77 19344.1 C 7615.35 19336.9 7629.07 19328.6 7644.66 19321.2 C 7663.57 19318.8 7683.05 19318 7702.37 19316.7 C 7722.18 19261.7 7743.69 19206.8 7767.55 19152 C 7652.12 19112.6 7543.67 19068 7446.83 19007.4 Z M 9007.34 19538.9 C 8705.53 19460.4 8410.3 19362.2 8122.53 19266.3 C 8035.92 19237.5 7950.68 19211.6 7867.72 19185.3 C 7824.54 19285.7 7788.66 19387.6 7756.68 19489.5 C 7745.47 19525.4 7735.82 19561.3 7725.59 19597.3 C 7755.54 19608.2 7783.06 19621.5 7800.83 19641.1 C 7834.12 19678 7846.54 19719.4 7843.54 19760.1 C 7760.49 19751.2 7717.79 19705.5 7709.03 19654.6 C 7693.28 19711.9 7678.67 19769.1 7664.79 19826.2 C 7697.26 19871.3 7733.13 19916.5 7773.89 19961.6 C 7951.42 20158.7 8167.75 20333.5 8402.75 20494.9 C 8468.91 20437.8 8565.67 20395 8667.38 20392.6 C 8677.2 20392.3 8687.02 20392.5 8696.68 20392.7 C 8679.88 20373.9 8665.43 20354 8654.96 20333.8 C 8625.9 20277.5 8615.35 20228.5 8677.2 20183 C 8682.72 20178.9 8689.14 20175.1 8695.87 20171.6 C 8675.5 20165.6 8656.83 20159.8 8641 20155.2 C 8468.34 20103.4 8283.83 19996.2 8212.39 19868.1 C 8183.9 19816.9 8148.99 19735.7 8210.37 19688.5 C 8277.09 19637.1 8355.91 19650.4 8437.57 19676.6 C 8537.26 19708.7 8624.44 19759.5 8707.48 19809.8 C 8737.19 19827.7 8768.28 19844.6 8799.29 19861.6 C 8786.54 19804.7 8803.75 19747.9 8871.7 19712.1 C 8924.62 19684.1 8990.38 19699.7 9055.72 19732.2 C 9041.51 19667.9 9025.61 19603.4 9007.34 19538.9 Z M 11075.8 18461 C 11076.9 18460.7 11078.6 18460.8 11079.8 18460.5 C 11079.5 18458.3 11078.8 18456 11078.6 18453.7 C 11077.7 18456.1 11076.6 18458.6 11075.8 18461 Z M 3720.58 18685.2 C 3687.13 18686.4 3654.74 18685.4 3627.63 18677 C 3577.22 18661.3 3542.88 18637 3522.59 18609 C 3600.11 18588.5 3663.92 18606 3700.85 18638.1 C 3687.7 18605.7 3675.28 18573.2 3660.34 18541.3 C 3638.1 18495.2 3613.67 18449.3 3586.55 18404.7 C 3571.13 18412.7 3552.87 18418.6 3531.52 18423 C 3490.77 18431.3 3441.09 18439.8 3403.51 18438.5 C 3393.85 18438.1 3399.2 18428.8 3401.72 18425.1 C 3418.04 18399.9 3455.54 18377.3 3497.59 18364.4 C 3516.09 18358.8 3535.42 18355.6 3553.93 18355 C 3529.08 18318.6 3502.54 18283 3471.77 18249.5 C 3430.86 18205.6 3383.29 18165.1 3327.36 18133.6 C 3299.28 18118.3 3269.4 18104.7 3237.18 18096 C 3221.35 18090.7 3204.63 18088.3 3188.15 18084.8 C 3179.79 18083.5 3171.35 18082.9 3162.9 18082 L 3150.32 18080.6 L 3137.5 18080.4 C 3103.4 18078.6 3069.06 18083 3036.27 18089.1 C 3032.86 18090 3029.37 18090.7 3025.96 18091.7 C 3027.74 18102.8 3029.53 18113.8 3030.34 18124 C 3031.32 18135.9 3031.32 18147 3030.02 18157.6 C 3028.8 18166.7 3027.42 18174.7 3025.72 18181.8 C 3024.17 18189.2 3022.39 18196.5 3020.03 18202.5 C 3017.68 18208.1 3015 18214.3 3011.84 18219.6 C 3008.67 18225.2 3004.69 18228.9 3000.39 18234 C 2981.15 18218.7 2966.87 18202.9 2958.42 18187.8 C 2949.98 18172.8 2947.3 18157.9 2949.82 18143.4 C 2952.42 18131.2 2959.8 18119.8 2970.03 18109.9 C 2961.18 18113.4 2952.17 18116.6 2943.49 18120.5 C 2885.21 18147.4 2837.15 18186 2795.26 18227.1 C 2777.08 18245.2 2760.76 18264 2744.93 18283.2 C 2762.79 18287.6 2779.84 18295 2797.37 18304.9 C 2830.73 18324.1 2869.13 18348 2889.91 18370.1 C 2895.19 18375.6 2881.96 18377.7 2876.6 18378.5 C 2823.27 18385.9 2746.56 18364.6 2708.4 18331.1 C 2701.59 18340.7 2694.12 18349.9 2687.62 18359.5 C 2656.53 18405.7 2629.91 18453.1 2606.21 18500.9 C 2586.48 18540.3 2568.95 18580 2552.55 18619.6 C 2581.93 18631.4 2608.72 18644.5 2625.61 18662 C 2656.94 18694.4 2668.38 18728.5 2664.57 18760.6 C 2582.26 18747.5 2541.18 18707 2534.45 18664.7 C 2518.37 18706.2 2503.44 18747.7 2489.96 18789 C 2476.81 18829.3 2465.12 18869.3 2453.84 18909.2 C 2472.92 18909 2492.56 18911.6 2513.75 18917.1 C 2553.85 18927.4 2600.52 18941.7 2629.42 18959.9 C 2636.81 18964.6 2624.79 18970.4 2619.76 18972.7 C 2570.57 18994.4 2488.83 18988.5 2438.98 18963.6 C 2429.73 18998.4 2420.64 19033.2 2412.52 19067.5 C 2430.14 19068 2448.81 19071.3 2467.48 19077.7 C 2548.81 19105.9 2609.78 19166.8 2658.97 19219.1 C 2666.92 19227.6 2679.59 19240.5 2693.06 19255.7 C 2720.01 19228.5 2742.66 19198 2764.74 19170.5 C 2812.47 19111.1 2882.12 19053.3 2974.01 19112.1 C 3082.78 19181.6 3069.79 19328.3 3059.16 19422.2 C 3059.08 19422.7 3059 19423.3 3058.92 19423.8 C 3156.89 19432.8 3237.02 19482 3271.27 19559.7 C 3276.3 19571 3278.82 19582.7 3280.2 19594.3 C 3369.98 19639.2 3447.5 19712.9 3505.95 19781.6 C 3506.19 19748.4 3515.61 19717.9 3550.92 19710.8 C 3609.12 19698.9 3646.3 19719.7 3671.95 19749.8 C 3699.06 19712.8 3747.93 19691.4 3803.37 19683.9 C 3823.83 19675.6 3846.07 19667.5 3870.42 19662.4 C 3889.66 19658.1 3910.85 19656.1 3931.71 19657.4 C 3920.43 19553 3906.39 19447.1 3888.61 19340.5 C 3855.17 19338.3 3823.26 19333.6 3798.02 19322 C 3751.42 19300.6 3722.77 19271.6 3709.29 19240.1 C 3791.93 19229.9 3851.03 19256.3 3880.08 19293.3 C 3873.11 19253.9 3866.12 19214.4 3858.09 19174.8 C 3849.24 19131.4 3839.25 19088 3828.95 19044.6 C 3811.33 19049.7 3791.68 19052.4 3769.28 19052.9 C 3726.74 19053.7 3676.01 19052.9 3639.8 19043.2 C 3630.55 19040.8 3638.92 19032.2 3642.49 19028.8 C 3677.31 18995.6 3756.46 18979.8 3815.39 18989.9 C 3804.02 18945.1 3792.25 18900.3 3778.7 18855.6 C 3761.49 18798.6 3742.01 18741.6 3720.58 18685.2 Z M 4776.09 19959.8 C 4760.67 19967.9 4742.41 19973.8 4721.05 19978.3 C 4680.22 19986.5 4630.63 19995 4592.96 19993.6 C 4583.47 19993.3 4588.82 19984 4591.18 19980.3 C 4607.57 19955 4645.08 19932.4 4687.12 19919.6 C 4705.63 19913.9 4724.95 19910.9 4743.46 19910.1 C 4718.62 19873.9 4692.08 19838.2 4661.23 19804.8 C 4620.32 19760.8 4572.83 19720.3 4516.9 19688.8 C 4488.74 19673.5 4458.86 19659.8 4426.64 19651.2 C 4410.97 19645.9 4394.08 19643.5 4377.69 19640 C 4369.33 19638.7 4360.8 19638.1 4352.44 19637.1 L 4339.78 19635.7 L 4327.03 19635.6 C 4292.86 19633.8 4258.52 19638.2 4225.81 19644.4 C 4222.32 19645.2 4218.91 19646 4215.42 19646.8 C 4217.29 19657.9 4219.07 19669 4219.88 19679.2 C 4220.78 19691.1 4220.86 19702.2 4219.48 19712.9 C 4218.34 19721.9 4216.96 19729.9 4215.25 19736.9 C 4213.63 19744.6 4211.93 19751.6 4209.58 19757.7 C 4207.22 19763.4 4204.62 19769.5 4201.38 19774.9 C 4198.21 19780.4 4194.23 19784.1 4189.93 19789.2 C 4170.69 19773.8 4156.32 19758.1 4147.88 19743 C 4139.52 19728 4136.92 19713.1 4139.28 19698.6 C 4141.79 19686.3 4149.26 19674.9 4159.49 19665 C 4150.72 19668.6 4141.63 19671.8 4133.03 19675.7 C 4102.02 19690 4074.09 19707.8 4048.28 19727.2 C 4048.93 19734.1 4049.66 19741.1 4050.31 19747.9 C 4106.4 19791.1 4141.55 19843.1 4141.47 19904.6 C 4141.47 19915.2 4141.55 19926.8 4141.47 19938.8 C 4209.17 19912.2 4288.88 19901.7 4361.78 19917.1 C 4442.3 19934.2 4504.48 19975.1 4547.18 20025.6 C 4613.75 20021.6 4680.31 20015.4 4746.79 20003.9 C 4763.35 20001 4779.75 19997.7 4796.31 19994.7 C 4789.73 19983 4783.08 19971.3 4776.09 19959.8 Z M 8782.24 19006.4 C 8767.55 19015.2 8749.69 19021.3 8728.34 19025.4 C 8686.94 19033.9 8637.59 19041 8597.9 19038.1 C 8587.83 19037.5 8591.88 19026.9 8593.75 19022.6 C 8606.82 18993.5 8641.4 18968.6 8683.13 18954.7 C 8701.64 18948.6 8721.44 18945.7 8740.84 18945.7 C 8704.48 18897.1 8663.4 18850.1 8612.5 18810 C 8553.74 18761.5 8478.73 18723.5 8394.87 18711.1 L 8375.23 18709.1 C 8369.71 18719.4 8364.11 18729.7 8358.02 18739.3 C 8350.8 18750.8 8343.25 18761.3 8335.05 18769.9 C 8321.66 18785.6 8304.93 18798.9 8304.85 18808.2 C 8302.5 18817.7 8300.39 18824.1 8293 18831 C 8259.23 18797.6 8245.35 18764.7 8261.91 18737.4 C 8268.56 18724.7 8283.99 18715.2 8302.66 18708.8 C 8290.89 18709.6 8279.44 18710.8 8268.73 18712.9 C 8229.68 18720.7 8193.24 18737.9 8161.74 18759.7 C 8104.02 18799 8060.03 18850.1 8021.63 18903.1 C 8040.39 18906.1 8058.16 18912.8 8076.1 18922.5 C 8110.11 18941.1 8149.24 18964.9 8169.94 18989 C 8175.14 18995.1 8161.09 18999.5 8155.33 19001 C 8115.71 19011.7 8065.95 19007.5 8025.85 18991.7 C 8008.32 18984.8 7993.38 18975.3 7981.61 18964.4 C 7970 18983 7958.23 19001.3 7947.76 19020.3 C 8040.3 19054.1 8135.76 19084 8229.03 19113.9 C 8404.61 19170.3 8582.47 19223.1 8760.98 19274.7 C 8753.34 19266.2 8746.61 19257.6 8740.76 19248.6 C 8795.31 19234.5 8843.85 19241.7 8882.33 19261.7 C 8899.46 19270.7 8914.15 19282.5 8926.41 19295.6 C 8908.14 19248.6 8888.66 19201.8 8866.58 19155.6 C 8842.07 19104.9 8813.74 19055 8782.24 19006.4 Z M 11925.2 17895.2 C 11895.5 17906.7 11866.1 17915.4 11836.8 17918.7 C 11782.8 17922.9 11742 17922.4 11715.1 17918.5 C 11727.4 17899.7 11741.2 17884.4 11758 17872.9 C 11766.4 17867.4 11775.6 17862.5 11785.2 17859.1 C 11794.8 17856 11805 17853.8 11815.5 17852.7 C 11834.6 17850.1 11853.5 17853.1 11872.3 17857.7 C 11864.1 17852.7 11856.4 17847.2 11847.9 17842.5 C 11814.5 17824.7 11778.1 17810.3 11739.4 17801.2 C 11701 17791.7 11659.9 17789.6 11619.5 17792.2 C 11609.3 17792.8 11599.1 17793.4 11589.8 17795.5 C 11580.5 17797.4 11570.8 17798.2 11561.7 17800.9 L 11534.4 17809.3 C 11532.3 17810 11530.3 17811.1 11528.4 17811.9 C 11540.8 17822.1 11549.8 17835 11557.9 17850 C 11573.2 17879 11592.1 17913.3 11604.5 17935.5 C 11607.5 17941.5 11597.1 17938.6 11592.4 17937.1 C 11561.7 17926.6 11518.8 17909.6 11489.6 17884.1 C 11476.5 17872.9 11466.5 17859.9 11461.2 17846.4 L 11459.7 17847.3 L 11437.6 17863.5 L 11426.6 17871.4 L 11416.5 17880.3 C 11402.9 17892 11389.3 17903.8 11377.5 17916.7 L 11359.1 17935.5 L 11342.1 17955.4 C 11253 18062.1 11192.1 18181.4 11139.4 18300.2 C 11125 18333.5 11112.8 18366.9 11099.8 18400.3 C 11128.5 18412.4 11154.4 18426.3 11170.7 18445.9 C 11178.6 18455.2 11185 18464.8 11190.1 18474.6 C 11247.2 18495.5 11295.5 18533.1 11335.9 18566.1 C 11337 18567 11338.1 18568 11339.2 18568.8 C 11400.9 18554.5 11464.2 18543.6 11527.8 18535.8 C 11637.3 18522.7 11743.8 18525.5 11847.2 18540.6 C 11833 18513.9 11817 18470.2 11869.7 18472.9 C 11916 18475.2 11952.5 18507.5 11981 18530.7 C 11981.2 18531 11981.5 18531.2 11981.8 18531.5 C 11996 18509.5 12019.3 18491.9 12055.1 18482.2 C 12090.4 18472.7 12127.4 18480.6 12162.1 18496 C 12221 18495.2 12267.8 18518.4 12296.6 18551.1 C 12282.7 18506.3 12269 18461.4 12252.8 18416.8 C 12234.4 18367.5 12213.9 18318.4 12191.7 18269.7 C 12175.5 18277.2 12156.7 18281.8 12134.6 18284.4 C 12092.2 18289.3 12041.9 18292.6 12003.1 18286 C 11993.2 18284.4 11999.1 18274.1 12001.6 18270 C 12027.3 18230.3 12100.6 18203.5 12162.1 18208.8 C 12136.9 18159.3 12109.3 18110.4 12077 18063 C 12038.3 18007 11993.4 17953.1 11938.9 17905.7 C 11934.5 17902.1 11929.7 17898.7 11925.2 17895.2 Z M 15722.1 19399.5 C 15795.6 19449.1 15843.6 19519 15825.1 19592.3 C 15801.4 19687.4 15679 19757.1 15538.9 19790 C 15611.2 19824.6 15669.5 19874.1 15652.2 19941.7 C 15632 20020.5 15377.4 20005.7 15303.4 20000.2 C 15245.5 19996 15187.2 19985.2 15131.1 19969.4 C 15224.8 20066.8 15291.2 20172.7 15194.7 20204.9 C 15101.7 20235.9 14983.2 20168.9 14905.1 20115.3 C 14912.3 20143.3 14916.5 20178 14889.2 20189.7 C 14836.4 20212.3 14793.3 20132.4 14780.3 20110.3 C 14778.6 20107.5 14777 20104.5 14775.4 20101.5 C 14744.9 20180.7 14685.7 20256.9 14609.3 20321.5 C 14630.7 20319.4 14651.9 20317.6 14673.1 20316 C 14778.6 20308 14876.6 20346.1 14893.2 20426.1 C 14907.5 20495.2 14716 20562 14647.6 20579.2 C 14588.4 20594.2 14521.1 20604.1 14452.9 20607.1 C 14450.8 20609.5 14448.6 20611.9 14446.3 20614.3 C 14464.2 20622.7 14481.8 20631.3 14498.6 20640.1 C 14581.1 20684.2 14704.3 20747.2 14712.2 20829.2 C 14722.4 20937.1 14479.4 20893.6 14407 20867.1 C 14393.2 20862 14375.4 20856.1 14355.4 20849.7 C 14400.9 20892.5 14431.8 20940.9 14437.4 20992.8 C 14441.4 21030.1 14424 21062 14395.2 21088.9 C 14395.3 21088.9 14395.4 21088.9 14395.6 21088.9 C 14394.7 21089.7 14393.5 21090.4 14392.6 21091 C 14382.7 21100 14371.6 21108.5 14359.5 21116.3 C 14355.7 21118.7 14351.7 21121.1 14347.6 21123.5 C 14337.5 21129.5 14327.1 21135.2 14316.2 21140.5 C 14311.4 21142.8 14306.7 21145 14301.7 21147.3 C 14290.5 21152.3 14279.2 21156.9 14267.6 21161.3 C 14263.1 21163 14258.8 21164.8 14254.3 21166.3 C 14238.5 21171.8 14222.8 21177 14207.4 21181.4 C 14168.3 21192.4 14128.2 21198.8 14087.7 21202.3 C 14127.4 21227.1 14156.8 21256.5 14168.9 21292.3 C 14206.5 21401.7 14011.7 21403.3 13911.9 21386.4 C 13821.5 21371 13735.3 21343.3 13654 21308.7 C 13651 21309.9 13648 21311 13645 21312.2 C 13697.1 21379.7 13740.9 21450.3 13767.9 21525.3 C 13769.4 21529.6 13770.8 21534 13772.2 21538.7 C 13772.7 21540.6 13773.2 21542.7 13773.7 21544.6 C 13774.4 21547.5 13775.2 21550.2 13775.8 21553.1 C 13776.3 21555.5 13776.7 21558.1 13777.2 21560.5 C 13777.7 21563.2 13778.2 21565.7 13778.6 21568.3 C 13779 21571 13779.2 21573.7 13779.5 21576.4 C 13779.8 21579 13780.1 21581.5 13780.3 21584.1 C 13780.5 21586.9 13780.5 21589.7 13780.7 21592.5 C 13780.7 21595 13780.8 21597.4 13780.8 21599.7 C 13780.8 21602.7 13780.6 21605.5 13780.4 21608.5 C 13780.3 21610.8 13780.1 21613 13779.9 21615.2 C 13779.6 21618.2 13779.1 21621 13778.6 21623.9 C 13778.2 21625.9 13777.9 21628 13777.4 21630.1 C 13776.8 21633 13776 21635.5 13775.2 21638.2 C 13774.6 21640.3 13773.9 21642.1 13773.2 21644 C 13772.1 21646.6 13771 21649.1 13769.8 21651.6 C 13768.9 21653.3 13768 21655 13767 21656.6 C 13765.6 21659 13764 21661.2 13762.3 21663.2 C 13761.2 21664.8 13759.9 21666.2 13758.6 21667.5 C 13756.7 21669.5 13754.8 21671.4 13752.7 21673.1 C 13751.1 21674.3 13749.5 21675.4 13747.9 21676.4 C 13745.5 21678.1 13743.1 21679.5 13740.4 21680.8 C 13738.6 21681.6 13736.7 21682.3 13734.7 21683.1 C 13731.8 21684 13728.9 21685.1 13725.6 21685.8 C 13723.5 21686.3 13721.1 21686.4 13718.8 21686.8 C 13715.3 21687.4 13711.8 21687.8 13707.9 21687.9 C 13705.5 21687.9 13702.8 21687.7 13700.2 21687.6 C 13696 21687.4 13691.8 21687.4 13687.2 21686.7 C 13684.6 21686.3 13681.6 21685.5 13678.9 21685.1 C 13673.8 21684.1 13668.8 21683.3 13663.2 21681.8 C 13663.1 21681.8 13663 21681.7 13662.7 21681.7 C 13662.7 21681.6 13662.7 21681.6 13662.7 21681.6 C 13654.8 21679.5 13646.3 21676.8 13637.3 21673.4 C 13603.6 21660.7 13491 21587.5 13393 21504.6 C 13410.7 21547.2 13421.9 21590.9 13426.9 21635.2 C 13427 21635 13427.1 21634.9 13427.1 21634.9 C 13429.2 21653.2 13429.9 21671.7 13429.8 21690.1 C 13429.8 21696.4 13429.3 21702.4 13429 21708.7 C 13428.4 21722.4 13427.2 21736.1 13425.4 21749.7 C 13424.5 21756.1 13423.7 21762.4 13422.5 21768.7 C 13419.5 21786.1 13415.5 21803.2 13410.5 21820.3 C 13409.9 21822.2 13409.7 21824.1 13409.1 21825.9 C 13403.2 21844.9 13395.8 21863.6 13387.5 21882.1 C 13385.2 21887.4 13382.4 21892.6 13379.8 21898 C 13373 21911.8 13365.5 21925.5 13357.3 21939.2 C 13354.2 21944.4 13351.1 21949.6 13347.7 21954.8 C 13336 21972.7 13323.5 21990.4 13309.2 22007.6 C 13201.2 22138.1 13043.4 22229 12861.1 22285.5 C 12909.5 22301.7 12959.8 22315.5 13014.3 22324.1 C 13099.7 22337.6 13195.2 22335.1 13279.5 22319.8 C 13319.3 22312.6 13375.7 22299.4 13410.2 22322.6 C 13563.1 22425 13269.6 22535.4 13064 22587.3 C 13153.7 22598.1 13244.2 22598 13343.4 22594.2 C 13417.7 22591.5 13485.1 22607 13499.6 22666.5 C 13512.3 22718.1 13381 22762.8 13333.9 22781.7 C 13248.6 22815.8 13166.7 22823.8 13079.6 22822.1 C 13203.4 22890.9 13361.6 22992.3 13284.9 23037.2 C 13158.5 23111 13005.9 23047.8 12896.8 22975.8 C 12909 23092.4 12847 23221.8 12707.5 23285.5 C 12676.3 23299.6 12640.7 23266.5 12636.4 23247 C 12630.7 23219.8 12629.8 23192.8 12625.6 23166 C 12590.5 23198.5 12547.9 23228.6 12495.4 23256.2 C 12468.7 23270.1 12441 23283.7 12412.2 23296.7 C 12393.3 23305.2 12373.4 23313.1 12353.8 23321.1 C 12343.8 23325.3 12334.2 23329.6 12324.1 23333.5 C 12324.1 23333.5 12324.3 23333.4 12324.4 23333.4 C 12136.2 23405.9 11919.3 23450.5 11714.9 23430.1 C 11597.4 23418.4 11480.5 23392.2 11367.3 23357.4 C 11339 23393.9 11304.9 23427.1 11260.7 23455.5 C 11256.5 23458.1 11251.8 23460.2 11247.4 23462.6 C 11293.6 23456.7 11339.7 23449.1 11386.6 23441.2 C 11454.8 23429.8 11505.8 23447.4 11533.7 23493.3 C 11563 23541.4 11467.1 23588.7 11408.7 23617.3 C 11397.8 23622.7 11388.1 23627.4 11380.9 23631.3 C 11312 23668.2 11233.6 23684 11152.4 23692.8 C 11241 23703 11332 23704.4 11423.7 23722.6 C 11523 23742.3 11537 23828.8 11447.5 23857.2 C 11303 23902.9 11130.5 23929.9 10972.3 23935.5 C 10865.8 23939.2 10774.5 23916.5 10692.6 23876.5 C 10713 23924.1 10745.7 23968.3 10773 24015.1 C 10794.6 24052.3 10819.7 24111.1 10754.4 24130.6 C 10685.4 24151.2 10593 24078 10555.3 24047 C 10542.4 24036.5 10530.1 24024.1 10518.4 24010.4 C 10489.3 24032 10453.1 24049.9 10411.1 24064.2 C 10324.4 24093.5 10171.5 24109.7 10089.1 24064.3 C 10029.2 24031.3 10027.1 23988.7 10080 23952.1 C 10090.5 23944.7 10102.8 23938.4 10115.5 23932.4 C 9942.39 23924.3 9773.39 23870.7 9619.48 23801.9 C 9614.69 23799.7 9609.09 23796.7 9603.09 23793.1 C 9560.95 23767.6 9500.07 23709.9 9550.89 23679.4 C 9568.91 23668.5 9587.74 23663.6 9607.95 23661.3 C 9576.46 23646.8 9546.34 23630.9 9518.01 23613.5 C 9434.57 23658.8 9317.59 23670.1 9211.58 23667.5 C 9016.67 23662.8 8801.4 23575.8 8655.37 23487.5 C 8615.35 23463.3 8575.41 23438.4 8537.09 23412.6 C 8536.52 23414.8 8535.39 23416.9 8534.74 23419.1 C 8534.82 23419.4 8534.9 23419.6 8534.98 23419.9 C 8533.52 23425 8530.84 23429.8 8529.14 23434.8 C 8525.41 23445.4 8521.91 23456.1 8516.8 23466.1 C 8514.28 23471.3 8510.79 23476.1 8507.87 23481.1 C 8501.94 23491.1 8496.18 23501.2 8489.04 23510.6 C 8485.55 23515.3 8481.08 23519.5 8477.27 23524 C 8469.47 23533.2 8461.76 23542.4 8452.75 23551 C 8448.05 23555.3 8442.61 23559.1 8437.66 23563.4 C 8428.24 23571.4 8419.06 23579.5 8408.59 23586.8 C 8402.34 23591.3 8395.12 23595.1 8388.46 23599.3 C 8378.23 23605.8 8368.41 23612.5 8357.37 23618.3 C 8348.77 23622.9 8339.19 23626.8 8330.01 23631.1 C 8319.87 23635.7 8310.29 23640.8 8299.58 23645 C 8287.24 23650.1 8273.93 23654.1 8260.77 23658.5 C 8252.41 23661.3 8244.54 23664.6 8235.93 23667.1 C 8213.77 23673.6 8190.8 23679.4 8167.02 23684.1 C 7936.97 23731 7668.36 23678.7 7470.94 23591.1 C 7387.25 23554 7312.73 23506 7246.82 23453 C 7091.93 23491 6931.45 23471.1 6782.58 23427.5 C 6782.42 23427.7 6782.42 23427.9 6782.33 23428.1 C 6761.31 23481.2 6723.4 23517.6 6675.51 23543.8 C 6692.96 23542.8 6710.17 23543.5 6727.06 23547.5 C 6768.29 23557.3 6801.33 23591.9 6798.97 23623 C 6796.54 23656.1 6745.72 23678.1 6717.56 23701.2 C 6706.68 23710.1 6694.01 23717.9 6680.7 23725 C 6677.62 23726.6 6674.61 23728.4 6671.53 23729.9 C 6658.3 23736.4 6644.5 23742.4 6629.97 23747.5 C 6627.21 23748.6 6624.37 23749.3 6621.52 23750.4 C 6614.55 23752.7 6607.65 23755.2 6600.5 23757.3 C 6601.23 23756.8 6601.88 23756.4 6602.61 23756.1 C 6576.31 23763.9 6549.44 23770.7 6523.47 23775.7 C 6445.38 23791.1 6362.58 23793.5 6281.57 23785.5 C 6325.32 23810.1 6371.18 23830.7 6405.6 23863.2 C 6469.4 23923.5 6424.19 23961 6335.39 23973.9 C 6220.03 23990.6 6096.57 23959 6006.38 23906.9 C 5991.28 23898.1 5977.16 23889.3 5963.68 23880.6 C 5978.62 23950.8 5986.41 24043.3 5921.39 24088.5 C 5829.34 24152.3 5736.64 24056.3 5704.65 23999.3 C 5688.99 23971.2 5679.98 23942.5 5674.78 23913.3 C 5664.31 23920.4 5653.11 23926.2 5642.07 23932.5 C 5642.07 23932.9 5642.15 23933.3 5642.07 23933.7 C 5629.49 23941.1 5616.9 23948.1 5604.57 23954.5 C 5532.4 23992.9 5380.03 24043.5 5288.72 24035.2 C 5216.71 24028.6 5149.99 23985.3 5171.09 23929.2 C 5180.19 23905 5201.45 23887 5226.04 23870.7 C 5121.49 23885.9 5021.81 23890.6 4915.39 23881.7 C 4782.02 23870.5 4590.21 23818.7 4548.32 23715.6 C 4541.5 23698.9 4541.42 23683.1 4565.61 23675.2 C 4572.34 23673 4579.08 23671.2 4585.9 23669.5 C 4539.15 23653.8 4497.26 23632.3 4472.66 23598.7 C 4461.05 23582.7 4458.3 23569.1 4461.62 23557.6 C 4433.13 23568 4403.83 23577.2 4373.87 23585.3 C 4362.18 23588.5 4350.09 23590.9 4338.24 23593.8 C 4319.57 23598.4 4301.06 23603.2 4281.98 23607.1 C 4268.34 23609.8 4254.3 23611.9 4240.5 23614.3 C 4222.72 23617.5 4205.03 23620.9 4187.01 23623.6 C 4172.48 23625.7 4157.78 23627.4 4143.09 23629.2 C 4125.4 23631.4 4107.7 23633.8 4089.84 23635.8 C 4074.99 23637.4 4060.05 23638.6 4045.03 23640 C 4027.26 23641.6 4009.48 23643.4 3991.62 23644.7 C 3976.52 23645.9 3961.58 23646.8 3946.57 23647.9 C 3928.54 23649 3910.53 23650.3 3892.5 23651.3 C 3877.32 23652.2 3862.3 23653 3847.21 23653.8 C 3826.02 23654.9 3805.08 23656 3784.3 23657.1 C 3753.86 23658.6 3723.66 23660 3694.03 23661.5 C 3575.35 23667.6 3454.81 23672.6 3334.59 23672.5 C 3335.32 23672.5 3336.13 23672.6 3336.94 23672.7 C 3334.35 23672.7 3331.75 23672.5 3329.23 23672.5 C 3306.91 23672.5 3284.75 23672 3262.5 23671.5 C 3243.35 23671.2 3224.19 23670.8 3205.12 23670.1 C 3184.5 23669.4 3163.96 23668.1 3143.42 23666.9 C 3131.16 23666.2 3118.75 23665.9 3106.48 23665 C 3109 23664.9 3111.44 23665 3113.96 23664.9 C 2965.89 23654.6 2820.35 23632.7 2681.78 23588.8 C 2483.14 23526.2 2303.51 23438.6 2134.01 23341.8 C 2080.03 23376.5 2013.71 23400.4 1942.52 23423.5 C 1856.55 23451.2 1753.38 23467.5 1679.02 23417 C 1602.64 23365.3 1627.31 23293.1 1677.4 23227.4 C 1603.94 23233.1 1527.88 23226.9 1454.25 23211.9 C 1294.66 23179.5 1118.11 23128.1 1006 23035.6 C 919.063 22963.8 970.77 22908.7 1092.37 22891.3 C 1160.16 22881.6 1234.27 22887.5 1303.02 22884.4 C 1320.23 22883.5 1337.11 22883.1 1353.84 22882.6 C 1148.47 22798.9 973.453 22679.5 898.445 22512.3 C 844.219 22391.5 1002.84 22391.2 1165.6 22418.1 C 1140.92 22398.4 1117.94 22377.7 1096.84 22356.6 C 1028.73 22287.9 920.281 22162.5 964.766 22072.7 C 995.938 22009.9 1049.84 21984.3 1119.57 21980.8 C 1111.93 21978.4 1104.14 21975.4 1096.35 21972.2 C 1096.35 21972.3 1096.35 21972.3 1096.35 21972.3 C 1089.53 21969.3 1082.71 21966.3 1075.98 21963 C 1073.7 21961.8 1071.51 21960.5 1069.16 21959.3 C 1064.69 21956.9 1060.22 21954.4 1055.84 21951.9 C 1053.33 21950.3 1050.98 21948.6 1048.46 21947 C 1044.64 21944.5 1040.91 21941.9 1037.33 21939.3 C 1034.98 21937.4 1032.71 21935.6 1030.44 21933.7 C 1027.11 21931.1 1024.02 21928.3 1021.1 21925.4 C 1018.99 21923.5 1017.04 21921.4 1015.25 21919.4 C 1012.5 21916.5 1010.06 21913.3 1007.79 21910.3 C 1006.25 21908.3 1004.7 21906.3 1003.41 21904.2 C 1001.29 21900.8 999.672 21897.3 998.215 21893.7 C 997.398 21891.9 996.344 21890.1 995.777 21888.2 C 993.988 21882.8 992.852 21877.2 992.852 21871.6 C 992.527 21796.4 1094.16 21781.5 1172.73 21759.6 C 1183.37 21756.7 1194.81 21753.7 1206.91 21750.6 C 1175.5 21747.2 1144 21742.5 1111.86 21734.2 C 995.777 21703.9 873.77 21659.6 775.707 21605.1 C 696.156 21560.7 631.301 21498.6 657.844 21422.9 C 671.074 21385.3 705.25 21366.7 747.539 21358.1 C 632.598 21295.6 537.055 21209.8 515.867 21121.1 C 487.699 21002.5 599.641 21012.5 721.809 21054.7 C 703.223 21022 690.719 20988.9 686.172 20958.2 C 682.926 20936.1 686.582 20916.4 695.102 20898.2 C 640.637 20919.7 580.484 20935 529.426 20946.7 C 368.457 20983.2 186.461 20981.4 30.523 20934.6 C -4.547 20924 -30.523 20909.6 -48.867 20893 C -52.438 20889.7 -56.738 20886.7 -59.664 20883.3 L -59.746 20883.3 C -89.453 20848.4 -84.746 20804.8 -41.32 20760.9 C -23.785 20743.3 -4.707 20723.2 15.754 20702.9 C -0.078 20708.6 -15.832 20714.5 -31.25 20720.8 C -128.01 20760.2 -215.03 20761.3 -280.21 20689.3 C -300.02 20667.5 -302.94 20642.9 -296.29 20618.3 C -347.67 20617.3 -399.71 20611.5 -448.82 20602.4 C -667.91 20561.3 -882.05 20508.9 -1058.4 20402.9 C -1139.3 20354.2 -1327.9 20240 -1295.1 20149.9 C -1274.8 20093.9 -1162.4 20099.2 -1043.2 20121.4 C -1062.6 20107.5 -1081.6 20093.3 -1100.3 20078.4 C -1195.1 20002.9 -1339.3 19862.7 -1319.7 19751.9 C -1301.2 19647.9 -1137.8 19627.7 -1014.9 19639.2 C -974.75 19642.8 -933.43 19651.6 -892.03 19663.1 L -891.3 19662.4 C -932.95 19628.3 -972.39 19592.9 -1008.5 19555.5 C -1063.9 19498.1 -1125.2 19417.5 -1138.4 19347 C -1143.7 19319 -1130.4 19278.6 -1104.4 19246.7 C -1104.5 19246.8 -1104.9 19246.9 -1105 19247 C -1104.1 19245.9 -1103.1 19245 -1102.2 19243.9 C -1099.7 19241.1 -1097.1 19238.3 -1094.4 19235.7 C -1091.2 19232.4 -1087.8 19229.4 -1084.3 19226.5 C -1081.5 19224.2 -1078.7 19221.9 -1075.8 19219.8 C -1071.5 19216.8 -1067 19214.3 -1062.3 19211.7 C -1059.7 19210.3 -1057.1 19208.8 -1054.4 19207.6 C -1046.8 19204.2 -1038.7 19201.5 -1030.3 19199.9 C -861.02 19168 -684.22 19187 -514.81 19221.9 C -559.46 19192.7 -601.99 19157.2 -608.32 19116.7 C -622.69 19024.1 -506.69 19051.2 -403.36 19091.5 C -488.43 18973.1 -492.16 18828.6 -364.72 18717.5 C -272.34 18636.8 -183.13 18653.8 -66.074 18696.6 C -16.152 18714.9 32.309 18736.1 78.008 18760 C 48.379 18708.6 25.57 18642.6 76.711 18618.1 C 179.883 18568.3 320.156 18628.6 411.152 18667.1 C 489.242 18700.4 568.305 18744.1 638.199 18793.2 C 633.574 18761.1 638.441 18728.9 659.871 18698 C 705.738 18631.6 828.23 18661.3 893.328 18688.9 C 1053.65 18756.6 1197.82 18875.8 1202.36 19008.6 C 1227.29 18982.2 1255.13 18957.5 1286.95 18935.4 C 1350.75 18890.8 1415.94 18932.6 1459.61 18970 C 1502.23 19006.4 1529.5 19058.2 1549.87 19110.7 L 1549.87 19110.1 C 1544.19 19075.3 1531.61 19025.4 1577.88 19002.4 C 1635.35 18973.6 1702.49 19023.6 1737.23 19051.1 C 1759.31 19068.4 1778.3 19088.7 1795.27 19110.3 C 1789.91 19083.3 1800.22 19061 1847.3 19056.5 C 1895.2 19052 1958.75 19082.7 1997.8 19099.7 C 2019.79 19109.2 2040.42 19120.3 2060.06 19131.9 L 2060.14 19131.9 C 2032.71 19088.5 1999.01 19025.6 2043.58 19000.5 C 2114.69 18960.7 2238.24 19059.6 2278.75 19088.7 C 2284.18 19092.6 2289.05 19096.7 2294.25 19100.7 C 2297.42 19086.6 2300.09 19072.8 2303.42 19058.6 C 2321.69 18980.5 2343.69 18900.8 2368.6 18820 C 2358.62 18825.3 2348.31 18830 2338.74 18833.9 C 2315.11 18843.4 2247.33 18860.9 2224.6 18837.8 C 2221.19 18834.3 2222.73 18829.9 2226.23 18827.1 C 2262.75 18796.2 2308.78 18748.9 2392.55 18744 C 2422.67 18655 2457.9 18564.6 2503.12 18474.1 C 2509.69 18460.8 2517.24 18447.6 2524.22 18434.4 C 2484.93 18452.3 2435.82 18464.2 2376.4 18467.7 C 2376.15 18467.3 2375.59 18467.1 2375.42 18466.7 C 2365.03 18438 2423.96 18411.3 2454.08 18397 C 2464.31 18392.1 2478.27 18386.7 2494.35 18382.3 C 2513.1 18382.8 2532.17 18384.7 2551.09 18386.1 C 2563.1 18365.8 2575.36 18345.4 2588.92 18325.2 C 2622.04 18276 2659.86 18227.1 2706.78 18180.5 C 2708.08 18179.2 2709.7 18177.9 2711.08 18176.6 C 2698.99 18178.7 2686.89 18180.5 2675.69 18181.8 C 2661.32 18183.3 2636.32 18184.2 2613.35 18181.5 C 2590.46 18178.6 2569.59 18172.1 2565.78 18156.9 C 2564.64 18152.2 2568.78 18148 2573.82 18145.8 C 2604.01 18133 2639.65 18115.8 2680.89 18107.2 C 2700.69 18102.8 2722.53 18100.7 2743.8 18102.2 C 2758.65 18103.2 2773.18 18106.7 2787.55 18111.4 C 2816.04 18090.5 2847.54 18071.2 2883.74 18054.3 C 2902.33 18045.8 2921.16 18037.4 2942.03 18030.8 C 2961.91 18023.3 2983.99 18018.5 3005.59 18013.2 C 3050.23 18004.7 3095.61 17999.2 3142.2 18001.4 L 3159.58 18001.8 L 3176.87 18003.6 C 3188.31 18004.8 3200 18005.8 3211.37 18007.6 C 3231.33 18011.5 3251.46 18015.1 3270.46 18020.6 C 3265.83 18016.1 3261.04 18012.4 3256.66 18007.7 C 3243.02 17994.8 3230.03 17979.8 3216.72 17964.1 C 3203.25 17949 3189.93 17932.3 3177.11 17914.5 C 3177.76 17914.3 3177.92 17913.7 3178.65 17913.6 C 3205.2 17907.8 3239.37 17914.6 3267.13 17928.6 C 3296.11 17941.3 3316.73 17961.2 3331.5 17973.1 C 3341.25 17981.7 3350.42 17994 3357.4 18006.9 C 3356.5 18020.9 3353.1 18034.8 3348.71 18048.8 C 3364.38 18055.8 3379.72 18063 3394.17 18070.9 C 3463.33 18109.9 3517.23 18156.8 3562.69 18205.6 C 3632.34 18281.2 3683.64 18361.6 3727.15 18443.1 C 3731.29 18435 3736.08 18426.9 3740.87 18419.9 C 3753.61 18402.3 3793.79 18359 3831.7 18369.5 C 3837.47 18371.2 3839.82 18375.6 3839.34 18379.6 C 3833.97 18421.9 3831.7 18481 3764.9 18517.7 C 3812.71 18620.2 3850.45 18723.7 3882.2 18827.5 C 3901.6 18798.1 3934.96 18769.9 3981.47 18745.1 C 3981.88 18745.2 3982.61 18745.2 3983.01 18745.5 C 4013.37 18764.7 3983.1 18808.8 3969.38 18831.9 C 3964.75 18839.9 3957.2 18849.7 3947.13 18859.5 C 3931.14 18866.7 3913.77 18873 3896.81 18879.5 C 3918.48 18954.7 3937.07 19029.9 3953.38 19104.9 C 3960.04 19097.5 3967.27 19090.3 3974.25 19084.2 C 3991.38 19069.2 4045.68 19035.4 4078.39 19050.7 C 4083.51 19053.1 4084.16 19057.4 4082.37 19061 C 4064.03 19099.1 4045.03 19154.6 3969.86 19181.6 C 3990.97 19287.4 4008.26 19392.6 4022.22 19496.7 C 4046.41 19469.3 4084.57 19444.6 4135.14 19424.7 C 4135.54 19425 4136.27 19425 4136.6 19425.3 C 4162.73 19446.6 4125.72 19486.8 4108.02 19508.3 C 4101.93 19515.7 4092.76 19524.8 4081.24 19533.7 C 4064.35 19539.4 4046.33 19544 4028.63 19549.2 C 4031.96 19575.4 4035.37 19601.8 4038.3 19628 C 4049.74 19621.8 4060.86 19615.2 4073.28 19609.4 C 4091.95 19601 4110.62 19592.5 4131.48 19586 C 4151.37 19578.5 4173.45 19573.6 4195.13 19568.4 C 4239.77 19560 4285.15 19554.5 4331.58 19556.7 L 4349.03 19556.9 L 4366.32 19558.7 C 4377.93 19560 4389.54 19560.9 4400.9 19562.7 C 4420.95 19566.6 4441.01 19570.3 4460 19575.8 C 4455.45 19571.4 4450.58 19567.7 4446.12 19562.9 C 4432.64 19550 4419.49 19534.9 4406.26 19519.4 C 4392.78 19504.2 4379.47 19487.6 4366.57 19469.6 C 4367.22 19469.5 4367.54 19469 4368.19 19468.9 C 4394.81 19463 4428.91 19469.9 4456.75 19483.9 C 4485.65 19496.6 4506.27 19516.3 4521.04 19528.3 C 4530.78 19536.8 4539.87 19549.2 4546.94 19562.1 C 4546.04 19576.1 4542.55 19590.1 4538.25 19603.9 C 4553.92 19610.9 4569.26 19618.3 4583.71 19626 C 4652.87 19665 4706.77 19712 4752.23 19760.7 C 4815.06 19829.1 4862.63 19901.3 4903.38 19974.7 C 4914.34 19972.5 4925.13 19970.1 4936.09 19967.8 C 4952.65 19947.9 4987.8 19915.4 5021.16 19924.7 C 5027.01 19926.4 5029.36 19930.8 5028.79 19934.8 C 5028.22 19939.3 5027.66 19944.1 5027.08 19948.8 C 5328.9 19883.8 5626 19803.8 5928.62 19742 C 6135.62 19699.8 6335.14 19563.6 6415.1 19242 C 6351.7 16238.1 6490.43 13265.7 6487.18 10261.6 C 6487.02 10155.3 6486.29 10049 6485.72 9942.65 C 6452.2 9758.52 6466.81 9417.63 6406.57 9239.21 C 6346.5 9061.22 6294.79 9011.12 6155.26 8822.02 C 6083.26 8751.36 5983 8715.99 5892.41 8671.32 C 5879.26 8664.89 5864.73 8657.82 5849.31 8650.45 C 5845.41 8648.58 5841.19 8646.63 5837.13 8644.67 C 5825.04 8638.9 5812.53 8632.99 5799.47 8626.78 C 5794.68 8624.54 5789.89 8622.38 5785.02 8620.06 C 5771.87 8613.86 5758.31 8607.51 5744.51 8601.01 C 5739.56 8598.7 5734.61 8596.47 5729.58 8594.09 C 5714.97 8587.22 5700.03 8580.37 5684.93 8573.37 C 5642.23 8553.52 5598.72 8533.31 5556.67 8513.75 C 5554.8 8512.81 5552.94 8511.95 5551.07 8511.08 C 5533.46 8502.85 5516.33 8494.84 5499.6 8486.97 C 5497.58 8486.04 5495.55 8485.1 5493.52 8484.08 C 5476.23 8476 5459.75 8468.14 5443.92 8460.55 C 5443.27 8460.27 5442.54 8459.91 5441.81 8459.55 L 5441.89 8459.55 C 5354.06 8417.54 5293.34 8386.14 5302.76 8382.68 C 5312.5 8379.07 5325.97 8376.61 5340.91 8374.67 C 5340.5 8374.59 5340.1 8374.59 5339.78 8374.51 C 5343.1 8374.01 5347.16 8373.87 5350.73 8373.51 C 5356.25 8373.01 5361.69 8372.43 5367.7 8371.99 C 5373.38 8371.63 5379.55 8371.49 5385.63 8371.2 C 5392.54 8370.98 5399.19 8370.69 5406.58 8370.62 C 5412.26 8370.55 5418.35 8370.69 5424.36 8370.77 C 5432.88 8370.84 5441.32 8370.84 5450.33 8371.13 C 5453.82 8371.2 5457.56 8371.41 5461.13 8371.56 C 5501.64 8373.07 5546.12 8376.11 5592.07 8380.3 C 5592.79 8380.36 5593.53 8380.51 5594.34 8380.51 C 5608.95 8381.88 5623.56 8383.32 5638.25 8384.92 C 5640.93 8385.2 5643.69 8385.42 5646.45 8385.7 C 5660.58 8387.22 5674.7 8388.81 5688.75 8390.47 C 5691.99 8390.75 5695.24 8391.13 5698.49 8391.55 C 5712.37 8393.21 5726.08 8394.8 5739.72 8396.53 C 5742.89 8396.96 5746.05 8397.33 5749.22 8397.76 C 5762.94 8399.5 5776.33 8401.22 5789.48 8402.96 C 5792.4 8403.32 5795.24 8403.75 5798.09 8404.11 C 5811.16 8405.91 5823.9 8407.57 5836.24 8409.38 C 5839.08 8409.81 5841.84 8410.11 5844.6 8410.53 C 5856.86 8412.27 5868.63 8414 5879.91 8415.66 C 5882.35 8416.02 5884.62 8416.32 5887.06 8416.67 C 5898.42 8418.4 5909.38 8420.06 5919.6 8421.58 C 5920.9 8421.79 5922.04 8421.94 5923.26 8422.15 C 5957.51 8427.43 5985.36 8431.83 6001.84 8434.64 C 6082.93 8448.22 6161.26 8473.04 6243.17 8480.76 C 6203.48 8441.65 6160.69 8392.78 6107.69 8369.47 C 6048.19 8343.41 5935.03 8203.31 5977 8200.65 C 6148.28 8189.75 6356.08 8256.15 6508.29 8308.26 C 6566.33 8327.96 6623.96 8346.22 6678.43 8368.75 C 6669.66 8360.45 6661.22 8351.86 6653.02 8342.83 C 6633.54 8331.64 6513.24 8236.59 6578.02 8237.17 C 6736.39 8238.61 6974.47 8287.83 7102.9 8354.02 C 7141.86 8374.16 7181.31 8394.37 7221.33 8414.14 C 7279.29 8367.66 7335.38 8323.99 7409.41 8287.98 C 7448.05 8269.14 7494.97 8312.66 7499.59 8336.77 C 7502.19 8350.84 7504.47 8365.72 7506.33 8380.8 C 7555.36 8374.81 7608.05 8374.95 7653.51 8373.73 C 7755.46 8371.13 8280.18 8374.37 8255.66 8402.45 C 8238.05 8422.52 7901.25 8532.52 7783.54 8612.99 C 7587.51 8746.89 7478.09 8940.39 7415.25 9126.4 C 7343.66 9338.38 7305.26 9563.43 7295.77 9781.25 C 7294.95 9800.24 7294.79 9819.3 7295.03 9838.28 C 7264.19 10050 7163.61 16209.6 7184.07 17433.7 C 7191.05 17854.8 7160.53 18553.6 7629.88 18867.9 C 7696.69 18912.5 7771.61 18949.6 7850.43 18982.4 C 7868.94 18949.6 7888.91 18916.9 7911.24 18884.6 C 7933.32 18852.8 7957.59 18821.2 7985.75 18790.4 C 7988.19 18787.7 7991.19 18785.2 7993.71 18782.5 C 7980.31 18786.4 7966.84 18789.9 7954.82 18792.6 C 7924.95 18798.9 7845.97 18809.9 7839.39 18776.3 C 7838.58 18770.9 7843.54 18765.6 7849.22 18762.4 C 7881.45 18744 7922.44 18719.9 7969.52 18705.4 C 8008.89 18692.8 8052.07 18689.3 8089.66 18700.1 C 8129.27 18673.5 8178.62 18648.8 8239.91 18636.6 C 8255.09 18633.7 8271.98 18631.1 8285.94 18630.4 C 8300.39 18629.5 8314.51 18628.2 8329.04 18628 L 8372.63 18628.9 L 8415.98 18633.5 C 8473.29 18641.8 8526.7 18659.1 8572.97 18680.9 C 8596.67 18691.5 8617.21 18704.2 8638.08 18716.5 C 8651.88 18726 8665.67 18735.6 8678.75 18745.3 C 8676.96 18739.9 8675.09 18734.4 8673.22 18728.9 C 8667.78 18711.7 8665.02 18693.1 8661.46 18674.3 C 8658.29 18655.5 8657.72 18635.2 8656.34 18614.9 C 8657.07 18614.9 8657.64 18614.7 8658.37 18614.7 C 8673.96 18617 8687.02 18623.3 8699.53 18631.5 C 8711.94 18639.8 8723.31 18650 8731.35 18661 C 8739.71 18672 8747.26 18683.4 8752.37 18694.1 C 8757.24 18705 8761.14 18715.1 8764.38 18723.1 C 8769.25 18734 8771.45 18748.5 8771.45 18763 C 8763.25 18776 8753.67 18788.2 8743.44 18800.4 C 8789.14 18844.1 8825.91 18890.7 8859.12 18937.6 C 8887.12 18977.8 8911.06 19018.7 8933.39 19059.7 C 8936.8 19049.8 8940.94 19040.2 8945 19031.9 C 8955.06 19011.4 8991.84 18961.3 9031.94 18975.9 C 9038.19 18978.2 9041.11 18983.7 9041.11 18988.4 C 9041.84 19039.2 9045.58 19110.8 8979.9 19151.6 C 9012.13 19221.1 9039.73 19290.9 9063.84 19360.9 C 9180.97 19393.7 9298.19 19426.3 9415.24 19459.2 C 9425.96 19424.6 9450.72 19393.9 9497.23 19371.3 C 9653.74 19295.2 9870.15 19395.5 9977.79 19474.8 C 9992.89 19485.9 10006.4 19498.7 10020.6 19510.6 C 10029.8 19508.7 10039.2 19507.3 10048.3 19505.5 C 10063 19502.7 10076.6 19501.8 10090.1 19501 C 10094.8 19500.7 10099.7 19500.8 10104.5 19500.6 C 10091.3 19495.5 10078.1 19490.1 10066.3 19485.1 C 10051.5 19479.2 10023.5 19469.2 10002.1 19457.2 C 9981.11 19445.2 9966.5 19431.3 9990.04 19415.9 C 9997.35 19411.2 10010.5 19409.1 10020.8 19409.4 C 10028.1 19409.4 10035.6 19409.6 10043.4 19409.9 C 10050.8 19410.2 10056.9 19411.3 10064 19412.2 C 10077.6 19413.9 10091.5 19416 10105.2 19418.4 C 10119.1 19420.6 10133.3 19424.7 10146.7 19428.3 C 10160.1 19432.3 10173 19436.2 10184.9 19441.9 C 10208.8 19453 10228.8 19465.2 10241.4 19480.7 C 10250.2 19491.4 10254.8 19502.7 10256.8 19514.5 C 10291.8 19523 10323.7 19534.9 10354 19548.4 C 10428.7 19567.7 10498 19623 10555.4 19674.2 C 10574.3 19691.1 10590.4 19716.4 10602.2 19745 C 10604 19747.1 10605.8 19749.3 10607.5 19751.5 C 10624.3 19751.3 10641.4 19752.5 10658.4 19754.4 C 10661.6 19734 10664.5 19714 10667.9 19693.5 C 10677.1 19637 10686.9 19579.6 10697.2 19521.5 C 10654.9 19512 10618.6 19499 10593.7 19482.7 C 10465.2 19398.8 10579 19332.9 10719.3 19289.9 C 10531.1 19241.5 10356.5 19144.3 10326.8 19015.4 C 10294 18872.5 10543.8 18830.7 10761.9 18827.4 C 10690.9 18772.3 10632.4 18707.8 10625.4 18649.1 C 10614.8 18559.2 10706.9 18537.3 10815.7 18541.2 C 10847 18542.3 10878.9 18546.7 10910.6 18552.4 C 10917.6 18551.1 10924.9 18550.2 10932.5 18549.5 C 10962.6 18458.7 10995.2 18367.6 11034.9 18276.5 C 11047.9 18247.2 11061.5 18218 11075.7 18188.8 C 11069.5 18192.3 11064.6 18196.4 11057.7 18199.4 C 11021 18216.7 10976 18228.6 10925.1 18234.2 C 10924.8 18233.9 10924.1 18233.6 10924 18233.3 C 10914.5 18201.3 10974.5 18168.2 11005.7 18150.2 C 11016.3 18144.1 11030.8 18137.1 11047.1 18131.3 C 11066.3 18130.5 11086.1 18130.6 11105.8 18131.1 C 11144.8 18057.6 11189.9 17984.7 11248.8 17914 L 11267.4 17892.2 L 11288.2 17870.8 C 11301.6 17856.4 11317.4 17842.6 11333.3 17828.9 L 11345.3 17818.5 L 11358.7 17808.6 L 11385.7 17789.1 C 11395.5 17782.8 11406 17776.9 11416.3 17770.8 L 11431.8 17761.8 L 11449.3 17753.8 C 11461.3 17748.8 11472.3 17743.1 11485.3 17738.7 C 11498.4 17734.4 11511.7 17730.3 11525 17726.4 C 11538.5 17722.6 11553.4 17720.8 11567.7 17718 C 11582.5 17715.1 11595.9 17714.3 11609.4 17713.5 C 11614.2 17713.2 11619.1 17713.2 11623.9 17713 C 11610.7 17707.9 11597.6 17702.5 11585.8 17697.5 C 11570.8 17691.7 11542.9 17681.7 11521.6 17669.7 C 11500.5 17657.7 11485.9 17643.8 11509.4 17628.3 C 11516.8 17623.7 11529.9 17621.6 11540.2 17621.8 C 11547.5 17622 11555 17622.1 11562.7 17622.3 C 11570.3 17622.7 11576.4 17623.9 11583.3 17624.6 C 11597 17626.4 11610.9 17628.5 11624.7 17630.8 C 11638.5 17633.2 11652.8 17637.1 11666.1 17640.8 C 11679.5 17644.8 11692.4 17648.7 11704.3 17654.4 C 11728.2 17665.3 11748.1 17677.6 11760.7 17693.2 C 11769.6 17703.9 11774.1 17715.1 11776.2 17726.9 C 11827 17739.1 11873.1 17757.7 11913.8 17779.3 C 11955.3 17802 11990.1 17827.9 12022.6 17854.7 C 12081.4 17905.7 12127.5 17960.8 12167.2 18016.9 C 12171.7 17979.5 12188.1 17940.9 12218.5 17901.7 C 12219 17901.9 12219.7 17901.7 12220.2 17901.9 C 12242 17910.9 12250.6 17930.3 12255 17950.7 C 12258.6 17971.4 12255.7 17993 12254.9 18007.7 C 12254.1 18017.8 12250.5 18030.6 12245.1 18043.4 C 12232.3 18054 12217.6 18063.4 12203.4 18073.3 C 12255.9 18157.4 12297.3 18243 12332 18329.1 C 12336.9 18320 12342.3 18311.3 12347.4 18303.8 C 12360.8 18285 12406 18240.8 12442.7 18256.4 C 12448.5 18258.8 12450.3 18263.9 12449.6 18268.2 C 12441.8 18314.9 12435.4 18381.7 12365.6 18417.6 C 12377 18450 12387 18482.2 12397.1 18514.5 C 12433.2 18499 12477.1 18497.2 12526.2 18519 C 12596.6 18550 12638.5 18594.1 12660 18644.6 C 12662 18634.3 12664.8 18623.9 12669.3 18613.9 C 12682.6 18584 12719.1 18544.9 12765 18579.4 C 12789 18597.5 12804.5 18623.5 12812.5 18652.2 C 13105.3 18534.6 13473.8 18527.4 13818.7 18557.5 C 13797.4 18524.5 13778.3 18483.7 13802.3 18454.7 C 13847 18400.3 13966.6 18469.2 14000.1 18496 C 14026.7 18517.4 14049.4 18540 14068.4 18563.9 C 14071.8 18537.3 14078.6 18511.1 14092.4 18484.9 C 14113 18445.5 14166.1 18406.3 14226.8 18434.4 C 14301.8 18469.2 14317.2 18535.8 14296.7 18599.3 C 14341.6 18560.7 14408.2 18535.2 14449 18575.8 C 14462.8 18589.6 14471.3 18604.2 14476 18619.3 C 14475.9 18594.6 14478.8 18569.7 14487.4 18543 C 14500.1 18503.3 14548.8 18479.2 14596.7 18507.9 C 14635.1 18530.9 14657.1 18567.2 14668.1 18607.6 C 14692.7 18592.2 14723.9 18582.9 14763.4 18583.1 C 14855.8 18584 14929.9 18658.5 14961.6 18712.6 C 14984.5 18751.7 15000.2 18791.9 15007.8 18832.5 C 15172.5 18744.6 15409.6 18745.5 15532.9 18891.7 C 15559.1 18922.7 15571.6 18951 15573.8 18977 C 15594.7 18972.5 15616.1 18970.8 15637.1 18974.3 C 15675.7 18980.5 15691.5 19005.5 15694.1 19031.5 C 15699.3 19040 15700.1 19048.5 15693.2 19055.3 L 15693 19055.3 C 15691.6 19063.4 15689.1 19071 15685.8 19077.5 C 15682.5 19084.2 15678.5 19091.1 15673.6 19097.9 C 15773.4 19118.4 15884.6 19166.4 15901.3 19243.3 C 15919.4 19326.9 15817.8 19371.9 15722.1 19399.5" 
                />
              </g>
            </g>
          </svg>