<svg id="canvas" height="auto" xmlns="http://www.w3.org/2000/svg" version="1.1" xmlns:xlink="http://www.w3.org/1999/xlink" viewBox="0 0 900 512" width="auto" style="width: auto; height: auto;"><defs><linearGradient gradientTransform="matrix(6.123233995736766e-17,1,-1,6.123233995736766e-17,0,0)" id="SvgjsLinearGradient1076"><stop stop-color="#f00060" offset="0"/><stop stop-color="hsl(36, 100%, 47%)" offset="1"/></linearGradient><linearGradient gradientTransform="matrix(6.123233995736766e-17,1,-1,6.123233995736766e-17,0,0)" id="SvgjsLinearGradient1077"><stop stop-color="#f00030" offset="0"/><stop stop-color="hsl(48, 100%, 47%)" offset="1"/></linearGradient><linearGradient gradientTransform="matrix(6.123233995736766e-17,1,-1,6.123233995736766e-17,0,0)" id="SvgjsLinearGradient1078"><stop stop-color="#f00000" offset="0"/><stop stop-color="hsl(60, 100%, 47%)" offset="1"/></linearGradient><linearGradient gradientTransform="matrix(6.123233995736766e-17,1,-1,6.123233995736766e-17,0,0)" id="SvgjsLinearGradient1079"><stop stop-color="#f00090" offset="0"/><stop stop-color="hsl(24, 100%, 47%)" offset="1"/></linearGradient><linearGradient gradientTransform="matrix(6.123233995736766e-17,1,-1,6.123233995736766e-17,0,0)" id="SvgjsLinearGradient1080"><stop stop-color="#f06000" offset="0"/><stop stop-color="hsl(84, 100%, 47%)" offset="1"/></linearGradient><linearGradient gradientTransform="matrix(6.123233995736766e-17,1,-1,6.123233995736766e-17,0,0)" id="SvgjsLinearGradient1081"><stop stop-color="#f03000" offset="0"/><stop stop-color="hsl(72, 100%, 47%)" offset="1"/></linearGradient><linearGradient gradientTransform="matrix(6.123233995736766e-17,1,-1,6.123233995736766e-17,0,0)"><stop stop-color="#ef0000" offset="0"/><stop stop-color="#efef00" offset="1"/></linearGradient></defs><rect width="900" height="512" fill="url(#SvgjsLinearGradient1076)"/><path d="M0,512C0,443.3760381707217,-8.823529411764705,165.4040630490306,0,100.25622902433007C8.823529411764705,35.108394999629525,35.294117647058826,129.74467617383928,52.94117647058823,121.11299585179678C70.58823529411764,112.4813155297543,88.23529411764706,48.77280229352115,105.88235294117646,48.46614709207515C123.52941176470587,48.15949189062914,141.17647058823528,111.21274254096556,158.8235294117647,119.27306464312075C176.47058823529412,127.33338674527593,194.1176470588235,96.90762559420212,211.76470588235293,96.82807970500625C229.41176470588235,96.74853381581038,247.05882352941174,121.77535615845451,264.70588235294116,118.79578930794555C282.35294117647055,115.8162224574366,300,90.64062770540158,317.6470588235294,78.95067860195248C335.2941176470588,67.26072949850337,352.94117647058823,50.59123296923695,370.5882352941176,48.65609468725089C388.235294117647,46.720956405264836,405.88235294117646,66.02442657605225,423.52941176470586,67.33984891003615C441.17647058823525,68.65527124402006,458.8235294117647,49.7582585208666,476.4705882352941,56.54862869115428C494.1176470588235,63.33899886144196,511.7647058823529,110.98292965385372,529.4117647058823,108.08206993176222C547.0588235294117,105.18121020967072,564.7058823529411,42.06452965145512,582.3529411764705,39.143470358605306C599.9999999999999,36.222411065755495,617.6470588235294,86.05921910831685,635.2941176470588,90.55571417466336C652.9411764705882,95.05220924100988,670.5882352941177,76.49782035287906,688.2352941176471,66.1224407566844C705.8823529411765,55.74706116048974,723.5294117647059,32.774769395973394,741.1764705882352,28.30343659749542C758.8235294117646,23.832103799017442,776.470588235294,32.038987246500305,794.1176470588234,39.29444396581654C811.7647058823528,46.549900685132776,829.4117647058823,72.22100827060096,847.0588235294117,71.83617691339282C864.7058823529411,71.45134555618468,890.843137254902,-36.70851469186684,900,36.98545582256769C909.156862745098,110.67942633700221,901.6666666666666,434.49757597042793,902,514" fill="url(#SvgjsLinearGradient1077)" opacity="0.9"/><path d="M0,512C0,469.1553037831526,-8.823529411764705,304.79303896437364,0,254.93182269891565C8.823529411764705,205.07060643345764,35.294117647058826,225.59998598555134,52.94117647058823,212.83270240725201C70.58823529411764,200.0654188289527,88.23529411764706,175.729536876052,105.88235294117646,178.32812122911974C123.52941176470587,180.92670558218748,141.17647058823528,215.92891226113537,158.8235294117647,228.4242085256584C176.47058823529412,240.91950479018143,194.1176470588235,249.5065282112353,211.76470588235293,253.299898816258C229.41176470588235,257.09326942128075,247.05882352941174,262.8694172865497,264.70588235294116,251.18443215579475C282.35294117647055,239.4994470250398,300,203.7098167245334,317.6470588235294,183.18998803172832C335.2941176470588,162.67015933892324,352.94117647058823,118.1593945677035,370.5882352941176,128.06545999896423C388.235294117647,137.97152543022494,405.88235294117646,226.24310512932868,423.52941176470586,242.62638061929266C441.17647058823525,259.00965610925664,458.8235294117647,221.25171191821025,476.4705882352941,226.3651129387481C494.1176470588235,231.47851395928595,511.7647058823529,291.6626837112747,529.4117647058823,273.3067867425197C547.0588235294117,254.95088977376471,564.7058823529411,121.85494050338544,582.3529411764705,116.22973112621813C599.9999999999999,110.60452174905082,617.6470588235294,225.34070185232295,635.2941176470588,239.55553047951582C652.9411764705882,253.7703591067087,670.5882352941177,207.31235304926113,688.2352941176471,201.51870288937542C705.8823529411765,195.7250527294897,723.5294117647059,212.93293178078375,741.1764705882352,204.79362952020153C758.8235294117646,196.65432725961932,776.470588235294,148.99649868447028,794.1176470588234,152.68288932588217C811.7647058823528,156.36927996729406,829.4117647058823,231.44951922992524,847.0588235294117,226.91197336867293C864.7058823529411,222.37442750742062,890.843137254902,77.60960971981385,900,125.45761415836836C909.156862745098,173.30561859692287,901.6666666666666,449.2429356930614,902,514" fill="url(#SvgjsLinearGradient1078)" opacity="0.9"/><path d="M0,512C0,484.64487265714104,-8.823529411764705,380.25146192826384,0,347.8692359428462C8.823529411764705,315.4870099574286,35.294117647058826,324.69326027411654,52.94117647058823,317.70664408749417C70.58823529411764,310.7200279008718,88.23529411764706,306.9691758895529,105.88235294117646,305.9495388231121C123.52941176470587,304.9299017566713,141.17647058823528,307.30805136768066,158.8235294117647,311.5888216888495C176.47058823529412,315.8695920100184,194.1176470588235,313.3496869123167,211.76470588235293,331.6341607501253C229.41176470588235,349.9186345879339,247.05882352941174,420.2639600174307,264.70588235294116,421.29566471570115C282.35294117647055,422.3273694139716,300,361.1012559456382,317.6470588235294,337.8243889397479C335.2941176470588,314.54752193385764,352.94117647058823,283.7444393531041,370.5882352941176,281.63446268035955C388.235294117647,279.524486007615,405.88235294117646,311.17287661715335,423.52941176470586,325.16452890328065C441.17647058823525,339.15618118940796,458.8235294117647,350.88020720333617,476.4705882352941,365.5843763971233C494.1176470588235,380.2885455909105,511.7647058823529,433.81076347283323,529.4117647058823,413.3895440660036C547.0588235294117,392.968324659174,564.7058823529411,245.12004149370762,582.3529411764705,243.05705995614562C599.9999999999999,240.99407841858363,617.6470588235294,380.66607238857404,635.2941176470588,401.0116548406316C652.9411764705882,421.35723729268915,670.5882352941177,368.3313955476759,688.2352941176471,365.130554668491C705.8823529411765,361.9297137893061,723.5294117647059,396.4626816986286,741.1764705882352,381.80660956552225C758.8235294117646,367.1505374324159,776.470588235294,288.43116868036554,794.1176470588234,277.1941218698529C811.7647058823528,265.95707505934024,829.4117647058823,321.6758391725739,847.0588235294117,314.38432870244617C864.7058823529411,307.09281823231845,890.843137254902,200.17578049949424,900,233.44505904908655C909.156862745098,266.71433759867887,901.6666666666666,467.2408431748478,902,514" fill="url(#SvgjsLinearGradient1079)" opacity="0.9"/><path d="M0,512C0,504.8287164413333,-8.823529411764705,474.53443327623296,0,468.9722986479998C8.823529411764705,463.4101640197667,35.294117647058826,482.45448594859994,52.94117647058823,478.62719223060117C70.58823529411764,474.7998985126024,88.23529411764706,450.0824762524595,105.88235294117646,446.00853634000725C123.52941176470587,441.934596427555,141.17647058823528,454.6008152289484,158.8235294117647,454.1835527558875C176.47058823529412,453.76629028282656,194.1176470588235,419.17242437285034,211.76470588235293,443.5049615016417C229.41176470588235,467.837498630433,247.05882352941174,591.8531989365729,264.70588235294116,600.1787755286354C282.35294117647055,608.5043521206978,300,526.5686745323848,317.6470588235294,493.45842105401624C335.2941176470588,460.3481675756477,352.94117647058823,408.9270955423889,370.5882352941176,401.5172546584242C388.235294117647,394.1074137744595,405.88235294117646,438.1043395392788,423.52941176470586,448.99937575022807C441.17647058823525,459.89441196117735,458.8235294117647,444.9481382513445,476.4705882352941,466.8874719241199C494.1176470588235,488.82680559689527,511.7647058823529,592.0849761737713,529.4117647058823,580.6353777868803C547.0588235294117,569.1857793999893,564.7058823529411,414.34845787583714,582.3529411764705,398.1898816027741C599.9999999999999,382.0313053297111,617.6470588235294,466.8468071682961,635.2941176470588,483.6839201485021C652.9411764705882,500.52103312870815,670.5882352941177,491.5221064781692,688.2352941176471,499.21255948401046C705.8823529411765,506.90301248985173,723.5294117647059,553.1055787906746,741.1764705882352,529.8266381835499C758.8235294117646,506.54769757642515,776.470588235294,375.51294238813136,794.1176470588234,359.538915841262C811.7647058823528,343.56488929439263,829.4117647058823,441.84600181937753,847.0588235294117,433.98247890233364C864.7058823529411,426.11895598528974,890.843137254902,299.0215248227209,900,312.3577783389986C909.156862745098,325.69403185527636,901.6666666666666,480.39296305649975,902,514" fill="url(#SvgjsLinearGradient1080)" opacity="0.9"/><path d="M0,512C0,518.848374940978,-8.823529411764705,537.7897213503128,0,553.0902496458681C8.823529411764705,568.3907779414234,35.294117647058826,600.9732270575764,52.94117647058823,603.8031697733317C70.58823529411764,606.6331124890869,88.23529411764706,577.1154693775683,105.88235294117646,570.0699059403996C123.52941176470587,563.024342503231,141.17647058823528,556.6545536676332,158.8235294117647,561.5297891503199C176.47058823529412,566.4050246330065,194.1176470588235,573.0418472325215,211.76470588235293,599.3213188365197C229.41176470588235,625.6007904405179,247.05882352941174,713.7967901572063,264.70588235294116,719.2066187743094C282.35294117647055,724.6164473914125,300,662.6597400887814,317.6470588235294,631.7802905391384C335.2941176470588,600.9008409894954,352.94117647058823,535.0120563842349,370.5882352941176,533.9299214764513C388.235294117647,532.8477865686677,405.88235294117646,608.8370777111107,423.52941176470586,625.2874810924369C441.17647058823525,641.7378844737631,458.8235294117647,616.4335577696882,476.4705882352941,632.6323417644082C494.1176470588235,648.8311257591283,511.7647058823529,739.1789731659524,529.4117647058823,722.4801850607571C547.0588235294117,705.7813969555618,564.7058823529411,555.6608200654923,582.3529411764705,532.4396131332367C599.9999999999999,509.21840620098095,617.6470588235294,570.3559394626558,635.2941176470588,583.1529434672229C652.9411764705882,595.9499474717901,670.5882352941177,602.8069204533372,688.2352941176471,609.2216371606397C705.8823529411765,615.6363538679423,723.5294117647059,645.4201055702429,741.1764705882352,621.641243711038C758.8235294117646,597.8623818518331,776.470588235294,469.19931642816454,794.1176470588234,466.54846600541066C811.7647058823528,463.8976155826568,829.4117647058823,609.0813956434376,847.0588235294117,605.7361411745148C864.7058823529411,602.390886705592,890.843137254902,461.7662960542931,900,446.47693919187395C909.156862745098,431.1875823294548,901.6666666666666,502.746156531979,902,514" fill="url(#SvgjsLinearGradient1081)" opacity="0.9"/></svg>