          <svg xmlns="http://www.w3.org/2000/svg" version="1.1" viewBox="161.433 320.634 3537.167 2043.308">
            <g id="g8" transform="matrix(1.3333333,0,0,-1.3333333,0,2403.3067)">
              <g id="g10" transform="scale(0.1)">
                <path style="fill:#112d22;fill-opacity:1;fill-rule:nonzero;stroke:none" id="path56"
                d="m 22129.8,3856.7 c -314.4,-29.4 -622,-79.3 -938.5,-98.7 -63.8,-3.8 -127.8,-6.8 -191.7,-9.7 -159.1,-17.9 -317.6,-33.7 -472.8,-51.2 -637.4,-71.5 -1277.5,-127.8 -1916.7,-189 -649.2,-62.2 -1295.6,-144.8 -1947.1,-194.6 -260.1,-19.8 -521.8,-45.3 -783.6,-50.4 -226,-4.3 -460.1,2.5 -669.6,69.7 -14.8,4.8 -11.1,19.5 0,25.1 115.6,56.1 232.6,111.3 350.2,165.2 -129.2,-28.6 -259.1,-53.9 -389.4,-76.8 -258.8,-88 -544.9,-106.8 -838.4,-104.3 -345.7,-26 -695,-32.2 -1046.7,-17.7 -103.2,4.2 -206.4,10.1 -309.4,17 -1128,-82.8 -2256.9,-299.2 -3391.44,-164.4 -600.21,71.5 -1117.86,276.3 -1666.77,451.5 -178.91,57 -361.23,102.6 -546.14,139.6 -4.06,1.2 -7.96,2.4 -12.1,3.4 -9.01,1.8 -18.26,3 -27.28,4.7 -86.53,16.7 -173.55,31.9 -261.22,44.5 -1.37,0.3 -2.76,0.5 -4.14,0.7 -88.96,12.8 -178.58,23 -268.68,31.6 -25.65,2.6 -51.55,4.6 -77.36,6.7 -66.24,5.7 -132.89,10.2 -199.7,13.8 -27.52,1.5 -55.03,3.1 -82.63,4.2 -90.03,3.7 -180.37,6.3 -271.37,6.4 -15.75,0 -21.75,10.5 -18.34,18.9 -524.88,35.6 -1048.71,78.8 -1572.69,120.5 -649.89,51.8 -1296.93,110.1 -1952.01,87.1 -126.31,-4.4 -252.7,-9.8 -379.09,-15.7 -58.69,-2.9 -117.22,-6.4 -175.82,-9.5 -48.23,-2.7 -96.36,-5.8 -144.58,-8.8 -138.4,-8.6 -276.48,-19.2 -414.32,-31.3 285.17,-50.3 564.66,-117.7 842.92,-199.1 267.88,-78.4 511.24,-192.7 776.45,-274.4 293.6,-90.8 597.04,-162.2 895.76,-243.6 562.62,-153.4 1086.2,-364.5 1628.86,-547.8 67.7,-22.9 135.8,-44.2 204.15,-64.5 23.46,-6.9 47.08,-13.3 70.62,-20 44.98,-12.8 89.95,-25.4 135.16,-37.3 29.39,-7.7 58.77,-15 88.24,-22.3 38.64,-9.6 77.28,-19.1 116.16,-28.2 35.23,-8.2 70.46,-16.2 105.77,-24 354.17,-78.1 716.12,-136.6 1082.87,-194.9 -62.34,9.8 -124.44,19.6 -186.54,29.6 340.86,-126.2 686.5,-245.3 1040.75,-351.4 85.07,-25.5 170.71,-50 256.75,-73.8 276.16,-65.2 547.45,-127.8 814.27,-187.7 467.24,-87.6 941.99,-147.7 1425.79,-201.7 375.2,-41.9 752.1,-86.5 1120.6,-151.9 123.8,-22 246.4,-46.9 367.8,-74.5 163.9,-37.3 325,-80.7 482.9,-131.3 69.3,-9.5 138.4,-19.7 206.8,-32 126.8,-22.7 250.1,-52.4 373.2,-82.4 348.9,-31 691.8,-51.4 1029.6,-60 419.2,-10.7 831.1,-3.8 1237.5,24 581.3,39.7 1151.9,122.3 1718.6,251.8 307.2,70.2 613.5,154 919.5,253.6 -60.9,-11.2 -122.4,-20.9 -185,-26.8 -9.3,-1.1 -16.4,-0.6 -22.4,0.1 117.4,18 231.3,43.6 343.5,72.1 480.3,163.3 960.9,363.3 1445.8,606.3 350.7,186.7 685.7,381.4 1024.4,573.6 -0.1,-0.1 -0.2,-0.1 -0.4,-0.2 339.7,192.6 683.2,382.8 1050.3,559.9 429.5,207.4 875.9,401 1330.6,587.7 74.7,35.4 149.3,70.5 223.5,105.1 -752.5,-127.9 -1284.2,-216.8 -1345.4,-222.5" 
                />
              </g>
            </g>
          </svg>