          <svg xmlns="http://www.w3.org/2000/svg" version="1.1" viewBox="161.433 320.634 3537.167 2043.308">
            <g id="g8" transform="matrix(1.3333333,0,0,-1.3333333,0,2403.3067)">
              <g id="g10" transform="scale(0.1)">
                <path style="fill:#0b2319;fill-opacity:1;fill-rule:nonzero;stroke:none" id="path60"
                d="m 24979,4652.3 c -483.7,-185.8 -968,-371.4 -1444.7,-563.1 -19.9,-3.4 -39.4,-6.7 -59.1,-10 -74.2,-34.6 -148.8,-69.7 -223.5,-105.1 -454.7,-186.7 -901.1,-380.3 -1330.6,-587.7 -367.1,-177.1 -710.6,-367.3 -1050.3,-559.9 0.2,0.1 0.3,0.1 0.4,0.2 -338.7,-192.2 -673.7,-386.9 -1024.4,-573.6 -484.9,-243 -965.5,-443 -1445.8,-606.3 -112.2,-28.5 -226.1,-54.1 -343.5,-72.1 6,-0.7 13.1,-1.2 22.4,-0.1 62.6,5.9 124.1,15.6 185,26.8 -306,-99.6 -612.3,-183.4 -919.5,-253.6 -566.7,-129.5 -1137.3,-212.1 -1718.6,-251.8 -406.4,-27.8 -818.3,-34.7 -1237.5,-24 -337.8,8.6 -680.7,29 -1029.6,60 -123.1,30 -246.4,59.7 -373.2,82.4 -68.4,12.3 -137.5,22.5 -206.8,32 -157.9,50.6 -319,94 -482.9,131.3 -121.4,27.6 -244,52.5 -367.8,74.5 -368.5,65.4 -745.4,110 -1120.6,151.9 -483.8,54 -958.55,114.1 -1425.79,201.7 -266.82,59.9 -538.11,122.5 -814.27,187.7 -86.04,23.8 -171.68,48.3 -256.75,73.8 171.76,21.4 344.1,40.1 517.16,55.9 -453.19,98.8 -912.32,192.6 -1371.37,265.9 -366.75,58.3 -728.7,116.8 -1082.87,194.9 -35.31,7.8 -70.54,15.8 -105.77,24 -38.88,9.1 -77.52,18.6 -116.16,28.2 -29.47,7.3 -58.85,14.6 -88.24,22.3 -45.21,11.9 -90.18,24.5 -135.16,37.3 -23.54,6.7 -47.16,13.1 -70.62,20 -68.35,20.3 -136.45,41.6 -204.15,64.5 -542.66,183.3 -1066.24,394.4 -1628.86,547.8 -298.72,81.4 -602.16,152.8 -895.76,243.6 -265.21,81.7 -508.57,196 -776.45,274.4 -278.26,81.4 -557.75,148.8 -842.92,199.1 -145.87,25.8 -293.36,47 -442.8,63.3 -144.737,15.8 -291.507,27.1 -440.706,33.3 -326.726,13.7 -658.9726,6.9 -986.113,3.6 V 3731 3016.1 1947.5 571.699 177.102 v -609.5 -665.702 -1135 -78.5 h 9002.069 439.15 445.73 174.13 164.29 5107.83 7477.9 c 56.2,8 109.6,18.5 160.8,30.6 l 5485.9,-11.5 v 147.3 2237.7 87.402 96.602 398.797 188.898 1022.801 327.2 209.7 372.1 179 1565.3 284.1 45 439.7 235.3 C 27020,5298.2 25949.9,5025 24979,4652.3"
                />
              </g>
            </g>
          </svg>